<?xml version="1.0" encoding="utf-8"?>
<!-- Generator: Adobe Illustrator 22.1.0, SVG Export Plug-In . SVG Version: 6.00 Build 0)  -->
<svg version="1.1" id="Vectors" xmlns="http://www.w3.org/2000/svg" xmlns:xlink="http://www.w3.org/1999/xlink" x="0px" y="0px"
	 width="1000px" height="500px" viewBox="0 0 1000 500" style="enable-background:new 0 0 1000 500;" xml:space="preserve">
<style type="text/css">
	.st0{fill:#CDDAE8;}
	.st1{opacity:0.2;fill:#278BD6;}
	.st2{fill:#278BD6;}
	.st3{opacity:0.3;fill:#064E72;}
	.st4{fill:#2E3547;}
	.st5{fill:#4E5C75;}
	.st6{fill:#A0C2EC;}
	.st7{opacity:0.3;fill:#278BD6;}
	.st8{opacity:0.1;fill:#278BD6;}
	.st9{fill:#EF4B4B;}
	.st10{opacity:0.2;}
	.st11{fill:#FFFFFF;}
	.st12{opacity:0.1;}
	.st13{opacity:0.35;fill:#278BD6;}
	.st14{opacity:0.35;}
	.st15{opacity:0.3;fill:#2E3547;}
	.st16{fill:#FCD381;}
	.st17{opacity:0.35;fill:#FCD381;}
	.st18{opacity:0.3;fill:#FCD381;}
	.st19{fill:none;}
	.st20{display:none;fill:#EF4B4B;}
	.st21{fill:#F8C069;}
	.st22{fill:#E23537;}
	.st23{fill:#237BC9;}
</style>
<path class="st1" d="M633.96,250c0.01,0,0.03,0,0.04,0c3.31,0,6-5.37,6-12c0-6.63-2.69-12-6-12c-0.71,0-1.38,0.26-2.01,0.71
	c0.07,0.1,0.13,0.2,0.22,0.3c1.34,1.52,1.57,5.07,2.26,6.98c0.84,2.32,1.55,4.45,1.45,6.96C635.79,244.01,634.89,247.02,633.96,250z
	"/>
<path class="st1" d="M496,250c-0.28,0-0.55,0.05-0.81,0.12c1.2,4.51,3.59,8.88,3.71,13.5c0.1,3.63-1.56,7.01-3.04,10.36
	c0.05,0,0.1,0.01,0.14,0.01c3.31,0,6-5.37,6-12C502,255.37,499.31,250,496,250z"/>
<path class="st1" d="M765.89,366.01c-0.14,0.33-0.28,0.64-0.41,0.94c0.17,0.03,0.34,0.05,0.52,0.05c3.31,0,6-5.37,6-12
	c0-6.63-2.69-12-6-12c-0.14,0-0.29,0.02-0.43,0.04c0.47,1.13,1.06,2.22,1.48,3.37c1.34,3.68,0.79,6.95,0.46,10.75
	C767.23,360.38,767.2,362.99,765.89,366.01z"/>
<path class="st1" d="M704,282c-0.67,0-1.31,0.23-1.91,0.64c0.13,0.47,0.38,0.94,0.82,1.38c5.11,4.99,3.62,14.88,1,21.98
	c0.03,0,0.06,0.01,0.09,0.01c3.31,0,6-5.37,6-12C710,287.37,707.31,282,704,282z"/>
<path class="st1" d="M555.41,290c-0.09,0.62-0.14,1.25-0.17,1.89c0.25,0.06,0.51,0.11,0.77,0.11c3.31,0,6-5.37,6-12
	c0-6.63-2.69-12-6-12c-0.52,0-1.02,0.15-1.5,0.4c0.08,0.26,0.19,0.52,0.37,0.8c0.01,0.11,0.01,0.21,0.02,0.32
	c0.25,0.95,0.93,1.51,1.72,1.74c1.55,2.91,1.56,8.12,1.24,10.68C557.5,284.75,555.83,287.19,555.41,290z"/>
<path class="st1" d="M422.8,279.45c-1.2-3.35-0.85-6.87-0.48-8.05c0.79-2.47,0.67-5.26,0.66-7.8c-0.01-3.34-0.3-5.42,1.85-7.24
	c-0.53-0.25-1.07-0.37-1.62-0.34c-3.31,0.22-5.64,5.75-5.21,12.36C418.35,273.65,420.34,277.99,422.8,279.45z"/>
<path class="st1" d="M296.74,261.41c-0.58-0.29-1.18-0.42-1.79-0.37c-3.3,0.29-5.51,5.88-4.93,12.48c0.58,6.6,3.72,11.72,7.02,11.43
	c0.34-0.03,0.67-0.13,0.98-0.27c-1.24-3.42-3.62-6.25-3.44-10.37C294.77,269.93,295.85,265.69,296.74,261.41z"/>
<path class="st1" d="M225.2,272.19c-0.41-0.13-0.83-0.18-1.25-0.15c-3.3,0.29-5.51,5.88-4.93,12.48c0.58,6.6,3.72,11.72,7.02,11.43
	c0.65-0.06,1.25-0.32,1.8-0.76c-1.36-3.08-3.22-5.76-3.75-9.2c-0.68-4.41-0.57-8.77,0.94-12.97
	C225.14,272.73,225.19,272.46,225.2,272.19z"/>
<path class="st1" d="M350.97,170.96c0.52-0.04,1.01-0.23,1.47-0.52c-1.93-3.21-4.12-6.23-4.59-10.09
	c-0.42-3.49-0.26-7.53,1.79-10.46c0.81-0.42,1.38-1.28,1.62-2.21c-0.71-0.46-1.46-0.7-2.22-0.64c-3.3,0.27-5.55,5.84-5.01,12.45
	C344.55,166.09,347.67,171.23,350.97,170.96z"/>
<path class="st1" d="M364.11,266.17c-0.38-0.11-0.77-0.16-1.15-0.12c-3.3,0.29-5.51,5.88-4.93,12.48c0.58,6.6,3.72,11.72,7.02,11.43
	c0.12-0.01,0.23-0.04,0.35-0.07c-0.84-2.19-1.47-4.5-1.54-6.76c-0.07-2.2,0.14-4.25-0.7-6.35c-1.1-2.73-2.06-4.1-0.9-7.04
	C362.65,268.73,363.31,267.26,364.11,266.17z"/>
<path class="st4" d="M239.97,323.65c1.05-1.24,2.18-2.68,3.18-4.11c1.03-1.44,1.99-2.92,2.9-4.44l1.34-2.29l1.25-2.35
	c0.76-1.6,1.52-3.2,2.18-4.85c0.35-0.81,0.69-1.64,0.96-2.48c0.29-0.84,0.6-1.67,0.87-2.52c0.46-1.71,1.01-3.41,1.35-5.16
	c0.84-3.47,1.16-7.04,1.45-10.63l0-0.06c0.04-0.55,0.53-0.96,1.08-0.92c0.5,0.04,0.89,0.45,0.92,0.93c0.23,3.72,0.26,7.5-0.32,11.23
	c-0.44,3.75-1.43,7.41-2.65,10.99c-1.23,3.58-2.85,7.01-4.76,10.28c-0.97,1.62-2.02,3.2-3.13,4.74c-1.16,1.53-2.3,2.97-3.74,4.42
	c-0.78,0.78-2.04,0.79-2.83,0.01c-0.75-0.74-0.79-1.92-0.12-2.71L239.97,323.65z"/>
<path class="st4" d="M431.87,302.78c0.33-0.28,0.77-0.69,1.16-1.07c0.41-0.37,0.79-0.8,1.19-1.2c0.77-0.84,1.53-1.69,2.26-2.58
	c1.49-1.75,2.83-3.64,4.12-5.56c2.62-3.83,4.77-7.99,6.79-12.21l1.44-3.21c0.46-1.08,0.85-2.19,1.29-3.28
	c0.89-2.18,1.57-4.43,2.35-6.66c0.75-2.24,1.3-4.54,1.99-6.8l1.68-6.91l0.01-0.04c0.13-0.54,0.67-0.87,1.21-0.73
	c0.5,0.12,0.82,0.61,0.75,1.11c-0.34,2.38-0.7,4.77-1.09,7.15l-0.75,3.55c-0.27,1.18-0.47,2.37-0.81,3.54
	c-0.64,2.33-1.2,4.7-2.03,6.98c-0.39,1.15-0.76,2.31-1.18,3.45l-1.34,3.4c-1.85,4.51-4.12,8.87-6.77,13.01
	c-1.38,2.04-2.81,4.05-4.43,5.94c-0.78,0.96-1.65,1.86-2.52,2.76c-0.46,0.44-0.88,0.89-1.37,1.31c-0.48,0.44-0.93,0.82-1.54,1.28
	c-0.88,0.67-2.13,0.49-2.8-0.39c-0.64-0.85-0.5-2.05,0.3-2.73L431.87,302.78z"/>
<path class="st4" d="M790.78,355.1c-0.61,2.85-1.44,5.58-2.43,8.29c-0.96,2.71-2.15,5.35-3.45,7.94c-1.29,2.6-2.83,5.09-4.55,7.46
	c-1.76,2.35-3.77,4.55-6.05,6.48c-0.84,0.71-2.1,0.61-2.82-0.23c-0.67-0.8-0.62-1.96,0.1-2.69l0.07-0.07
	c1.88-1.9,3.7-3.86,5.33-6.03c1.63-2.17,3.18-4.41,4.6-6.77c1.42-2.36,2.7-4.81,3.93-7.3c1.2-2.49,2.34-5.07,3.34-7.63l0.01-0.04
	c0.2-0.52,0.78-0.77,1.3-0.57C790.63,354.14,790.88,354.63,790.78,355.1z"/>
<path class="st4" d="M486.77,295.58c-3.8-2.34-7.1-5.03-10.3-7.96c-3.13-2.98-6.08-6.16-8.67-9.64c-2.62-3.45-4.84-7.22-6.65-11.16
	c-1.84-3.94-2.97-8.18-3.68-12.43c-0.09-0.54,0.28-1.06,0.82-1.15c0.5-0.08,0.98,0.22,1.12,0.69l0.02,0.08l0.9,2.96
	c0.15,0.49,0.28,0.99,0.45,1.47l0.59,1.43c0.41,0.94,0.73,1.91,1.18,2.84l1.39,2.74c2.01,3.57,4.2,7.04,6.87,10.17
	c2.65,3.13,5.45,6.15,8.52,8.89c1.52,1.39,3.07,2.74,4.68,4.01c1.58,1.29,3.27,2.55,4.87,3.66l0.08,0.06
	c0.9,0.63,1.13,1.88,0.49,2.78C488.85,295.9,487.67,296.13,486.77,295.58z"/>
<path class="st4" d="M422.89,307.97c-0.83,4.7-1.91,9.26-3.11,13.83c-1.2,4.56-2.62,9.06-4.09,13.54
	c-1.54,4.46-3.25,8.87-5.12,13.21c-1.91,4.32-4.04,8.56-6.46,12.62c-0.28,0.48-0.9,0.63-1.37,0.35c-0.43-0.26-0.6-0.79-0.42-1.24
	l0.02-0.04c0.88-2.16,1.88-4.24,2.68-6.42c0.9-2.13,1.69-4.32,2.49-6.49c1.55-4.37,3.05-8.76,4.36-13.21
	c1.38-4.43,2.59-8.91,3.78-13.4c0.6-2.24,1.16-4.49,1.71-6.75c0.58-2.24,1.09-4.52,1.61-6.74l0.01-0.04
	c0.25-1.08,1.33-1.74,2.4-1.49C422.41,305.92,423.07,306.93,422.89,307.97z"/>
<path class="st4" d="M327.37,153.75c0.86,3.34,2.04,6.7,3.38,9.91c1.37,3.22,2.93,6.34,4.71,9.3l1.38,2.2l1.5,2.11
	c0.47,0.72,1.04,1.36,1.56,2.04c0.54,0.67,1.04,1.36,1.64,1.97c2.21,2.62,4.79,4.83,7.42,6.98l0.12,0.1
	c0.85,0.7,0.98,1.96,0.28,2.81c-0.67,0.82-1.87,0.97-2.72,0.35c-0.76-0.55-1.5-1.12-2.24-1.68l-1.11-0.86l-1.02-0.96
	c-0.67-0.65-1.37-1.27-2.02-1.94c-0.63-0.69-1.24-1.39-1.84-2.1c-2.36-2.86-4.47-5.93-6.13-9.21c-1.72-3.25-3.17-6.61-4.3-10.08
	c-1.15-3.47-2.04-6.96-2.55-10.62c-0.08-0.55,0.3-1.05,0.85-1.13c0.51-0.07,0.98,0.25,1.11,0.74L327.37,153.75z"/>
<path class="st4" d="M504,262c0,2.62-0.32,5.26-1.25,7.85c-0.49,1.28-1.13,2.56-2.12,3.75c-0.48,0.6-1.12,1.16-1.87,1.62
	c-0.78,0.46-1.75,0.76-2.76,0.78c-1.01-0.03-1.97-0.35-2.73-0.82c-0.74-0.48-1.36-1.04-1.83-1.64c-0.96-1.2-1.56-2.48-2.02-3.76
	c-0.89-2.57-1.16-5.19-1.12-7.78c0.07-2.59,0.46-5.18,1.42-7.67c0.48-1.25,1.09-2.48,2.03-3.6c0.46-0.56,1.05-1.09,1.74-1.52
	c0.71-0.42,1.59-0.69,2.5-0.71c0.91,0.02,1.78,0.28,2.5,0.71c0.69,0.43,1.3,0.94,1.77,1.5c0.97,1.11,1.64,2.32,2.16,3.57
	c0.52,1.24,0.9,2.52,1.16,3.81C503.82,259.38,503.95,260.69,504,262z M500,262c0.05-2.22-0.17-4.47-0.79-6.53
	c-0.32-1.02-0.76-2-1.33-2.76c-0.29-0.39-0.61-0.68-0.93-0.9c-0.33-0.2-0.64-0.28-0.95-0.31c-0.31,0.03-0.62,0.11-0.95,0.31
	c-0.32,0.22-0.66,0.5-0.96,0.88c-0.61,0.74-1.09,1.71-1.46,2.72c-0.73,2.06-0.97,4.34-0.94,6.59c0.07,2.25,0.45,4.5,1.24,6.48
	c0.38,0.98,0.89,1.9,1.47,2.57c0.29,0.35,0.6,0.58,0.88,0.75c0.28,0.15,0.51,0.18,0.71,0.2c0.21-0.03,0.42-0.08,0.69-0.24
	c0.26-0.19,0.56-0.42,0.83-0.77c0.55-0.68,1.02-1.6,1.37-2.58C499.64,266.45,499.96,264.22,500,262z"/>
<path class="st4" d="M642,238c0,2.62-0.32,5.26-1.25,7.85c-0.49,1.28-1.13,2.56-2.12,3.75c-0.48,0.59-1.12,1.16-1.87,1.62
	c-0.78,0.46-1.75,0.76-2.76,0.78c-1.01-0.03-1.97-0.35-2.73-0.82c-0.74-0.48-1.36-1.05-1.83-1.64c-0.96-1.2-1.56-2.48-2.02-3.76
	c-0.89-2.57-1.16-5.19-1.12-7.78c0.07-2.59,0.46-5.18,1.42-7.67c0.48-1.25,1.09-2.48,2.03-3.6c0.46-0.56,1.05-1.09,1.74-1.52
	c0.71-0.42,1.59-0.69,2.5-0.71c0.91,0.02,1.78,0.28,2.5,0.71c0.69,0.43,1.3,0.94,1.77,1.5c0.97,1.11,1.64,2.32,2.16,3.57
	c0.52,1.24,0.9,2.52,1.16,3.81C641.82,235.38,641.95,236.69,642,238z M638,238c0.05-2.22-0.17-4.47-0.79-6.53
	c-0.32-1.02-0.76-2-1.33-2.76c-0.29-0.39-0.61-0.68-0.93-0.9c-0.33-0.2-0.64-0.28-0.95-0.31c-0.31,0.03-0.62,0.11-0.95,0.31
	c-0.32,0.22-0.66,0.5-0.96,0.88c-0.61,0.74-1.09,1.71-1.46,2.72c-0.73,2.06-0.97,4.34-0.94,6.59c0.07,2.25,0.45,4.5,1.24,6.48
	c0.38,0.98,0.89,1.9,1.47,2.57c0.29,0.35,0.6,0.58,0.88,0.75c0.28,0.15,0.51,0.18,0.71,0.2c0.21-0.03,0.42-0.08,0.69-0.24
	c0.26-0.19,0.56-0.42,0.83-0.77c0.55-0.68,1.02-1.6,1.37-2.58C637.64,242.45,637.96,240.22,638,238z"/>
<path class="st4" d="M431.98,267.48c0.17,2.61,0.03,5.27-0.74,7.91c-0.41,1.31-0.96,2.63-1.87,3.88c-0.44,0.63-1.04,1.23-1.76,1.74
	c-0.75,0.51-1.7,0.87-2.7,0.95c-1.01,0.03-1.99-0.22-2.78-0.64c-0.77-0.43-1.42-0.95-1.93-1.52c-1.04-1.13-1.72-2.37-2.26-3.62
	c-1.06-2.51-1.5-5.11-1.63-7.69c-0.1-2.59,0.13-5.2,0.92-7.75c0.39-1.27,0.93-2.54,1.79-3.73c0.42-0.59,0.98-1.15,1.64-1.63
	c0.69-0.47,1.54-0.79,2.45-0.87c0.91-0.04,1.8,0.17,2.54,0.54c0.72,0.38,1.36,0.85,1.86,1.38c1.04,1.04,1.79,2.21,2.39,3.42
	c0.6,1.21,1.06,2.46,1.41,3.73C431.63,264.88,431.85,266.18,431.98,267.48z M427.99,267.74c-0.1-2.22-0.46-4.45-1.21-6.47
	c-0.39-1-0.89-1.95-1.51-2.67c-0.31-0.37-0.66-0.63-0.99-0.84c-0.34-0.18-0.66-0.23-0.96-0.25c-0.3,0.05-0.61,0.15-0.92,0.37
	c-0.31,0.24-0.63,0.54-0.9,0.94c-0.56,0.78-0.98,1.77-1.28,2.81c-0.59,2.1-0.69,4.4-0.51,6.64c0.22,2.24,0.74,4.46,1.66,6.38
	c0.45,0.96,1.01,1.84,1.64,2.47c0.31,0.33,0.64,0.54,0.92,0.7c0.29,0.13,0.52,0.15,0.72,0.15c0.2-0.05,0.42-0.1,0.67-0.28
	c0.25-0.2,0.53-0.45,0.78-0.83c0.51-0.71,0.91-1.66,1.2-2.66C427.92,272.2,428.1,269.95,427.99,267.74z"/>
<path class="st4" d="M371.97,277.3c0.23,2.61,0.14,5.27-0.56,7.93c-0.38,1.32-0.9,2.65-1.79,3.92c-0.43,0.63-1.01,1.25-1.72,1.78
	c-0.73,0.53-1.68,0.91-2.68,1.01c-1.01,0.06-1.99-0.17-2.79-0.58c-0.78-0.41-1.44-0.92-1.96-1.48c-1.06-1.11-1.77-2.33-2.34-3.57
	c-1.11-2.48-1.61-5.07-1.8-7.65c-0.16-2.58,0.01-5.2,0.75-7.77c0.37-1.28,0.87-2.56,1.71-3.77c0.41-0.6,0.95-1.17,1.61-1.66
	c0.67-0.48,1.53-0.83,2.43-0.92c0.91-0.06,1.8,0.13,2.55,0.49c0.73,0.37,1.38,0.82,1.89,1.34c1.06,1.02,1.83,2.17,2.46,3.37
	c0.63,1.19,1.12,2.43,1.49,3.7C371.56,274.71,371.81,276,371.97,277.3z M367.98,277.65c-0.15-2.21-0.55-4.44-1.35-6.44
	c-0.41-0.99-0.93-1.93-1.57-2.63c-0.32-0.36-0.67-0.62-1.01-0.81c-0.35-0.17-0.66-0.22-0.97-0.22c-0.3,0.06-0.6,0.16-0.92,0.39
	c-0.3,0.25-0.62,0.55-0.88,0.96c-0.54,0.79-0.94,1.79-1.21,2.84c-0.54,2.11-0.59,4.41-0.36,6.65c0.27,2.23,0.84,4.44,1.8,6.34
	c0.47,0.95,1.05,1.82,1.69,2.43c0.32,0.32,0.65,0.52,0.94,0.68c0.29,0.13,0.52,0.14,0.73,0.13c0.2-0.05,0.41-0.11,0.67-0.3
	c0.24-0.21,0.52-0.47,0.76-0.84c0.49-0.72,0.88-1.68,1.14-2.69C368.01,282.12,368.14,279.86,367.98,277.65z"/>
<path class="st4" d="M303.97,272.3c0.23,2.61,0.14,5.27-0.56,7.93c-0.38,1.32-0.9,2.65-1.79,3.92c-0.43,0.63-1.01,1.25-1.72,1.78
	c-0.73,0.53-1.68,0.91-2.68,1.01c-1.01,0.06-1.99-0.17-2.79-0.58c-0.78-0.41-1.44-0.92-1.96-1.48c-1.06-1.11-1.77-2.33-2.34-3.57
	c-1.11-2.48-1.61-5.07-1.8-7.65c-0.16-2.58,0.01-5.2,0.75-7.77c0.37-1.28,0.87-2.56,1.71-3.77c0.41-0.6,0.95-1.17,1.61-1.66
	c0.67-0.48,1.53-0.83,2.43-0.92c0.91-0.06,1.8,0.13,2.55,0.49c0.73,0.37,1.38,0.82,1.89,1.34c1.06,1.02,1.83,2.17,2.46,3.37
	c0.63,1.19,1.12,2.43,1.49,3.7C303.56,269.71,303.81,271,303.97,272.3z M299.98,272.65c-0.15-2.21-0.55-4.44-1.35-6.44
	c-0.41-0.99-0.93-1.93-1.57-2.63c-0.32-0.36-0.67-0.62-1.01-0.81c-0.35-0.17-0.66-0.22-0.97-0.22c-0.3,0.06-0.6,0.16-0.92,0.39
	c-0.3,0.25-0.62,0.55-0.88,0.96c-0.54,0.79-0.94,1.79-1.21,2.84c-0.54,2.11-0.59,4.41-0.36,6.65c0.27,2.23,0.84,4.44,1.8,6.34
	c0.47,0.95,1.05,1.82,1.69,2.43c0.32,0.32,0.65,0.52,0.94,0.68c0.29,0.13,0.52,0.14,0.73,0.13c0.2-0.05,0.41-0.11,0.67-0.3
	c0.24-0.21,0.52-0.47,0.76-0.84c0.49-0.72,0.88-1.68,1.14-2.69C300.01,277.12,300.14,274.86,299.98,272.65z"/>
<path class="st4" d="M357.97,158.35c0.21,2.61,0.11,5.27-0.61,7.92c-0.39,1.32-0.92,2.64-1.81,3.91c-0.43,0.63-1.02,1.24-1.74,1.77
	c-0.74,0.52-1.68,0.9-2.68,1c-1.01,0.05-1.99-0.19-2.79-0.59c-0.78-0.42-1.44-0.93-1.95-1.49c-1.06-1.12-1.76-2.34-2.32-3.58
	c-1.1-2.49-1.58-5.08-1.75-7.67c-0.14-2.59,0.05-5.2,0.8-7.76c0.37-1.28,0.89-2.56,1.74-3.76c0.41-0.6,0.96-1.17,1.62-1.65
	c0.68-0.48,1.53-0.82,2.43-0.91c0.91-0.06,1.8,0.14,2.55,0.5c0.73,0.37,1.37,0.83,1.88,1.35c1.06,1.03,1.82,2.19,2.44,3.38
	c0.62,1.2,1.1,2.44,1.47,3.71C357.58,155.76,357.82,157.05,357.97,158.35z M353.99,158.68c-0.13-2.21-0.53-4.44-1.31-6.45
	c-0.4-0.99-0.92-1.93-1.55-2.64c-0.32-0.36-0.67-0.62-1-0.82c-0.34-0.17-0.66-0.22-0.97-0.23c-0.3,0.06-0.61,0.16-0.92,0.38
	c-0.3,0.25-0.62,0.55-0.88,0.96c-0.54,0.79-0.95,1.79-1.23,2.83c-0.56,2.11-0.62,4.41-0.41,6.64c0.25,2.23,0.81,4.45,1.76,6.36
	c0.46,0.95,1.04,1.82,1.67,2.44c0.31,0.33,0.64,0.53,0.93,0.68c0.29,0.13,0.52,0.14,0.73,0.14c0.2-0.05,0.41-0.11,0.67-0.29
	c0.25-0.21,0.52-0.46,0.76-0.84c0.49-0.72,0.89-1.67,1.16-2.68C353.99,163.14,354.13,160.89,353.99,158.68z"/>
<path class="st4" d="M232.97,283.3c0.23,2.61,0.14,5.27-0.56,7.93c-0.38,1.32-0.9,2.65-1.79,3.92c-0.43,0.63-1.01,1.25-1.72,1.78
	c-0.73,0.53-1.68,0.91-2.68,1.01c-1.01,0.06-1.99-0.17-2.79-0.58c-0.78-0.41-1.44-0.92-1.96-1.48c-1.06-1.11-1.77-2.33-2.34-3.57
	c-1.11-2.48-1.61-5.07-1.8-7.65c-0.16-2.58,0.01-5.2,0.75-7.77c0.37-1.28,0.87-2.56,1.71-3.77c0.41-0.6,0.95-1.17,1.61-1.66
	c0.67-0.48,1.53-0.83,2.43-0.92c0.91-0.06,1.8,0.13,2.55,0.49c0.73,0.37,1.38,0.82,1.89,1.34c1.06,1.02,1.83,2.17,2.46,3.37
	c0.63,1.19,1.12,2.43,1.49,3.7C232.56,280.71,232.81,282,232.97,283.3z M228.98,283.65c-0.15-2.21-0.55-4.44-1.35-6.44
	c-0.41-0.99-0.93-1.93-1.57-2.63c-0.32-0.36-0.67-0.62-1.01-0.81c-0.35-0.17-0.66-0.22-0.97-0.22c-0.3,0.06-0.6,0.16-0.92,0.39
	c-0.3,0.25-0.62,0.55-0.88,0.96c-0.54,0.79-0.94,1.79-1.21,2.84c-0.54,2.11-0.59,4.41-0.36,6.65c0.27,2.23,0.84,4.44,1.8,6.34
	c0.47,0.95,1.05,1.82,1.69,2.43c0.32,0.32,0.65,0.52,0.94,0.68c0.29,0.13,0.52,0.14,0.73,0.13c0.2-0.05,0.41-0.11,0.67-0.3
	c0.24-0.21,0.52-0.47,0.76-0.84c0.49-0.72,0.88-1.68,1.14-2.69C229.01,288.12,229.14,285.86,228.98,283.65z"/>
<path class="st4" d="M564,280c0,2.62-0.32,5.26-1.25,7.85c-0.49,1.28-1.13,2.56-2.12,3.75c-0.48,0.6-1.12,1.16-1.87,1.62
	c-0.78,0.46-1.75,0.76-2.76,0.78c-1.01-0.03-1.97-0.35-2.73-0.82c-0.74-0.48-1.36-1.04-1.83-1.64c-0.96-1.2-1.56-2.48-2.02-3.76
	c-0.89-2.57-1.16-5.19-1.12-7.78c0.07-2.59,0.46-5.18,1.42-7.67c0.48-1.25,1.09-2.48,2.03-3.6c0.46-0.56,1.05-1.09,1.74-1.52
	c0.71-0.42,1.59-0.69,2.5-0.71c0.91,0.02,1.78,0.28,2.5,0.71c0.69,0.43,1.3,0.94,1.77,1.5c0.97,1.11,1.64,2.32,2.16,3.57
	c0.52,1.24,0.9,2.52,1.16,3.81C563.82,277.38,563.95,278.69,564,280z M560,280c0.05-2.22-0.17-4.47-0.79-6.53
	c-0.32-1.02-0.76-2-1.33-2.76c-0.29-0.39-0.61-0.68-0.93-0.9c-0.33-0.2-0.64-0.28-0.95-0.31c-0.31,0.03-0.62,0.11-0.95,0.31
	c-0.32,0.22-0.66,0.5-0.96,0.88c-0.61,0.74-1.09,1.71-1.46,2.72c-0.73,2.06-0.97,4.34-0.94,6.59c0.07,2.25,0.45,4.5,1.24,6.48
	c0.38,0.98,0.89,1.9,1.47,2.57c0.29,0.35,0.6,0.58,0.88,0.75c0.28,0.15,0.51,0.18,0.71,0.2c0.21-0.03,0.42-0.08,0.69-0.24
	c0.26-0.19,0.56-0.42,0.83-0.77c0.55-0.68,1.02-1.6,1.37-2.58C559.64,284.45,559.96,282.22,560,280z"/>
<path class="st4" d="M774,355c0,2.62-0.32,5.26-1.25,7.85c-0.49,1.28-1.13,2.56-2.12,3.75c-0.48,0.6-1.12,1.16-1.87,1.62
	c-0.78,0.46-1.75,0.76-2.76,0.78c-1.01-0.03-1.97-0.35-2.73-0.82c-0.74-0.48-1.36-1.04-1.83-1.64c-0.96-1.2-1.56-2.48-2.02-3.76
	c-0.89-2.57-1.16-5.19-1.12-7.78c0.07-2.59,0.46-5.18,1.42-7.67c0.48-1.25,1.09-2.48,2.03-3.6c0.46-0.56,1.05-1.09,1.74-1.52
	c0.71-0.42,1.59-0.69,2.5-0.71c0.91,0.02,1.78,0.28,2.5,0.71c0.69,0.43,1.3,0.94,1.77,1.5c0.97,1.11,1.64,2.32,2.16,3.57
	c0.52,1.24,0.9,2.52,1.16,3.81C773.82,352.38,773.95,353.69,774,355z M770,355c0.05-2.22-0.17-4.47-0.79-6.53
	c-0.32-1.02-0.76-2-1.33-2.76c-0.29-0.39-0.61-0.68-0.93-0.9c-0.33-0.2-0.64-0.28-0.95-0.31c-0.31,0.03-0.62,0.11-0.95,0.31
	c-0.32,0.22-0.66,0.5-0.96,0.88c-0.61,0.74-1.09,1.71-1.46,2.72c-0.73,2.06-0.97,4.34-0.94,6.59c0.07,2.25,0.45,4.5,1.24,6.48
	c0.38,0.98,0.89,1.9,1.47,2.57c0.29,0.35,0.6,0.58,0.88,0.75c0.28,0.15,0.51,0.18,0.71,0.2c0.21-0.03,0.42-0.08,0.69-0.24
	c0.26-0.19,0.56-0.42,0.83-0.77c0.55-0.68,1.02-1.6,1.37-2.58C769.64,359.45,769.96,357.22,770,355z"/>
<path class="st4" d="M712,294c0,2.62-0.32,5.26-1.25,7.85c-0.49,1.28-1.13,2.56-2.12,3.75c-0.48,0.6-1.12,1.16-1.87,1.62
	c-0.78,0.46-1.75,0.76-2.76,0.78c-1.01-0.03-1.97-0.35-2.73-0.82c-0.74-0.48-1.36-1.04-1.83-1.64c-0.96-1.2-1.56-2.48-2.02-3.76
	c-0.89-2.57-1.16-5.19-1.12-7.78c0.07-2.59,0.46-5.18,1.42-7.67c0.48-1.25,1.09-2.48,2.03-3.6c0.46-0.56,1.05-1.09,1.74-1.52
	c0.71-0.42,1.59-0.69,2.5-0.71c0.91,0.02,1.78,0.28,2.5,0.71c0.69,0.43,1.3,0.94,1.77,1.5c0.97,1.11,1.64,2.32,2.16,3.57
	c0.52,1.24,0.9,2.52,1.16,3.81C711.82,291.38,711.95,292.69,712,294z M708,294c0.05-2.22-0.17-4.47-0.79-6.53
	c-0.32-1.02-0.76-2-1.33-2.76c-0.29-0.39-0.61-0.68-0.93-0.9c-0.33-0.2-0.64-0.28-0.95-0.31c-0.31,0.03-0.62,0.11-0.95,0.31
	c-0.32,0.22-0.66,0.5-0.96,0.88c-0.61,0.74-1.09,1.71-1.46,2.72c-0.73,2.06-0.97,4.34-0.94,6.59c0.07,2.25,0.45,4.5,1.24,6.48
	c0.38,0.98,0.89,1.9,1.47,2.57c0.29,0.35,0.6,0.58,0.88,0.75c0.28,0.15,0.51,0.18,0.71,0.2c0.21-0.03,0.42-0.08,0.69-0.24
	c0.26-0.19,0.56-0.42,0.83-0.77c0.55-0.68,1.02-1.6,1.37-2.58C707.64,298.45,707.96,296.22,708,294z"/>
<g>
	<path class="st5" d="M264.91,286.66l-13.79,2.43c-1.09,0.19-2.13-0.53-2.32-1.62l-5.56-31.51c-0.19-1.09,0.53-2.13,1.62-2.32
		l13.79-2.43c1.09-0.19,2.13,0.53,2.32,1.62l5.56,31.51C266.72,285.43,266,286.46,264.91,286.66z"/>
	<path class="st4" d="M243.25,255.95l5.56,31.51c0.19,1.09,1.23,1.81,2.32,1.62l12.27-2.16c-1.89-2.62-3.75-5.03-4.48-8.58
		c-0.46-2.26,0.2-4.77-1.37-6.65c-1.8-2.15-4.31-1.44-4.4-5.04c-0.08-3.24,1.23-4.44-1.19-7.31c-1.42-1.69-3.41-2.74-4.88-4.35
		c-0.5-0.55-0.86-1.05-1.15-1.55l-1.05,0.18C243.78,253.83,243.06,254.86,243.25,255.95z"/>
	
		<rect x="248.97" y="255.98" transform="matrix(0.9848 -0.1736 0.1736 0.9848 -43.0084 48.3772)" class="st6" width="12" height="28"/>
	<path class="st7" d="M251.5,284.81l9.33-1.65c-0.84-1.42-1.54-2.96-1.92-4.82c-0.46-2.26,0.2-4.77-1.37-6.65
		c-1.8-2.15-4.31-1.44-4.4-5.04c-0.08-3.24,1.23-4.44-1.19-7.31c-0.83-0.99-1.85-1.76-2.85-2.55l-2.46,0.43L251.5,284.81z"/>
</g>
<g>
	<path class="st5" d="M332.43,169.47l-13.95,1.22c-1.1,0.1-2.07-0.72-2.17-1.82l-2.79-31.88c-0.1-1.1,0.72-2.07,1.82-2.17
		l13.95-1.22c1.1-0.1,2.07,0.72,2.17,1.82l2.79,31.88C334.35,168.4,333.53,169.37,332.43,169.47z"/>
	<path class="st4" d="M313.53,136.99l2.79,31.88c0.1,1.1,1.07,1.91,2.17,1.82l12.41-1.09c-1.65-2.78-3.3-5.33-3.72-8.93
		c-0.27-2.29,0.62-4.73-0.79-6.75c-1.6-2.29-4.17-1.81-3.94-5.41c0.21-3.23,1.61-4.32-0.54-7.38c-1.27-1.81-3.16-3.03-4.49-4.76
		c-0.45-0.59-0.77-1.12-1.01-1.64l-1.06,0.09C314.25,134.92,313.43,135.89,313.53,136.99z"/>
	
		<rect x="317.99" y="137.99" transform="matrix(0.9962 -0.0872 0.0872 0.9962 -12.014 28.8157)" class="st6" width="12" height="28"/>
	<path class="st7" d="M319.23,166.46l9.44-0.83c-0.72-1.49-1.27-3.09-1.49-4.97c-0.27-2.29,0.62-4.73-0.79-6.75
		c-1.6-2.29-4.17-1.81-3.94-5.41c0.21-3.23,1.61-4.32-0.54-7.38c-0.74-1.05-1.69-1.91-2.62-2.78l-2.49,0.22L319.23,166.46z"/>
</g>
<g>
	<path class="st5" d="M465.89,264.15h-14c-1.1,0-2-0.9-2-2v-32c0-1.1,0.9-2,2-2h14c1.1,0,2,0.9,2,2v32
		C467.89,263.25,466.99,264.15,465.89,264.15z"/>
	<path class="st4" d="M449.89,230.15l0,32c0,1.1,0.9,2,2,2l12.46,0c-1.41-2.91-2.82-5.6-2.93-9.22c-0.07-2.31,1.03-4.66-0.2-6.79
		c-1.4-2.43-4-2.17-3.46-5.73c0.49-3.2,1.98-4.16,0.1-7.4c-1.11-1.91-2.88-3.29-4.06-5.13c-0.4-0.62-0.67-1.19-0.86-1.72l-1.06,0
		C450.78,228.15,449.89,229.04,449.89,230.15z"/>
	<rect x="453" y="232" class="st6" width="12" height="28"/>
	<path class="st7" d="M453,260h9.47c-0.58-1.55-1-3.18-1.05-5.08c-0.07-2.31,1.03-4.66-0.2-6.79c-1.4-2.43-4-2.17-3.46-5.73
		c0.49-3.2,1.98-4.16,0.1-7.4c-0.65-1.11-1.52-2.05-2.37-3H453V260z"/>
</g>
<g>
	<path class="st5" d="M795.66,363.09l-13.79-2.43c-1.09-0.19-1.81-1.23-1.62-2.32l5.56-31.51c0.19-1.09,1.23-1.81,2.32-1.62
		l13.79,2.43c1.09,0.19,1.81,1.23,1.62,2.32l-5.56,31.51C797.78,362.55,796.74,363.28,795.66,363.09z"/>
	<path class="st4" d="M785.8,326.83l-5.56,31.51c-0.19,1.09,0.53,2.13,1.62,2.32l12.27,2.16c-0.88-3.11-1.81-6.01-1.28-9.59
		c0.34-2.28,1.82-4.41,0.99-6.72c-0.95-2.63-3.56-2.83-2.41-6.24c1.04-3.07,2.67-3.75,1.38-7.27c-0.76-2.07-2.26-3.74-3.1-5.76
		c-0.28-0.68-0.45-1.28-0.55-1.85l-1.05-0.18C787.03,325.01,786,325.74,785.8,326.83z"/>
	
		<rect x="786.02" y="330.02" transform="matrix(0.9848 0.1736 -0.1736 0.9848 71.7713 -132.307)" class="st6" width="12" height="28"/>
	<path class="st7" d="M783.68,356.77l9.33,1.65c-0.31-1.63-0.43-3.31-0.16-5.18c0.34-2.28,1.82-4.41,0.99-6.72
		c-0.95-2.63-3.56-2.83-2.41-6.24c1.04-3.07,2.67-3.75,1.38-7.27c-0.44-1.21-1.14-2.28-1.81-3.37l-2.46-0.43L783.68,356.77z"/>
</g>
<g>
	<circle class="st16" cx="319" cy="115" r="8"/>
	<path class="st17" d="M331.21,103.22l-3.16,2.21c-0.47,0.33-1.11,0.21-1.44-0.25c-0.22-0.31-0.24-0.71-0.09-1.03l1.63-3.5
		c0.48-1.04,1.72-1.49,2.75-1c1.04,0.48,1.48,1.72,1,2.75C331.74,102.74,331.49,103.02,331.21,103.22z"/>
	<path class="st17" d="M319.28,97.72l-0.67,3.8c-0.1,0.56-0.64,0.94-1.2,0.84c-0.38-0.07-0.67-0.33-0.79-0.67l-1.32-3.63
		c-0.39-1.07,0.16-2.26,1.24-2.65c1.07-0.39,2.26,0.16,2.65,1.24C319.31,97,319.34,97.37,319.28,97.72z"/>
	<path class="st17" d="M307.22,102.79l2.21,3.16c0.33,0.47,0.21,1.11-0.25,1.44c-0.31,0.22-0.71,0.24-1.03,0.09l-3.5-1.63
		c-1.04-0.48-1.48-1.72-1-2.75c0.48-1.04,1.72-1.49,2.75-1C306.74,102.26,307.02,102.51,307.22,102.79z"/>
	<path class="st18" d="M314.87,121.84c1.4,0.85,3.07,1.28,4.83,1.13c4.4-0.39,7.66-4.27,7.27-8.67c-0.23-2.65-1.73-4.87-3.84-6.15
		c-0.3,0.41-0.65,0.81-1.05,1.2c-1.59,1.55-3.22,2.75-3.12,5.25c0.1,2.4,0.7,2.83-1.09,4.91
		C317.05,120.48,315.89,121.11,314.87,121.84z"/>
</g>
<g>
	<circle class="st16" cx="248.42" cy="234.05" r="8"/>
	<path class="st17" d="M258.39,220.34l-2.73,2.73c-0.4,0.4-1.06,0.4-1.46,0c-0.27-0.27-0.36-0.65-0.27-1l1-3.73
		c0.3-1.1,1.43-1.76,2.54-1.46c1.1,0.3,1.76,1.43,1.46,2.54C258.83,219.77,258.64,220.09,258.39,220.34z"/>
	<path class="st17" d="M245.69,216.98l0,3.86c0,0.57-0.46,1.04-1.04,1.04c-0.38,0-0.72-0.21-0.9-0.52l-1.93-3.34
		c-0.57-0.99-0.23-2.26,0.76-2.83c0.99-0.57,2.26-0.23,2.83,0.76C245.6,216.27,245.69,216.64,245.69,216.98z"/>
	<path class="st17" d="M234.7,224.08l2.73,2.73c0.4,0.4,0.4,1.06,0,1.46c-0.27,0.27-0.65,0.36-1,0.27l-3.73-1
		c-1.1-0.3-1.76-1.43-1.46-2.54c0.3-1.1,1.43-1.76,2.54-1.46C234.13,223.64,234.45,223.83,234.7,224.08z"/>
	<path class="st18" d="M245.54,241.51c1.53,0.59,3.25,0.73,4.95,0.27c4.27-1.14,6.8-5.53,5.66-9.8c-0.69-2.56-2.55-4.5-4.85-5.39
		c-0.23,0.46-0.5,0.91-0.82,1.37c-1.3,1.8-2.69,3.26-2.16,5.71c0.51,2.35,1.18,2.67-0.22,5.02
		C247.45,239.79,246.42,240.61,245.54,241.51z"/>
</g>
<g>
	<circle class="st16" cx="457.6" cy="207.09" r="8"/>
	<path class="st17" d="M470.79,196.42l-3.34,1.93c-0.5,0.29-1.13,0.12-1.41-0.38c-0.19-0.33-0.18-0.73,0-1.04l1.93-3.34
		c0.57-0.99,1.84-1.33,2.83-0.76c0.99,0.57,1.33,1.84,0.76,2.83C471.36,195.98,471.09,196.24,470.79,196.42z"/>
	<path class="st17" d="M459.38,189.89l-1,3.73c-0.15,0.55-0.72,0.88-1.27,0.73c-0.37-0.1-0.64-0.39-0.73-0.73l-1-3.73
		c-0.3-1.1,0.36-2.24,1.46-2.54c1.1-0.3,2.24,0.36,2.54,1.46C459.48,189.18,459.47,189.56,459.38,189.89z"/>
	<path class="st17" d="M446.93,193.9l1.93,3.34c0.29,0.5,0.12,1.13-0.38,1.41c-0.33,0.19-0.73,0.18-1.04,0l-3.34-1.93
		c-0.99-0.57-1.33-1.84-0.76-2.83s1.84-1.33,2.83-0.76C446.5,193.33,446.75,193.6,446.93,193.9z"/>
	<path class="st18" d="M452.89,213.54c1.32,0.97,2.95,1.55,4.71,1.55c4.42,0,8-3.58,8-8c0-2.66-1.3-5-3.29-6.46
		c-0.34,0.38-0.72,0.75-1.15,1.11c-1.72,1.4-3.44,2.45-3.56,4.96c-0.11,2.4,0.45,2.88-1.51,4.8
		C455.18,212.38,453.97,212.9,452.89,213.54z"/>
</g>
<g>
	<circle class="st16" cx="798.61" cy="308.91" r="8"/>
	<path class="st17" d="M813.44,300.69l-3.63,1.32c-0.54,0.2-1.13-0.08-1.33-0.62c-0.13-0.36-0.05-0.75,0.18-1.02l2.48-2.96
		c0.73-0.88,2.04-0.99,2.92-0.26c0.88,0.73,0.99,2.04,0.26,2.92C814.08,300.36,813.77,300.57,813.44,300.69z"/>
	<path class="st17" d="M803.34,292.28l-1.63,3.5c-0.24,0.52-0.86,0.74-1.38,0.5c-0.35-0.16-0.56-0.49-0.59-0.85l-0.34-3.85
		c-0.1-1.14,0.74-2.14,1.88-2.24c1.14-0.1,2.14,0.74,2.24,1.88C803.56,291.6,803.49,291.97,803.34,292.28z"/>
	<path class="st17" d="M790.39,294.07l1.32,3.63c0.2,0.54-0.08,1.13-0.62,1.33c-0.36,0.13-0.75,0.05-1.02-0.18l-2.96-2.48
		c-0.88-0.73-0.99-2.04-0.26-2.92c0.73-0.88,2.04-0.99,2.92-0.26C790.06,293.43,790.27,293.74,790.39,294.07z"/>
	<path class="st18" d="M792.84,314.44c1.13,1.18,2.63,2.03,4.37,2.34c4.35,0.77,8.5-2.14,9.27-6.49c0.46-2.62-0.41-5.15-2.12-6.93
		c-0.4,0.32-0.84,0.62-1.33,0.89c-1.94,1.08-3.82,1.82-4.37,4.26c-0.53,2.35-0.06,2.91-2.32,4.46
		C795.3,313.7,794.02,314,792.84,314.44z"/>
</g>
<path class="st4" d="M227.76,388.16c0.35,1.04,0.52,1.87,0.73,2.8c0.18,0.9,0.35,1.81,0.45,2.72c0.25,1.81,0.39,3.62,0.45,5.43
	c0.13,3.62-0.08,7.21-0.46,10.77c-0.35,3.57-0.97,7.09-1.7,10.57c-0.37,1.74-0.81,3.47-1.24,5.19l-1.49,5.11
	c-0.15,0.53-0.71,0.84-1.24,0.68c-0.5-0.14-0.79-0.64-0.7-1.14l0.01-0.04l0.95-5.15c0.24-1.73,0.56-3.44,0.79-5.16
	c0.2-1.73,0.46-3.44,0.58-5.17l0.24-2.58l0.15-2.59c0.15-3.45,0.17-6.89-0.02-10.3c-0.13-1.7-0.23-3.4-0.46-5.07
	c-0.1-0.84-0.24-1.67-0.36-2.49c-0.14-0.79-0.31-1.68-0.48-2.33l-0.03-0.11c-0.27-1.07,0.38-2.16,1.45-2.42
	C226.4,386.6,227.43,387.18,227.76,388.16z"/>
<path class="st4" d="M245.19,385.5c0.27,0.18,0.37,0.27,0.5,0.38c0.14,0.11,0.25,0.22,0.35,0.32c0.2,0.2,0.43,0.41,0.59,0.62
	l0.52,0.63l0.45,0.64c0.31,0.43,0.56,0.87,0.81,1.3c0.27,0.44,0.49,0.88,0.68,1.33c0.86,1.79,1.43,3.62,1.95,5.46
	c0.92,3.69,1.41,7.4,1.66,11.11c0.17,3.7,0.24,7.39,0.03,11.05c-0.13,1.83-0.17,3.66-0.37,5.48c-0.2,1.82-0.38,3.64-0.61,5.45
	c-0.07,0.55-0.57,0.94-1.12,0.87c-0.51-0.06-0.88-0.49-0.88-0.99l0-0.02l-0.01-5.42c0.01-1.8-0.07-3.6-0.1-5.4
	c-0.01-0.9-0.05-1.79-0.12-2.69l-0.15-2.68c-0.09-1.79-0.32-3.55-0.47-5.33c-0.49-3.51-0.98-7.02-1.94-10.34
	c-0.48-1.65-0.98-3.3-1.69-4.78c-0.16-0.38-0.34-0.75-0.54-1.1c-0.19-0.36-0.37-0.72-0.59-1.03l-0.31-0.49l-0.33-0.43
	c-0.11-0.16-0.22-0.26-0.32-0.39c-0.06-0.07-0.1-0.12-0.14-0.15c-0.04-0.04-0.11-0.1-0.03-0.05c-0.93-0.6-1.19-1.84-0.59-2.77
	C243.02,385.17,244.26,384.9,245.19,385.5z"/>
<path class="st4" d="M296.92,384.13c-0.3,1.45-0.59,3.16-0.78,4.79c-0.23,1.64-0.39,3.31-0.52,4.98c-0.25,3.34-0.38,6.71-0.41,10.08
	c-0.08,3.38,0.06,6.76,0.18,10.15c0.14,3.39,0.39,6.79,0.59,10.2l0,0.02c0.03,0.55-0.39,1.03-0.94,1.06
	c-0.5,0.03-0.93-0.31-1.04-0.78c-0.38-1.69-0.71-3.38-1.06-5.08c-0.27-1.71-0.57-3.42-0.8-5.13c-0.23-1.72-0.43-3.44-0.56-5.17
	c-0.16-1.73-0.27-3.46-0.36-5.2c-0.12-3.48-0.13-6.97,0.14-10.47c0.15-1.75,0.32-3.5,0.57-5.24c0.29-1.77,0.57-3.44,1.13-5.31
	c0.32-1.06,1.43-1.66,2.49-1.34c1,0.3,1.59,1.31,1.39,2.31L296.92,384.13z"/>
<path class="st4" d="M312.65,382.57c0.13,1.68,0.24,3.44,0.39,5.16c0.12,1.73,0.26,3.47,0.43,5.2c0.32,3.47,0.63,6.94,0.98,10.41
	c0.33,3.47,0.73,6.94,1.13,10.42l1.21,10.44c0.06,0.55-0.33,1.05-0.88,1.11c-0.5,0.06-0.95-0.26-1.08-0.73
	c-0.47-1.7-0.89-3.42-1.32-5.13c-0.39-1.72-0.78-3.44-1.13-5.17c-0.74-3.46-1.29-6.94-1.87-10.43c-0.52-3.5-0.97-7-1.28-10.53
	c-0.16-1.76-0.29-3.53-0.41-5.3c-0.08-1.78-0.17-3.53-0.16-5.35c0.01-1.11,0.91-1.99,2.01-1.99c1.05,0.01,1.9,0.82,1.98,1.84
	L312.65,382.57z"/>
<path class="st4" d="M360.73,387.35c-0.14,3.15-0.41,6.28-0.68,9.42c-0.31,3.13-0.61,6.26-0.98,9.39c-0.39,3.12-0.72,6.26-1.17,9.38
	c-0.42,3.12-0.86,6.24-1.39,9.36c-0.09,0.55-0.61,0.91-1.16,0.82c-0.49-0.08-0.84-0.51-0.84-0.99c0.01-3.16,0.1-6.31,0.22-9.46
	c0.09-3.15,0.3-6.29,0.44-9.44c0.17-3.14,0.41-6.28,0.63-9.42c0.27-3.14,0.54-6.27,0.93-9.4c0.14-1.1,1.14-1.87,2.23-1.74
	C360.02,385.4,360.77,386.32,360.73,387.35z"/>
<path class="st4" d="M378.75,386.94c0.5,3.17,0.88,6.36,1.25,9.55c0.33,3.19,0.68,6.38,0.96,9.58c0.25,3.2,0.57,6.4,0.77,9.6
	c0.23,3.2,0.43,6.41,0.55,9.63c0.02,0.55-0.41,1.02-0.97,1.04c-0.5,0.02-0.93-0.33-1.02-0.8c-0.63-3.16-1.19-6.32-1.71-9.49
	c-0.56-3.17-0.99-6.35-1.49-9.52c-0.47-3.18-0.88-6.36-1.3-9.54c-0.38-3.19-0.75-6.37-1-9.57c-0.09-1.1,0.74-2.07,1.84-2.15
	C377.67,385.18,378.59,385.92,378.75,386.94z"/>
<path class="st4" d="M345.98,261.31c-0.2,2.25-0.23,4.64-0.13,6.96c0.05,1.17,0.09,2.34,0.21,3.5l0.16,1.75l0.23,1.74
	c0.6,4.64,1.58,9.23,2.87,13.72c0.72,2.22,1.33,4.48,2.21,6.66c0.42,1.09,0.8,2.2,1.25,3.28l1.39,3.22l0.69,1.61l0.78,1.57
	l1.55,3.15c1.06,2.09,2.27,4.1,3.35,6.19l0.07,0.13c0.51,0.98,0.13,2.18-0.85,2.69c-0.94,0.49-2.09,0.15-2.64-0.74
	c-1.25-2.08-2.52-4.17-3.69-6.3l-1.64-3.27l-0.82-1.64l-0.72-1.68l-1.43-3.37c-0.44-1.14-0.82-2.3-1.23-3.45
	c-0.86-2.28-1.45-4.66-2.15-7c-1.14-4.75-1.97-9.58-2.28-14.46c-0.27-4.89-0.2-9.75,0.85-14.65c0.12-0.54,0.65-0.88,1.19-0.77
	c0.5,0.11,0.83,0.57,0.78,1.07L345.98,261.31z"/>
<path class="st4" d="M379.68,257.49c0.57,2.33,0.91,4.62,1.25,6.95c0.28,2.32,0.51,4.66,0.65,6.99c0.26,4.67,0.28,9.37-0.01,14.05
	c-0.35,4.67-0.8,9.36-1.7,13.97c-0.39,2.32-0.94,4.6-1.47,6.89c-0.25,1.15-0.61,2.27-0.93,3.4l-1,3.38
	c-0.31,1.06-1.43,1.66-2.48,1.35c-1.03-0.31-1.63-1.37-1.37-2.4l0.02-0.09c1.11-4.41,2.24-8.81,3.03-13.29
	c0.85-4.46,1.49-8.97,1.9-13.51c0.49-4.53,0.67-9.09,0.71-13.65c0.04-2.28-0.01-4.56-0.1-6.85c-0.08-2.27-0.23-4.58-0.46-6.8l0-0.04
	c-0.06-0.55,0.35-1.04,0.9-1.1C379.11,256.68,379.56,257.01,379.68,257.49z"/>
<path class="st4" d="M354.19,230.48c-0.56,0.83-1.15,1.96-1.65,3.01c-0.51,1.08-0.98,2.19-1.39,3.32c-0.84,2.27-1.5,4.61-2.03,7
	c-0.48,2.4-0.87,4.82-1.06,7.27c-0.14,1.22-0.14,2.46-0.21,3.69c-0.03,1.23,0,2.47,0,3.71l0,0.06c0,0.55-0.45,1-1,1
	c-0.53,0-0.96-0.42-0.99-0.93c-0.08-1.27-0.2-2.54-0.25-3.81c-0.01-1.27-0.1-2.55-0.03-3.83c0.02-2.56,0.27-5.12,0.6-7.67
	c0.39-2.55,0.92-5.08,1.66-7.58c0.37-1.25,0.79-2.49,1.27-3.71c0.5-1.25,0.99-2.39,1.74-3.7c0.55-0.96,1.77-1.29,2.73-0.74
	c0.96,0.55,1.29,1.77,0.74,2.73c-0.02,0.04-0.05,0.08-0.07,0.11L354.19,230.48z"/>
<path class="st4" d="M369.52,226.23c0.77,1.2,1.31,2.27,1.89,3.43c0.55,1.14,1.07,2.29,1.52,3.46c0.93,2.33,1.71,4.71,2.37,7.11
	c0.62,2.41,1.18,4.84,1.53,7.29c0.4,2.45,0.62,4.91,0.79,7.38c0.04,0.55-0.38,1.03-0.93,1.07c-0.53,0.04-0.99-0.34-1.06-0.86l0-0.03
	c-0.33-2.38-0.71-4.75-1.26-7.08c-0.5-2.34-1.21-4.63-1.95-6.89c-0.78-2.25-1.68-4.45-2.7-6.58c-0.5-1.07-1.06-2.11-1.64-3.12
	c-0.57-0.99-1.22-2.04-1.82-2.86l-0.04-0.06c-0.66-0.89-0.47-2.14,0.42-2.8c0.89-0.66,2.14-0.47,2.8,0.42
	C369.46,226.16,369.49,226.2,369.52,226.23z"/>
<path class="st4" d="M372.75,147.67c-0.13,3.61-0.51,7.16-0.96,10.72c-0.48,3.55-1.07,7.09-1.81,10.61
	c-0.75,3.51-1.59,7.02-2.65,10.48c-1.06,3.46-2.27,6.89-3.82,10.21c-0.47,1-1.65,1.44-2.66,0.97c-0.96-0.45-1.4-1.55-1.03-2.53
	l0.02-0.04c1.24-3.22,2.35-6.52,3.38-9.86c0.98-3.36,1.91-6.74,2.78-10.15c0.84-3.42,1.65-6.85,2.43-10.3
	c0.41-1.72,0.8-3.45,1.17-5.18l1.16-5.18l0-0.01c0.12-0.54,0.66-0.88,1.2-0.76C372.45,146.76,372.77,147.2,372.75,147.67z"/>
<path class="st4" d="M502.89,298.52c0.58,0.44,0.94,0.78,1.36,1.17c0.4,0.39,0.76,0.79,1.14,1.18c0.71,0.81,1.4,1.63,2.02,2.49
	c0.65,0.85,1.18,1.75,1.78,2.63c0.52,0.91,1.07,1.81,1.57,2.73c1.94,3.71,3.44,7.6,4.57,11.56c1.17,3.96,1.97,7.98,2.58,12.03
	c0.24,2.03,0.48,4.05,0.68,6.08c0.1,2.03,0.23,4.06,0.3,6.09c0.02,0.55-0.41,1.02-0.96,1.04c-0.51,0.02-0.94-0.34-1.02-0.83
	l-0.01-0.05c-0.34-1.98-0.63-3.95-0.94-5.92l-1.14-5.86l-0.71-2.89c-0.23-0.96-0.43-1.93-0.72-2.88c-0.54-1.9-1.06-3.8-1.74-5.64
	c-0.61-1.87-1.36-3.67-2.08-5.49l-1.21-2.66c-0.43-0.87-0.9-1.72-1.33-2.58c-0.45-0.85-0.95-1.67-1.43-2.51
	c-0.54-0.79-1.02-1.62-1.59-2.38l-0.84-1.15l-0.88-1.1c-0.31-0.34-0.61-0.7-0.92-1.02c-0.29-0.31-0.66-0.68-0.87-0.86l-0.13-0.11
	c-0.83-0.73-0.9-1.99-0.17-2.82C500.88,298,502.07,297.9,502.89,298.52z"/>
<path class="st4" d="M545.98,313.65c-1-0.87-1.74-1.66-2.52-2.54c-0.75-0.87-1.51-1.73-2.17-2.66c-1.38-1.82-2.59-3.74-3.74-5.69
	c-2.21-3.95-4.05-8.07-5.48-12.32l-1-3.21c-0.34-1.06-0.57-2.16-0.86-3.24c-0.61-2.15-0.97-4.35-1.37-6.54
	c-0.23-1.09-0.34-2.2-0.49-3.3l-0.41-3.3c-0.17-2.21-0.3-4.42-0.41-6.63c-0.03-0.55,0.4-1.02,0.95-1.05
	c0.51-0.03,0.96,0.34,1.04,0.83l0.01,0.05l1.04,6.43c0.47,2.11,0.8,4.25,1.35,6.34c0.55,2.09,1.04,4.18,1.71,6.22
	c0.33,1.02,0.59,2.06,0.98,3.07l1.11,3.01c1.6,3.97,3.34,7.87,5.52,11.5c1.07,1.83,2.19,3.62,3.45,5.3
	c0.61,0.86,1.26,1.67,1.92,2.48c0.34,0.39,0.66,0.8,1.01,1.16c0.33,0.37,0.71,0.77,0.99,1.05l0.09,0.09
	c0.79,0.77,0.8,2.04,0.03,2.83C547.97,314.3,546.77,314.33,545.98,313.65z"/>
<path class="st4" d="M582.28,255.9c0.71,5.34,0.73,10.63,0.4,15.95c-0.34,5.31-1.18,10.59-2.38,15.8c-0.57,2.61-1.41,5.16-2.17,7.72
	l-1.37,3.78c-0.24,0.63-0.45,1.26-0.71,1.88l-0.83,1.83c-2.07,4.96-4.9,9.57-7.93,13.99c-0.62,0.91-1.87,1.14-2.78,0.52
	c-0.88-0.6-1.13-1.79-0.58-2.69l0.07-0.11l2-3.26l1.01-1.62c0.33-0.55,0.6-1.13,0.9-1.69l1.8-3.37c0.56-1.15,1.06-2.32,1.59-3.48
	l0.79-1.75l0.7-1.79l1.38-3.58c0.77-2.44,1.63-4.86,2.23-7.36c1.35-4.95,2.36-10.01,2.99-15.13l0.44-3.85
	c0.1-1.29,0.21-2.57,0.28-3.86c0.18-2.57,0.23-5.18,0.18-7.72l0-0.06c-0.01-0.55,0.43-1.01,0.98-1.02
	C581.79,255.02,582.22,255.4,582.28,255.9z"/>
<path class="st4" d="M422.93,380.1c-0.03,1.95-0.12,3.9-0.17,5.84l-0.28,5.84c-0.21,3.89-0.47,7.78-0.73,11.67
	c-0.32,3.89-0.58,7.77-0.94,11.66c-0.35,3.88-0.72,7.77-1.19,11.64c-0.07,0.55-0.57,0.94-1.12,0.87c-0.5-0.06-0.87-0.48-0.88-0.97
	c-0.08-3.91-0.07-7.81-0.03-11.7c0.02-3.9,0.15-7.79,0.21-11.69c0.13-3.89,0.26-7.79,0.43-11.68l0.3-5.84
	c0.14-1.94,0.24-3.89,0.41-5.83c0.1-1.1,1.06-1.92,2.17-1.82C422.15,378.17,422.94,379.06,422.93,380.1z"/>
<path class="st4" d="M437.05,379.44c1.28,4.09,2.24,8.15,3.1,12.28c0.85,4.12,1.5,8.28,2.07,12.45c0.51,4.18,0.91,8.37,1.09,12.57
	c0.22,4.2,0.15,8.42-0.08,12.62c-0.03,0.55-0.5,0.97-1.05,0.94c-0.5-0.03-0.89-0.42-0.94-0.9l0-0.05c-0.21-2.07-0.26-4.13-0.52-6.19
	l-0.28-3.09l-0.37-3.08c-0.24-2.05-0.53-4.1-0.8-6.14c-0.31-2.04-0.61-4.08-0.99-6.11c-0.66-4.07-1.45-8.13-2.3-12.16
	c-0.42-2.02-0.86-4.03-1.33-6.04c-0.44-2.01-0.95-4.03-1.43-5.98l-0.01-0.05c-0.26-1.07,0.39-2.16,1.46-2.42
	C435.7,377.84,436.74,378.44,437.05,379.44z"/>
<path class="st4" d="M487.14,374.35c-0.29,2.2-0.57,4.51-0.78,6.79c-0.24,2.28-0.45,4.58-0.62,6.87c-0.33,4.59-0.65,9.19-0.81,13.81
	c-0.17,4.61-0.32,9.23-0.32,13.85c-0.07,4.63,0,9.25-0.01,13.9v0.02c0,0.55-0.45,1-1,1c-0.51,0-0.93-0.38-0.99-0.87
	c-0.3-2.32-0.56-4.64-0.79-6.96c-0.17-2.33-0.4-4.66-0.52-6.99c-0.16-2.33-0.23-4.67-0.28-7.01c-0.08-2.34-0.09-4.68-0.09-7.02
	c0.08-4.68,0.2-9.37,0.57-14.04c0.37-4.69,0.84-9.32,1.73-14.04c0.2-1.09,1.25-1.8,2.33-1.6c1.05,0.2,1.75,1.18,1.61,2.22
	L487.14,374.35z"/>
<path class="st4" d="M505.67,374.33c-0.25,2.21-0.42,4.62-0.5,6.95c-0.1,2.35-0.15,4.72-0.09,7.08c0.07,4.73,0.3,9.46,0.79,14.18
	c0.48,4.72,1.08,9.44,1.95,14.12c0.79,4.7,1.87,9.34,2.92,14.01l0.01,0.03c0.12,0.54-0.22,1.07-0.76,1.2c-0.5,0.11-1-0.17-1.17-0.65
	c-0.8-2.28-1.59-4.58-2.31-6.89c-0.64-2.34-1.37-4.66-1.91-7.03c-0.29-1.18-0.57-2.36-0.84-3.55l-0.69-3.58
	c-0.24-1.19-0.46-2.39-0.63-3.59c-0.18-1.2-0.39-2.4-0.56-3.61c-0.59-4.83-1.01-9.7-1.08-14.59c-0.02-1.22-0.02-2.44,0.01-3.67
	c0.01-1.22,0.06-2.45,0.12-3.67c0.17-2.47,0.34-4.86,0.78-7.41c0.19-1.09,1.22-1.82,2.31-1.63c1.05,0.18,1.76,1.15,1.64,2.19
	L505.67,374.33z"/>
<path class="st4" d="M550,390.13c-0.1,3.54-0.26,7.11-0.41,10.67l-0.46,10.67l-0.45,10.67l-0.39,10.68l0,0.01
	c-0.02,0.55-0.49,0.99-1.04,0.97c-0.5-0.02-0.89-0.39-0.96-0.87c-0.24-1.79-0.43-3.58-0.59-5.37c-0.15-1.8-0.25-3.59-0.36-5.39
	c-0.18-3.59-0.25-7.19-0.26-10.78c0.01-3.59,0.06-7.18,0.23-10.76c0.15-3.59,0.35-7.16,0.7-10.75c0.11-1.1,1.09-1.9,2.19-1.8
	c1.05,0.1,1.83,1,1.81,2.04L550,390.13z"/>
<path class="st4" d="M569.52,389.9c0.29,3.68,0.41,7.34,0.5,11.01c0.06,3.67,0.05,7.34,0,11.01c-0.11,3.67-0.21,7.34-0.46,11.01
	c-0.24,3.67-0.56,7.34-1.04,10.99c-0.07,0.55-0.58,0.94-1.12,0.86c-0.5-0.07-0.86-0.49-0.87-0.98v-0.01l-0.18-10.94
	c-0.1-3.64-0.13-7.29-0.28-10.93l-0.31-10.93l-0.14-5.46l-0.09-5.45c-0.02-1.1,0.86-2.02,1.96-2.04
	C568.55,388.04,569.44,388.86,569.52,389.9z"/>
<path class="st4" d="M627.05,361.02c0.04,3.55-0.2,6.98-0.56,10.46c-0.35,3.46-0.91,6.9-1.6,10.32c-0.72,3.41-1.63,6.79-2.77,10.11
	c-0.64,1.64-1.21,3.29-1.96,4.88c-0.7,1.61-1.57,3.15-2.43,4.67c-0.27,0.48-0.88,0.65-1.36,0.38c-0.42-0.24-0.6-0.74-0.46-1.19
	l0.03-0.08c0.54-1.61,1.19-3.14,1.62-4.77c0.55-1.58,0.93-3.23,1.37-4.84c0.77-3.27,1.44-6.57,1.99-9.89
	c0.53-3.33,0.94-6.67,1.31-10.03c0.18-1.68,0.33-3.36,0.46-5.04c0.16-1.67,0.25-3.38,0.36-5.01l0-0.06c0.07-1.1,1.02-1.94,2.13-1.87
	C626.23,359.12,627.04,359.99,627.05,361.02z"/>
<path class="st4" d="M648.32,360.82c0.24,1.76,0.47,3.59,0.77,5.38c0.26,1.8,0.54,3.6,0.86,5.39c0.63,3.59,1.31,7.16,2.11,10.71
	c0.78,3.55,1.74,7.05,2.8,10.52c0.58,1.71,1.11,3.45,1.81,5.11c0.6,1.72,1.4,3.32,2.12,5l0.02,0.05c0.22,0.51-0.02,1.1-0.53,1.31
	c-0.45,0.19-0.96,0.03-1.23-0.36c-2.11-3.14-3.79-6.54-5.25-10c-1.43-3.48-2.56-7.06-3.61-10.66c-0.98-3.61-1.81-7.27-2.45-10.95
	c-0.64-3.69-1.17-7.36-1.42-11.15c-0.07-1.1,0.76-2.05,1.86-2.13c1.05-0.07,1.97,0.69,2.11,1.72L648.32,360.82z"/>
<path class="st4" d="M609.9,225.54c0.11,2.08,0.3,4.25,0.62,6.36c0.13,1.06,0.32,2.12,0.48,3.17l0.63,3.14
	c0.89,4.17,2.12,8.26,3.68,12.19c0.71,2,1.65,3.89,2.52,5.81l1.51,2.78l0.76,1.38l0.84,1.33c0.57,0.88,1.1,1.79,1.7,2.66l1.89,2.52
	c0.32,0.42,0.6,0.86,0.94,1.26l1.03,1.19c0.69,0.79,1.38,1.59,2.05,2.4l0.11,0.13c0.71,0.84,0.6,2.1-0.24,2.81
	c-0.81,0.68-1.99,0.6-2.72-0.14c-3.13-3.23-6.11-6.68-8.39-10.58l-0.91-1.43c-0.29-0.48-0.53-0.99-0.79-1.49
	c-0.51-1-1.04-2-1.54-3.01c-0.88-2.07-1.83-4.11-2.53-6.24c-1.45-4.24-2.54-8.59-3.17-13.01c-0.6-4.43-0.86-8.84-0.48-13.35
	c0.05-0.55,0.53-0.96,1.08-0.91c0.5,0.04,0.89,0.45,0.91,0.94L609.9,225.54z"/>
<path class="st4" d="M660.89,215.97c0.41,5.1,0.22,10.14-0.24,15.19c-0.5,5.05-1.37,10.07-2.7,15c-1.33,4.92-3.01,9.8-5.36,14.4
	c-1.16,2.3-2.47,4.55-3.93,6.69c-1.49,2.13-3.13,4.16-4.93,6.05c-0.76,0.8-2.03,0.83-2.83,0.06c-0.77-0.74-0.82-1.94-0.14-2.74
	l0.04-0.05c1.55-1.82,3.03-3.7,4.34-5.7c1.29-2.02,2.53-4.08,3.6-6.25c2.13-4.33,3.9-8.88,5.26-13.57c1.33-4.7,2.4-9.49,3.19-14.35
	c0.82-4.85,1.39-9.79,1.69-14.68l0-0.04c0.03-0.55,0.51-0.97,1.06-0.94C660.46,215.08,660.85,215.48,660.89,215.97z"/>
<path class="st4" d="M679.25,285.86c0.18,1.96,0.42,4,0.79,5.97c0.32,1.99,0.75,3.96,1.22,5.92c0.96,3.9,2.19,7.73,3.77,11.38
	c1.47,3.71,3.46,7.15,5.64,10.42l1.7,2.41l1.9,2.25l0.94,1.14l1.04,1.04c0.7,0.69,1.39,1.39,2.07,2.1l0.13,0.14
	c0.77,0.79,0.74,2.06-0.05,2.82c-0.75,0.73-1.94,0.74-2.71,0.06c-3.2-2.84-6.24-5.94-8.56-9.55c-2.38-3.55-4.35-7.37-5.83-11.34
	c-1.45-3.98-2.58-8.06-3.26-12.21c-0.66-4.16-1.02-8.31-0.8-12.57c0.03-0.55,0.5-0.97,1.05-0.95c0.5,0.03,0.9,0.42,0.94,0.9
	L679.25,285.86z"/>
<path class="st4" d="M699.97,403.7l-0.54,4.32c-0.19,1.45-0.37,2.9-0.52,4.35c-0.33,2.9-0.65,5.8-0.86,8.71
	c-0.25,2.9-0.39,5.81-0.43,8.71c-0.02,2.9,0.06,5.79,0.37,8.66l0,0.02c0.06,0.55-0.34,1.05-0.89,1.1c-0.49,0.05-0.93-0.25-1.07-0.71
	c-0.88-2.93-1.34-5.94-1.63-8.95c-0.3-3.01-0.3-6.03-0.3-9.03c0.07-3.01,0.27-6,0.57-8.98c0.33-2.99,0.72-5.93,1.36-8.91
	c0.23-1.08,1.29-1.77,2.37-1.54c1.02,0.22,1.69,1.18,1.57,2.2L699.97,403.7z"/>
<path class="st4" d="M713.71,403.71c-0.37,2.83-0.71,5.77-1,8.66c-0.25,2.9-0.51,5.81-0.64,8.71c-0.11,2.9-0.19,5.8-0.1,8.69
	c0,0.72,0.06,1.44,0.08,2.16c0.02,0.73,0.08,1.44,0.16,2.16c0.09,0.71,0.08,1.45,0.21,2.15c0.11,0.71,0.21,1.43,0.29,2.15l0.01,0.06
	c0.06,0.55-0.33,1.05-0.88,1.11c-0.46,0.05-0.89-0.22-1.05-0.63c-1.13-2.86-1.76-5.87-2.23-8.88c-0.41-3.02-0.57-6.05-0.57-9.07
	c0-3.02,0.15-6.04,0.46-9.03c0.3-3.01,0.69-5.96,1.34-8.97c0.23-1.08,1.29-1.77,2.38-1.54c1.02,0.22,1.7,1.19,1.57,2.21
	L713.71,403.71z"/>
<path class="st4" d="M711.85,332.14c0.57,1.16,1.31,2.51,2.1,3.7c0.39,0.61,0.83,1.2,1.22,1.81l1.32,1.74
	c1.83,2.26,3.92,4.3,6.22,6.06l0.85,0.67c0.29,0.22,0.6,0.4,0.91,0.6c0.61,0.39,1.21,0.81,1.83,1.17c1.28,0.68,2.54,1.42,3.9,1.96
	c2.66,1.25,5.52,1.99,8.45,2.78l0.08,0.02c0.53,0.14,0.85,0.69,0.71,1.23c-0.12,0.45-0.53,0.75-0.98,0.74
	c-0.79-0.01-1.59-0.05-2.39-0.09c-0.8-0.05-1.62-0.04-2.4-0.22c-1.59-0.27-3.19-0.55-4.72-1.1c-1.58-0.43-3.04-1.15-4.53-1.83
	c-0.74-0.35-1.42-0.81-2.13-1.21c-0.35-0.21-0.71-0.41-1.05-0.63l-1-0.71c-2.67-1.89-5.08-4.15-7.1-6.71l-1.47-1.95
	c-0.45-0.68-0.92-1.35-1.32-2.06c-0.41-0.71-0.82-1.41-1.18-2.15c-0.39-0.74-0.7-1.45-1.03-2.33c-0.4-1.03,0.12-2.18,1.15-2.58
	c0.97-0.37,2.05,0.06,2.5,0.97L711.85,332.14z"/>
<path class="st4" d="M745.83,353.87c0.34,1.31,0.7,2.68,1.15,3.99c0.41,1.33,0.87,2.64,1.36,3.94c1,2.59,2.1,5.12,3.38,7.54
	c1.24,2.44,2.73,4.72,4.3,6.91l1.22,1.61c0.42,0.52,0.89,1,1.33,1.51c0.83,1.07,1.88,1.9,2.78,2.89l0.15,0.17
	c0.74,0.82,0.68,2.08-0.14,2.82c-0.74,0.68-1.86,0.68-2.61,0.06c-2.31-1.92-4.43-4.1-6.17-6.53c-1.73-2.43-3.25-5-4.42-7.71
	c-1.19-2.7-2.18-5.47-2.89-8.3c-0.72-2.84-1.25-5.67-1.42-8.64c-0.03-0.55,0.39-1.03,0.94-1.06c0.48-0.03,0.91,0.29,1.03,0.75
	L745.83,353.87z"/>
<path class="st4" d="M761.86,414.87c-0.26,0.8-0.58,1.83-0.8,2.78c-0.24,0.97-0.48,1.96-0.65,2.96c-0.34,2-0.63,4.02-0.76,6.07
	c-0.05,1.02-0.14,2.05-0.12,3.08l-0.02,1.55c0.02,0.52,0.04,1.03,0.04,1.55c0.03,2.08,0.26,4.15,0.42,6.27l0,0.05
	c0.04,0.55-0.37,1.04-0.93,1.08c-0.46,0.04-0.87-0.25-1.02-0.66c-0.37-1.03-0.72-2.08-1.04-3.15c-0.25-1.07-0.55-2.15-0.72-3.24
	c-0.44-2.18-0.58-4.42-0.63-6.66c0-2.24,0.17-4.49,0.58-6.71c0.2-1.11,0.46-2.21,0.76-3.31c0.35-1.11,0.67-2.13,1.24-3.31
	c0.48-0.99,1.68-1.41,2.67-0.92c0.91,0.44,1.33,1.48,1.03,2.41L761.86,414.87z"/>
<path class="st4" d="M772.97,414.37c-0.06,0.94-0.15,2.03-0.15,3.05c-0.04,1.04-0.05,2.09-0.03,3.13c0.06,2.09,0.19,4.17,0.47,6.23
	c0.24,2.07,0.71,4.1,1.24,6.11l0.44,1.5c0.17,0.49,0.37,0.97,0.55,1.46c0.3,1.02,0.83,1.91,1.21,2.92l0.04,0.11
	c0.19,0.52-0.07,1.1-0.59,1.29c-0.41,0.15-0.86,0.02-1.13-0.3c-1.44-1.77-2.71-3.73-3.63-5.85c-0.94-2.1-1.66-4.31-2.11-6.57
	c-0.45-2.25-0.74-4.53-0.78-6.82c-0.04-2.31,0.05-4.53,0.5-6.91c0.2-1.08,1.25-1.8,2.33-1.59c1,0.19,1.69,1.09,1.63,2.09
	L772.97,414.37z"/>
<path class="st4" d="M217.55,334.4c-1-0.82-1.76-1.57-2.55-2.41c-0.78-0.82-1.53-1.66-2.23-2.54c-0.7-0.88-1.38-1.76-2.01-2.69
	c-0.66-0.9-1.26-1.84-1.85-2.79c-2.32-3.8-4.2-7.83-5.74-11.97c-0.67-2.11-1.41-4.18-1.9-6.33c-0.26-1.07-0.58-2.12-0.79-3.2
	l-0.59-3.24c-0.22-1.07-0.35-2.16-0.47-3.25l-0.37-3.26c-0.15-2.18-0.22-4.36-0.29-6.53c-0.02-0.55,0.41-1.01,0.97-1.03
	c0.51-0.02,0.94,0.35,1.02,0.83l0.01,0.07c0.35,2.11,0.59,4.22,0.96,6.31l0.62,3.12c0.19,1.04,0.4,2.08,0.69,3.09l0.79,3.06
	c0.25,1.02,0.61,2.01,0.91,3.02c0.57,2.02,1.39,3.96,2.12,5.92c1.61,3.86,3.46,7.61,5.68,11.12c0.55,0.88,1.1,1.76,1.71,2.6
	c0.58,0.86,1.21,1.68,1.84,2.49c0.63,0.82,1.28,1.61,1.96,2.37c0.34,0.38,0.68,0.76,1.03,1.11c0.33,0.36,0.72,0.74,1.01,1.01
	l0.1,0.09c0.81,0.75,0.85,2.02,0.1,2.82C219.56,334.99,218.36,335.06,217.55,334.4z"/>
<path class="st4" d="M275.25,271.93c0.62,4.22,1.61,8.49,2.72,12.66c1.16,4.17,2.41,8.32,3.9,12.39c1.54,4.04,3.03,8.11,4.86,12.03
	c1.7,3.98,3.65,7.84,5.55,11.73l0.03,0.06c0.48,0.99,0.07,2.19-0.92,2.67c-0.96,0.47-2.12,0.09-2.63-0.84
	c-1.06-1.95-2.14-3.89-3.13-5.88c-0.94-2.01-1.94-4-2.79-6.05l-1.28-3.08l-1.18-3.12c-0.82-2.07-1.48-4.19-2.17-6.3
	c-1.29-4.25-2.46-8.54-3.29-12.9c-0.85-4.37-1.51-8.73-1.66-13.25c-0.02-0.55,0.41-1.01,0.97-1.03c0.51-0.02,0.95,0.36,1.02,0.85
	L275.25,271.93z"/>
<path class="st4" d="M323.01,266.03c0.3,4.79-0.02,9.48-0.55,14.17c-0.55,4.69-1.42,9.33-2.5,13.93c-0.26,1.15-0.61,2.28-0.91,3.42
	c-0.3,1.14-0.62,2.28-0.98,3.4l-1.05,3.38c-0.38,1.12-0.78,2.23-1.19,3.34c-0.77,2.23-1.73,4.39-2.61,6.58
	c-0.95,2.16-1.98,4.29-3.01,6.41c-0.48,0.99-1.68,1.41-2.67,0.93c-0.97-0.47-1.39-1.61-0.96-2.59l0.03-0.07
	c1.82-4.22,3.67-8.42,5.23-12.73c1.65-4.28,3.02-8.66,4.28-13.08c1.28-4.41,2.28-8.9,3.14-13.41c0.45-2.26,0.78-4.53,1.09-6.81
	c0.31-2.27,0.55-4.59,0.68-6.82l0-0.06c0.03-0.55,0.5-0.97,1.06-0.94C322.58,265.12,322.98,265.53,323.01,266.03z"/>
<g>
	<path class="st5" d="M440,380h-24.22c0,0,2.47-90.86,11.34-90.86S440,380,440,380z"/>
	<path class="st5" d="M440,382h-24.22c-0.54,0-1.06-0.22-1.43-0.61c-0.38-0.39-0.58-0.91-0.57-1.45c0.01-0.23,0.64-23.02,2.35-45.53
		c3.32-43.63,7.42-47.28,11-47.28c3.57,0,7.71,3.65,11.76,47.25c2.09,22.5,3.11,45.3,3.12,45.53c0.02,0.54-0.18,1.08-0.55,1.47
		C441.07,381.78,440.55,382,440,382z M417.83,378h20.07c-2.31-50.42-7.2-83.08-10.78-86.7C423.62,294.97,419.29,327.65,417.83,378z"
		/>
</g>
<g>
	<path class="st6" d="M316.97,382.34l-28.2,1.23c0,0-1.09-90.9,9.24-91.35C308.35,291.77,316.97,382.34,316.97,382.34z"/>
	<path class="st6" d="M288.77,385.57c-0.51,0-1-0.2-1.37-0.55c-0.39-0.37-0.62-0.89-0.63-1.43c0-0.23-0.26-23.04,0.75-45.62
		c1.86-41.65,6.1-47.57,10.41-47.75c3.62-0.2,6.41,4.44,9.34,15.37c2.02,7.53,4.06,18.03,6.08,31.22
		c3.42,22.38,5.59,45.12,5.62,45.34c0.05,0.55-0.12,1.09-0.48,1.5c-0.36,0.41-0.87,0.66-1.42,0.69l-28.2,1.23
		C288.83,385.57,288.8,385.57,288.77,385.57z M298.11,294.23c-0.7,0.38-4.91,4.33-6.65,45.24c-0.77,18.08-0.74,36.05-0.7,42.01
		l24.01-1.05c-0.61-5.99-2.5-23.88-5.19-41.8C303.46,298.01,298.84,294.53,298.11,294.23z"/>
</g>
<g>
	<path class="st5" d="M716,403h-24.22c0,0,2.47-90.86,11.34-90.86C712,312.14,716,403,716,403z"/>
	<path class="st5" d="M716,405h-24.22c-0.54,0-1.06-0.22-1.43-0.61c-0.38-0.39-0.58-0.91-0.57-1.45c0.01-0.23,0.64-23.02,2.35-45.53
		c3.32-43.63,7.42-47.28,11-47.28c3.57,0,7.71,3.65,11.76,47.25c2.09,22.5,3.11,45.3,3.12,45.53c0.02,0.54-0.18,1.08-0.55,1.47
		C717.07,404.78,716.55,405,716,405z M693.83,401h20.07c-2.31-50.42-7.2-83.08-10.78-86.7C699.62,317.97,695.29,350.65,693.83,401z"
		/>
</g>
<g>
	<path class="st2" d="M384.69,387h-33.6c0,0,5.31-90.86,15.74-90.86S384.69,387,384.69,387z"/>
	<path class="st2" d="M384.69,389h-33.6c-0.55,0-1.08-0.23-1.46-0.63c-0.38-0.4-0.57-0.94-0.54-1.49
		c0.01-0.23,1.36-23.03,3.97-45.54c1.54-13.26,3.2-23.84,4.96-31.45c2.54-11.04,5.18-15.75,8.81-15.75c3.6,0,6.33,4.7,9.13,15.71
		c1.93,7.61,3.85,18.19,5.69,31.45c3.13,22.51,5.01,45.32,5.03,45.54c0.05,0.56-0.14,1.11-0.52,1.52S385.25,389,384.69,389z
		 M353.22,385h29.29c-0.54-6.09-2.2-24.09-4.68-42.12c-5.8-42.17-10.52-44.61-11.04-44.75c-0.44,0.15-5.09,2.69-9.89,44.81
		C354.85,360.99,353.61,378.97,353.22,385z"/>
</g>
<g>
	<path class="st6" d="M511.69,374h-33.6c0,0,5.31-90.86,15.74-90.86S511.69,374,511.69,374z"/>
	<path class="st6" d="M511.69,376h-33.6c-0.55,0-1.08-0.23-1.46-0.63s-0.57-0.94-0.54-1.49c0.01-0.23,1.36-23.03,3.97-45.54
		c1.54-13.26,3.2-23.84,4.96-31.45c2.54-11.04,5.18-15.75,8.81-15.75c3.6,0,6.33,4.7,9.13,15.71c1.93,7.61,3.85,18.19,5.69,31.45
		c3.13,22.51,5.01,45.32,5.03,45.54c0.05,0.56-0.14,1.11-0.52,1.52S512.25,376,511.69,376z M480.22,372h29.29
		c-0.54-6.09-2.2-24.09-4.68-42.12c-5.8-42.17-10.52-44.61-11.04-44.75c-0.44,0.15-5.09,2.69-9.89,44.81
		C481.85,347.99,480.61,365.97,480.22,372z"/>
</g>
<g>
	<path class="st0" d="M654.93,361h-38.09c0,0,6.02-103,17.84-103S654.93,361,654.93,361z"/>
	<path class="st0" d="M654.93,363h-38.09c-0.55,0-1.08-0.23-1.46-0.63s-0.57-0.94-0.54-1.49c0.02-0.26,1.54-26.1,4.5-51.61
		c5.44-46.94,10.8-53.27,15.34-53.27c4.51,0,10.01,6.32,16.54,53.22c3.55,25.51,5.68,51.35,5.7,51.61c0.05,0.56-0.14,1.11-0.52,1.52
		S655.49,363,654.93,363z M618.97,359h33.78c-0.59-6.73-2.55-28.1-5.5-49.24c-2.07-14.88-4.21-26.71-6.36-35.18
		c-3.6-14.18-6.19-14.58-6.21-14.58c-0.23,0-5.67,0.57-11.37,49.73C620.86,330.91,619.4,352.33,618.97,359z"/>
</g>
<g>
	<path class="st2" d="M573.69,390h-33.6c0,0,0.56-90.86,15.74-90.86C571,299.14,573.69,390,573.69,390z"/>
	<path class="st2" d="M573.69,392h-33.6c-0.53,0-1.04-0.21-1.42-0.59c-0.38-0.38-0.58-0.89-0.58-1.42c0-0.23,0.17-23.06,2.19-45.6
		c3.8-42.35,10.69-47.25,15.55-47.25c4.84,0,11.82,4.89,16.61,47.21c2.55,22.54,3.25,45.37,3.25,45.6c0.02,0.54-0.19,1.06-0.56,1.45
		C574.75,391.78,574.23,392,573.69,392z M542.11,388h29.5c-0.23-6.09-1.07-24.77-3.16-43.23c-1.48-13.08-3.29-23.48-5.37-30.91
		c-3.31-11.81-6.4-12.73-7.26-12.73c-1.28,0-7.84,2.1-11.56,43.59C542.6,363.23,542.2,381.95,542.11,388z"/>
</g>
<g>
	<path class="st2" d="M253.28,386.38l-33.47,2.93c0,0-6.75-83.59,8.37-84.91C243.29,303.07,253.28,386.38,253.28,386.38z"/>
	<path class="st2" d="M219.81,391.3c-0.47,0-0.93-0.17-1.29-0.47c-0.41-0.34-0.66-0.83-0.7-1.37c-0.02-0.21-1.69-21.23-1.49-42.14
		c0.38-39.39,6.85-44.5,11.68-44.93c4.82-0.41,12.16,3.49,20.35,42.07c4.35,20.51,6.89,41.46,6.91,41.67
		c0.06,0.54-0.09,1.08-0.43,1.5c-0.34,0.42-0.84,0.68-1.38,0.73l-33.47,2.93C219.92,391.3,219.87,391.3,219.81,391.3z
		 M228.51,306.38c-0.06,0-0.11,0-0.16,0.01c-1.79,0.16-7.67,3.58-8.03,40.98c-0.16,16.99,0.92,34.05,1.33,39.77l29.38-2.57
		c-0.75-5.75-3.07-22.67-6.6-39.28C236.85,309.55,230.5,306.38,228.51,306.38z"/>
</g>
<g>
	<path class="st2" d="M767.1,372.69c8.26,1.47,8.78,41.36,8.78,41.36l-20.5-0.94C755.38,413.11,758.84,371.22,767.1,372.69z"/>
	<path class="st2" d="M775.88,416.05c-0.03,0-0.06,0-0.09,0l-20.5-0.94c-0.54-0.03-1.05-0.27-1.41-0.68
		c-0.36-0.41-0.54-0.94-0.49-1.48c0.49-5.93,3.29-35.78,10.36-41.23c1.44-1.11,2.8-1.15,3.7-0.99c2.85,0.51,6.89,3.44,9.12,22.97
		c1.16,10.14,1.3,20.23,1.31,20.33c0.01,0.55-0.21,1.08-0.61,1.46C776.89,415.85,776.4,416.05,775.88,416.05z M757.55,411.2
		l16.28,0.75c-0.1-3.46-0.41-10.63-1.23-17.83c-2.1-18.28-5.47-19.4-5.85-19.46c-0.07-0.01-0.22-0.04-0.56,0.22
		C763.92,376.63,759.66,388.01,757.55,411.2z"/>
</g>
<g>
	<path class="st0" d="M353.39,179.36c10.15,0.02,19.15,47.44,19.15,47.44l-24.62,3.18C347.92,229.98,343.24,179.34,353.39,179.36z"
		/>
	<path class="st0" d="M347.92,231.98c-0.45,0-0.89-0.15-1.25-0.44c-0.42-0.34-0.69-0.84-0.74-1.38c-0.4-4.38-3.74-42.98,3.57-50.98
		c1.38-1.51,2.87-1.82,3.88-1.82c0,0,0.01,0,0.01,0c3.36,0.01,8.61,2.62,15.3,25.16c3.51,11.82,5.79,23.79,5.82,23.91
		c0.1,0.54-0.02,1.1-0.35,1.55s-0.82,0.74-1.36,0.81l-24.62,3.18C348.09,231.97,348.01,231.98,347.92,231.98z M353.38,181.36
		c-0.14,0-0.46,0.01-0.92,0.52c-4.42,4.84-4.05,29.83-2.72,45.85l20.45-2.64C364.83,198.02,357.37,181.36,353.38,181.36
		L353.38,181.36C353.39,181.36,353.38,181.36,353.38,181.36z"/>
</g>
<g>
	<path class="st11" d="M120,436.59c244-33.59,459,14.41,760,0v29.12H120V436.59z"/>
</g>
<path class="st4" d="M119.87,435.67c62.74-9.76,126.36-13.15,189.81-13.29c63.48-0.18,126.89,2.75,190.22,5.91
	c31.67,1.56,63.32,3.29,94.98,4.74c31.66,1.46,63.33,2.69,95,3.46c31.68,0.77,63.36,1.1,95.04,0.84
	c31.68-0.25,63.34-1.17,95.04-1.67c0.51-0.01,0.93,0.4,0.94,0.91c0.01,0.49-0.37,0.9-0.85,0.94c-31.64,2.46-63.37,3.27-95.09,3.6
	c-31.72,0.33-63.45,0.08-95.17-0.62c-63.43-1.4-126.79-4.61-190.11-7.88c-63.31-3.24-126.64-6.25-189.99-6.15
	c-31.67,0.04-63.33,0.93-94.94,2.7c-3.95,0.18-7.9,0.48-11.85,0.75l-11.84,0.81c-7.9,0.54-15.78,1.25-23.67,1.87l-23.64,2.28
	l-23.61,2.63l-0.01,0c-0.51,0.06-0.97-0.31-1.02-0.82C119.04,436.2,119.39,435.75,119.87,435.67z"/>
<g>
	<path class="st5" d="M667.29,221.69l-13.95-1.22c-1.1-0.1-1.91-1.07-1.82-2.17l2.79-31.88c0.1-1.1,1.07-1.91,2.17-1.82l13.95,1.22
		c1.1,0.1,1.91,1.07,1.82,2.17l-2.79,31.88C669.36,220.97,668.39,221.78,667.29,221.69z"/>
	<path class="st4" d="M654.32,186.42l-2.79,31.88c-0.1,1.1,0.72,2.07,1.82,2.17l12.41,1.09c-1.15-3.02-2.32-5.83-2.11-9.44
		c0.14-2.3,1.43-4.55,0.4-6.78c-1.18-2.54-3.79-2.51-2.94-6.01c0.76-3.15,2.33-3.97,0.75-7.36c-0.94-2-2.58-3.53-3.59-5.47
		c-0.34-0.66-0.56-1.24-0.71-1.79l-1.06-0.09C655.38,184.51,654.41,185.32,654.32,186.42z"/>
	
		<rect x="656.01" y="189.01" transform="matrix(0.9962 0.0872 -0.0872 0.9962 20.2127 -56.9257)" class="st6" width="12" height="28"/>
	<path class="st7" d="M654.81,216.43l9.44,0.83c-0.45-1.59-0.72-3.26-0.61-5.15c0.14-2.3,1.43-4.55,0.4-6.78
		c-1.18-2.54-3.79-2.51-2.94-6.01c0.76-3.15,2.33-3.97,0.75-7.36c-0.55-1.17-1.33-2.18-2.1-3.2l-2.49-0.22L654.81,216.43z"/>
</g>
<g>
	<circle class="st16" cx="665.2" cy="165.08" r="8"/>
	<path class="st17" d="M679.26,165.6l-3.5,1.63c-0.52,0.24-1.13,0.02-1.38-0.5c-0.16-0.35-0.11-0.74,0.09-1.03l2.21-3.16
		c0.66-0.94,1.95-1.16,2.88-0.51c0.94,0.66,1.16,1.95,0.51,2.88C679.87,165.22,679.58,165.46,679.26,165.6z"/>
	<path class="st17" d="M668.47,148.11l-1.32,3.63c-0.2,0.54-0.79,0.81-1.33,0.62c-0.36-0.13-0.6-0.44-0.67-0.79l-0.67-3.8
		c-0.2-1.13,0.55-2.2,1.68-2.4c1.13-0.2,2.2,0.55,2.4,1.68C668.63,147.41,668.59,147.78,668.47,148.11z"/>
	<path class="st17" d="M655.72,151.02l1.63,3.5c0.24,0.52,0.02,1.13-0.5,1.38c-0.35,0.16-0.74,0.11-1.03-0.09l-3.16-2.21
		c-0.94-0.66-1.16-1.95-0.51-2.88s1.95-1.16,2.88-0.51C655.34,150.41,655.57,150.7,655.72,151.02z"/>
	<path class="st18" d="M659.94,171.1c1.23,1.08,2.8,1.8,4.56,1.95c4.4,0.39,8.28-2.87,8.67-7.27c0.23-2.65-0.86-5.1-2.72-6.72
		c-0.37,0.35-0.78,0.69-1.24,1c-1.84,1.25-3.65,2.15-3.98,4.63c-0.32,2.38,0.2,2.91-1.92,4.65
		C662.32,170.14,661.07,170.56,659.94,171.1z"/>
</g>
<path class="st3" d="M775.79,416.05c0.03,0,0.06,0,0.09,0c0.52,0,1.02-0.2,1.39-0.56c0.4-0.38,0.62-0.91,0.61-1.46
	c0-0.1-0.15-10.19-1.31-20.33c-2.24-19.53-6.28-22.46-9.12-22.97c-0.38-0.07-0.86-0.09-1.39-0.02c-0.1,0.43-0.18,0.87-0.29,1.27
	c-0.42,1.5-1.09,3.05-1.26,4.61c-0.48,4.36,2.18,8.24,1.59,12.81c-0.75,5.85-2.2,10.45-1.42,16.42c0.42,3.23,0.39,6.49,0.23,9.74
	L775.79,416.05z"/>
<path class="st3" d="M556.75,297.2c-0.11,0.36-0.2,0.73-0.25,0.91c-0.52,1.81-0.75,3.61-0.63,5.49c0.15,2.28,0.96,4.54,0.72,6.85
	c-0.32,3.2-2.62,5.09-3.41,8.03c-0.84,3.08,0.75,4.55,3.19,6.06c3.28,2.03,3.81,2.95,3.05,6.74c-0.52,2.61-1.65,5.09-2.33,7.66
	c-1.15,4.35,0.28,8.14-0.15,12.47c-0.24,2.37-1.38,4.55-0.8,6.97c0.43,1.8,1.69,2.72,2.56,4.25c2.73,4.82-2.17,10.57-3.24,15.46
	c-0.94,4.28,0.5,7.84,3.45,10.99c0.95,1.01,2.04,1.93,3.03,2.91h11.76c0.54,0,1.06-0.22,1.43-0.61c0.38-0.39,0.58-0.91,0.56-1.45
	c-0.01-0.23-0.7-23.06-3.25-45.6C567.95,304.65,561.52,297.89,556.75,297.2z"/>
<path class="st1" d="M634.68,256c-0.89,0-1.81,0.25-2.76,1c0.44,0.5,1.05,0.91,1.76,1.1c-0.12,0.42-0.22,0.91-0.3,1.16
	c-0.43,1.34-0.96,2.74-0.89,4.18c0.09,1.9,1.02,3.23,2.37,4.07c-1.19,2.6-2.24,5.19-0.61,8.02c0.8,1.39,1.99,1.97,3.08,3.06
	c2.25,2.26,1.49,4.58,0.36,7.23c-2.71,6.34-6.45,11.57-1.2,17.57c2.18,2.49,2.05,3.02,0.69,5.89c-0.68,1.44-1.24,2.79-1.43,4.38
	c-0.49,4.18,1.95,7.37,2.81,11.27c1.08,4.88-1.86,9.69-0.99,14.69c0.35,1.98,1.29,3.9,1.41,5.91c0.17,2.95-1.49,5.54-2.6,8.14
	c-1.32,3.08-2.3,6.08-1.31,9.32h19.85c0.56,0,1.09-0.23,1.47-0.64s0.57-0.96,0.52-1.52c-0.02-0.26-2.15-26.1-5.7-51.61
	C644.69,262.32,639.2,256,634.68,256z"/>
<path class="st15" d="M703.12,310.14c-0.1,0-0.19,0-0.29,0.01c-0.33,1.15-0.92,2.71-0.97,3.05c-0.3,2.03,0.24,3.91,0.72,5.86
	c0.84,3.41,0.6,6.2,0.33,9.62c-0.28,3.54-1.02,9.15,2.09,11.67c-0.73,2.79-2.42,4.98-2,8.1c0.28,2.09,0.95,3.74,0.36,5.92
	c-0.55,2.02-1.77,3.81-2.22,5.88c-0.67,3.1,0.36,6.46,0.65,9.56c0.46,5.01,0.56,10.05,0.52,15.08c-0.03,4.14-1.73,13.46-0.45,20.11
	H716c0.55,0,1.07-0.22,1.45-0.62c0.38-0.39,0.58-0.93,0.55-1.47c-0.01-0.23-1.03-23.02-3.12-45.53
	C710.83,313.79,706.69,310.14,703.12,310.14z"/>
<path class="st7" d="M502.95,296.84c-2.8-11.01-5.53-15.71-9.13-15.71c-0.28,0-0.55,0.04-0.81,0.09c-0.15,0.59-0.38,1.51-0.43,1.83
	c-0.21,1.24-0.54,2.66-0.32,3.93c0.19,1.15,0.71,2.21,1.38,3.16c0.44,0.62,1.24,1.07,1.61,1.71c0.92,1.59,0.54,2.88,0.42,4.53
	c-0.31,4.52-0.27,7.68,1.15,12.02c1.69,5.19-0.98,9.72-2.37,14.73c-1.27,4.57-1.18,8.8-1.09,13.49c0.1,5.32-1.13,9.81-2.29,14.93
	c-1.71,7.54,3.34,14.08,2.85,21.63c-0.06,0.89-0.12,1.84-0.16,2.81h17.95c0.56,0,1.09-0.23,1.47-0.64s0.57-0.96,0.52-1.52
	c-0.02-0.23-1.9-23.03-5.03-45.54C506.8,315.03,504.89,304.45,502.95,296.84z"/>
<path class="st7" d="M307.66,374.55c-1.25-5.39-4.31-9.95-3.69-15.7c0.57-5.3,2.09-9.95,0.86-15.3c-1.01-4.4-3.15-8.5-3.67-13.02
	c-0.62-5.41,1.42-10.83,1.32-16.27c-0.04-2.41-0.39-4.81-1.47-6.99c-1.04-2.08-3.05-3.81-3.56-6.15c-0.52-2.43,0.59-5.12,0.78-7.54
	c0.09-1.14,0-2.25-0.07-3.36c-0.08,0-0.16-0.01-0.24-0.01c-4.3,0.19-8.54,6.1-10.41,47.75c-1.01,22.58-0.75,45.39-0.75,45.62
	c0.01,0.54,0.23,1.06,0.63,1.43c0.37,0.35,0.86,0.55,1.37,0.55c0.03,0,0.06,0,0.09,0l20.59-0.9
	C309.08,381.15,308.39,377.69,307.66,374.55z"/>
<path class="st1" d="M345.93,230.16c0.05,0.54,0.32,1.04,0.74,1.38c0.36,0.29,0.8,0.44,1.25,0.44c0.09,0,0.17-0.01,0.26-0.02
	l10.88-1.41c0.25-3.11,0.77-6.26,0.36-9.36c-0.41-3.09-2.02-5.76-2.76-8.74c-0.93-3.71,0.69-7.34-0.51-11.02
	c-0.87-2.67-1.17-4.23-0.97-7.15c0.06-0.89,0.12-1.75-0.02-2.63c-0.36-2.17-1.54-3.98-1.89-6.2c-0.25-1.59-0.28-3.2-0.63-4.78
	c-0.21-0.94-0.86-1.98-1.17-2.92c-0.64,0.27-1.31,0.71-1.96,1.42C342.19,187.19,345.53,225.79,345.93,230.16z"/>
<path class="st15" d="M429.26,373.38c-1.5-11.27,1.58-22.55,1.04-33.85c-0.22-4.71-2.21-9.21-1.87-13.93
	c0.26-3.64,1.1-6.87-0.96-10.13c-0.92-1.45-2.4-2.55-2.81-4.3c-0.48-2.03,0.52-4.86,0.92-6.9c0.97-4.9,1.19-9.83,2.25-14.71
	c0.2-0.94-0.12-1.78-0.71-2.42c-3.58,0-7.68,3.66-10.99,47.28c-1.71,22.5-2.34,45.3-2.35,45.53c-0.01,0.54,0.19,1.06,0.57,1.45
	c0.38,0.39,0.89,0.61,1.43,0.61h13.36c0.23-0.99,0.46-1.97,0.51-2.99C429.74,377.12,429.51,375.25,429.26,373.38z"/>
<path class="st3" d="M234.61,384.84c-1.28-5.44,1.76-10.08,1.43-15.45c-0.13-2.11-0.9-3.83-1.64-5.75
	c-1.48-3.85-0.53-5.68,0.36-9.47c0.99-4.23-0.02-6.32-2.01-9.92c-2.92-5.29,0.87-11.44-1.44-17.13c-0.86-2.13-2.22-3.98-2.1-6.37
	c0.13-2.63,2.07-4.84,2.66-7.34c0.77-3.34-0.73-5.97-4.33-5.91c-0.27,0-1.3,0.32-2.02,0.5c0.44-0.57,0.7-1.96,0.82-2.26
	c0.48-1.15,1.1-2.25,1.73-3.33c-0.02,0-0.04,0-0.06,0c-4.83,0.42-11.3,5.54-11.68,44.93c-0.2,20.91,1.47,41.93,1.49,42.14
	c0.04,0.53,0.3,1.02,0.7,1.37c0.36,0.31,0.82,0.47,1.29,0.47c0.06,0,0.12,0,0.17-0.01l15.86-1.39
	C235.48,388.28,235.03,386.64,234.61,384.84z"/>
<path class="st3" d="M373.91,375.51c-0.83-4.16-3.24-7.68-4.72-11.6c-1.96-5.21-0.99-9.96,0.24-15.19
	c1.23-5.26,1.73-9.87-0.07-15.05c-1.48-4.28-6.51-9.14-5.63-13.64c0.98-5,4.4-8.26,3.41-13.7c-0.47-2.58-1.7-4.93-1.78-7.59
	c-0.05-1.56,0.28-3.04,0.7-4.51c-3.24,0.63-5.68,5.42-8.05,15.67c-1.75,7.61-3.42,18.19-4.96,31.45
	c-2.61,22.51-3.95,45.32-3.97,45.54c-0.03,0.55,0.16,1.09,0.54,1.49c0.38,0.4,0.9,0.63,1.46,0.63h21.29
	c0.02-0.16,0.03-0.32,0.05-0.47C373.09,383.98,374.85,380.2,373.91,375.51z"/>
<path class="st8" d="M591.51,142.29c-0.05-2.17-0.54-4.36-1.43-6.3c-0.87-1.91-2.25-3.73-3.79-4.36c-0.75-0.33-1.43-0.31-2.13-0.04
	c-0.7,0.29-1.41,0.88-2.03,1.65c-1.26,1.54-2.17,3.63-2.91,5.73l0,0.01L579.2,139c-0.4,1.03-1.56,1.54-2.59,1.14
	c-0.78-0.31-1.27-1.06-1.27-1.85c-0.02-3.68-0.46-7.38-1.74-10.65c-0.63-1.62-1.5-3.12-2.58-4.24c-0.54-0.55-1.14-1.02-1.76-1.29
	c-0.62-0.31-1.25-0.46-1.89-0.42c-0.63,0.03-1.28,0.17-1.9,0.53c-0.32,0.12-0.61,0.4-0.92,0.58c-0.28,0.27-0.59,0.48-0.86,0.79
	c-1.11,1.16-2.01,2.66-2.72,4.27c-0.73,1.61-1.25,3.36-1.65,5.15c-0.43,1.78-0.67,3.63-0.88,5.48l0,0.03
	c-0.13,1.1-1.12,1.88-2.22,1.75c-1.02-0.12-1.76-0.98-1.77-1.98c-0.02-7.05-0.35-14.12-1.45-21c-0.56-3.43-1.33-6.83-2.51-9.96
	c-0.59-1.55-1.32-3.04-2.21-4.23c-0.44-0.59-0.93-1.09-1.41-1.4c-0.48-0.31-0.89-0.43-1.28-0.41c-0.79,0.02-1.96,0.89-2.86,2.11
	c-0.93,1.21-1.7,2.69-2.37,4.22c-1.33,3.09-2.25,6.45-2.99,9.84c-1.45,6.82-2.11,13.85-2.42,20.9l0,0.01l0,0.04
	c-0.07,1.1-1.01,1.94-2.11,1.88c-1.06-0.06-1.88-0.95-1.88-2c0.01-3.53-0.44-7.13-2-9.97c-0.78-1.39-1.82-2.59-3.11-3.17
	c-1.27-0.65-2.74-0.7-4.17-0.27c-1.43,0.46-2.77,1.41-3.87,2.63c-1.11,1.22-1.99,2.7-2.64,4.3c-0.65,1.6-1.08,3.31-1.35,5.06
	c-0.27,1.75-0.29,3.55-0.25,5.35l0,0.04c0.02,0.83-0.64,1.51-1.47,1.53c-0.81,0.02-1.48-0.61-1.53-1.41
	c-0.23-3.91,0.12-7.95,1.57-11.77c0.73-1.9,1.74-3.73,3.13-5.33c1.39-1.59,3.16-2.97,5.3-3.72c1.08-0.34,2.23-0.56,3.41-0.51
	c1.16,0.07,2.36,0.3,3.41,0.82c2.17,0.96,3.73,2.75,4.82,4.58c2.16,3.77,2.66,7.9,2.75,11.84l-4-0.08l0-0.01
	c0.32-7.2,0.99-14.42,2.51-21.57c0.78-3.57,1.73-7.13,3.23-10.6c0.76-1.73,1.63-3.45,2.87-5.07c0.63-0.81,1.34-1.6,2.27-2.29
	c0.91-0.68,2.11-1.27,3.5-1.38c1.39-0.1,2.76,0.39,3.76,1.06c1.02,0.68,1.76,1.5,2.39,2.33c1.25,1.68,2.07,3.44,2.75,5.21
	c1.34,3.55,2.13,7.15,2.72,10.75c1.16,7.21,1.49,14.44,1.51,21.65l-3.99-0.2c0.23-1.99,0.49-3.99,0.97-5.97
	c0.45-1.98,1.03-3.96,1.89-5.88c0.85-1.91,1.94-3.8,3.51-5.44c0.37-0.42,0.85-0.78,1.28-1.17c0.5-0.33,0.95-0.71,1.52-0.97
	c1.06-0.59,2.35-0.94,3.64-0.98c1.3-0.06,2.61,0.26,3.72,0.8c1.14,0.52,2.09,1.28,2.9,2.1c1.61,1.67,2.68,3.61,3.45,5.58
	c1.54,3.97,1.98,8.08,2.01,12.12l-3.88-0.68l0-0.01c0.47-1.17,0.95-2.34,1.58-3.48c0.6-1.15,1.32-2.27,2.24-3.32
	c0.92-1.04,2.07-2.04,3.61-2.61c1.53-0.57,3.43-0.46,4.82,0.25c1.43,0.68,2.5,1.69,3.34,2.78c0.85,1.09,1.49,2.26,2,3.48
	c1,2.43,1.48,5.01,1.46,7.6c-0.01,0.83-0.69,1.49-1.52,1.48c-0.81-0.01-1.46-0.66-1.48-1.46L591.51,142.29z"/>
</svg>
