<?xml version="1.0" encoding="utf-8"?>
<!-- Generator: Adobe Illustrator 22.1.0, SVG Export Plug-In . SVG Version: 6.00 Build 0)  -->
<svg version="1.1" id="Vectors" xmlns="http://www.w3.org/2000/svg" xmlns:xlink="http://www.w3.org/1999/xlink" x="0px" y="0px"
	 width="64px" height="64px" viewBox="0 0 64 64" style="enable-background:new 0 0 64 64;" xml:space="preserve">
<style type="text/css">
	.st0{fill:#CDDAE8;}
	.st1{opacity:0.2;fill:#278BD6;}
	.st2{fill:#278BD6;}
	.st3{opacity:0.3;fill:#064E72;}
	.st4{fill:#2E3547;}
	.st5{fill:#4E5C75;}
	.st6{fill:#A0C2EC;}
	.st7{opacity:0.3;fill:#278BD6;}
	.st8{opacity:0.1;fill:#278BD6;}
	.st9{fill:#EF4B4B;}
	.st10{opacity:0.2;}
	.st11{fill:#FFFFFF;}
	.st12{opacity:0.1;}
	.st13{opacity:0.35;fill:#278BD6;}
	.st14{opacity:0.35;}
	.st15{opacity:0.3;fill:#2E3547;}
	.st16{fill:#FCD381;}
	.st17{opacity:0.35;fill:#FCD381;}
	.st18{opacity:0.3;fill:#FCD381;}
	.st19{fill:none;}
	.st20{display:none;fill:#EF4B4B;}
	.st21{fill:#F8C069;}
	.st22{fill:#E23537;}
	.st23{fill:#237BC9;}
</style>
<g>
	<path class="st9" d="M51.08,4.07c-4.33-2.58-11.84,0.6-18.44,7.62c-6.42-8.72-14.43-10.54-19.1-7.63
		c-3.85,2.4-6.18,8.67-0.09,18.42c10.56,16.9,18.1,37.23,18.18,37.43c0.28,0.76,0.99,1.27,1.79,1.31c0.03,0,0.06,0,0.08,0
		c0.77,0,1.48-0.45,1.81-1.15c0.08-0.16,7.68-16.5,16.24-37.9C56.32,10.29,53.92,5.77,51.08,4.07z"/>
	<path class="st22" d="M51.08,4.07c-3.91-2.33-10.4,0.05-16.49,5.69c1.26,5.26,1.57,10.74,0,15.96c-2.27,7.53-6.86,13.95-8.14,21.7
		c3.22,7.24,5.14,12.39,5.17,12.49c0.28,0.76,0.99,1.27,1.79,1.31c0.03,0,0.06,0,0.08,0c0.77,0,1.48-0.45,1.81-1.15
		c0.08-0.16,7.68-16.5,16.24-37.9C56.32,10.29,53.92,5.77,51.08,4.07z"/>
</g>
</svg>
