<svg id="GiveCryptoOrg-logo" xmlns="http://www.w3.org/2000/svg" width="217" height="33" viewBox="0 0 217 33">
  <g style="isolation: isolate">
    <path d="M13.3,13.7h7.6V25H18.5l-.3-3.1a7,7,0,0,1-6.3,3.3c-5.1,0-10-3.7-10-11.5S6.7,2.2,11.9,2.2A8.51,8.51,0,0,1,20.7,9L18,9.9C17,6.8,14.9,5,11.9,5,7.8,5,4.7,8,4.7,13.8s3.1,8.8,7.2,8.8c3.9,0,5.9-2.6,6.2-6.2H13.2V13.7Z" style="fill: #323232"/>
    <path d="M27.1,2.2a2,2,0,0,1,2,2.1,2,2,0,0,1-2,2,1.94,1.94,0,0,1-2-2A1.92,1.92,0,0,1,27.1,2.2Zm1.3,6.6V25H25.7V8.8Z" style="fill: #323232"/>
    <path d="M45.8,8.8,40.4,25H37.6L32.3,8.8h2.8l4,12.8,4-12.8Z" style="fill: #323232"/>
    <path d="M62.5,17.5H50.6c.2,3,1.6,5.3,4.6,5.3,2.4,0,3.6-1.1,4.5-3.1l2.4,1c-1.5,3.1-3.5,4.5-6.9,4.5-4.9,0-7.3-4-7.3-8.4s2.4-8.4,7.3-8.4,7.3,3.7,7.3,7.7ZM50.8,15h8.9c-.5-2.3-1.9-4-4.5-4S51.3,12.7,50.8,15Z" style="fill: #323232"/>
  </g>
  <g style="isolation: isolate">
    <path d="M167.7,21.1a2,2,0,0,1,2,2,2,2,0,0,1-4,0A2,2,0,0,1,167.7,21.1Z" style="fill: #323232"/>
  </g>
  <g style="isolation: isolate">
    <path d="M179.9,8.2c4.9,0,7.8,4,7.8,8.4s-2.9,8.4-7.8,8.4-7.8-4-7.8-8.4S175.1,8.2,179.9,8.2Zm0,14.3c3.3,0,5-2.9,5-5.9s-1.7-5.9-5-5.9-5,2.9-5,5.9S176.6,22.5,179.9,22.5Z" style="fill: #323232"/>
  </g>
  <g style="isolation: isolate">
    <path d="M200.6,11.1a4.14,4.14,0,0,0-1.9-.5c-2.2,0-4.5,2.6-4.5,7.9v6.1h-2.7V8.5h2.7v2.8a5.84,5.84,0,0,1,4.8-3,4.47,4.47,0,0,1,2.2.5Z" style="fill: #323232"/>
    <path d="M209.2,8.2a6.53,6.53,0,0,1,2.9.7L215,7.3l1.2,2.2L214,10.7a5.47,5.47,0,0,1,.8,2.9c0,3.4-2.5,5.4-5.7,5.4a6.39,6.39,0,0,1-2.8-.6,1.82,1.82,0,0,0-1.1,1.6c0,.9.6,1.3,1.8,1.3h3.8c3,0,5.1,1.5,5.1,4.5,0,4-3.1,5.6-6.8,5.6-4.1,0-6.9-2-6.9-5.3a4.36,4.36,0,0,1,1.5-3.4,3.17,3.17,0,0,1-1.1-2.6,3.28,3.28,0,0,1,2-3,5.68,5.68,0,0,1-1.2-3.5A5.47,5.47,0,0,1,209.2,8.2Zm-1.9,15.5a4.87,4.87,0,0,1-1.2-.1A2.77,2.77,0,0,0,205,26c0,1.8,1.4,3.1,4.2,3.1s4.1-1.3,4.1-3-1.2-2.4-2.7-2.4Zm1.9-6.9a2.91,2.91,0,0,0,3-3.1,3,3,0,1,0-6,0A2.91,2.91,0,0,0,209.2,16.8Z" style="fill: #323232"/>
  </g>
  <g style="isolation: isolate">
    <path d="M81,10a5.43,5.43,0,0,0-5.6-3.9c-3.5,0-6.4,2.4-6.4,7.6s2.9,7.6,6.4,7.6A5.51,5.51,0,0,0,81,17.4l3.8,1c-1.1,4.3-4.4,6.8-9.3,6.8-5.6,0-10.6-4-10.6-11.5s5-11.5,10.6-11.5c4.9,0,8.3,2.5,9.3,6.8Z" style="fill: #323232"/>
  </g>
  <g style="isolation: isolate">
    <path d="M88.3,25V8.8h4v2.6a5.76,5.76,0,0,1,4.8-2.9,6.93,6.93,0,0,1,2,.3l-.7,3.7a3.06,3.06,0,0,0-1.7-.4c-2.3,0-4.3,1.9-4.3,7.1V25Z" style="fill: #323232"/>
    <path d="M104.7,8.8,108.5,19,112,8.8h4l-8.4,22.8h-3.9l2.8-7.6L100.6,8.8Z" style="fill: #323232"/>
  </g>
  <g style="isolation: isolate">
    <path d="M125.5,25.3a5.28,5.28,0,0,1-3.9-1.7v8h-4V8.8h4v1.7a4.7,4.7,0,0,1,3.9-1.9c4.9,0,7.4,3.4,7.4,8.4S130.4,25.3,125.5,25.3ZM124.9,12c-2.1,0-3.7,1.7-3.7,4.9s1.6,4.9,3.7,4.9,3.8-1.7,3.8-4.9S127,12,124.9,12Z" style="fill: #323232"/>
  </g>
  <g style="isolation: isolate">
    <path d="M145.7,24.7a6.51,6.51,0,0,1-2.6.6c-3.7,0-5.9-2-5.9-6V12.2h-2.5V8.8h2.5v-4l4-2.5V8.9h4.3v3.4h-4.3v7c0,2,.8,2.6,2.1,2.6a2.82,2.82,0,0,0,1.5-.4Z" style="fill: #323232"/>
  </g>
  <g style="isolation: isolate">
    <path d="M155.7,8.5c5.2,0,8.2,3.7,8.2,8.4s-3,8.4-8.2,8.4-8.2-3.7-8.2-8.4S150.5,8.5,155.7,8.5Zm0,13.4c2.6,0,4-2.3,4-4.9s-1.5-4.9-4-4.9-4,2.3-4,4.9S153.2,21.9,155.7,21.9Z" style="fill: #323232"/>
  </g>
</svg>
