<?xml version="1.0" encoding="utf-8"?>
<!-- Generator: Adobe Illustrator 22.1.0, SVG Export Plug-In . SVG Version: 6.00 Build 0)  -->
<svg version="1.1" id="Vectors" xmlns="http://www.w3.org/2000/svg" xmlns:xlink="http://www.w3.org/1999/xlink" x="0px" y="0px"
	 width="900px" height="1100px" viewBox="0 0 900 1100" style="enable-background:new 0 0 900 1100;" xml:space="preserve">
<style type="text/css">
	.st0{fill:#CDDAE8;}
	.st1{opacity:0.2;fill:#278BD6;}
	.st2{fill:#278BD6;}
	.st3{opacity:0.3;fill:#064E72;}
	.st4{fill:#2E3547;}
	.st5{fill:#4E5C75;}
	.st6{fill:#A0C2EC;}
	.st7{opacity:0.3;fill:#278BD6;}
	.st8{opacity:0.1;fill:#278BD6;}
	.st9{fill:#EF4B4B;}
	.st10{opacity:0.2;}
	.st11{fill:#FFFFFF;}
	.st12{opacity:0.1;}
	.st13{opacity:0.35;fill:#278BD6;}
	.st14{opacity:0.35;}
	.st15{opacity:0.3;fill:#2E3547;}
	.st16{fill:#FCD381;}
	.st17{opacity:0.35;fill:#FCD381;}
	.st18{opacity:0.3;fill:#FCD381;}
	.st19{fill:none;}
	.st20{display:none;fill:#EF4B4B;}
	.st21{fill:#F8C069;}
	.st22{fill:#E23537;}
	.st23{fill:#237BC9;}
</style>
<path class="st8" d="M318.08,153.32c-0.56-0.48-1.15-1.01-1.67-1.7c-0.52-0.68-0.98-1.61-1.06-2.68c-0.09-1.05,0.24-2.12,0.7-2.94
	c0.45-0.84,1.02-1.46,1.52-2.04c1.03-1.16,1.97-2.04,2.37-2.95c0.45-0.93,0.67-2.03,0.62-3.24c-0.01-1.21-0.23-2.5-0.56-3.8
	c-0.28-1.3-0.77-2.65-1.13-4.12c-0.38-1.45-0.69-2.98-0.75-4.59c-0.05-1.6,0.18-3.3,0.92-4.78c0.25-0.5,0.85-0.7,1.35-0.45
	c0.4,0.2,0.61,0.64,0.54,1.06l-0.01,0.04c-0.42,2.54,0.39,5.03,1.35,7.66c0.5,1.3,1.02,2.66,1.48,4.16
	c0.42,1.49,0.75,3.06,0.79,4.75c0.02,1.67-0.28,3.51-1.2,5.14c-0.97,1.68-2.28,2.71-3.27,3.6c-0.5,0.45-0.94,0.89-1.25,1.29
	c-0.31,0.4-0.47,0.75-0.53,1.16c-0.18,0.77,0.45,1.92,1.26,3.1c0.31,0.46,0.19,1.09-0.27,1.4
	C318.92,153.65,318.42,153.61,318.08,153.32L318.08,153.32z"/>
<path class="st8" d="M331.33,154.31c-1.14-1.04-1.9-2.5-2.25-4c-0.35-1.51-0.36-3.06-0.1-4.54c0.22-1.49,0.83-2.96,1.39-4.16
	c0.56-1.23,1.13-2.32,1.41-3.34c0.31-1.03,0.36-1.8,0.14-2.97c-0.15-1.13-0.58-2.57-0.59-4.12c-0.07-3.03,0.82-5.72,1.82-8.18
	c0.21-0.52,0.8-0.77,1.32-0.55c0.42,0.17,0.66,0.59,0.63,1.01c-0.19,2.66-0.52,5.2-0.2,7.45c0.15,1.1,0.51,2.19,0.86,3.65
	c0.15,0.72,0.26,1.53,0.24,2.4c-0.02,0.86-0.17,1.7-0.41,2.45c-0.49,1.51-1.16,2.77-1.77,3.9c-0.62,1.15-1.09,2.12-1.41,3.21
	c-0.62,2.18-0.67,4.51,0.43,6.49l0.02,0.04c0.27,0.49,0.1,1.1-0.39,1.37C332.11,154.67,331.64,154.6,331.33,154.31z"/>
<g>
	<g>
		<path class="st6" d="M324.17,176c9.75,0,17.66-6.54,17.66-14.61h-35.31C306.52,169.46,314.42,176,324.17,176z"/>
		<path class="st6" d="M324.17,178c-10.84,0-19.66-7.45-19.66-16.61c0-1.1,0.9-2,2-2h35.31c1.1,0,2,0.9,2,2
			C343.83,170.55,335.01,178,324.17,178z M308.71,163.39c1.19,6.01,7.67,10.61,15.46,10.61s14.27-4.6,15.46-10.61H308.71z"/>
	</g>
</g>
<path class="st7" d="M344.03,161.39c0-1.21-0.99-2.2-2.2-2.2h-8.37c-0.87,2.19-3.9,4.82-4.5,5.46c-1.48,1.61-2.49,3.36-2.52,5.6
	c-0.03,1.87,0.42,4.11-0.79,5.82c-0.57,0.81-1.56,1.44-2.44,2.1c0.32,0.01,0.63,0.04,0.96,0.04
	C335.12,178.2,344.03,170.66,344.03,161.39z"/>
<g>
	<path class="st4" d="M226.6,1033.84h-37.4c-1.1,0-2-0.9-2-2s0.9-2,2-2h37.4c1.1,0,2,0.9,2,2S227.7,1033.84,226.6,1033.84z"/>
	<path class="st4" d="M188.2,1059.84c-1.39-9.46-1.04-18.92-1.14-28.37l-0.11-28.38l-0.09-56.75l0.2-56.75l0.1-28.37
		c0.12-9.46-0.28-18.92,1.04-28.38c0.08-0.55,0.59-0.94,1.14-0.86c0.46,0.06,0.8,0.43,0.86,0.86c1.32,9.46,0.93,18.92,1.04,28.38
		l0.1,28.37l0.2,56.75l-0.09,56.75l-0.11,28.38c-0.1,9.46,0.25,18.92-1.14,28.37c-0.08,0.55-0.59,0.93-1.15,0.85
		C188.6,1060.63,188.26,1060.27,188.2,1059.84z"/>
	<path class="st4" d="M225.6,1059.84c-1.38-9.46-1.04-18.92-1.14-28.37l-0.11-28.38l-0.09-56.75l0.2-56.75l0.1-28.37
		c0.12-9.46-0.28-18.92,1.04-28.38c0.08-0.55,0.59-0.94,1.14-0.86c0.46,0.06,0.8,0.43,0.86,0.86c1.32,9.46,0.93,18.92,1.04,28.38
		l0.1,28.37l0.2,56.75l-0.09,56.75l-0.11,28.38c-0.1,9.46,0.24,18.92-1.14,28.37c-0.08,0.55-0.59,0.93-1.15,0.85
		C226,1060.63,225.66,1060.27,225.6,1059.84z"/>
	<path class="st4" d="M226.6,853.84h-37.4c-1.1,0-2-0.9-2-2s0.9-2,2-2h37.4c1.1,0,2,0.9,2,2S227.7,853.84,226.6,853.84z"/>
	<path class="st4" d="M226.6,883.84h-37.4c-1.1,0-2-0.9-2-2s0.9-2,2-2h37.4c1.1,0,2,0.9,2,2S227.7,883.84,226.6,883.84z"/>
	<path class="st4" d="M226.6,913.84h-37.4c-1.1,0-2-0.9-2-2s0.9-2,2-2h37.4c1.1,0,2,0.9,2,2S227.7,913.84,226.6,913.84z"/>
	<path class="st4" d="M226.6,943.84h-37.4c-1.1,0-2-0.9-2-2s0.9-2,2-2h37.4c1.1,0,2,0.9,2,2S227.7,943.84,226.6,943.84z"/>
	<path class="st4" d="M226.6,973.84h-37.4c-1.1,0-2-0.9-2-2s0.9-2,2-2h37.4c1.1,0,2,0.9,2,2S227.7,973.84,226.6,973.84z"/>
	<path class="st4" d="M226.6,1003.84h-37.4c-1.1,0-2-0.9-2-2s0.9-2,2-2h37.4c1.1,0,2,0.9,2,2S227.7,1003.84,226.6,1003.84z"/>
</g>
<path class="st4" d="M698.46,515.14c0.05-0.15,0.08-0.32,0.07-0.48c0-0.06-0.03-0.22-0.02-0.18l0.01,0.02l0.03,0.09l0.11,0.34
	c0.1,0.25,0.18,0.51,0.3,0.77c0.21,0.52,0.44,1.06,0.69,1.59c0.49,1.06,1.02,2.12,1.6,3.16c1.13,2.09,2.38,4.13,3.75,6.09
	c2.72,3.92,5.81,7.62,9.28,10.92c3.43,3.35,7.23,6.32,11.28,8.93c2.04,1.28,4.11,2.54,6.28,3.6c2.13,1.15,4.37,2.11,6.6,3.08
	l0.03,0.01c0.51,0.22,0.74,0.81,0.52,1.32c-0.2,0.47-0.72,0.7-1.19,0.56c-2.4-0.69-4.79-1.5-7.11-2.46
	c-2.33-0.94-4.58-2.09-6.82-3.27c-4.4-2.48-8.55-5.44-12.33-8.84c-3.73-3.44-7.16-7.23-10.04-11.43c-1.44-2.1-2.79-4.26-3.97-6.53
	c-0.59-1.13-1.14-2.29-1.65-3.48c-0.26-0.6-0.5-1.2-0.72-1.83c-0.11-0.31-0.22-0.64-0.32-0.97l-0.15-0.55l-0.08-0.37l-0.02-0.09
	l-0.02-0.12l-0.01-0.18c-0.01-0.24,0.01-0.48,0.06-0.71c0.27-1.07,1.36-1.72,2.43-1.45S698.74,514.07,698.46,515.14z"/>
<path class="st4" d="M412.33,919.54c-1.84,1.98-3.7,4.26-5.37,6.55c-0.83,1.16-1.67,2.33-2.47,3.51c-0.76,1.21-1.57,2.4-2.29,3.63
	c-0.71,1.25-1.44,2.48-2.13,3.73l-1.98,3.82l-1.76,3.92c-0.31,0.65-0.57,1.32-0.81,1.99l-0.75,2.01l-0.76,2.01l-0.64,2.05
	c-0.41,1.37-0.89,2.73-1.24,4.12l-0.97,4.2c-0.38,1.39-0.5,2.83-0.76,4.24c-1.05,5.67-1.14,11.46-1.18,17.27l0,0.07
	c0,0.55-0.45,1-1,0.99c-0.52,0-0.94-0.4-0.99-0.91c-0.13-1.48-0.25-2.96-0.36-4.45c-0.11-1.49-0.28-2.97-0.21-4.47l0.08-4.48
	c-0.01-0.75,0.06-1.49,0.14-2.24l0.22-2.23c0.2-3,0.88-5.92,1.42-8.87c0.3-1.47,0.75-2.9,1.12-4.36l0.59-2.18l0.74-2.13
	c1.94-5.68,4.44-11.19,7.55-16.33c0.76-1.3,1.61-2.54,2.41-3.81c0.85-1.24,1.71-2.47,2.61-3.68c0.93-1.18,1.85-2.38,2.85-3.51
	c0.98-1.17,1.98-2.24,3.14-3.37c0.79-0.77,2.06-0.75,2.83,0.04c0.75,0.77,0.76,1.98,0.04,2.75L412.33,919.54z"/>
<g>
	<rect x="339.9" y="1016.03" class="st0" width="15.4" height="19.8"/>
	<path class="st0" d="M355.3,1036.83h-15.4c-0.55,0-1-0.45-1-1v-19.8c0-0.55,0.45-1,1-1h15.4c0.55,0,1,0.45,1,1v19.8
		C356.3,1036.39,355.85,1036.83,355.3,1036.83z M340.9,1034.83h13.4v-17.8h-13.4V1034.83z"/>
</g>
<g class="st10">
	<rect x="339.9" y="1016.03" class="st2" width="15.4" height="19.8"/>
	<path class="st2" d="M355.3,1036.83h-15.4c-0.55,0-1-0.45-1-1v-19.8c0-0.55,0.45-1,1-1h15.4c0.55,0,1,0.45,1,1v19.8
		C356.3,1036.39,355.85,1036.83,355.3,1036.83z M340.9,1034.83h13.4v-17.8h-13.4V1034.83z"/>
</g>
<g>
	
		<rect x="286" y="849.93" transform="matrix(-1 -1.224647e-16 1.224647e-16 -1 622.6 1708.6655)" class="st0" width="50.6" height="8.8"/>
	<path class="st0" d="M336.6,859.73H286c-0.55,0-1-0.45-1-1v-8.8c0-0.55,0.45-1,1-1h50.6c0.55,0,1,0.45,1,1v8.8
		C337.6,859.29,337.15,859.73,336.6,859.73z M287,857.73h48.6v-6.8H287V857.73z"/>
</g>
<g>
	<rect x="272.8" y="858.73" class="st0" width="48.4" height="8.8"/>
	<path class="st0" d="M321.2,868.53h-48.4c-0.55,0-1-0.45-1-1v-8.8c0-0.55,0.45-1,1-1h48.4c0.55,0,1,0.45,1,1v8.8
		C322.2,868.09,321.75,868.53,321.2,868.53z M273.8,866.53h46.4v-6.8h-46.4V866.53z"/>
</g>
<g>
	
		<rect x="321.2" y="858.73" transform="matrix(-1 -1.224647e-16 1.224647e-16 -1 677.6 1726.2655)" class="st0" width="35.2" height="8.8"/>
	<path class="st0" d="M356.4,868.53h-35.2c-0.55,0-1-0.45-1-1v-8.8c0-0.55,0.45-1,1-1h35.2c0.55,0,1,0.45,1,1v8.8
		C357.4,868.09,356.95,868.53,356.4,868.53z M322.2,866.53h33.2v-6.8h-33.2V866.53z"/>
</g>
<g class="st10">
	
		<rect x="321.2" y="858.73" transform="matrix(-1 -1.224647e-16 1.224647e-16 -1 677.6 1726.2655)" class="st2" width="35.2" height="8.8"/>
	<path class="st2" d="M357.4,868.53h-37.2v-10.8h37.2V868.53z M322.2,866.53h33.2v-6.8h-33.2V866.53z"/>
</g>
<rect x="355.3" y="867.53" class="st1" width="11" height="9.85"/>
<rect x="139.7" y="867.53" class="st1" width="11" height="9.9"/>
<g>
	<rect x="322.3" y="1035.83" class="st0" width="33" height="20.9"/>
	<path class="st0" d="M355.3,1057.73h-33c-0.55,0-1-0.45-1-1v-20.9c0-0.55,0.45-1,1-1h33c0.55,0,1,0.45,1,1v20.9
		C356.3,1057.29,355.85,1057.73,355.3,1057.73z M323.3,1055.73h31v-18.9h-31V1055.73z"/>
</g>
<path class="st4" d="M366.3,1066.43h-11c-1.1,0-2-0.9-2-2v-196.9c0-1.1,0.9-2,2-2h11c1.1,0,2,0.9,2,2v196.9
	C368.3,1065.54,367.4,1066.43,366.3,1066.43z M357.3,1062.43h7v-192.9h-7V1062.43z"/>
<path class="st4" d="M121.04,866.53c11-1.1,21.99-1,32.99-1.03l32.99-0.08l65.98-0.16l65.98,0.14l32.99,0.08l16.5,0.04
	c5.5,0.01,11,0.12,16.5,1.01c0.55,0.09,0.93,0.61,0.84,1.16c-0.07,0.44-0.42,0.77-0.84,0.84c-5.5,0.89-11,1-16.5,1.01l-16.5,0.04
	l-32.99,0.08L253,869.8l-65.98-0.16l-32.99-0.08c-11-0.03-21.99,0.08-32.99-1.03c-0.55-0.06-0.96-0.55-0.9-1.1
	C120.19,866.95,120.57,866.58,121.04,866.53z"/>
<path class="st4" d="M138.29,866.12c3.99-0.35,8.27-0.61,12.41-0.59l0.01,0c1.1,0.01,2,0.9,1.99,2v198c0,1.1-0.9,2-2,2h-11
	c-1.1,0-2-0.9-2-2C137.68,999.06,137.94,932.44,138.29,866.12z M141.11,868.95c0.35,65.68,0.61,131.06,0.59,196.59l-2-2h11l-2,2
	v-198l2,2C147.51,869.55,144.46,869.3,141.11,868.95z"/>
<path class="st4" d="M472.8,600.68c0.05-0.01,0.36,0,0.57-0.01c0.23,0,0.48-0.03,0.72-0.05c0.5-0.06,0.99-0.14,1.5-0.25
	c0.51-0.08,1.01-0.26,1.51-0.39l1.5-0.54c1.99-0.79,3.91-1.91,5.73-3.21c1.85-1.27,3.49-2.87,5.18-4.44l2.37-2.55
	c0.76-0.89,1.5-1.79,2.28-2.67l0.04-0.05c0.37-0.41,1-0.45,1.41-0.09c0.36,0.32,0.44,0.85,0.2,1.25c-0.6,1.05-1.25,2.08-1.88,3.13
	c-0.67,1.02-1.42,1.99-2.13,2.99c-1.54,1.92-3.2,3.78-5.15,5.39c-1.9,1.65-4.04,3.12-6.46,4.13c-0.61,0.25-1.23,0.46-1.86,0.67
	c-0.65,0.17-1.27,0.38-1.95,0.48c-0.66,0.15-1.34,0.2-2.03,0.25c-0.36,0-0.69,0.03-1.06,0.01c-0.38-0.02-0.67-0.04-1.21-0.13
	c-1.06-0.18-1.77-1.18-1.59-2.24c0.14-0.84,0.81-1.46,1.6-1.59L472.8,600.68z"/>
<path class="st0" d="M523.6,918.13h46.2c0.61,0,1.1,0.49,1.1,1.1v5.5c0,0.61-0.49,1.1-1.1,1.1h-46.2c-0.61,0-1.1-0.49-1.1-1.1v-5.5
	C522.5,918.63,522.99,918.13,523.6,918.13z"/>
<path class="st1" d="M523.6,918.13h46.2c0.61,0,1.1,0.49,1.1,1.1v5.5c0,0.61-0.49,1.1-1.1,1.1h-46.2c-0.61,0-1.1-0.49-1.1-1.1v-5.5
	C522.5,918.63,522.99,918.13,523.6,918.13z"/>
<path class="st0" d="M521.4,933.53h46.2c0.61,0,1.1,0.49,1.1,1.1v6.6c0,0.61-0.49,1.1-1.1,1.1h-46.2c-0.61,0-1.1-0.49-1.1-1.1v-6.6
	C520.3,934.03,520.79,933.53,521.4,933.53z"/>
<path class="st1" d="M521.4,933.53h46.2c0.61,0,1.1,0.49,1.1,1.1v6.6c0,0.61-0.49,1.1-1.1,1.1h-46.2c-0.61,0-1.1-0.49-1.1-1.1v-6.6
	C520.3,934.03,520.79,933.53,521.4,933.53z"/>
<path class="st4" d="M538.73,522.78c1.01,1.45,2.18,2.99,3.37,4.41c1.2,1.44,2.44,2.85,3.76,4.19c2.63,2.67,5.43,5.17,8.51,7.25
	c3.06,2.09,6.35,3.85,9.87,4.99c3.5,1.2,7.2,1.72,10.97,1.72l0.03,0c0.55,0,1,0.45,1,1c0,0.5-0.37,0.92-0.85,0.99
	c-1.98,0.31-4.01,0.47-6.04,0.38c-2.02-0.12-4.06-0.37-6.04-0.87c-3.96-0.98-7.73-2.69-11.16-4.83c-3.4-2.2-6.57-4.74-9.36-7.63
	c-2.81-2.9-5.32-5.95-7.48-9.5c-0.57-0.94-0.27-2.17,0.67-2.75c0.91-0.55,2.08-0.3,2.67,0.56L538.73,522.78z"/>
<path class="st4" d="M541.57,606.38c0.98,4.08,1.53,8.03,2.05,12.05c0.47,4.01,0.84,8.03,1.1,12.05c0.24,4.02,0.45,8.04,0.53,12.06
	l0.08,6.03c-0.02,2.01-0.02,4.02-0.07,6.03c-0.01,0.55-0.47,0.99-1.03,0.98c-0.51-0.01-0.92-0.4-0.97-0.9
	c-0.43-3.99-0.8-7.97-1.2-11.95c-0.43-3.97-0.77-7.95-1.25-11.91c-0.43-3.96-0.88-7.92-1.42-11.86c-0.24-1.97-0.51-3.94-0.81-5.9
	c-0.27-1.95-0.59-3.95-0.92-5.79l-0.02-0.09c-0.19-1.09,0.53-2.12,1.62-2.32C540.32,604.69,541.32,605.36,541.57,606.38z"/>
<path class="st4" d="M523.93,606.69c0.21,2.05,0.32,4.07,0.46,6.1c0.09,2.03,0.17,4.06,0.23,6.09c0.11,4.06,0.09,8.12,0.03,12.18
	c-0.13,4.06-0.25,8.12-0.55,12.17c-0.14,2.02-0.31,4.05-0.49,6.07c-0.2,2.02-0.43,4.04-0.68,6.05c-0.07,0.55-0.57,0.94-1.12,0.87
	c-0.5-0.06-0.87-0.5-0.88-0.99l-0.09-12.09c-0.04-4.03-0.07-8.05-0.19-12.07c-0.04-4.02-0.19-8.04-0.31-12.06l-0.42-12.02l0-0.02
	c-0.04-1.1,0.83-2.03,1.93-2.07C522.93,604.86,523.82,605.65,523.93,606.69z"/>
<g>
	<path class="st0" d="M549.66,606.83H512.7c0,0,0.62-99.95,17.31-99.95C546.7,506.89,549.66,606.83,549.66,606.83z"/>
	<path class="st0" d="M549.66,607.83H512.7c-0.27,0-0.52-0.11-0.71-0.29c-0.19-0.19-0.29-0.45-0.29-0.71
		c0-0.25,0.18-25.32,2.4-50.06c3.07-34.24,8.28-50.88,15.91-50.88c7.62,0,13.21,16.64,17.08,50.86c2.8,24.74,3.56,49.81,3.57,50.06
		c0.01,0.27-0.09,0.53-0.28,0.73C550.19,607.72,549.93,607.83,549.66,607.83z M513.71,605.83h34.92
		c-0.17-4.96-1.06-27.05-3.53-48.87c-4.83-42.7-11.53-49.08-15.09-49.08c-3.55,0-10.09,6.37-13.92,49.05
		C514.13,578.8,513.77,600.92,513.71,605.83z"/>
</g>
<path class="st1" d="M534.52,603.14c0.79-4.77,1.8-10.72-0.06-15.41c-1.8-4.55-7.32-6.08-6.12-11.68c0.98-4.57,3.9-8.28,3.89-13.22
	c0-2.65-0.91-4.42-1.84-6.72c-1.61-3.96-1.22-7.89-1.07-12.15c0.24-7.2-0.63-14.47-0.19-21.65c0.29-4.75,3.06-11.42,0.6-15.84
	c-0.13-0.24-0.28-0.45-0.43-0.64c-7.31,1-12.32,17.68-15.31,50.93c-2.22,24.75-2.4,49.81-2.4,50.07c0,0.29,0.11,0.57,0.32,0.78
	c0.21,0.21,0.49,0.32,0.78,0.32h21C533.98,606.34,534.26,604.75,534.52,603.14z"/>
<polygon class="st1" points="767.19,552.14 797.22,552.14 798.05,546.33 766.15,546.33 "/>
<rect x="741.4" y="587.03" class="st1" width="81.4" height="5.53"/>
<path class="st1" d="M687.4,490.36c2.92,0,5.28-4.73,5.28-10.56s-2.36-10.56-5.28-10.56c-0.59,0-1.16,0.2-1.69,0.56
	c0.41,0.74,0.94,1.49,1.43,2.32c2.89,4.83,1.09,12.85-1.04,17.9C686.52,490.24,686.95,490.36,687.4,490.36z"/>
<path class="st1" d="M465.02,587.12c0.86-0.08,1.64-0.57,2.29-1.37c-0.14-3.01-1.62-6.16-2.46-9.01c-1.27-4.29-1.01-6.95-0.04-10.3
	c-0.53-0.27-1.08-0.4-1.63-0.35c-2.9,0.25-4.85,5.17-4.34,10.98C459.35,582.87,462.12,587.37,465.02,587.12z"/>
<path class="st1" d="M529,475.84c-2.92,0-5.28,4.73-5.28,10.56c0,5.83,2.36,10.56,5.28,10.56c0.36,0,0.7-0.07,1.04-0.21
	c0.07-0.23,0.14-0.46,0.18-0.69c0.66-3.37-1.12-6.51-1.56-9.79c-0.27-1.99-0.72-8.19,1.11-10.3
	C529.52,475.89,529.27,475.84,529,475.84z"/>
<path class="st1" d="M418.43,877.77c-0.8-0.96-1.73-1.53-2.73-1.53c-2.92,0-5.28,4.73-5.28,10.56c0,4.76,1.58,8.78,3.74,10.1
	c1-2.1,1.68-4.34,1.9-6.07c0.32-2.5-0.94-3.93-1.44-6.17C414.04,882.01,416.14,879.69,418.43,877.77z"/>
<path class="st1" d="M589.46,899.31c0.37,0.16,0.75,0.25,1.14,0.25c2.92,0,5.28-4.73,5.28-10.56c0-5.83-2.36-10.56-5.28-10.56
	c-0.73,0-1.43,0.3-2.07,0.84c0.47,0.76,0.94,1.67,1.08,1.95c1.26,2.53,0.38,3.89,0.78,6.43c0.23,1.47,1.31,2.47,1.67,3.78
	c0.77,2.81-1.03,5.02-2.33,7.28C589.63,898.9,589.54,899.1,589.46,899.31z"/>
<path class="st4" d="M706.7,610.27c-0.03,1.78-0.06,3.66-0.01,5.49c0.01,1.85,0.07,3.7,0.15,5.54c0.17,3.7,0.43,7.39,0.88,11.06
	c0.35,3.69,1,7.33,1.7,10.96l0.57,2.72l0.68,2.69c0.38,1.82,1.02,3.56,1.49,5.36l0.02,0.07c0.14,0.53-0.18,1.08-0.72,1.22
	c-0.48,0.12-0.96-0.12-1.16-0.55c-1.6-3.46-3-7.05-4.03-10.73c-1.06-3.68-1.87-7.43-2.49-11.2c-0.57-3.78-1-7.58-1.19-11.4
	c-0.18-3.83-0.21-7.61,0.12-11.52c0.09-1.1,1.06-1.92,2.16-1.83c1.05,0.09,1.84,0.98,1.83,2.02L706.7,610.27z"/>
<path class="st4" d="M680.43,609.92c-0.66,1.58-1.32,3.37-1.88,5.11c-0.56,1.76-1.11,3.53-1.55,5.33c-0.88,3.6-1.71,7.23-2.14,10.93
	c-0.45,3.69-0.81,7.4-0.83,11.14c-0.15,3.74,0.12,7.47,0.33,11.25l0,0.05c0.03,0.55-0.39,1.02-0.94,1.06
	c-0.5,0.03-0.93-0.31-1.03-0.78c-0.21-0.94-0.41-1.89-0.6-2.84c-0.18-0.95-0.42-1.9-0.52-2.86c-0.24-1.92-0.52-3.85-0.62-5.8
	c-0.29-3.88-0.18-7.8,0.19-11.68c0.38-3.88,1.01-7.75,2.01-11.53c0.49-1.89,1.05-3.77,1.69-5.63c0.69-1.86,1.36-3.64,2.32-5.52
	c0.5-0.98,1.71-1.37,2.69-0.87c0.94,0.48,1.33,1.59,0.94,2.55L680.43,609.92z"/>
<path class="st4" d="M477.29,631.02c0.3,0.36,0.45,0.56,0.64,0.83c0.18,0.26,0.33,0.51,0.5,0.77c0.3,0.52,0.59,1.03,0.84,1.56
	c0.5,1.06,0.9,2.13,1.27,3.21c0.7,2.17,1.11,4.39,1.36,6.6c0.27,2.21,0.32,4.42,0.26,6.62c-0.05,1.1-0.12,2.19-0.2,3.28
	c-0.14,1.09-0.26,2.17-0.43,3.24c-0.09,0.55-0.6,0.92-1.15,0.84c-0.46-0.07-0.8-0.45-0.84-0.89l0-0.05
	c-0.1-1.06-0.16-2.11-0.23-3.16l-0.29-3.13c-0.28-2.07-0.52-4.13-0.95-6.14c-0.41-2.01-0.9-3.99-1.54-5.87
	c-0.31-0.94-0.66-1.88-1.06-2.76c-0.2-0.45-0.39-0.88-0.61-1.3l-0.61-1.08l-0.17-0.31c-0.54-0.95-0.2-2.17,0.75-2.7
	C475.64,630.1,476.69,630.31,477.29,631.02z"/>
<path class="st4" d="M467.51,633.06c0.16,1.3,0.15,2.42,0.14,3.61c-0.05,1.17-0.15,2.34-0.29,3.5c-0.28,2.32-0.85,4.61-1.6,6.83
	c-0.35,1.11-0.84,2.19-1.28,3.27c-0.55,1.04-1,2.11-1.66,3.09c-1.17,2.02-2.66,3.84-4.26,5.49c-0.39,0.4-1.02,0.41-1.42,0.02
	c-0.32-0.31-0.39-0.79-0.2-1.17l0.05-0.1c0.49-0.98,1.11-1.86,1.55-2.85l0.73-1.43c0.23-0.48,0.42-0.98,0.63-1.47
	c0.83-1.96,1.52-3.96,2.03-6.02c0.55-2.04,0.93-4.12,1.2-6.22c0.14-1.05,0.23-2.1,0.29-3.15c0.09-1.03,0.1-2.14,0.11-3.06l0-0.14
	c0.01-1.1,0.92-1.99,2.02-1.97C466.56,631.31,467.39,632.08,467.51,633.06z"/>
<path class="st4" d="M463.39,607.85c-0.98,1.83-2.05,3.49-3.25,5.12c-1.18,1.63-2.49,3.18-3.89,4.66c-1.4,1.47-2.92,2.87-4.65,4.06
	c-1.71,1.19-3.63,2.24-5.83,2.6c-0.55,0.09-1.07-0.28-1.15-0.83c-0.07-0.45,0.16-0.88,0.55-1.07l0.05-0.02
	c1.58-0.77,2.96-1.98,4.28-3.24c1.31-1.28,2.55-2.68,3.73-4.16c1.19-1.46,2.32-2.98,3.43-4.52l3.28-4.64l0.04-0.06
	c0.64-0.9,1.89-1.12,2.79-0.48C463.61,605.86,463.86,606.97,463.39,607.85z"/>
<path class="st4" d="M680.36,523.37c-1.83,4.91-4.33,9.22-7.27,13.38c-1.49,2.05-3.1,4.01-4.83,5.87c-1.72,1.87-3.56,3.62-5.56,5.2
	c-3.96,3.19-8.37,5.87-13.14,7.63c-4.74,1.83-9.79,2.73-14.8,2.87c-0.55,0.02-1.01-0.42-1.03-0.97c-0.01-0.51,0.36-0.95,0.85-1.02
	l0.04-0.01c2.38-0.35,4.75-0.71,7.04-1.39c1.16-0.29,2.28-0.69,3.41-1.05c0.56-0.19,1.11-0.43,1.66-0.64
	c0.55-0.21,1.1-0.43,1.63-0.7c4.31-1.97,8.32-4.54,11.85-7.68c3.55-3.12,6.7-6.7,9.42-10.59c1.38-1.93,2.66-3.94,3.82-6.01
	c1.17-2.04,2.27-4.23,3.15-6.29l0.05-0.11c0.43-1.02,1.61-1.49,2.62-1.05C680.25,521.25,680.72,522.38,680.36,523.37z"/>
<g>
	<path class="st6" d="M627,539.11v32.53h16.5v-29.88C633.88,544.45,633.17,539.22,627,539.11z"/>
</g>
<path class="st4" d="M427.58,924.02c0.16,0.19,0.48,0.55,0.77,0.83c0.28,0.3,0.63,0.58,0.94,0.87c0.67,0.55,1.36,1.09,2.12,1.55
	c0.72,0.5,1.53,0.89,2.31,1.32c0.79,0.4,1.64,0.71,2.46,1.07c3.38,1.22,7.04,1.82,10.75,1.89c1.85,0.12,3.72-0.08,5.59-0.16
	c0.94-0.01,1.87-0.23,2.81-0.32c0.94-0.12,1.88-0.23,2.81-0.37c1.86-0.39,3.75-0.69,5.61-1.12c1.85-0.48,3.72-0.95,5.61-1.38
	l0.07-0.02c0.54-0.12,1.07,0.22,1.2,0.75c0.11,0.48-0.14,0.95-0.58,1.14c-1.81,0.79-3.64,1.53-5.49,2.27
	c-1.88,0.63-3.8,1.19-5.71,1.77c-1.96,0.4-3.92,0.87-5.92,1.13c-2.01,0.21-4.02,0.47-6.07,0.4c-4.06,0.01-8.25-0.45-12.18-1.95
	c-0.96-0.42-1.95-0.79-2.89-1.27c-0.93-0.51-1.88-0.97-2.74-1.62c-0.89-0.58-1.72-1.27-2.53-1.99c-0.39-0.39-0.8-0.73-1.16-1.16
	c-0.38-0.43-0.7-0.8-1.11-1.4c-0.62-0.91-0.39-2.15,0.51-2.77c0.85-0.59,2-0.42,2.65,0.35L427.58,924.02z"/>
<g>
	<path class="st5" d="M483.37,942.85l-15.34,1.34c-1.21,0.11-2.28-0.79-2.38-2l-3.07-35.07c-0.11-1.21,0.79-2.28,2-2.38l15.34-1.34
		c1.21-0.11,2.28,0.79,2.38,2l3.07,35.07C485.48,941.67,484.58,942.74,483.37,942.85z"/>
	<path class="st4" d="M462.58,907.12l3.07,35.07c0.11,1.21,1.17,2.11,2.38,2l13.65-1.19c-1.82-3.06-3.63-5.87-4.09-9.83
		c-0.29-2.52,0.68-5.2-0.87-7.42c-1.76-2.52-4.59-1.99-4.34-5.95c0.23-3.55,1.77-4.75-0.6-8.12c-1.4-1.99-3.47-3.33-4.94-5.24
		c-0.5-0.65-0.85-1.24-1.11-1.81l-1.17,0.1C463.37,904.85,462.48,905.91,462.58,907.12z"/>
	
		<rect x="467.49" y="908.22" transform="matrix(0.9962 -0.0872 0.0872 0.9962 -78.695 44.8339)" class="st6" width="13.2" height="30.8"/>
	<path class="st7" d="M468.85,939.54l10.38-0.91c-0.79-1.64-1.4-3.39-1.64-5.46c-0.29-2.52,0.68-5.2-0.87-7.42
		c-1.76-2.52-4.59-1.99-4.34-5.95c0.23-3.55,1.77-4.75-0.6-8.12c-0.82-1.16-1.86-2.1-2.88-3.06l-2.74,0.24L468.85,939.54z"/>
</g>
<path class="st4" d="M408.91,1003.59c0.79,4.18,1.25,8.3,1.57,12.47c0.35,4.16,0.4,8.34,0.39,12.51c-0.04,4.17-0.32,8.35-0.76,12.5
	c-0.44,4.15-1.21,8.27-2.19,12.33c-0.13,0.54-0.67,0.87-1.21,0.74c-0.48-0.12-0.79-0.56-0.76-1.03l0-0.06
	c0.12-2.05,0.42-4.07,0.49-6.12l0.21-3.05l0.11-3.06c0.09-2.03,0.11-4.08,0.14-6.11c0-2.04-0.04-4.08-0.08-6.11
	c-0.06-4.07-0.33-8.14-0.62-12.21c-0.15-2.03-0.35-4.06-0.55-6.08c-0.19-2.02-0.44-4.06-0.69-6.02l-0.01-0.06
	c-0.14-1.1,0.64-2.1,1.73-2.23C407.75,1001.84,408.71,1002.56,408.91,1003.59z"/>
<path class="st4" d="M425.11,1003.42c1.12,4.09,1.78,8.08,2.3,12.15c0.55,4.06,0.77,8.14,0.95,12.22c0.12,4.08,0.11,8.16-0.15,12.23
	c-0.1,2.03-0.33,4.06-0.5,6.09c-0.23,2.02-0.51,4.04-0.81,6.05c-0.08,0.55-0.59,0.92-1.14,0.84c-0.49-0.07-0.85-0.5-0.85-0.98
	l0-0.03c-0.04-4.03,0.03-8.03-0.11-12.03c-0.05-4-0.29-7.98-0.5-11.96c-0.24-3.98-0.7-7.94-1.15-11.88
	c-0.23-1.97-0.54-3.93-0.85-5.89c-0.3-1.94-0.67-3.93-1.06-5.77l-0.02-0.09c-0.23-1.08,0.46-2.14,1.54-2.37
	C423.81,1001.77,424.83,1002.41,425.11,1003.42z"/>
<path class="st4" d="M583.37,1008.93c-0.96,3.66-1.83,7.51-2.56,11.32c-0.78,3.81-1.4,7.66-1.93,11.53
	c-0.3,1.93-0.49,3.87-0.72,5.81c-0.16,1.94-0.38,3.89-0.51,5.83c-0.32,3.9-0.4,7.81-0.5,11.73l0,0.03
	c-0.01,0.55-0.47,0.99-1.03,0.98c-0.51-0.01-0.92-0.4-0.97-0.9c-0.41-3.96-0.68-7.95-0.65-11.95c-0.06-4,0.2-7.99,0.52-11.97
	c0.33-3.99,0.92-7.95,1.62-11.89c0.38-1.97,0.8-3.92,1.26-5.88c0.5-1.96,0.99-3.86,1.66-5.84c0.35-1.05,1.49-1.61,2.53-1.26
	c1,0.34,1.56,1.39,1.3,2.39L583.37,1008.93z"/>
<path class="st4" d="M603.7,1008.47c-0.05,1.91-0.1,3.9-0.08,5.86c-0.01,1.96-0.01,3.93,0.06,5.89c0.13,3.92,0.24,7.86,0.65,11.75
	c0.39,3.89,0.83,7.79,1.64,11.6c0.15,0.97,0.42,1.89,0.63,2.85l0.33,1.42l0.42,1.39c0.3,0.92,0.49,1.89,0.86,2.78
	c0.35,0.9,0.69,1.81,1.02,2.73l0.02,0.07c0.19,0.52-0.09,1.09-0.61,1.28c-0.46,0.16-0.95-0.03-1.19-0.43
	c-2.13-3.52-3.58-7.39-4.75-11.29c-0.28-0.98-0.51-1.97-0.77-2.96c-0.24-0.99-0.42-1.99-0.63-2.98c-0.22-0.99-0.39-1.99-0.55-3
	c-0.16-1-0.35-2-0.45-3.01l-0.35-3.02l-0.26-3.02c-0.16-2.02-0.29-4.03-0.31-6.05c-0.1-4.05-0.05-8.05,0.32-12.14
	c0.1-1.1,1.07-1.91,2.17-1.81c1.05,0.09,1.84,0.99,1.82,2.04L603.7,1008.47z"/>
<g>
	<path class="st11" d="M100.65,1058.38c0,0,282.7-14.3,598.4,0v31.9h-598.4V1058.38z"/>
</g>
<path class="st4" d="M822.8,671.53h-81.4c-1.1,0-2-0.9-2-2v-82.5c0-1.1,0.9-2,2-2h81.4c1.1,0,2,0.9,2,2v82.5
	C824.8,670.64,823.9,671.53,822.8,671.53z M743.4,667.53h77.4v-78.5h-77.4V667.53z"/>
<path class="st4" d="M732.6,586.03c4.12-1.16,8.25-1.12,12.38-1.14l12.38-0.11c8.25-0.1,16.5-0.06,24.75-0.09l24.75,0.16l12.38,0.13
	c4.12,0.09,8.25-0.18,12.38,1.05c0.55,0.16,0.87,0.75,0.7,1.3c-0.1,0.35-0.38,0.6-0.7,0.7c-4.12,1.23-8.25,0.96-12.38,1.05
	l-12.38,0.13l-24.75,0.16c-8.25-0.04-16.5,0-24.75-0.09l-12.38-0.11c-4.12-0.02-8.25,0.02-12.38-1.14
	c-0.55-0.16-0.87-0.73-0.72-1.28C731.98,586.39,732.26,586.13,732.6,586.03z"/>
<path class="st8" d="M327.14,464.7c-0.05-2.93-0.7-5.88-1.9-8.53c-0.6-1.32-1.34-2.57-2.23-3.64c-0.88-1.08-1.93-1.95-3.03-2.42
	c-1.1-0.49-2.19-0.49-3.24-0.09c-1.05,0.43-2.06,1.28-2.93,2.34c-0.87,1.06-1.63,2.29-2.27,3.62c-0.67,1.31-1.2,2.71-1.72,4.12
	l0,0.01l-0.01,0.03c-0.4,1.03-1.56,1.54-2.59,1.14c-0.78-0.31-1.27-1.06-1.27-1.85c-0.03-4.92-0.61-9.87-2.34-14.29
	c-0.86-2.2-2.03-4.24-3.55-5.81c-0.36-0.41-0.8-0.71-1.19-1.06c-0.44-0.27-0.85-0.6-1.31-0.78c-0.44-0.25-0.91-0.35-1.37-0.5
	c-0.47-0.06-0.94-0.16-1.41-0.12c-0.94,0.04-1.9,0.26-2.79,0.77c-0.47,0.19-0.87,0.56-1.32,0.83c-0.39,0.38-0.83,0.68-1.2,1.1
	c-1.54,1.6-2.75,3.65-3.71,5.83c-0.98,2.18-1.68,4.53-2.22,6.92c-0.58,2.38-0.89,4.85-1.18,7.31l0,0.03
	c-0.13,1.1-1.12,1.88-2.22,1.75c-1.02-0.12-1.76-0.98-1.77-1.98c-0.02-9.34-0.46-18.69-1.93-27.83c-0.75-4.55-1.76-9.07-3.35-13.27
	c-0.8-2.08-1.77-4.1-3-5.74c-0.61-0.82-1.3-1.53-2.01-2c-0.72-0.47-1.41-0.68-2.09-0.64c-1.38,0.08-3,1.37-4.25,3.04
	c-1.28,1.66-2.31,3.66-3.21,5.71c-1.79,4.14-3.01,8.61-3.98,13.12c-1.92,9.05-2.8,18.37-3.21,27.69l0,0.01
	c-0.06,1.1-1,1.95-2.11,1.89c-1.05-0.06-1.87-0.93-1.89-1.97c-0.03-2.37-0.13-4.75-0.57-7.04c-0.44-2.28-1.12-4.49-2.2-6.42
	c-1.08-1.9-2.54-3.58-4.38-4.42c-0.89-0.49-1.9-0.67-2.89-0.76c-1.01-0.06-2.03,0.11-3.04,0.4c-2,0.65-3.84,1.98-5.34,3.64
	c-1.51,1.67-2.69,3.69-3.56,5.84c-0.87,2.16-1.44,4.46-1.79,6.81c-0.35,2.35-0.38,4.75-0.32,7.15l0,0.06
	c0.02,0.83-0.63,1.52-1.46,1.54c-0.82,0.02-1.5-0.62-1.54-1.43c-0.11-2.56-0.12-5.14,0.22-7.72c0.34-2.57,0.92-5.13,1.87-7.6
	c0.95-2.46,2.26-4.82,4.05-6.88c1.78-2.04,4.05-3.79,6.77-4.73c1.37-0.43,2.82-0.7,4.3-0.64c1.46,0.09,2.96,0.38,4.27,1.04
	c2.73,1.21,4.7,3.47,6.09,5.82c1.39,2.39,2.21,4.97,2.75,7.55c0.54,2.59,0.69,5.19,0.76,7.78l-4-0.08l0-0.01
	c0.42-9.48,1.31-18.98,3.29-28.36c1.02-4.68,2.27-9.35,4.22-13.87c0.99-2.25,2.12-4.48,3.71-6.56c0.8-1.03,1.71-2.04,2.86-2.9
	c1.14-0.85,2.61-1.57,4.28-1.7c1.68-0.12,3.33,0.46,4.57,1.29c1.26,0.83,2.2,1.87,3,2.92c1.59,2.13,2.66,4.42,3.55,6.72
	c1.74,4.61,2.78,9.34,3.56,14.07c1.52,9.47,1.96,18.99,1.98,28.47l-3.99-0.2c0.31-2.61,0.64-5.22,1.26-7.8
	c0.58-2.58,1.35-5.16,2.46-7.64c1.1-2.48,2.5-4.9,4.5-7c0.48-0.54,1.08-0.99,1.62-1.48c0.63-0.41,1.2-0.9,1.91-1.21
	c1.33-0.75,2.93-1.17,4.53-1.22c0.81-0.05,1.6,0.08,2.39,0.21c0.76,0.22,1.54,0.42,2.22,0.79c0.73,0.31,1.34,0.76,1.98,1.17
	c0.57,0.48,1.18,0.93,1.67,1.47c2.04,2.11,3.42,4.6,4.42,7.15c1.99,5.12,2.57,10.49,2.61,15.76l-3.88-0.68l0-0.01
	c0.6-1.53,1.23-3.05,2.03-4.53c0.77-1.49,1.7-2.94,2.86-4.28c1.16-1.33,2.62-2.59,4.52-3.3c1.89-0.71,4.2-0.58,5.94,0.3
	c1.78,0.84,3.14,2.11,4.22,3.49c1.08,1.39,1.92,2.9,2.58,4.46c1.31,3.13,1.94,6.47,1.92,9.83c-0.01,0.83-0.68,1.49-1.51,1.49
	c-0.81-0.01-1.47-0.66-1.49-1.47L327.14,464.7z"/>
<path class="st4" d="M100.6,1057.38c24.89-1.98,49.82-2.94,74.76-3.87c24.94-0.78,49.88-1.47,74.82-2
	c49.88-1.06,99.78-1.75,149.68-1.65l18.71,0l18.71,0.12l37.42,0.28c24.95,0.4,49.89,0.61,74.83,1.27
	c49.89,0.99,99.76,2.98,149.57,5.85c0.55,0.03,0.97,0.5,0.94,1.06c-0.03,0.54-0.49,0.96-1.02,0.94l-0.01,0l-37.39-1.02l-18.69-0.59
	l-18.7-0.45l-37.39-0.98l-37.39-0.75c-24.93-0.6-49.86-0.75-74.79-1.09l-37.4-0.19l-18.7-0.07l-18.7,0.04
	c-24.93,0.02-49.87,0.19-74.8,0.35l-37.4,0.45l-37.4,0.63c-24.93,0.47-49.86,1.1-74.78,1.82c-24.92,0.69-49.84,1.48-74.78,1.86
	l-0.01,0c-0.55,0.01-1.01-0.43-1.02-0.98C99.67,1057.87,100.08,1057.43,100.6,1057.38z"/>
<path class="st8" d="M751.3,339.19c-0.13,1.02-0.48,1.93-0.89,2.79c-0.42,0.86-0.94,1.66-1.53,2.4c-0.59,0.74-1.24,1.44-1.97,2.06
	c-0.74,0.61-1.51,1.19-2.44,1.6c-0.55,0.24-1.19,0-1.44-0.55c-0.12-0.26-0.12-0.54-0.04-0.79l0.01-0.02
	c0.32-0.93,0.76-1.73,1.21-2.52c0.46-0.77,0.97-1.51,1.5-2.22c0.53-0.71,1.1-1.39,1.73-2.04c0.64-0.64,1.31-1.26,2.17-1.79
	l0.01-0.01c0.52-0.32,1.2-0.16,1.52,0.36C751.28,338.69,751.33,338.95,751.3,339.19z"/>
<path class="st8" d="M696.53,245.36c5-1.12,10.22-0.9,15.25,0.05c5.04,0.95,9.95,2.58,14.62,4.73c4.65,2.18,9.03,4.96,13,8.22
	c3.94,3.3,7.53,7.03,10.57,11.19c6.04,8.32,10.04,18.15,11.29,28.35c0.63,5.09,0.7,10.25,0.09,15.33
	c-0.59,5.08-1.94,10.12-4.45,14.57c-0.26,0.46-0.85,0.63-1.31,0.37c-0.37-0.21-0.55-0.63-0.47-1.02l0-0.01
	c0.96-4.84,1.92-9.53,2.41-14.32c0.49-4.78,0.34-9.62-0.33-14.36c-1.38-9.49-5.11-18.6-10.81-26.28c-2.81-3.87-6.14-7.35-9.79-10.44
	c-3.7-3.03-7.73-5.66-12.03-7.77c-4.32-2.06-8.88-3.65-13.58-4.61c-4.71-0.94-9.46-1.44-14.37-2.11l-0.01,0
	c-0.53-0.07-0.9-0.56-0.83-1.09C695.84,245.76,696.15,245.45,696.53,245.36z"/>
<path class="st8" d="M641.57,325.71c-2.04-3.75-3.17-7.93-3.7-12.15c-0.26-2.11-0.42-4.24-0.46-6.37c0-2.13,0.1-4.26,0.19-6.39
	c0.71-8.51,3.26-16.86,7.29-24.4c4.18-7.46,9.86-14.08,16.64-19.28c3.47-2.48,7.04-4.85,10.94-6.6c3.8-1.92,7.97-3.16,12.22-3.43
	c0.56-0.04,1.04,0.39,1.08,0.95c0.03,0.41-0.19,0.78-0.53,0.96l-0.06,0.03c-3.67,1.97-7.39,3.27-10.94,5.12
	c-3.61,1.7-6.9,3.99-10.09,6.35c-6.18,5-11.46,11.12-15.3,18.08c-3.81,6.97-6.17,14.69-7.03,22.61c-0.12,1.98-0.26,3.97-0.29,5.96
	c0,1.99,0.11,3.98,0.32,5.97c0.19,1.98,0.47,3.96,0.74,5.95c0.28,1.99,0.61,3.98,0.87,6.02l0,0.02c0.07,0.56-0.32,1.06-0.88,1.13
	C642.16,326.28,641.76,326.06,641.57,325.71z"/>
<path class="st8" d="M737.84,354.19c-6.42,6.08-14.58,10.4-23.25,12.6c-8.67,2.25-17.84,2.55-26.66,0.89
	c-4.41-0.82-8.73-2.16-12.86-3.91c-4.11-1.8-8.03-4.05-11.64-6.69c-0.89-0.69-1.82-1.31-2.66-2.05l-2.55-2.18l-2.41-2.34
	c-0.81-0.77-1.53-1.63-2.27-2.46c-2.91-3.38-5.4-7.16-7.03-11.31c-0.2-0.52,0.05-1.11,0.57-1.31c0.42-0.17,0.88-0.03,1.15,0.3
	l0.01,0.02c2.72,3.35,5.36,6.6,8.23,9.65c0.75,0.73,1.41,1.55,2.19,2.25l2.29,2.14l2.43,1.99c0.8,0.67,1.69,1.23,2.52,1.86
	c3.43,2.38,7.08,4.43,10.91,6.09c3.85,1.6,7.86,2.79,11.95,3.61c4.08,0.87,8.28,1.08,12.45,1.08c4.18-0.05,8.35-0.59,12.42-1.55
	c8.16-1.91,15.85-5.52,22.97-10.22l0.01,0c0.46-0.31,1.08-0.18,1.39,0.28C738.26,353.32,738.19,353.86,737.84,354.19z"/>
<path class="st1" d="M699.64,350.96c-24.56,0-44.55-19.98-44.55-44.55s19.98-44.55,44.55-44.55s44.55,19.98,44.55,44.55
	S724.2,350.96,699.64,350.96z M699.64,265.86c-22.36,0-40.55,18.19-40.55,40.55s18.19,40.55,40.55,40.55s40.55-18.19,40.55-40.55
	S721.99,265.86,699.64,265.86z"/>
<path class="st0" d="M753.5,610.23c1.83-0.41,3.67-0.63,5.5-0.78c1.83-0.15,3.67-0.22,5.5-0.22c1.83-0.01,3.67,0.07,5.5,0.22
	c1.83,0.15,3.67,0.36,5.5,0.78c0.55,0.13,0.9,0.68,0.77,1.23c-0.09,0.4-0.4,0.69-0.77,0.77c-1.83,0.42-3.67,0.64-5.5,0.78
	c-1.83,0.14-3.67,0.23-5.5,0.22c-1.83,0-3.67-0.08-5.5-0.22c-1.83-0.15-3.67-0.36-5.5-0.78c-0.55-0.12-0.9-0.67-0.78-1.22
	C752.81,610.61,753.13,610.32,753.5,610.23z"/>
<path class="st0" d="M762.5,610.13l1-7.7c0.07-0.55,0.58-0.94,1.13-0.87c0.46,0.06,0.81,0.43,0.87,0.87l1,7.7
	c0.14,1.1-0.64,2.12-1.74,2.26s-2.12-0.64-2.26-1.74C762.48,610.48,762.48,610.3,762.5,610.13z"/>
<path class="st0" d="M790.9,632.23l11-1l-2,2l1-8.8c0.06-0.55,0.56-0.95,1.11-0.89c0.47,0.05,0.83,0.43,0.89,0.89l1,8.8
	c0.11,0.99-0.6,1.89-1.59,2c-0.12,0.01-0.24,0.02-0.36,0.01l-0.05,0l-11-1c-0.55-0.05-0.96-0.54-0.91-1.09
	C790.04,632.65,790.43,632.28,790.9,632.23z"/>
<path class="st4" d="M814,589.03c-1.1,0-2-0.9-2-2v-81.4c0-1.1,0.9-2,2-2s2,0.9,2,2v81.4C816,588.14,815.1,589.03,814,589.03z"/>
<path class="st4" d="M750.2,589.03c-1.1,0-2-0.9-2-2v-81.4c0-1.1,0.9-2,2-2s2,0.9,2,2v81.4C752.2,588.14,751.3,589.03,750.2,589.03z
	"/>
<path class="st4" d="M791.56,548.33c-1.1,0-2-0.9-2-2c0-4.12-3.35-7.46-7.46-7.46s-7.46,3.35-7.46,7.46c0,1.1-0.9,2-2,2s-2-0.9-2-2
	c0-6.32,5.14-11.46,11.46-11.46c6.32,0,11.46,5.14,11.46,11.46C793.56,547.44,792.67,548.33,791.56,548.33z"/>
<path class="st4" d="M422.48,886.8c-0.03,2.28-0.2,4.57-0.92,6.87c-0.37,1.15-0.85,2.3-1.69,3.41c-0.41,0.55-0.96,1.08-1.64,1.52
	c-0.7,0.43-1.59,0.73-2.52,0.76c-0.93-0.02-1.83-0.29-2.55-0.72c-0.69-0.43-1.27-0.94-1.71-1.48c-0.9-1.08-1.47-2.22-1.91-3.37
	c-0.87-2.3-1.18-4.65-1.22-6.99c0.04-2.34,0.35-4.69,1.22-6.99c0.44-1.15,1-2.29,1.91-3.37c0.44-0.54,1.02-1.05,1.71-1.48
	c0.71-0.42,1.61-0.7,2.55-0.72c0.93,0.03,1.82,0.33,2.52,0.76c0.68,0.44,1.23,0.97,1.64,1.52c0.84,1.1,1.33,2.26,1.69,3.41
	C422.28,882.23,422.45,884.52,422.48,886.8z M419.48,886.8c-0.02-0.99-0.1-1.98-0.29-2.94c-0.2-0.96-0.5-1.88-0.87-2.73
	c-0.37-0.85-0.86-1.62-1.38-2.16c-0.25-0.29-0.52-0.46-0.74-0.59c-0.22-0.11-0.38-0.12-0.51-0.13c-0.13,0.03-0.28,0.05-0.48,0.17
	c-0.2,0.15-0.44,0.33-0.67,0.63c-0.46,0.56-0.86,1.35-1.17,2.2c-0.62,1.7-0.87,3.64-0.86,5.56c0,1.92,0.24,3.86,0.86,5.56
	c0.3,0.84,0.7,1.63,1.17,2.2c0.22,0.3,0.47,0.48,0.67,0.63c0.2,0.12,0.35,0.15,0.48,0.17c0.13-0.01,0.29-0.02,0.51-0.13
	c0.22-0.13,0.49-0.3,0.74-0.59c0.52-0.54,1-1.32,1.38-2.16c0.37-0.85,0.67-1.78,0.87-2.73C419.38,888.78,419.46,887.79,419.48,886.8
	z"/>
<path class="st4" d="M586.82,889c0.02,0.99,0.1,1.98,0.29,2.94c0.2,0.96,0.5,1.88,0.87,2.73c0.37,0.85,0.86,1.62,1.38,2.16
	c0.25,0.29,0.52,0.46,0.74,0.59c0.22,0.11,0.38,0.12,0.51,0.13c0.13-0.03,0.28-0.05,0.48-0.17c0.2-0.15,0.44-0.33,0.67-0.63
	c0.46-0.56,0.86-1.35,1.17-2.2c0.62-1.7,0.87-3.64,0.86-5.56c0-1.92-0.24-3.86-0.86-5.56c-0.3-0.84-0.71-1.63-1.17-2.2
	c-0.22-0.3-0.47-0.48-0.67-0.63c-0.2-0.12-0.35-0.15-0.48-0.17c-0.13,0.01-0.29,0.02-0.51,0.13c-0.22,0.13-0.49,0.3-0.74,0.59
	c-0.52,0.54-1,1.32-1.38,2.16c-0.37,0.85-0.67,1.78-0.87,2.73C586.92,887.02,586.84,888.01,586.82,889z M583.82,889
	c0.03-2.28,0.2-4.57,0.92-6.87c0.37-1.15,0.85-2.3,1.69-3.41c0.41-0.55,0.96-1.08,1.64-1.52c0.7-0.43,1.59-0.73,2.52-0.76
	c0.93,0.02,1.83,0.29,2.55,0.72c0.69,0.43,1.27,0.94,1.71,1.48c0.9,1.08,1.47,2.22,1.91,3.37c0.87,2.3,1.18,4.65,1.22,6.99
	c-0.04,2.34-0.35,4.69-1.22,6.99c-0.44,1.15-1,2.29-1.91,3.37c-0.44,0.54-1.02,1.05-1.71,1.48c-0.71,0.42-1.61,0.7-2.55,0.72
	c-0.93-0.03-1.82-0.33-2.52-0.76c-0.68-0.44-1.23-0.97-1.64-1.52c-0.84-1.1-1.33-2.26-1.69-3.41
	C584.02,893.58,583.85,891.28,583.82,889z"/>
<path class="st4" d="M683.62,479.8c0.02,0.99,0.1,1.98,0.29,2.94c0.2,0.96,0.5,1.88,0.87,2.73c0.37,0.85,0.86,1.62,1.38,2.16
	c0.25,0.29,0.52,0.46,0.74,0.59c0.22,0.11,0.38,0.12,0.51,0.13c0.13-0.03,0.28-0.05,0.48-0.17c0.2-0.15,0.44-0.33,0.67-0.63
	c0.46-0.56,0.86-1.35,1.17-2.2c0.62-1.7,0.87-3.64,0.86-5.56c0-1.92-0.24-3.86-0.86-5.56c-0.3-0.84-0.71-1.63-1.17-2.2
	c-0.22-0.3-0.47-0.48-0.67-0.63c-0.2-0.12-0.35-0.15-0.48-0.17c-0.13,0.01-0.29,0.02-0.51,0.13c-0.22,0.13-0.49,0.3-0.74,0.59
	c-0.52,0.54-1,1.32-1.38,2.16c-0.37,0.85-0.67,1.78-0.87,2.73C683.72,477.82,683.64,478.81,683.62,479.8z M680.62,479.8
	c0.03-2.28,0.2-4.57,0.92-6.87c0.37-1.15,0.85-2.3,1.7-3.41c0.41-0.55,0.96-1.08,1.64-1.52c0.7-0.43,1.59-0.73,2.52-0.76
	c0.93,0.02,1.83,0.29,2.55,0.72c0.69,0.43,1.27,0.94,1.71,1.48c0.9,1.08,1.47,2.22,1.91,3.37c0.87,2.3,1.18,4.65,1.22,6.99
	c-0.04,2.34-0.35,4.69-1.22,6.99c-0.44,1.15-1,2.29-1.91,3.37c-0.44,0.54-1.02,1.05-1.71,1.48c-0.71,0.42-1.61,0.7-2.55,0.72
	c-0.93-0.03-1.82-0.33-2.52-0.76c-0.68-0.44-1.23-0.97-1.64-1.52c-0.84-1.1-1.33-2.26-1.7-3.41
	C680.82,484.38,680.65,482.08,680.62,479.8z"/>
<path class="st4" d="M535.78,486.4c-0.03,2.28-0.2,4.57-0.92,6.87c-0.37,1.15-0.85,2.3-1.69,3.41c-0.41,0.55-0.96,1.08-1.64,1.52
	c-0.7,0.43-1.59,0.73-2.52,0.76c-0.93-0.02-1.83-0.29-2.55-0.72c-0.69-0.43-1.27-0.94-1.71-1.48c-0.9-1.08-1.47-2.22-1.91-3.37
	c-0.87-2.3-1.18-4.65-1.22-6.99c0.04-2.34,0.35-4.69,1.22-6.99c0.44-1.15,1-2.29,1.91-3.37c0.44-0.54,1.02-1.05,1.71-1.48
	c0.71-0.42,1.61-0.7,2.55-0.72c0.93,0.03,1.82,0.33,2.52,0.76c0.68,0.44,1.23,0.97,1.64,1.52c0.84,1.1,1.33,2.26,1.69,3.41
	C535.58,481.83,535.75,484.12,535.78,486.4z M532.78,486.4c-0.02-0.99-0.1-1.98-0.29-2.94c-0.2-0.96-0.5-1.88-0.87-2.73
	c-0.37-0.85-0.86-1.62-1.38-2.16c-0.25-0.29-0.52-0.46-0.74-0.59c-0.22-0.11-0.38-0.12-0.51-0.13c-0.13,0.03-0.28,0.05-0.48,0.17
	c-0.2,0.15-0.44,0.33-0.67,0.63c-0.46,0.56-0.86,1.35-1.17,2.2c-0.62,1.7-0.87,3.64-0.86,5.56c0,1.92,0.24,3.86,0.86,5.56
	c0.3,0.84,0.71,1.63,1.17,2.2c0.22,0.3,0.47,0.48,0.67,0.63c0.2,0.12,0.35,0.15,0.48,0.17c0.13-0.01,0.29-0.02,0.51-0.13
	c0.22-0.13,0.49-0.3,0.74-0.59c0.52-0.54,1-1.32,1.38-2.16c0.37-0.85,0.67-1.78,0.87-2.73C532.68,488.38,532.76,487.39,532.78,486.4
	z"/>
<path class="st4" d="M470.86,576.01c0.17,2.27,0.2,4.57-0.32,6.93c-0.27,1.17-0.65,2.37-1.39,3.54c-0.36,0.58-0.86,1.16-1.5,1.66
	c-0.66,0.49-1.52,0.86-2.45,0.98c-0.93,0.07-1.85-0.13-2.6-0.49c-0.73-0.37-1.35-0.83-1.83-1.33c-0.99-1-1.65-2.09-2.19-3.19
	c-1.06-2.22-1.58-4.53-1.82-6.86c-0.17-2.33-0.06-4.7,0.6-7.07c0.34-1.18,0.8-2.37,1.61-3.53c0.39-0.57,0.92-1.14,1.57-1.62
	c0.67-0.49,1.55-0.84,2.47-0.94c0.93-0.05,1.84,0.17,2.58,0.54c0.71,0.38,1.31,0.86,1.77,1.37c0.93,1.02,1.52,2.14,1.99,3.25
	C470.26,571.47,470.63,573.74,470.86,576.01z M467.87,576.27c-0.1-0.99-0.27-1.96-0.54-2.9c-0.28-0.94-0.66-1.83-1.1-2.65
	c-0.45-0.81-0.99-1.54-1.56-2.03c-0.27-0.27-0.56-0.41-0.79-0.53c-0.23-0.09-0.38-0.09-0.52-0.09c-0.13,0.04-0.27,0.07-0.47,0.22
	c-0.19,0.16-0.41,0.37-0.61,0.68c-0.41,0.6-0.74,1.42-0.97,2.29c-0.47,1.75-0.55,3.71-0.37,5.61c0.16,1.91,0.58,3.82,1.34,5.46
	c0.37,0.81,0.84,1.56,1.35,2.09c0.25,0.28,0.51,0.44,0.72,0.57c0.21,0.11,0.36,0.11,0.5,0.13c0.13-0.02,0.29-0.04,0.49-0.18
	c0.2-0.15,0.46-0.34,0.68-0.65c0.47-0.58,0.88-1.4,1.18-2.27c0.3-0.88,0.51-1.83,0.63-2.8
	C467.94,578.25,467.94,577.26,467.87,576.27z"/>
<g>
	<circle class="st16" cx="604.94" cy="502.29" r="8.8"/>
	<path class="st17" d="M619.31,490.41l-3.61,2.19c-0.49,0.3-1.12,0.14-1.41-0.34c-0.21-0.34-0.19-0.75,0-1.07l2.19-3.61
		c0.59-0.97,1.86-1.28,2.83-0.69s1.28,1.86,0.69,2.83C619.82,490.01,619.58,490.24,619.31,490.41z"/>
	<path class="st17" d="M606.7,483.37l-1,4.1c-0.13,0.55-0.69,0.89-1.24,0.76c-0.39-0.09-0.67-0.4-0.76-0.76l-1-4.1
		c-0.27-1.1,0.41-2.22,1.51-2.49c1.1-0.27,2.22,0.41,2.49,1.51C606.78,482.73,606.78,483.06,606.7,483.37z"/>
	<path class="st17" d="M593.07,487.92l2.19,3.61c0.3,0.49,0.14,1.12-0.34,1.41c-0.34,0.21-0.75,0.19-1.07,0l-3.61-2.19
		c-0.97-0.59-1.28-1.86-0.69-2.83c0.59-0.97,1.86-1.28,2.83-0.69C592.67,487.41,592.9,487.65,593.07,487.92z"/>
	<path class="st18" d="M599.76,509.39c1.45,1.06,3.24,1.7,5.18,1.7c4.86,0,8.8-3.94,8.8-8.8c0-2.92-1.43-5.5-3.62-7.1
		c-0.37,0.42-0.79,0.83-1.27,1.22c-1.9,1.54-3.79,2.7-3.92,5.45c-0.12,2.64,0.49,3.17-1.66,5.28
		C602.28,508.11,600.95,508.68,599.76,509.39z"/>
</g>
<g>
	<circle class="st16" cx="497.14" cy="878.49" r="8.8"/>
	<path class="st17" d="M511.51,866.61l-3.61,2.19c-0.49,0.3-1.12,0.14-1.41-0.34c-0.21-0.34-0.19-0.75,0-1.07l2.19-3.61
		c0.59-0.97,1.86-1.28,2.83-0.69s1.28,1.86,0.69,2.83C512.02,866.21,511.78,866.44,511.51,866.61z"/>
	<path class="st17" d="M498.9,859.57l-1,4.1c-0.13,0.55-0.69,0.89-1.24,0.76c-0.39-0.09-0.67-0.4-0.76-0.76l-1-4.1
		c-0.27-1.1,0.41-2.22,1.51-2.49c1.1-0.27,2.22,0.41,2.49,1.51C498.98,858.93,498.98,859.26,498.9,859.57z"/>
	<path class="st17" d="M485.27,864.12l2.19,3.61c0.3,0.49,0.14,1.12-0.34,1.41c-0.34,0.21-0.75,0.19-1.07,0l-3.61-2.19
		c-0.97-0.59-1.28-1.86-0.69-2.83c0.59-0.97,1.86-1.28,2.83-0.69C484.87,863.61,485.1,863.85,485.27,864.12z"/>
	<path class="st18" d="M491.96,885.59c1.45,1.06,3.24,1.7,5.18,1.7c4.86,0,8.8-3.94,8.8-8.8c0-2.92-1.43-5.5-3.62-7.1
		c-0.37,0.42-0.79,0.83-1.27,1.22c-1.9,1.54-3.79,2.7-3.92,5.45c-0.12,2.64,0.49,3.17-1.66,5.28
		C494.48,884.31,493.15,884.88,491.96,885.59z"/>
</g>
<g>
	<path class="st2" d="M436.36,1003.93H399.4c0,0,5.84-99.95,17.31-99.95S436.36,1003.93,436.36,1003.93z"/>
	<path class="st2" d="M436.36,1005.93H399.4c-0.55,0-1.08-0.23-1.46-0.63s-0.57-0.94-0.54-1.49c0.01-0.25,1.5-25.33,4.36-50.09
		c5.28-45.6,10.52-51.74,14.94-51.74c4.41,0,9.77,6.14,16.11,51.7c3.45,24.76,5.51,49.84,5.54,50.09c0.05,0.56-0.14,1.11-0.52,1.52
		S436.92,1005.93,436.36,1005.93z M401.53,1001.93h32.65c-0.57-6.56-2.46-27.02-5.28-47.34c-6.6-47.58-11.97-48.59-12.2-48.61
		c-0.22,0.03-5.55,1.16-11.02,48.67C403.34,974.98,401.94,995.43,401.53,1001.93z"/>
</g>
<g>
	<path class="st6" d="M611.26,1008.33H574.3c0,0,5.84-99.95,17.31-99.95S611.26,1008.33,611.26,1008.33z"/>
	<path class="st6" d="M611.26,1010.33H574.3c-0.55,0-1.08-0.23-1.46-0.63s-0.57-0.94-0.54-1.49c0.01-0.25,1.5-25.33,4.36-50.09
		c5.28-45.6,10.52-51.74,14.94-51.74c4.41,0,9.76,6.14,16.11,51.7c3.45,24.76,5.51,49.84,5.54,50.09c0.05,0.56-0.14,1.11-0.52,1.52
		S611.82,1010.33,611.26,1010.33z M576.43,1006.33h32.65c-0.57-6.56-2.46-27.02-5.28-47.34c-6.6-47.58-11.97-48.59-12.2-48.61
		c-0.22,0.03-5.55,1.16-11.02,48.67C578.24,979.38,576.84,999.83,576.43,1006.33z"/>
</g>
<g>
	<path class="st2" d="M710.53,609.03h-41.9c0,0,6.62-108.9,19.62-108.9C701.26,500.13,710.53,609.03,710.53,609.03z"/>
	<path class="st2" d="M710.53,611.03h-41.9c-0.55,0-1.08-0.23-1.46-0.63c-0.38-0.4-0.57-0.94-0.54-1.49
		c0.02-0.27,1.7-27.6,4.95-54.57c1.91-15.88,3.99-28.55,6.18-37.66c3.08-12.83,6.32-18.55,10.5-18.55c4.16,0,7.52,5.71,10.9,18.5
		c2.41,9.11,4.79,21.78,7.09,37.66c3.91,26.97,6.25,54.29,6.27,54.57c0.05,0.56-0.14,1.11-0.52,1.52
		C711.62,610.8,711.09,611.03,710.53,611.03z M670.76,607.03h37.58c-0.63-6.98-2.8-29.71-6.06-52.18c-2.28-15.73-4.63-28.24-7-37.2
		c-4.06-15.34-6.91-15.52-7.03-15.52c-0.03,0-2.93,0.18-6.61,15.48c-2.15,8.96-4.2,21.47-6.09,37.2
		C672.84,577.33,671.22,600.11,670.76,607.03z"/>
</g>
<g>
	<path class="st2" d="M467.43,597.29c8.12-0.09,14.43,25.68,15.82,31.86c0.16,0.71-0.32,1.41-1.05,1.51l-19.68,2.8
		c-0.72,0.1-1.38-0.42-1.43-1.15C460.67,625.75,459.27,597.38,467.43,597.29z"/>
	<path class="st2" d="M462.35,635.47c-0.75,0-1.48-0.25-2.06-0.73c-0.7-0.57-1.13-1.41-1.19-2.3c-1.7-25.85,2.38-33.25,4.22-35.23
		c1.14-1.23,2.56-1.9,4.09-1.91c0,0,0,0,0,0c0.02,0,0.04,0,0.06,0c8.86,0,14.91,20.92,17.74,33.42c0.2,0.88,0.02,1.81-0.5,2.56
		c-0.51,0.75-1.33,1.25-2.22,1.37l-19.68,2.8C462.65,635.46,462.5,635.47,462.35,635.47z M463.09,632.17L463.09,632.17
		L463.09,632.17z M467.45,599.29c-0.29,0-0.69,0.08-1.2,0.63c-3.56,3.85-3.96,19.15-3.21,31.44l18.08-2.57
		c-3.96-17.15-9.66-29.5-13.65-29.5C467.46,599.29,467.46,599.29,467.45,599.29L467.45,599.29z"/>
</g>
<path class="st8" d="M657.68,816.95c-0.13-8.28,0.26-16.61,1.69-24.87c0.74-4.12,1.74-8.23,3.29-12.23
	c0.79-1.99,1.69-3.97,2.91-5.85c1.23-1.85,2.71-3.71,5-4.97c1.14-0.61,2.53-1,3.95-0.92c1.41,0.06,2.75,0.57,3.82,1.26
	c1.09,0.69,1.96,1.55,2.71,2.44c0.76,0.89,1.39,1.84,1.94,2.81c2.21,3.88,3.4,8,4.35,12.11c1.8,8.26,2.3,16.62,2.35,24.92h-4
	c0.04-5.37,0.62-10.85,2.67-16.08c1.04-2.59,2.48-5.14,4.67-7.25c1.13-1.01,2.39-1.98,3.96-2.52c1.53-0.56,3.27-0.75,4.93-0.45
	c1.65,0.33,3.12,1.09,4.38,2.01c0.57,0.51,1.21,0.98,1.68,1.55l0.76,0.83l0.65,0.89c1.7,2.38,2.79,5,3.6,7.63
	c0.81,2.64,1.33,5.32,1.62,8c0.34,2.68,0.42,5.36,0.46,8.04H711c0.03-1.96,0.09-3.92,0.36-5.89c0.24-1.97,0.62-3.95,1.28-5.9
	c0.65-1.95,1.55-3.89,3-5.64c0.75-0.85,1.61-1.68,2.74-2.26c1.09-0.59,2.4-0.99,3.73-0.91c1.31,0.05,2.57,0.46,3.62,1.06
	c1.02,0.63,1.95,1.37,2.66,2.23c1.48,1.68,2.45,3.58,3.17,5.51c1.41,3.88,1.84,7.88,1.87,11.81l-4.01-0.05
	c0.13-3.31,0.75-6.75,2.62-9.81c0.94-1.51,2.2-2.92,3.86-3.93c1.64-0.99,3.8-1.53,5.83-1.04c2.06,0.41,3.7,1.73,4.83,3.15
	c1.15,1.44,1.88,3.05,2.4,4.65c0.52,1.61,0.83,3.24,0.98,4.85c0.18,1.62,0.19,3.22,0.15,4.82c-0.02,0.83-0.71,1.48-1.54,1.46
	c-0.79-0.02-1.42-0.65-1.46-1.42l0-0.04c-0.14-2.95-0.52-5.91-1.48-8.51c-0.47-1.3-1.11-2.51-1.92-3.44
	c-0.81-0.92-1.77-1.58-2.76-1.76c-0.99-0.22-2.04,0.04-3.01,0.63c-0.96,0.61-1.82,1.55-2.48,2.66c-1.35,2.23-1.92,5.03-2.02,7.84
	c-0.03,1.11-0.96,1.98-2.07,1.94c-1.08-0.03-1.93-0.92-1.94-1.99c-0.03-3.59-0.45-7.18-1.63-10.4c-0.59-1.6-1.39-3.09-2.41-4.24
	c-0.49-0.61-1.08-1.03-1.64-1.4c-0.58-0.32-1.17-0.49-1.74-0.52c-1.12-0.05-2.29,0.61-3.26,1.76c-0.96,1.16-1.7,2.68-2.23,4.29
	c-0.55,1.62-0.89,3.36-1.1,5.13c-0.24,1.76-0.29,3.57-0.32,5.38c-0.02,1.12-0.95,2.02-2.07,2c-1.1-0.02-1.98-0.91-2-2
	c-0.04-2.53-0.12-5.07-0.44-7.55c-0.28-2.49-0.76-4.95-1.48-7.28c-0.71-2.33-1.68-4.58-3.02-6.43l-0.5-0.69l-0.56-0.61
	c-0.35-0.44-0.79-0.73-1.18-1.1c-0.85-0.6-1.74-1.04-2.65-1.24c-0.92-0.15-1.84-0.06-2.75,0.27c-0.92,0.29-1.77,0.94-2.58,1.65
	c-1.58,1.51-2.81,3.57-3.7,5.79c-1.79,4.48-2.39,9.54-2.44,14.56l0,0.02c-0.01,1.11-0.91,1.99-2.02,1.98c-1.1-0.01-1.98-0.9-1.98-2
	c-0.01-8.11-0.48-16.26-2.16-24.08c-0.87-3.88-2.01-7.74-3.88-11.03c-0.92-1.63-2.08-3.09-3.38-3.95c-1.31-0.83-2.57-0.91-3.92-0.21
	c-1.35,0.71-2.59,2.12-3.61,3.67c-1.04,1.56-1.88,3.33-2.61,5.15c-1.45,3.66-2.46,7.56-3.2,11.51c-1.51,7.92-2.08,16.07-2.25,24.21
	v0.01c-0.02,0.83-0.7,1.49-1.53,1.47C658.34,818.41,657.69,817.76,657.68,816.95z"/>
<path class="st4" d="M522.51,527.58c-0.43,0.3-0.98,0.71-1.47,1.11c-0.51,0.39-1,0.81-1.49,1.24c-0.5,0.41-0.97,0.86-1.44,1.32
	c-0.46,0.46-0.96,0.88-1.4,1.37c-0.9,0.95-1.83,1.87-2.66,2.9l-1.28,1.5l-1.19,1.58c-3.16,4.21-5.85,8.77-8.05,13.59
	c-0.96,2.47-2.12,4.87-2.85,7.43c-0.39,1.27-0.88,2.51-1.2,3.81c-0.32,1.29-0.63,2.59-0.97,3.88c-0.16,0.65-0.35,1.29-0.49,1.95
	l-0.35,1.98l-0.71,3.96c-0.4,2.65-0.61,5.34-0.98,8.02l-0.01,0.08c-0.07,0.55-0.58,0.93-1.12,0.85c-0.5-0.07-0.87-0.5-0.86-1
	c0.01-1.37,0.04-2.75,0.08-4.13c0.05-1.38,0.02-2.76,0.15-4.14l0.46-4.12l0.23-2.07c0.09-0.69,0.25-1.36,0.37-2.05l0.8-4.09
	c0.28-1.36,0.73-2.68,1.08-4.03c0.67-2.71,1.74-5.3,2.7-7.92c2.24-5.12,4.92-10.09,8.33-14.58l1.28-1.68l1.38-1.6
	c0.9-1.09,1.89-2.09,2.88-3.1c0.48-0.51,1.03-0.97,1.55-1.45c0.52-0.48,1.05-0.95,1.61-1.4c0.55-0.46,1.09-0.91,1.68-1.33
	c0.59-0.44,1.14-0.83,1.85-1.27c0.93-0.59,2.17-0.3,2.75,0.63c0.57,0.9,0.32,2.09-0.54,2.69L522.51,527.58z"/>
<path class="st0" d="M515.9,942.33h46.2c0.61,0,1.1,0.49,1.1,1.1v5.5c0,0.61-0.49,1.1-1.1,1.1h-46.2c-0.61,0-1.1-0.49-1.1-1.1v-5.5
	C514.8,942.83,515.29,942.33,515.9,942.33z"/>
<path class="st0" d="M514.8,925.83H561c0.61,0,1.1,0.49,1.1,1.1v5.5c0,0.61-0.49,1.1-1.1,1.1h-46.2c-0.61,0-1.1-0.49-1.1-1.1v-5.5
	C513.7,926.33,514.19,925.83,514.8,925.83z"/>
<g>
	<path class="st5" d="M585.52,560.29l-15.34-1.34c-1.21-0.11-2.11-1.17-2-2.38l3.07-35.07c0.11-1.21,1.17-2.11,2.38-2l15.34,1.34
		c1.21,0.11,2.11,1.17,2,2.38l-3.07,35.07C587.8,559.5,586.73,560.39,585.52,560.29z"/>
	<path class="st4" d="M571.25,521.5l-3.07,35.07c-0.11,1.21,0.79,2.28,2,2.38l13.65,1.19c-1.26-3.33-2.56-6.41-2.32-10.39
		c0.15-2.53,1.57-5.01,0.44-7.46c-1.3-2.79-4.17-2.76-3.24-6.61c0.84-3.46,2.57-4.37,0.82-8.1c-1.03-2.2-2.84-3.89-3.95-6.01
		c-0.38-0.72-0.62-1.36-0.78-1.97l-1.17-0.1C572.42,519.39,571.36,520.29,571.25,521.5z"/>
	
		<rect x="573.11" y="524.34" transform="matrix(0.9962 0.0872 -0.0872 0.9962 49.2478 -48.4715)" class="st6" width="13.2" height="30.8"/>
	<path class="st7" d="M571.8,554.51l10.38,0.91c-0.49-1.75-0.79-3.59-0.67-5.67c0.15-2.53,1.57-5.01,0.44-7.46
		c-1.3-2.79-4.17-2.76-3.24-6.61c0.84-3.46,2.57-4.37,0.82-8.1c-0.6-1.28-1.47-2.39-2.31-3.52l-2.74-0.24L571.8,554.51z"/>
</g>
<path class="st4" d="M642.4,573.13l-14.18,0.02l-0.11,0l-0.25-0.01c-0.18-0.02-0.35-0.05-0.52-0.1c-0.34-0.1-0.66-0.27-0.92-0.5
	c-0.54-0.45-0.89-1.13-0.93-1.84l-0.01-1.87l-0.01-3.55l-0.01-7.09l0.05-28.36c0-0.83,0.67-1.5,1.5-1.5H627
	c1.38-0.01,2.75,0.02,4.12,0.13c1.38,0.09,2.75,0.22,4.12,0.23c2.75,0.07,5.5-0.27,8.25-0.35c0.79-0.02,1.46,0.6,1.48,1.4l0,0.03
	l0,0.05l0.06,21.21l-0.02,10.61l-0.01,5.3l-0.01,2.65l0,0.66l0,0.17L645,570.7c-0.02,0.26-0.07,0.52-0.17,0.76
	C644.47,572.45,643.45,573.15,642.4,573.13z M642.4,570.13c-0.16,0-0.32,0.1-0.38,0.26c-0.01,0.04-0.02,0.08-0.03,0.12
	c0,0.05,0-0.01,0-0.07l0-0.17l0-0.66l-0.01-2.65l-0.01-5.3l-0.02-10.61l0.06-21.21l1.48,1.48c-2.75-0.08-5.5-0.42-8.25-0.35
	c-1.38,0.02-2.75,0.15-4.12,0.23c-1.38,0.11-2.75,0.14-4.12,0.13l1.5-1.5l0.05,28.36l-0.01,7.09l-0.01,3.55l0,1.67
	c-0.01-0.11-0.07-0.23-0.15-0.3c-0.04-0.04-0.09-0.06-0.15-0.08c-0.03-0.01-0.06-0.01-0.09-0.02c-0.01,0-0.04,0-0.03,0l0.11,0
	L642.4,570.13z"/>
<g>
	<g>
		<path class="st4" d="M202.14,157.88c1.82,1,3.88,1.99,5.9,2.83c2.05,0.84,4.13,1.6,6.24,2.27c4.22,1.33,8.57,2.22,12.94,2.67
			c4.38,0.42,8.8,0.39,13.14-0.27c4.36-0.59,8.61-1.74,12.95-3.02l0.03-0.01c0.53-0.16,1.09,0.15,1.25,0.68
			c0.13,0.44-0.06,0.9-0.42,1.13c-1.98,1.27-4.08,2.38-6.31,3.2c-2.2,0.88-4.51,1.49-6.84,1.94c-4.68,0.86-9.47,1.07-14.2,0.66
			c-4.73-0.37-9.38-1.41-13.88-2.83c-2.25-0.71-4.45-1.56-6.6-2.54c-2.17-0.98-4.22-2-6.34-3.34c-0.93-0.59-1.21-1.83-0.62-2.76
			c0.57-0.9,1.73-1.19,2.65-0.68L202.14,157.88z"/>
		<g>
			<path class="st5" d="M264.31,172.94l-12.89,1.13c-1.02,0.09-1.91-0.66-2-1.68l-2.58-29.46c-0.09-1.02,0.66-1.91,1.68-2
				l12.89-1.13c1.02-0.09,1.91,0.66,2,1.68l2.58,29.46C266.07,171.95,265.32,172.85,264.31,172.94z"/>
			<path class="st4" d="M246.84,142.93l2.58,29.46c0.09,1.02,0.99,1.77,2,1.68l11.47-1c-1.53-2.57-3.05-4.93-3.44-8.25
				c-0.25-2.12,0.57-4.37-0.73-6.24c-1.48-2.12-3.85-1.67-3.64-4.99c0.19-2.99,1.49-3.99-0.5-6.82c-1.17-1.67-2.92-2.8-4.15-4.4
				c-0.42-0.54-0.71-1.04-0.93-1.52l-0.98,0.09C247.5,141.02,246.75,141.91,246.84,142.93z"/>
			
				<rect x="250.96" y="143.85" transform="matrix(0.9962 -0.0872 0.0872 0.9962 -12.6891 22.9524)" class="st6" width="11.09" height="25.87"/>
			<path class="st7" d="M252.11,170.16l8.72-0.76c-0.66-1.38-1.18-2.85-1.38-4.59c-0.25-2.12,0.57-4.37-0.73-6.24
				c-1.48-2.12-3.85-1.67-3.64-4.99c0.19-2.99,1.49-3.99-0.5-6.82c-0.68-0.97-1.56-1.77-2.42-2.57l-2.3,0.2L252.11,170.16z"/>
		</g>
		<path class="st1" d="M201.9,107.96c-3.06,0-5.54,4.96-5.54,11.09c0,4.7,1.47,8.71,3.53,10.33c1.24-1.62,1.85-3.66,2.04-5.71
			c0.21-2.29-0.24-4.58-0.23-6.87c0.02-3.17,0.83-5.55,2.3-8C203.35,108.26,202.64,107.96,201.9,107.96z"/>
		<path class="st1" d="M373.81,141.22c3.04-0.06,5.49-4.99,5.49-11.08c0-6.12-2.48-11.09-5.54-11.09c-1.2,0-2.31,0.77-3.22,2.08
			c0,0,0,0,0,0c3.63,2.04,5.21,4.19,3.75,9.6c-0.63,2.35,0.25,5.58-0.17,8.08C374,139.52,373.89,140.35,373.81,141.22z"/>
		<g>
			<path class="st6" d="M455.56,196.55l3.21-12.83h-18.48l3.21,12.83c-3.04,3.95-5.05,10.8-5.05,18.59
				c0,12.25,4.96,22.18,11.09,22.18s11.09-9.93,11.09-22.18C460.62,207.35,458.6,200.51,455.56,196.55z"/>
			<path class="st6" d="M449.53,239.32c-7.34,0-13.09-10.62-13.09-24.18c0-7.49,1.81-14.5,4.89-19.01l-2.98-11.92
				c-0.15-0.6-0.01-1.23,0.36-1.72s0.96-0.77,1.58-0.77h18.48c0.62,0,1.2,0.28,1.58,0.77s0.51,1.12,0.36,1.72l-2.98,11.92
				c3.07,4.51,4.89,11.52,4.89,19.01C462.62,228.7,456.87,239.32,449.53,239.32z M442.85,185.73l2.58,10.34
				c0.15,0.59,0.02,1.22-0.35,1.7c-2.91,3.78-4.64,10.27-4.64,17.37c0,11.89,4.79,20.18,9.09,20.18s9.09-8.29,9.09-20.18
				c0-7.1-1.73-13.59-4.64-17.37c-0.37-0.48-0.5-1.11-0.35-1.7l2.58-10.34H442.85z"/>
		</g>
		<path class="st7" d="M457.56,196.17l3-11.99c0.14-0.55,0.01-1.14-0.34-1.59c-0.35-0.45-0.89-0.71-1.46-0.71h-14.02
			c-0.52,0.83-0.98,1.67-1.35,2.52c-2.54,5.76,2.95,9.46,1.76,14.98c-1.39,6.45-4,11.73-3.12,18.57c0.6,4.67,2.9,8.02,7.46,9.51
			c3.34,1.09,7.23,1.26,11,0.6c1.25-3.71,1.97-8.12,1.97-12.91C462.46,207.65,460.64,200.65,457.56,196.17z"/>
		<g>
			<path class="st4" d="M213.16,298.46c-0.05,0-0.1,0-0.15,0c-1.1-0.08-1.93-1.04-1.85-2.14c2.55-35.33-2.61-50.79-2.67-50.95
				c-0.36-1.04,0.19-2.18,1.23-2.54c1.04-0.36,2.18,0.19,2.54,1.23c0.23,0.65,5.5,16.24,2.88,52.55
				C215.08,297.65,214.2,298.46,213.16,298.46z"/>
		</g>
		<g>
			<path class="st4" d="M195.39,298.46c-0.05,0-0.1,0-0.15,0c-1.1-0.08-1.93-1.04-1.85-2.14c2.56-35.56,0.05-51.12,0.02-51.27
				c-0.18-1.09,0.55-2.12,1.64-2.3c1.08-0.18,2.12,0.55,2.3,1.64c0.11,0.64,2.63,16.08,0.02,52.22
				C197.3,297.65,196.42,298.46,195.39,298.46z"/>
		</g>
		<g>
			<path class="st2" d="M390.39,216.99h-33.26c0,0,6.69-56.53,16.63-62.64C381.82,149.39,390.39,216.99,390.39,216.99z"/>
			<path class="st2" d="M390.39,218.99h-33.26c-0.57,0-1.12-0.24-1.5-0.67c-0.38-0.43-0.56-1-0.49-1.56
				c0.7-5.88,7.11-57.67,17.57-64.11c1.09-0.68,2.33-0.74,3.49-0.19c1.69,0.81,5.65,2.7,11.47,34.16
				c2.8,15.11,4.69,29.97,4.71,30.12c0.07,0.57-0.1,1.14-0.48,1.57C391.51,218.75,390.97,218.99,390.39,218.99z M359.39,214.99
				h28.73c-4.45-34.11-10.35-56.73-13.48-58.83C368.29,160.59,362.08,193.55,359.39,214.99z"/>
		</g>
		<path class="st3" d="M392.23,216.76c-1.73-13.65-7.82-57.44-15.34-63.66c1.1,2.4,1.21,5.06-0.4,8.21
			c-0.76,1.49-2.68,2.61-3.37,4.25c-2.18,5.17,3.21,8.18,0.64,12.18c-0.48,0.74-2.64,5.49-3.38,6.87
			c-2.88,5.41-2.28,10.3-0.93,15.94c1.19,4.98,2.04,8.08-0.55,13.01c-0.97,1.84-2.42,3.51-3.59,5.29h25.09
			c0.53,0,1.04-0.23,1.39-0.63C392.13,217.82,392.29,217.29,392.23,216.76z"/>
		<g>
			<path class="st6" d="M222.22,244.71h-38.81c0,0,6.13-104.94,18.18-104.94S222.22,244.71,222.22,244.71z"/>
			<path class="st6" d="M222.22,246.71h-38.81c-0.55,0-1.08-0.23-1.46-0.63c-0.38-0.4-0.57-0.94-0.54-1.49
				c0.02-0.26,1.57-26.59,4.58-52.59c5.54-47.8,10.99-54.24,15.59-54.24c4.58,0,10.17,6.44,16.81,54.2
				c3.62,25.99,5.79,52.32,5.81,52.58c0.05,0.56-0.14,1.11-0.52,1.52C223.32,246.48,222.78,246.71,222.22,246.71z M185.54,242.71
				h34.5c-0.6-6.81-2.6-28.63-5.6-50.21c-6.98-50.16-12.61-50.73-12.85-50.73c-0.03,0-2.64,0.4-5.97,14.84
				c-1.99,8.63-3.89,20.69-5.65,35.85C187.47,214.08,185.98,235.95,185.54,242.71z"/>
		</g>
		<g>
			<path class="st7" d="M206.21,245.16c0.3-6.21,5.66-9.96,3.55-16.16c-3.76-10.99-11.06-18.34-7.66-30.77
				c2.09-7.65,6.33-10.38,2.47-17.93c-2.76-5.4-6.67-9.65-4.38-15.95c1-2.74,3.1-5.11,4.23-7.8c1.12-2.67,1.82-4.92,1.24-7.74
				c-0.75-3.64-5.22-7.23-3.27-11.17c-0.26-0.05-0.53-0.07-0.79-0.07c-4.13,0-7.14,5.41-10.06,18.1c-2.03,8.78-3.95,21-5.73,36.32
				c-3.01,26-4.57,52.33-4.58,52.6c-0.04,0.6,0.18,1.2,0.6,1.64c0.42,0.44,0.99,0.69,1.6,0.69h22.82
				C206.2,246.33,206.18,245.75,206.21,245.16z"/>
			<path class="st7" d="M202.15,137.96c-0.19-0.02-0.38-0.04-0.56-0.04C201.78,137.92,201.97,137.94,202.15,137.96z"/>
		</g>
		<g>
			<path class="st4" d="M450.53,84.29c0.26,5.53,0.45,11.06,0.58,16.59c0.16,5.53,0.26,11.06,0.33,16.59
				c0.15,11.06,0.13,22.12,0.21,33.18c0.08,11.06,0.07,22.12,0.06,33.18c0.01,11.06-0.07,22.12-0.17,33.18
				c-0.01,1.1-0.92,1.99-2.02,1.98c-1.09-0.01-1.97-0.89-1.98-1.98c-0.11-11.06-0.18-22.12-0.17-33.18
				c-0.02-11.06-0.02-22.12,0.06-33.18c0.07-11.06,0.06-22.12,0.21-33.18c0.07-5.53,0.18-11.06,0.33-16.59
				c0.13-5.53,0.32-11.06,0.58-16.59c0.03-0.55,0.49-0.98,1.05-0.95C450.09,83.36,450.5,83.78,450.53,84.29z"/>
		</g>
		<g>
			<path class="st4" d="M317.47,50.67c0.26,6.93,0.45,13.86,0.58,20.79c0.17,6.93,0.24,13.86,0.31,20.79l0.11,10.39l0.04,10.4
				l0.08,20.79c0.08,13.86,0.07,27.72,0.06,41.58c0.03,13.86-0.11,27.72-0.17,41.58c-0.01,1.1-0.9,2-2.01,1.99
				c-1.1-0.01-1.99-0.9-1.99-1.99c-0.06-13.86-0.2-27.72-0.17-41.58c-0.02-13.86-0.02-27.72,0.06-41.58l0.08-20.79l0.04-10.4
				l0.11-10.39c0.07-6.93,0.14-13.86,0.31-20.79c0.13-6.93,0.32-13.86,0.58-20.79c0.02-0.55,0.48-0.98,1.04-0.96
				C317.04,49.73,317.45,50.16,317.47,50.67z"/>
		</g>
		<path class="st6" d="M417.34,56.67c-6.23-1.5-12.58-2.07-18.84-3.44c-0.31-0.56-0.88-1.01-1.81-1.21
			c-5.97-1.3-11.46-3.61-17.21-5.51c-4.38-1.1-5.86-1.87-6.03,1.32c-0.68,12.99,5.08,20.79,15.86,23.32
			c0.17,1.38,4.44,1.55,6.08,1.49c3.57-0.12,7.35-0.5,10.86-1.45c0.89-0.05,1.77-0.11,2.64-0.2c1.25-0.13,2.03-0.84,2.41-1.73
			c3.47-1.81,6.33-4.54,7.92-8.67C419.79,59.09,419.02,57.08,417.34,56.67z"/>
		<path class="st7" d="M417.34,56.67c-6.23-1.5-12.58-2.07-18.84-3.44c-0.31-0.56-0.88-1.01-1.81-1.21
			c-5.97-1.3-11.46-3.61-17.21-5.51c-4.38-1.1-5.86-1.87-6.03,1.32c-0.13,2.55-0.01,4.89,0.34,7.04c1.06,2.04,2.71,3.7,5.04,4.79
			c4.41,2.07,8.82,1.33,13.47,1.54c3.86,0.18,5.35,2.79,7.98,5.22c2.14,1.98,4.6,3.15,7.49,3.58c0.99,0.15,1.88,0.23,2.73,0.33
			c0.35-0.3,0.62-0.66,0.79-1.08c3.47-1.81,6.33-4.54,7.92-8.67C419.79,59.09,419.02,57.08,417.34,56.67z"/>
		<path class="st6" d="M324.94,31.46c-4.79-2.6-11.09-3.26-16.31-4.3c-3.7-0.74-7.4-1.45-11.1-2.16c-2.04-0.39-6.82-0.32-8.5-1.93
			c-0.01-0.16-5.99-3.52-5.8-0.32c0.61,10.42,4.36,18.03,14.26,22.58c6.93,3.18,16.84,3.87,23.46-0.33
			C325.35,42.22,331.47,35.01,324.94,31.46z"/>
		<path class="st6" d="M480.17,75.1c-6.24-2-12.78-3.4-19.1-5.18c-1.26-1.45-5.17-0.53-5.11,1.89c0.28,12,16.47,17.8,25.34,10.91
			C484.9,79.92,484.55,76.5,480.17,75.1z"/>
		<g>
			<path class="st0" d="M424.15,187.31l3.21-12.83h-18.48l3.21,12.83c-3.04,3.95-5.05,10.8-5.05,18.59
				c0,12.25,4.96,22.18,11.09,22.18c6.12,0,11.09-9.93,11.09-22.18C429.2,198.11,427.19,191.27,424.15,187.31z"/>
			<path class="st0" d="M418.11,230.08c-7.34,0-13.09-10.62-13.09-24.18c0-7.49,1.81-14.5,4.89-19.01l-2.98-11.92
				c-0.15-0.6-0.01-1.23,0.36-1.72s0.96-0.77,1.58-0.77h18.48c0.62,0,1.2,0.28,1.58,0.77s0.51,1.12,0.36,1.72l-2.98,11.92
				c3.07,4.51,4.89,11.52,4.89,19.01C431.2,219.46,425.45,230.08,418.11,230.08z M411.43,176.49l2.58,10.34
				c0.15,0.59,0.02,1.22-0.35,1.7c-2.91,3.78-4.64,10.27-4.64,17.37c0,11.89,4.79,20.18,9.09,20.18s9.09-8.29,9.09-20.18
				c0-7.1-1.73-13.59-4.64-17.37c-0.37-0.48-0.5-1.11-0.35-1.7l2.58-10.34H411.43z"/>
		</g>
		<path class="st1" d="M431.05,205.9c0-7.49-1.82-14.49-4.9-18.98l3-11.99c0.14-0.55,0.01-1.14-0.34-1.59
			c-0.35-0.45-0.89-0.71-1.46-0.71h-11.4c0.18,1.03,0.69,2.12,1.5,3.3c1.07,1.56,2.97,3.22,3.37,5.15c0.59,2.81-2.07,5.91-3.23,8.29
			c-1.43,2.94-2.34,6.25-1.97,9.55c0.4,3.54,2.78,6.61,1.11,10.16c-1.97,4.19-6.91,7.75-5.55,12.98c1.45,5.56,7.34,6.62,12.69,5.42
			C428.16,223.62,431.05,215.5,431.05,205.9z"/>
		<path class="st4" d="M208.94,119.05c-0.03,2.38-0.22,4.79-0.97,7.19c-0.39,1.2-0.9,2.4-1.77,3.55c-0.43,0.57-1,1.12-1.7,1.57
			c-0.72,0.45-1.64,0.75-2.6,0.78c-0.96-0.02-1.89-0.3-2.62-0.74c-0.71-0.44-1.31-0.98-1.77-1.53c-0.94-1.12-1.52-2.31-1.98-3.51
			c-0.9-2.4-1.23-4.86-1.27-7.3c0.04-2.44,0.37-4.9,1.27-7.3c0.46-1.2,1.05-2.39,1.98-3.51c0.45-0.56,1.05-1.09,1.77-1.53
			c0.74-0.44,1.66-0.72,2.62-0.74c0.96,0.03,1.88,0.33,2.6,0.78c0.7,0.46,1.27,1,1.7,1.57c0.88,1.14,1.39,2.35,1.77,3.55
			C208.72,114.26,208.91,116.67,208.94,119.05z M205.94,119.05c-0.02-1.04-0.11-2.09-0.3-3.1c-0.21-1.01-0.52-1.99-0.91-2.89
			c-0.39-0.9-0.9-1.72-1.45-2.3c-0.27-0.31-0.56-0.5-0.8-0.65c-0.24-0.13-0.42-0.14-0.58-0.16c-0.16,0.03-0.33,0.06-0.56,0.2
			c-0.22,0.16-0.49,0.36-0.73,0.68c-0.49,0.61-0.92,1.44-1.24,2.34c-0.65,1.8-0.92,3.85-0.91,5.87c0,2.02,0.26,4.07,0.91,5.87
			c0.32,0.89,0.75,1.73,1.24,2.34c0.24,0.32,0.5,0.52,0.73,0.68c0.23,0.14,0.4,0.17,0.56,0.2c0.16-0.01,0.34-0.03,0.58-0.16
			c0.24-0.15,0.53-0.33,0.8-0.65c0.55-0.58,1.06-1.4,1.45-2.3c0.39-0.9,0.7-1.88,0.91-2.89
			C205.84,121.13,205.92,120.09,205.94,119.05z"/>
		<rect x="294.3" y="216.99" class="st11" width="177.41" height="83.16"/>
		<path class="st13" d="M294.3,226.08c8.21-1.48,16.3-2.56,25-2.24c12.39,0.46,24.74,2.03,37.08,2.96
			c20.23,1.51,40.29,2.46,60.66,0.74c10.45-0.88,20.74-2.25,31.27-2.46c7.79-0.15,15.61,0.16,23.4,0.15v-8.24H294.3V226.08z"/>
		<path class="st4" d="M471.71,302.15H294.3c-1.1,0-2-0.9-2-2v-83.16c0-1.1,0.9-2,2-2h177.41c1.1,0,2,0.9,2,2v83.16
			C473.71,301.26,472.81,302.15,471.71,302.15z M296.3,298.15h173.41v-79.16H296.3V298.15z"/>
		<path class="st4" d="M381.3,130.14c-0.03,2.43-0.36,4.89-1.28,7.26c-0.47,1.18-1.08,2.35-2.01,3.44
			c-0.45,0.54-1.04,1.05-1.74,1.47c-0.72,0.41-1.6,0.67-2.51,0.68c-0.91-0.04-1.78-0.33-2.46-0.76c-0.67-0.44-1.22-0.96-1.64-1.51
			c-0.87-1.1-1.4-2.27-1.81-3.44c-0.82-2.35-1.11-4.75-1.12-7.13c0.01-2.39,0.3-4.78,1.12-7.13c0.42-1.17,0.95-2.35,1.81-3.44
			c0.42-0.55,0.98-1.07,1.64-1.51c0.69-0.43,1.55-0.72,2.46-0.76c0.91,0.01,1.8,0.26,2.51,0.68c0.69,0.42,1.29,0.92,1.74,1.47
			c0.93,1.08,1.55,2.25,2.01,3.44C380.95,125.25,381.28,127.7,381.3,130.14z M377.3,130.14c0-2.03-0.27-4.09-0.9-5.92
			c-0.31-0.91-0.72-1.77-1.22-2.41c-0.24-0.34-0.51-0.57-0.76-0.75c-0.25-0.16-0.46-0.22-0.67-0.26c-0.21,0.01-0.44,0.04-0.72,0.18
			c-0.27,0.16-0.58,0.38-0.85,0.71c-0.56,0.63-1.05,1.48-1.41,2.4c-0.74,1.85-1.04,3.96-1.06,6.04c0.02,2.08,0.32,4.19,1.06,6.04
			c0.36,0.92,0.85,1.78,1.41,2.4c0.28,0.33,0.58,0.55,0.85,0.71c0.28,0.14,0.51,0.17,0.72,0.18c0.21-0.04,0.42-0.1,0.67-0.26
			c0.24-0.18,0.52-0.41,0.76-0.75c0.5-0.64,0.9-1.5,1.22-2.41C377.04,134.22,377.3,132.17,377.3,130.14z"/>
		<path class="st2" d="M281.75,20.7c-0.12,0.41-0.23,0.82-0.29,1.23c-0.05,0.34,0.03,0.62,0.19,0.87c0,0.38,0.26,0.78,0.91,1.17
			c13.55,8.07,32.6,10.76,47.71,14.7c20.09,5.24,40.07,10.08,59.93,16.32c19.75,6.21,39.48,12.42,59.44,17.93
			c8.94,2.47,17.9,5.48,26.97,7.41c3.71,0.79,7.89,1.19,11.03-1.41c0.31-0.25,0.58-0.52,0.85-0.79L281.75,20.7z"/>
		<path class="st4" d="M375.24,172.41c-0.45,0.49-0.79,0.81-1.2,1.16c-0.39,0.36-0.79,0.67-1.2,0.99c-0.4,0.33-0.83,0.6-1.25,0.89
			c-0.42,0.29-0.84,0.58-1.28,0.82l-1.31,0.76l-1.36,0.67c-0.89,0.48-1.84,0.81-2.79,1.16c-3.79,1.36-7.76,2.04-11.72,2.22
			l-2.97,0.02c-0.99-0.04-1.97-0.15-2.95-0.22l-1.47-0.12c-0.49-0.05-0.97-0.16-1.45-0.24L341.4,180c-0.97-0.15-1.89-0.47-2.84-0.69
			c-0.94-0.25-1.88-0.49-2.81-0.77c-1.8-0.72-3.58-1.54-5.18-2.71c-0.46-0.34-0.56-0.99-0.23-1.45c0.2-0.28,0.52-0.43,0.84-0.43
			l0.09,0c1.98,0.01,3.78,0.39,5.56,0.83c1.8,0.33,3.56,0.84,5.35,1.13c1.8,0.22,3.59,0.59,5.39,0.63c0.9,0.05,1.8,0.13,2.69,0.15
			l2.68-0.07c3.56-0.18,7.1-0.75,10.42-1.93c0.82-0.31,1.66-0.59,2.45-0.97l1.2-0.54l1.15-0.62c0.39-0.2,0.76-0.43,1.12-0.66
			c0.37-0.23,0.74-0.45,1.08-0.71c0.35-0.25,0.71-0.49,1.03-0.75c0.32-0.24,0.68-0.56,0.89-0.74l0.15-0.14
			c0.82-0.74,2.08-0.67,2.82,0.14C375.95,170.48,375.93,171.66,375.24,172.41z"/>
		<path class="st4" d="M268.89,16.22c9.8,1.67,19.31,4.38,28.85,7.01l28.6,7.88l57.21,15.76l57.13,16.04l28.56,8.02
			c9.51,2.71,19.1,5.14,28.34,8.82c0.45,0.18,0.67,0.69,0.49,1.14c-0.16,0.39-0.56,0.61-0.96,0.54c-9.82-1.61-19.28-4.48-28.83-7.07
			l-28.61-7.86l-57.22-15.72l-57.14-16l-28.57-8c-9.52-2.66-19.07-5.25-28.33-8.87c-0.45-0.18-0.68-0.69-0.5-1.14
			C268.08,16.37,268.49,16.15,268.89,16.22z"/>
		<path class="st4" d="M471.36,87.25c-5.22,0-11.67-2.56-15.36-9.61c-14.98,7.92-27.76,5.17-39.95-8.58
			c-7.18,5.74-16.73,7.43-25.95,4.49c-8.35-2.66-14.79-8.6-17.44-15.9c-8.74,6.54-19.21,8.15-29.15,4.37
			c-8.91-3.39-16.12-10.72-18.8-18.73c-7.5,8.12-18.97,8.38-27.86,4.63c-9.78-4.13-18.85-14.44-15.68-27.33l3.88,0.96
			c-1.89,7.69,1.5,17.69,13.35,22.69c8.46,3.57,19.66,2.92,25.6-6.61c0.45-0.72,1.31-1.08,2.13-0.89c0.83,0.19,1.45,0.87,1.55,1.72
			c0.97,8.18,8.06,16.34,17.24,19.83c5.54,2.11,16.49,4.18,27.49-5.59c0.53-0.47,1.28-0.63,1.96-0.4c0.68,0.22,1.18,0.79,1.33,1.49
			c1.5,7.26,7.48,13.37,15.6,15.96c8.51,2.71,17.33,0.85,23.58-4.97c0.4-0.37,0.94-0.57,1.49-0.53c0.55,0.03,1.06,0.29,1.41,0.71
			c11.79,14.12,23.55,16.64,38.12,8.16c0.5-0.29,1.11-0.35,1.66-0.16c0.55,0.19,0.99,0.61,1.21,1.15c2.76,6.92,8.46,9.25,12.89,9.15
			c4.79-0.12,8.66-2.84,10.12-7.1l3.79,1.29c-1.98,5.8-7.39,9.65-13.8,9.81C471.64,87.25,471.5,87.25,471.36,87.25z"/>
		<path class="st4" d="M486.49,217.99c-8.62,1.32-17.25,0.93-25.87,1.04l-25.87,0.09L383,219.31l-51.74-0.1l-25.87-0.11
			c-8.62-0.12-17.25,0.29-25.87-1.11c-0.55-0.09-0.93-0.61-0.84-1.16c0.07-0.44,0.42-0.77,0.84-0.84
			c8.62-1.41,17.25-0.99,25.87-1.11l25.87-0.11l51.74-0.1l51.74,0.19l25.87,0.09c8.62,0.11,17.25-0.28,25.87,1.04
			c0.55,0.08,0.93,0.6,0.85,1.15C487.27,217.59,486.91,217.93,486.49,217.99z"/>
	</g>
	<path class="st4" d="M200.09,158.6l-0.15,0.09l-0.22,0.14l-0.44,0.28l-0.89,0.66c-0.58,0.48-1.17,0.95-1.73,1.48
		c-0.54,0.55-1.12,1.06-1.64,1.63l-1.56,1.74c-1.98,2.42-3.82,4.99-5.39,7.76c-0.79,1.38-1.63,2.73-2.29,4.19l-1.06,2.15l-0.53,1.08
		l-0.46,1.11l-1.84,4.45l-1.6,4.56c-0.26,0.76-0.54,1.52-0.79,2.29l-0.66,2.33l-1.32,4.67c-0.39,1.57-0.7,3.16-1.08,4.74
		c-0.34,1.59-0.77,3.16-1.05,4.76c-0.54,3.2-1.15,6.4-1.64,9.62l-1.28,9.7l-0.01,0.05c-0.07,0.55-0.57,0.93-1.12,0.86
		c-0.53-0.07-0.9-0.54-0.87-1.06l0.68-9.86c0.3-3.29,0.8-6.55,1.19-9.84c0.51-3.27,1.13-6.52,1.77-9.77l1.2-4.84l0.6-2.42
		c0.23-0.8,0.49-1.59,0.73-2.39l1.5-4.77l1.82-4.68l0.46-1.17l0.54-1.14l1.07-2.28c0.67-1.54,1.54-3,2.36-4.47
		c1.65-2.95,3.65-5.72,5.83-8.36l1.74-1.91c0.6-0.62,1.26-1.2,1.88-1.8c0.65-0.59,1.35-1.13,2.04-1.67c0.76-0.53,1.41-1,2.42-1.51
		c0.98-0.5,2.18-0.11,2.68,0.87c0.48,0.94,0.14,2.09-0.76,2.62L200.09,158.6z"/>
	<g>
		<path class="st11" d="M100.65,292.6v37.54h421.57V292.6C415.39,279.32,100.65,292.6,100.65,292.6z"/>
	</g>
	<path class="st4" d="M100.59,291.6c35.07-2.89,70.22-4.01,105.37-4.94c35.15-0.92,70.31-1.28,105.47-1.25
		c17.58-0.07,35.16,0.18,52.74,0.29c17.58,0.36,35.16,0.38,52.74,0.89c8.79,0.21,17.58,0.43,26.36,0.74l26.35,1.15
		c4.39,0.21,8.78,0.36,13.17,0.62l13.16,0.8c8.78,0.51,17.55,1.13,26.32,1.7c0.55,0.04,0.97,0.51,0.93,1.06
		c-0.03,0.54-0.49,0.95-1.02,0.94l-0.01,0c-8.78-0.25-17.57-0.45-26.34-0.76l-13.17-0.43l-13.17-0.34l-26.34-0.7l-26.34-0.62
		l-13.17-0.35l-13.17-0.25l-26.34-0.42c-17.56-0.08-35.13-0.28-52.69-0.18c-17.56-0.02-35.13,0.21-52.69,0.36l-26.34,0.41
		l-26.34,0.51c-35.12,0.74-70.23,1.97-105.35,2.76l-0.01,0c-0.55,0.01-1.01-0.43-1.02-0.98C99.66,292.09,100.07,291.64,100.59,291.6
		z"/>
</g>
<path class="st7" d="M612.88,1009.82c0.42-0.45,0.63-1.06,0.57-1.67c-0.02-0.25-2.09-25.34-5.54-50.1
	c-2.03-14.59-4.14-26.23-6.26-34.6c-3.08-12.11-6.08-17.28-10.04-17.28c-1.12,0-2.15,0.42-3.11,1.27c-0.32,3.3-0.62,6.62-0.05,9.79
	c0.73,4.05,3.93,7.75,3.6,11.96c-0.37,4.78-3.94,8.34-3.25,13.38c0.24,1.79,1.05,3.49,1.19,5.3c0.25,3.28-1.01,6.57-1.26,9.83
	c-0.42,5.43,2.59,9.53,3.01,14.74c0.44,5.55-1.71,10.85-1.06,16.51c0.38,3.31,0.31,5.32-0.83,8.5c-0.67,1.85-1.52,3.78-1.67,5.77
	c-0.2,2.52,0.72,4.93,1.68,7.29h21.42C611.87,1010.53,612.46,1010.28,612.88,1009.82z"/>
<path class="st3" d="M419.28,999.55c0.02-4.77-1.87-9.31-1.47-14.06c0.45-5.43,2.72-10.53,2.53-16.05
	c-0.24-6.76,0.35-12.6,1.51-19.3c0.96-5.52,1.41-10.93-0.77-16.21c-1.35-3.25-2.47-5.18-1.95-8.86c0.44-3.15,1.9-6.18,2.01-9.39
	c0.06-1.77-0.38-3.03-1.11-4.62c-1.58-3.46-2.37-5.76-1.53-8.87c-0.58-0.26-1.17-0.4-1.79-0.4c-3.99,0-6.89,5.18-9.69,17.32
	c-1.93,8.37-3.77,20.01-5.45,34.6c-2.87,24.76-4.35,49.85-4.36,50.1c-0.03,0.6,0.18,1.2,0.6,1.64c0.42,0.44,0.99,0.69,1.6,0.69
	h20.17C419.53,1003.9,419.27,1001.61,419.28,999.55z"/>
<path class="st3" d="M688.25,497.93c-0.67,0-1.36,0.12-2.06,0.45c0.68,0.85,0.4,1.9,0.24,4.02c-0.16,2.1-0.47,4.16-0.35,6.28
	c0.14,2.4,0.64,4.58,1.8,6.7c1.69,3.07,4.7,5.33,5.49,8.89c1.07,4.83-1.87,9.56-2.98,14.1c-0.51,2.1-0.72,4.16-0.04,6.24
	c0.98,3.01,3,5.03,2.66,8.47c-0.48,4.9-2.9,9.36-2.53,14.4c0.21,2.92,1.55,5.32,2.17,8.13c0.83,3.81-0.33,7.01-1.7,10.51
	c-1.23,3.15-3.21,6.57-1.94,9.98c0.71,1.91,2.4,3.23,3.08,5.17c1.08,3.06-0.36,5.9-0.93,8.86c-0.07,0.38-0.12,0.74-0.16,1.1h19.52
	c0.62,0,1.2-0.26,1.62-0.71c0.42-0.45,0.62-1.06,0.57-1.67c-0.02-0.27-2.37-27.6-6.28-54.58
	C699.25,504.63,693.21,497.93,688.25,497.93z"/>
<path class="st3" d="M475.78,632.76c-0.18-3.74-1.46-6.85-1.22-10.77c0.23-3.74,0.36-7.05-0.54-10.69
	c-0.74-2.96-0.86-6.19-1.76-9.08c-0.43-1.37-3.31-5.18-3.24-6.91c-0.51-0.14-1.02-0.22-1.55-0.22c-0.02,0-0.04,0-0.06,0
	c-1.59,0.02-3.05,0.7-4.23,1.98c-1.85,2-5.98,9.45-4.27,35.38c0.06,0.95,0.53,1.84,1.27,2.44c0.62,0.5,1.39,0.77,2.18,0.77
	c0.16,0,0.32-0.01,0.49-0.03l12.97-1.84C475.8,633.43,475.79,633.08,475.78,632.76z"/>
<path class="st4" d="M781.1,539.73c-0.75-5.68-0.96-11.37-1.08-17.05c-0.12-5.68-0.14-11.37,0.08-17.05
	c0.04-1.1,0.97-1.96,2.08-1.92c1.05,0.04,1.88,0.89,1.92,1.92c0.22,5.68,0.2,11.37,0.08,17.05s-0.33,11.37-1.08,17.05
	c-0.07,0.55-0.58,0.94-1.13,0.87C781.51,540.54,781.16,540.17,781.1,539.73z"/>
<path class="st4" d="M836.61,506.63c-4.54,1.06-9.08,1-13.63,1.03l-13.63,0.12c-9.08,0.09-18.17,0.08-27.25,0.11
	c-9.08-0.04-18.17-0.03-27.25-0.13l-13.63-0.12c-4.54-0.03-9.08-0.13-13.63-1.02c-0.55-0.11-0.91-0.64-0.8-1.2
	c0.08-0.42,0.41-0.73,0.8-0.8c4.54-0.89,9.08-0.99,13.63-1.02l13.63-0.12c9.08-0.1,18.17-0.09,27.25-0.13
	c9.08,0.03,18.17,0.02,27.25,0.11l13.63,0.12c4.54,0.04,9.08-0.02,13.63,1.03c0.55,0.13,0.9,0.68,0.77,1.23
	C837.28,506.26,836.98,506.55,836.61,506.63z"/>
<path class="st4" d="M826.4,506.27l-8.34-25.03h-71.92l-8.34,25.03L734,505l8.8-26.4c0.27-0.82,1.04-1.37,1.9-1.37h74.8
	c0.86,0,1.62,0.55,1.9,1.37l8.8,26.4L826.4,506.27z"/>
<path class="st4" d="M767.13,546.16c1.55,6.7,2.99,13.43,4.37,20.16l1.03,5.05l0.51,2.53l0.03,0.16l0.02,0.07
	c0.01,0.04,0.02,0.08,0.04,0.12c0.03,0.08,0.07,0.16,0.12,0.23c0.09,0.15,0.22,0.27,0.35,0.37c0.14,0.1,0.29,0.17,0.45,0.21
	c0.08,0.02,0.16,0.03,0.24,0.03l0.48-0.01l2.58-0.04l5.15-0.03l5.15,0.03l2.58,0.04l0.58,0.01c0.08,0,0.17,0,0.25-0.02
	c0.16-0.03,0.32-0.09,0.46-0.18c0.28-0.19,0.5-0.48,0.58-0.82l0.42-2.49l0.85-5.08c1.15-6.78,2.36-13.55,3.67-20.3l1.98,0.28
	c-0.63,6.85-1.36,13.69-2.16,20.52l-0.61,5.12l-0.32,2.61c-0.21,1.35-0.97,2.62-2.09,3.43c-0.56,0.41-1.2,0.7-1.88,0.87
	c-0.34,0.09-0.68,0.13-1.03,0.15l-0.71,0.02l-2.58,0.04l-5.15,0.03l-5.15-0.03l-2.58-0.04l-0.32-0.01l-0.49-0.02
	c-0.35-0.03-0.69-0.1-1.02-0.19c-0.67-0.2-1.29-0.53-1.83-0.96c-0.54-0.43-0.99-0.97-1.32-1.58c-0.16-0.3-0.3-0.62-0.4-0.95
	c-0.05-0.16-0.1-0.33-0.13-0.5l-0.05-0.24l-0.02-0.16l-0.39-2.55l-0.78-5.1c-1.03-6.8-2.01-13.6-2.88-20.43L767.13,546.16z"/>
<path class="st4" d="M803.31,547.33c-3.54,0.6-7.07,0.84-10.61,0.98c-3.54,0.13-7.07,0.24-10.61,0.29l-5.3,0l-5.3-0.12
	c-3.54-0.11-7.07-0.35-10.61-1.15c-0.55-0.12-0.9-0.67-0.77-1.23c0.09-0.4,0.4-0.69,0.77-0.77c3.54-0.8,7.07-1.04,10.61-1.15
	l5.3-0.12l5.3,0c3.54,0.05,7.07,0.16,10.61,0.29c3.54,0.15,7.07,0.39,10.61,0.98c0.55,0.09,0.92,0.62,0.83,1.17
	C804.07,546.94,803.73,547.26,803.31,547.33z"/>
<path class="st4" d="M594.56,936.84c-0.48,0.69-0.88,1.2-1.34,1.74c-0.45,0.54-0.93,1.03-1.42,1.52c-0.47,0.51-0.99,0.95-1.5,1.41
	c-0.51,0.46-1.02,0.92-1.57,1.31l-1.64,1.22l-1.72,1.09c-1.13,0.76-2.36,1.33-3.56,1.96c-4.88,2.38-10.19,3.63-15.48,4.21
	l-3.99,0.27l-3.98-0.11l-1.98-0.06l-1.96-0.23c-1.31-0.15-2.62-0.32-3.92-0.5c-2.58-0.47-5.13-1.1-7.68-1.67
	c-2.49-0.81-4.97-1.58-7.43-2.42c-0.52-0.18-0.8-0.74-0.62-1.27c0.16-0.48,0.66-0.76,1.15-0.66l0.08,0.02
	c2.5,0.52,4.97,1.11,7.45,1.66c2.51,0.37,5,0.81,7.49,1.1c1.26,0.07,2.51,0.16,3.76,0.26l1.87,0.14l1.87-0.03l3.74-0.06l3.7-0.42
	c4.9-0.62,9.69-1.94,14.07-4.07c1.08-0.56,2.19-1.06,3.2-1.74l1.54-0.96l1.46-1.08c0.5-0.34,0.96-0.73,1.41-1.12
	c0.46-0.39,0.93-0.77,1.34-1.2c0.43-0.42,0.87-0.83,1.25-1.27c0.4-0.41,0.81-0.91,1.08-1.26l0.11-0.14c0.68-0.87,1.93-1.02,2.8-0.35
	C594.98,934.79,595.15,935.98,594.56,936.84z"/>
<g>
	<path class="st11" d="M420.75,660.18c224.95-14.85,424.6,0,424.6,0v36.85h-424.6V660.18z"/>
</g>
<path class="st4" d="M845.28,661.18c-35.34-1.61-70.71-2.9-106.08-3.94c-8.84-0.22-17.69-0.51-26.53-0.67l-26.54-0.49
	c-17.69-0.18-35.38-0.38-53.08-0.38l-13.27-0.03l-13.27,0.09l-26.54,0.22c-17.69,0.35-35.38,0.55-53.06,1.26
	c-35.37,1.02-70.69,3-106.09,3.93l-0.01,0c-0.55,0.01-1.01-0.42-1.03-0.97c-0.01-0.53,0.39-0.97,0.91-1.02
	c35.28-3.34,70.68-5.2,106.1-6.05c8.85-0.26,17.71-0.54,26.56-0.66l26.57-0.54l26.57-0.28l13.28-0.12l13.29,0.01
	c35.43-0.08,70.85,0.58,106.26,1.66c35.41,1.09,70.8,2.81,106.11,5.99c0.55,0.05,0.96,0.54,0.91,1.09
	c-0.05,0.53-0.51,0.93-1.04,0.91L845.28,661.18z"/>
<g>
	<circle class="st16" cx="270.24" cy="113.06" r="8.8"/>
	<path class="st17" d="M281.04,97.87l-2.92,3.05c-0.39,0.41-1.04,0.43-1.46,0.03c-0.29-0.27-0.38-0.68-0.28-1.03l1.19-4.05
		c0.32-1.09,1.46-1.72,2.55-1.4s1.72,1.46,1.4,2.55C281.43,97.35,281.26,97.64,281.04,97.87z"/>
	<path class="st17" d="M267.04,94.34l0.1,4.22c0.01,0.57-0.44,1.04-1.01,1.05c-0.4,0.01-0.75-0.21-0.93-0.53l-2.03-3.7
		c-0.55-1-0.18-2.25,0.82-2.79c1-0.55,2.25-0.18,2.79,0.82C266.95,93.69,267.03,94.02,267.04,94.34z"/>
	<path class="st17" d="M255.05,102.26l3.05,2.92c0.41,0.39,0.43,1.04,0.03,1.46c-0.27,0.29-0.68,0.38-1.03,0.28l-4.05-1.19
		c-1.09-0.32-1.72-1.46-1.4-2.55c0.32-1.09,1.46-1.72,2.55-1.4C254.53,101.87,254.82,102.04,255.05,102.26z"/>
	<path class="st18" d="M267.07,121.26c1.68,0.65,3.57,0.8,5.45,0.3c4.69-1.26,7.48-6.08,6.22-10.78c-0.76-2.82-2.8-4.94-5.33-5.92
		c-0.25,0.5-0.55,1.01-0.91,1.51c-1.43,1.98-2.96,3.59-2.37,6.28c0.56,2.58,1.3,2.93-0.24,5.53
		C269.17,119.37,268.03,120.27,267.07,121.26z"/>
</g>
</svg>
