<?xml version="1.0" encoding="utf-8"?>
<!-- Generator: Adobe Illustrator 22.1.0, SVG Export Plug-In . SVG Version: 6.00 Build 0)  -->
<svg version="1.1" id="Vectors" xmlns="http://www.w3.org/2000/svg" xmlns:xlink="http://www.w3.org/1999/xlink" x="0px" y="0px"
	 width="64px" height="64px" viewBox="0 0 64 64" style="enable-background:new 0 0 64 64;" xml:space="preserve">
<style type="text/css">
	.st0{fill:#CDDAE8;}
	.st1{opacity:0.2;fill:#278BD6;}
	.st2{fill:#278BD6;}
	.st3{opacity:0.3;fill:#064E72;}
	.st4{fill:#2E3547;}
	.st5{fill:#4E5C75;}
	.st6{fill:#A0C2EC;}
	.st7{opacity:0.3;fill:#278BD6;}
	.st8{opacity:0.1;fill:#278BD6;}
	.st9{fill:#EF4B4B;}
	.st10{opacity:0.2;}
	.st11{fill:#FFFFFF;}
	.st12{opacity:0.1;}
	.st13{opacity:0.35;fill:#278BD6;}
	.st14{opacity:0.35;}
	.st15{opacity:0.3;fill:#2E3547;}
	.st16{fill:#FCD381;}
	.st17{opacity:0.35;fill:#FCD381;}
	.st18{opacity:0.3;fill:#FCD381;}
	.st19{fill:none;}
	.st20{display:none;fill:#EF4B4B;}
	.st21{fill:#F8C069;}
	.st22{fill:#E23537;}
	.st23{fill:#237BC9;}
</style>
<g>
	<path class="st2" d="M60.32,30.5L34.82,8c-0.59-0.52-1.43-0.65-2.15-0.32C31.96,8,31.5,8.71,31.5,9.5v13H5c-1.1,0-2,0.9-2,2v15
		c0,1.1,0.9,2,2,2h26.5v13c0,0.79,0.46,1.5,1.18,1.82c0.26,0.12,0.54,0.18,0.82,0.18c0.48,0,0.95-0.17,1.32-0.5l25.5-22.5
		C60.75,33.12,61,32.57,61,32S60.75,30.88,60.32,30.5z"/>
	<path class="st23" d="M61,32c0-0.57-0.25-1.12-0.68-1.5L45.07,17.04c-0.9,5.14-3.3,10.33-6.67,15.06c-2.35,3.3-5.2,5.97-7.1,9.4
		h0.2v13c0,0.79,0.46,1.5,1.18,1.82c0.26,0.12,0.54,0.18,0.82,0.18c0.48,0,0.95-0.17,1.32-0.5l25.5-22.5C60.75,33.12,61,32.57,61,32
		z"/>
</g>
</svg>
