<?xml version="1.0" encoding="utf-8"?>
<!-- Generator: Adobe Illustrator 22.1.0, SVG Export Plug-In . SVG Version: 6.00 Build 0)  -->
<svg version="1.1" id="Vectors" xmlns="http://www.w3.org/2000/svg" xmlns:xlink="http://www.w3.org/1999/xlink" x="0px" y="0px"
	 width="700px" height="400px" viewBox="0 0 700 400" style="enable-background:new 0 0 700 400;" xml:space="preserve">
<style type="text/css">
	.st0{fill:#CDDAE8;}
	.st1{opacity:0.2;fill:#278BD6;}
	.st2{fill:#278BD6;}
	.st3{opacity:0.3;fill:#064E72;}
	.st4{fill:#2E3547;}
	.st5{fill:#4E5C75;}
	.st6{fill:#A0C2EC;}
	.st7{opacity:0.3;fill:#278BD6;}
	.st8{opacity:0.1;fill:#278BD6;}
	.st9{fill:#EF4B4B;}
	.st10{opacity:0.2;}
	.st11{fill:#FFFFFF;}
	.st12{opacity:0.1;}
	.st13{opacity:0.35;fill:#278BD6;}
	.st14{opacity:0.35;}
	.st15{opacity:0.3;fill:#2E3547;}
	.st16{fill:#FCD381;}
	.st17{opacity:0.35;fill:#FCD381;}
	.st18{opacity:0.3;fill:#FCD381;}
	.st19{fill:none;}
	.st20{display:none;fill:#EF4B4B;}
	.st21{fill:#F8C069;}
	.st22{fill:#E23537;}
	.st23{fill:#237BC9;}
</style>
<g>
	<polygon class="st0" points="316.55,180.33 307.75,180.33 305.55,164.93 318.75,164.93 	"/>
	<path class="st0" d="M316.55,182.33h-8.8c-1,0-1.84-0.73-1.98-1.72l-2.2-15.4c-0.08-0.57,0.09-1.16,0.47-1.59
		c0.38-0.44,0.93-0.69,1.51-0.69h13.2c0.58,0,1.13,0.25,1.51,0.69c0.38,0.44,0.55,1.02,0.47,1.59l-2.2,15.4
		C318.39,181.6,317.55,182.33,316.55,182.33z M309.49,178.33h5.33l1.63-11.4h-8.59L309.49,178.33z"/>
</g>
<path class="st1" d="M303.89,163.49c-0.42,0.48-0.61,1.12-0.52,1.75l2.2,15.4c0.15,1.08,1.08,1.89,2.18,1.89h4.65
	c-0.01-0.22-0.04-0.45-0.04-0.67c-0.04-2.14,0.98-3.73,0.85-5.8c-0.24-3.72-4.58-6.67-1.55-10.2c0.71-0.83,0.84-2.11,0.43-3.14
	h-6.53C304.91,162.73,304.31,163,303.89,163.49z"/>
<g>
	<polygon class="st2" points="330.44,149.53 351.34,149.53 346.94,180.33 334.84,180.33 	"/>
	<path class="st2" d="M346.94,182.33h-12.1c-1,0-1.84-0.73-1.98-1.72l-4.4-30.8c-0.08-0.57,0.09-1.16,0.47-1.59
		c0.38-0.44,0.93-0.69,1.51-0.69h20.9c0.58,0,1.13,0.25,1.51,0.69c0.38,0.44,0.55,1.02,0.47,1.59l-4.4,30.8
		C348.78,181.6,347.93,182.33,346.94,182.33z M336.57,178.33h8.63l3.83-26.8h-16.29L336.57,178.33z"/>
</g>
<path class="st3" d="M328.78,148.09c-0.42,0.48-0.61,1.12-0.52,1.75l4.4,30.8c0.15,1.08,1.08,1.89,2.18,1.89h12.1
	c0.12,0,0.24-0.01,0.35-0.03c0.37-1.78,0.77-3.55,1.17-5.37c0.44-2.04-0.27-3.82-1.45-5.44c-0.81-1.11-1.89-1.83-2.78-2.83
	c-2.64-2.95-2.52-4.85-1.51-8.46c0.76-2.69,2.26-5.39,1.94-8.26c-0.12-1.03-0.45-2.07-0.96-2.98c-0.43-0.62-0.89-1.23-1.36-1.83
	h-11.91C329.8,147.33,329.2,147.6,328.78,148.09z"/>
<g>
	<polygon class="st2" points="264.4,223.33 288.6,223.33 279.8,260.73 273.2,260.73 	"/>
	<path class="st2" d="M279.8,262.73h-6.6c-0.93,0-1.73-0.64-1.95-1.54l-8.8-37.4c-0.14-0.59,0-1.22,0.38-1.7
		c0.38-0.48,0.96-0.76,1.57-0.76h24.2c0.61,0,1.19,0.28,1.57,0.76c0.38,0.48,0.52,1.11,0.38,1.7l-8.8,37.4
		C281.54,262.09,280.73,262.73,279.8,262.73z M274.79,258.73h3.43l7.86-33.4h-19.15L274.79,258.73z"/>
</g>
<path class="st3" d="M264.4,221.13c-0.67,0-1.31,0.31-1.72,0.83c-0.42,0.53-0.57,1.22-0.42,1.87l8.8,37.4
	c0.23,0.99,1.12,1.7,2.14,1.7h3.89c0.02-0.35,0.04-0.7,0.03-1.05c-0.04-1.71-0.62-3.05-0.8-4.67c-0.52-4.72,0.67-4.72,1.12-8.62
	c0.43-3.76-1.61-6.52-1.66-10c-0.05-3.39,2.77-4.72,2.51-8.42c-0.3-4.22-3.56-4.76-3.32-9.03H264.4z"/>
<g>
	<g>
		<path class="st0" d="M358.96,238.73h-57.2c0,8.85,4.02,16.75,10.33,22h36.54C354.94,255.48,358.96,247.57,358.96,238.73z"/>
		<path class="st0" d="M348.63,262.73h-36.54c-0.47,0-0.92-0.16-1.28-0.46c-7.02-5.84-11.05-14.42-11.05-23.54c0-1.1,0.9-2,2-2h57.2
			c1.1,0,2,0.9,2,2c0,9.12-4.03,17.7-11.05,23.54C349.54,262.56,349.09,262.73,348.63,262.73z M312.83,258.73h35.06
			c5.27-4.62,8.48-11.06,8.99-18h-53.05C304.35,247.66,307.56,254.11,312.83,258.73z"/>
	</g>
</g>
<path class="st1" d="M329.72,236.53h-27.96c-1.21,0-2.2,0.99-2.2,2.2c0,9.18,4.06,17.81,11.13,23.69c0.39,0.33,0.89,0.51,1.41,0.51
	h26.83c-0.2-0.78-0.41-1.55-0.64-2.29c-1.28-4.25-4.26-7.58-4.89-11.94c-0.37-2.55-0.59-4.51-2.33-6.53
	c-1.53-1.78-2.37-1.71-1.84-4.17C329.34,237.45,329.55,236.99,329.72,236.53z"/>
<path class="st4" d="M173.54,302.21c0.86,4.36,1.21,8.56,1.47,12.85c0.23,4.27,0.23,8.54,0.14,12.8c-0.09,2.13-0.17,4.26-0.33,6.38
	c-0.12,2.13-0.29,4.25-0.52,6.36c-0.2,2.12-0.49,4.23-0.74,6.33c-0.31,2.1-0.64,4.2-1,6.29c-0.09,0.55-0.61,0.91-1.16,0.82
	c-0.5-0.09-0.85-0.53-0.83-1.03l0-0.02c0.17-4.21,0.4-8.41,0.5-12.61c0.11-4.2,0.18-8.39,0.11-12.57
	c-0.04-4.18-0.18-8.36-0.43-12.53c-0.12-2.08-0.26-4.16-0.47-6.23c-0.16-2.06-0.41-4.17-0.68-6.11l-0.01-0.09
	c-0.15-1.09,0.61-2.1,1.71-2.25C172.36,300.48,173.34,301.18,173.54,302.21z"/>
<path class="st4" d="M158.71,302.47c0.18,2.36,0.16,4.6,0.15,6.88c-0.07,2.27-0.17,4.54-0.34,6.8c-0.36,4.52-0.94,9.02-1.74,13.48
	c-0.85,4.45-1.79,8.88-3.08,13.22c-0.6,2.18-1.31,4.33-2.03,6.47c-0.73,2.14-1.58,4.24-2.4,6.34c-0.2,0.51-0.78,0.77-1.3,0.57
	c-0.48-0.19-0.73-0.7-0.6-1.19l0.01-0.04c1.14-4.31,2.3-8.59,3.18-12.93c0.93-4.33,1.71-8.69,2.3-13.07
	c0.66-4.37,1.08-8.77,1.4-13.17c0.18-2.2,0.28-4.4,0.36-6.6c0.09-2.18,0.12-4.43,0.09-6.54l0-0.06c-0.01-1.1,0.87-2.01,1.98-2.02
	C157.75,300.61,158.63,301.43,158.71,302.47z"/>
<path class="st4" d="M168.46,204.39c0.31,2.87,0.73,5.87,1.27,8.79c0.51,2.94,1.11,5.86,1.82,8.76c1.39,5.8,3.08,11.53,5.26,17.07
	c2.11,5.56,4.71,10.93,7.81,16c3.09,5.07,6.77,9.77,11,13.98l0.01,0.01c0.39,0.39,0.39,1.02,0,1.42c-0.37,0.37-0.95,0.39-1.35,0.06
	c-2.37-1.97-4.62-4.1-6.69-6.39c-2.03-2.32-3.99-4.74-5.72-7.3c-3.51-5.1-6.36-10.62-8.78-16.29c-2.34-5.71-4.26-11.58-5.7-17.56
	c-1.43-6.01-2.51-12.01-2.93-18.28c-0.07-1.1,0.76-2.05,1.86-2.13c1.07-0.07,2.01,0.72,2.12,1.78L168.46,204.39z"/>
<path class="st5" d="M180.84,246.76c-3.58-38.11-9.05-56.63-16.72-56.63c-7.66,0-13.43,18.52-17.65,56.62
	c-3.06,27.59-4.07,55.53-4.08,55.81c-0.01,0.27,0.09,0.53,0.28,0.72c0.19,0.19,0.44,0.3,0.71,0.3H183c0.27,0,0.52-0.11,0.71-0.3
	c0.19-0.19,0.29-0.45,0.28-0.71C183.98,302.29,183.44,274.34,180.84,246.76z"/>
<path class="st1" d="M163.35,155.82c1.15,0,2.22,0.67,3.13,1.81c-1.15,2.23-2.51,4.46-2.97,6.88c-0.95,4.92,0.01,9.8,1.16,14.57
	c-0.42,0.19-0.86,0.3-1.31,0.3c-3.25,0-5.89-5.27-5.89-11.78C157.47,161.09,160.1,155.82,163.35,155.82z"/>
<path class="st4" d="M170.74,167.6c-0.03,2.52-0.24,5.07-1.04,7.6c-0.41,1.26-0.95,2.53-1.87,3.73c-0.45,0.59-1.05,1.17-1.78,1.64
	c-0.75,0.47-1.7,0.78-2.7,0.81c-1-0.02-1.96-0.31-2.72-0.77c-0.74-0.46-1.37-1.02-1.85-1.6c-0.98-1.17-1.6-2.43-2.08-3.69
	c-0.95-2.53-1.3-5.13-1.34-7.71c0.04-2.58,0.39-5.18,1.34-7.71c0.48-1.26,1.1-2.52,2.08-3.69c0.48-0.59,1.1-1.14,1.85-1.6
	c0.77-0.46,1.73-0.75,2.72-0.77c1,0.03,1.94,0.35,2.7,0.81c0.73,0.47,1.33,1.05,1.78,1.64c0.92,1.2,1.46,2.47,1.87,3.73
	C170.51,162.53,170.71,165.08,170.74,167.6z M167.74,167.6c-0.02-1.11-0.11-2.22-0.32-3.31c-0.22-1.08-0.55-2.12-0.96-3.09
	c-0.42-0.96-0.96-1.85-1.55-2.48c-0.29-0.34-0.61-0.55-0.87-0.71c-0.27-0.15-0.49-0.17-0.68-0.18c-0.19,0.03-0.4,0.07-0.66,0.23
	c-0.25,0.18-0.54,0.41-0.81,0.75c-0.54,0.66-1,1.56-1.34,2.52c-0.7,1.93-0.98,4.12-0.98,6.28c0,2.16,0.28,4.35,0.98,6.28
	c0.34,0.96,0.8,1.86,1.34,2.52c0.26,0.35,0.55,0.57,0.81,0.75c0.26,0.16,0.46,0.19,0.66,0.23c0.19-0.02,0.41-0.04,0.68-0.18
	c0.27-0.17,0.59-0.38,0.87-0.71c0.6-0.64,1.14-1.52,1.55-2.48c0.41-0.97,0.74-2.01,0.96-3.09
	C167.63,169.82,167.72,168.71,167.74,167.6z"/>
<path class="st1" d="M99.7,256.59c-1.13-6.41,0.55-12.06,3.75-12.62c0.56-0.1,1.13-0.03,1.69,0.18c-1.01,2.29-1.81,4.41-1.47,7.18
	c0.32,2.6,1.97,4.83,2.48,7.43c0.56,2.89,1.87,4.1,3.39,6.61c0.07,0.12,0.13,0.25,0.18,0.37c-0.61,0.77-1.34,1.27-2.18,1.42
	C104.34,267.73,100.83,263,99.7,256.59z"/>
<path class="st4" d="M117.51,312.83c0.36,0.48,0.54,0.78,0.78,1.16c0.21,0.37,0.41,0.73,0.6,1.1c0.37,0.73,0.71,1.47,1.01,2.21
	c0.59,1.49,1.06,3.01,1.47,4.53c0.82,3.05,1.26,6.15,1.5,9.24c0.27,3.09,0.25,6.18,0.11,9.25l-0.37,4.58
	c-0.22,1.52-0.41,3.03-0.66,4.54c-0.09,0.55-0.61,0.92-1.16,0.82c-0.48-0.08-0.82-0.48-0.84-0.94l0-0.04c-0.07-1.51-0.07-3-0.1-4.5
	l-0.17-4.47c-0.21-2.96-0.39-5.92-0.82-8.82c-0.36-2.91-0.91-5.79-1.64-8.57c-0.36-1.39-0.79-2.76-1.29-4.08
	c-0.24-0.67-0.5-1.31-0.78-1.94l-0.44-0.91c-0.14-0.28-0.33-0.62-0.41-0.76l-0.12-0.21c-0.55-0.95-0.23-2.17,0.73-2.72
	C115.81,311.79,116.92,312.04,117.51,312.83z"/>
<path class="st4" d="M106.83,315.05c0.13,3.2-0.01,6.28-0.26,9.4c-0.24,3.11-0.68,6.21-1.24,9.29c-0.57,3.07-1.33,6.12-2.27,9.11
	c-0.96,2.99-2.15,5.91-3.62,8.69c-0.26,0.49-0.87,0.68-1.36,0.42c-0.42-0.22-0.62-0.7-0.5-1.14l0.02-0.06
	c0.39-1.47,0.91-2.87,1.23-4.36c0.42-1.44,0.72-2.92,1.04-4.39c0.58-2.95,1.11-5.91,1.49-8.9c0.4-2.99,0.69-5.99,0.95-9
	c0.13-1.5,0.22-3.01,0.3-4.51c0.11-1.5,0.15-3.03,0.22-4.48l0-0.07c0.05-1.1,0.99-1.96,2.09-1.91
	C105.96,313.18,106.78,314.03,106.83,315.05z"/>
<path class="st4" d="M117.22,286.83c-0.03-0.01,0.08-0.02,0.14-0.03l0.24-0.04c0.16-0.02,0.33-0.07,0.5-0.12
	c0.33-0.11,0.68-0.2,1.01-0.36c0.68-0.26,1.27-0.7,1.88-1.13c1.16-0.95,2.18-2.24,2.91-3.79l0.29-0.57l0.23-0.61l0.47-1.23
	c0.23-0.86,0.52-1.71,0.71-2.6c0.16-0.9,0.36-1.79,0.5-2.71l0.36-2.77l0.01-0.06c0.07-0.55,0.57-0.94,1.12-0.86
	c0.48,0.06,0.84,0.46,0.87,0.92c0.07,0.97,0.11,1.95,0.16,2.94c0.04,0.99-0.06,1.98-0.1,2.98c-0.07,1-0.26,2-0.4,3.01l-0.4,1.5
	l-0.2,0.75l-0.28,0.74c-0.7,1.98-1.84,3.96-3.57,5.5c-0.89,0.74-1.87,1.41-2.97,1.84c-0.54,0.24-1.12,0.4-1.71,0.52
	c-0.3,0.05-0.59,0.11-0.9,0.13c-0.33,0.04-0.57,0.04-1.05,0.02c-1.1-0.05-1.96-0.98-1.91-2.09
	C115.18,287.63,116.12,286.78,117.22,286.83z"/>
<path class="st4" d="M112.77,254.29c0.41,2.49,0.65,5.03,0.29,7.66c-0.19,1.31-0.5,2.66-1.2,4c-0.34,0.66-0.83,1.33-1.47,1.92
	c-0.66,0.59-1.54,1.06-2.52,1.27c-0.98,0.16-1.98,0.03-2.81-0.29c-0.81-0.33-1.53-0.76-2.1-1.26c-1.17-0.99-2-2.12-2.69-3.27
	c-1.38-2.33-2.17-4.82-2.66-7.36c-0.41-2.55-0.52-5.17-0.02-7.83c0.26-1.33,0.65-2.67,1.41-4c0.37-0.66,0.89-1.32,1.54-1.9
	c0.68-0.58,1.57-1.04,2.55-1.23c0.99-0.14,1.98,0,2.8,0.33c0.8,0.34,1.49,0.8,2.03,1.31c1.11,1.02,1.87,2.18,2.49,3.35
	C111.66,249.34,112.31,251.81,112.77,254.29z M109.82,254.81c-0.21-1.09-0.5-2.17-0.89-3.2c-0.4-1.02-0.91-2-1.48-2.88
	c-0.58-0.87-1.26-1.65-1.96-2.17c-0.34-0.28-0.69-0.43-0.99-0.55c-0.29-0.1-0.51-0.08-0.7-0.06c-0.19,0.07-0.38,0.14-0.61,0.34
	c-0.22,0.22-0.46,0.49-0.66,0.88c-0.42,0.74-0.71,1.71-0.89,2.71c-0.36,2.03-0.25,4.23,0.12,6.36c0.37,2.13,1.03,4.24,2.06,6.02
	c0.51,0.88,1.11,1.69,1.76,2.25c0.32,0.29,0.64,0.47,0.92,0.6c0.28,0.11,0.49,0.11,0.69,0.11c0.19-0.05,0.4-0.11,0.64-0.3
	c0.24-0.21,0.51-0.47,0.74-0.86c0.48-0.73,0.86-1.7,1.1-2.71c0.24-1.02,0.38-2.11,0.41-3.21
	C110.1,257.02,109.99,255.91,109.82,254.81z"/>
<g>
	<path class="st6" d="M106.76,275.56c-8.83,2.02-8.97,31.6-8.88,38.66c0.01,0.82,0.72,1.44,1.53,1.37l22.07-2.08
		c0.81-0.08,1.39-0.82,1.25-1.62C121.49,304.67,115.63,273.54,106.76,275.56z"/>
	<path class="st6" d="M99.28,317.6c-0.84,0-1.65-0.31-2.28-0.87c-0.7-0.63-1.11-1.53-1.12-2.47c-0.44-33.19,6.35-39.71,10.44-40.64
		h0c1.6-0.37,3.25-0.03,4.75,0.98c7.45,4.97,12.02,27.5,13.63,36.96c0.16,0.93-0.08,1.88-0.65,2.63c-0.57,0.75-1.44,1.23-2.38,1.32
		l-22.07,2.08C99.49,317.59,99.38,317.6,99.28,317.6z M99.88,314.2L99.88,314.2L99.88,314.2z M107.58,277.47
		c-0.15,0-0.27,0.02-0.38,0.04c0,0,0,0,0,0c-4.53,1.03-7.53,15.81-7.33,36.03l20.77-1.96c-2.38-13.62-6.84-30.35-11.8-33.66
		C108.31,277.56,107.9,277.47,107.58,277.47z M106.76,275.56L106.76,275.56L106.76,275.56z"/>
</g>
<path class="st4" d="M160.1,207.93c-0.82,0.9-1.72,2.03-2.55,3.09c-0.83,1.09-1.65,2.19-2.43,3.34c-1.61,2.24-3.08,4.59-4.52,6.96
	c-2.87,4.75-5.45,9.69-7.81,14.74l-1.76,3.8c-0.57,1.27-1.09,2.57-1.64,3.86c-1.13,2.56-2.05,5.2-3.09,7.8
	c-1.02,2.61-1.87,5.28-2.82,7.92l-2.6,8.02l-0.01,0.03c-0.17,0.53-0.73,0.81-1.26,0.64c-0.49-0.16-0.78-0.67-0.67-1.17
	c0.62-2.77,1.27-5.53,1.94-8.3c0.79-2.73,1.5-5.49,2.36-8.2c0.87-2.71,1.73-5.43,2.77-8.08c0.51-1.33,0.98-2.68,1.52-4l1.64-3.96
	c2.31-5.22,4.83-10.37,7.77-15.3c1.5-2.45,3.03-4.88,4.72-7.22c0.84-1.17,1.73-2.31,2.64-3.45c0.94-1.14,1.83-2.21,2.96-3.34
	c0.78-0.78,2.05-0.78,2.83,0c0.76,0.76,0.78,1.97,0.07,2.75L160.1,207.93z"/>
<path class="st7" d="M106.32,273.63c0.63-0.14,1.27-0.17,1.91-0.1c-1.38,1.81,0.62,4.41,0.55,6.38c-0.06,1.5-0.68,2.09-1.14,3.43
	c-2.12,6.14,3.55,8.49,2.87,14.07c-0.24,1.95-1.66,3.16-1.62,5.2c0.05,2.85,2.02,5.14,3.03,7.7c0.81,2.04,0.92,4.02,0.99,6
	l-13.31,1.26c-0.11,0.01-0.21,0.01-0.32,0.01c-0.83,0-1.64-0.31-2.26-0.87c-0.7-0.63-1.1-1.52-1.12-2.46
	C95.71,300.01,96.81,275.8,106.32,273.63z"/>
<path class="st4" d="M101.11,291.84c-0.64,1.9-1.43,3.57-2.37,5.24c-0.95,1.65-2.01,3.25-3.24,4.73c-1.24,1.47-2.59,2.88-4.15,4.07
	c-1.56,1.18-3.31,2.17-5.2,2.74c-0.53,0.16-1.09-0.14-1.25-0.67c-0.13-0.44,0.05-0.9,0.41-1.14l0.05-0.03
	c1.44-0.93,2.71-2.03,3.88-3.25c1.14-1.26,2.17-2.62,3.13-4.05c0.95-1.43,1.82-2.94,2.64-4.46c0.81-1.51,1.64-3.11,2.35-4.6
	l0.04-0.08c0.48-1,1.67-1.42,2.67-0.94C101,289.84,101.43,290.89,101.11,291.84z"/>
<path class="st1" d="M403.58,179c-3.26-0.06-5.89-5.35-5.89-11.87c0-6.56,2.66-11.88,5.94-11.88c1.29,0,2.48,0.83,3.45,2.23
	c0,0,0,0,0,0c-3.89,2.19-5.58,4.49-4.02,10.29c0.68,2.51-0.26,5.98,0.18,8.66C403.38,177.18,403.5,178.08,403.58,179z"/>
<path class="st6" d="M474.15,197.7l5.69-10.52c0.33-0.61,0.35-1.35,0.06-1.98c-0.3-0.63-0.88-1.09-1.56-1.22l-21.75-4.35
	c-0.69-0.14-1.39,0.06-1.91,0.53s-0.78,1.16-0.71,1.85l1.21,11.9c-7.89,3.45-14.23,12.33-16.39,23.17
	c-1.97,9.87-0.15,19.62,4.86,26.09c0.32,0.42,0.79,0.7,1.31,0.81l19.39,3.87c0.14,0.03,0.29,0.04,0.43,0.04
	c0.38,0,0.75-0.1,1.09-0.29c7.12-4.04,12.55-12.35,14.52-22.22C482.55,214.55,480.11,203.92,474.15,197.7z"/>
<path class="st6" d="M474.15,197.7l5.69-10.52c0.33-0.61,0.35-1.35,0.06-1.98c-0.3-0.63-0.88-1.09-1.56-1.22l-21.75-4.35
	c-0.69-0.14-1.39,0.06-1.91,0.53s-0.78,1.16-0.71,1.85l1.21,11.9c-7.89,3.45-14.23,12.33-16.39,23.17
	c-1.97,9.87-0.15,19.62,4.86,26.09c0.32,0.42,0.79,0.7,1.31,0.81l19.39,3.87c0.14,0.03,0.29,0.04,0.43,0.04
	c0.38,0,0.75-0.1,1.09-0.29c7.12-4.04,12.55-12.35,14.52-22.22C482.55,214.55,480.11,203.92,474.15,197.7z"/>
<path class="st7" d="M450.15,236.68c0.23-3.15-0.8-6.18-0.73-9.31c0.12-6.03,3.81-8.32,7.53-12.24c4.2-4.42,1.61-11.85,3.03-17.43
	c1.56-6.12,4.31-10.75,7.42-15.9l-10.81-2.16c-0.69-0.14-1.39,0.06-1.91,0.53s-0.78,1.16-0.71,1.85l1.21,11.9
	c-7.89,3.45-14.23,12.33-16.39,23.17c-1.97,9.87-0.15,19.62,4.86,26.09c0.32,0.42,0.79,0.7,1.31,0.81l3.42,0.68
	C449.03,242.02,449.96,239.4,450.15,236.68z"/>
<g>
	<path class="st2" d="M385.82,260.19h35.64c0,0-7.17-60.56-17.82-67.11C395,187.76,385.82,260.19,385.82,260.19z"/>
	<path class="st2" d="M421.46,262.19h-35.64c-0.57,0-1.12-0.25-1.5-0.68s-0.56-1-0.48-1.57c0.02-0.16,2.05-16.08,5.05-32.26
		c5.52-29.81,9.42-35.17,12.21-36.5c1.19-0.57,2.47-0.5,3.6,0.19c11.15,6.86,18.01,62.29,18.76,68.58c0.07,0.57-0.11,1.14-0.49,1.56
		C422.58,261.95,422.03,262.19,421.46,262.19z M388.09,258.19h31.11c-2.89-23.08-9.62-58.79-16.51-63.35
		C399.34,196.69,392.93,221.05,388.09,258.19z"/>
</g>
<path class="st3" d="M383.85,259.94c1.85-14.62,8.38-61.54,16.43-68.21c-1.18,2.57-1.3,5.42,0.42,8.8c0.82,1.59,2.87,2.8,3.61,4.55
	c2.34,5.54-3.44,8.77-0.68,13.05c0.51,0.8,2.83,5.88,3.63,7.36c3.09,5.79,2.44,11.03,1,17.08c-1.27,5.34-2.19,8.66,0.59,13.94
	c1.04,1.97,2.6,3.76,3.85,5.67h-26.88c-0.57,0-1.11-0.24-1.49-0.67C383.96,261.07,383.78,260.51,383.85,259.94z"/>
<path class="st4" d="M399.7,167.13c0.01,2.19,0.29,4.41,0.98,6.39c0.34,0.98,0.78,1.92,1.33,2.62c0.27,0.37,0.57,0.62,0.85,0.83
	c0.28,0.18,0.53,0.25,0.78,0.29c0.25-0.01,0.52-0.05,0.83-0.22c0.31-0.19,0.64-0.43,0.94-0.79c0.61-0.69,1.14-1.62,1.53-2.61
	c0.8-2,1.12-4.27,1.14-6.51c-0.02-2.24-0.35-4.51-1.14-6.51c-0.39-1-0.91-1.92-1.53-2.61c-0.3-0.36-0.64-0.6-0.94-0.79
	c-0.31-0.16-0.58-0.2-0.83-0.22c-0.25,0.04-0.5,0.11-0.78,0.29c-0.28,0.21-0.58,0.46-0.85,0.83c-0.55,0.7-0.99,1.64-1.33,2.62
	C399.99,162.72,399.71,164.94,399.7,167.13z M395.7,167.13c0.03-2.59,0.38-5.21,1.36-7.73c0.49-1.26,1.14-2.5,2.13-3.64
	c0.48-0.57,1.1-1.11,1.83-1.55c0.75-0.43,1.67-0.7,2.63-0.71c0.95,0.04,1.86,0.34,2.58,0.79c0.7,0.46,1.29,1,1.73,1.58
	c0.92,1.16,1.48,2.41,1.93,3.65c0.87,2.5,1.19,5.06,1.2,7.6c-0.01,2.54-0.32,5.1-1.2,7.6c-0.45,1.25-1.01,2.49-1.93,3.65
	c-0.45,0.58-1.03,1.13-1.73,1.58c-0.72,0.45-1.63,0.75-2.58,0.79c-0.95-0.01-1.88-0.28-2.63-0.71c-0.73-0.44-1.35-0.97-1.83-1.55
	c-0.98-1.14-1.63-2.39-2.13-3.64C396.08,172.34,395.73,169.72,395.7,167.13z"/>
<path class="st4" d="M405.11,209.62c0.23,0.21,0.61,0.55,0.96,0.81c0.34,0.29,0.74,0.54,1.11,0.82c0.37,0.28,0.77,0.52,1.16,0.77
	c0.39,0.25,0.79,0.5,1.21,0.71l1.24,0.67l1.29,0.58c0.85,0.41,1.75,0.71,2.63,1.04c3.57,1.28,7.38,1.89,11.21,2.08l2.89,0.07
	c0.96-0.02,1.93-0.11,2.9-0.16c1.94-0.05,3.86-0.45,5.79-0.69c1.93-0.32,3.81-0.87,5.75-1.23c1.91-0.49,3.84-0.91,5.94-0.96l0.08,0
	c0.57-0.01,1.04,0.44,1.06,1c0.01,0.36-0.17,0.68-0.44,0.87c-1.73,1.21-3.63,2.08-5.56,2.84c-0.99,0.3-2,0.55-3.01,0.82
	c-1.01,0.24-2,0.58-3.04,0.74l-3.09,0.55c-0.52,0.08-1.03,0.2-1.55,0.25l-1.57,0.13c-1.05,0.08-2.1,0.19-3.15,0.23l-3.17-0.02
	c-4.23-0.19-8.47-0.91-12.51-2.37c-1.01-0.38-2.02-0.73-2.97-1.24l-1.45-0.71l-1.4-0.81c-0.47-0.26-0.92-0.57-1.37-0.87
	c-0.45-0.3-0.9-0.6-1.33-0.95c-0.43-0.33-0.86-0.67-1.28-1.05c-0.43-0.38-0.8-0.72-1.27-1.23c-0.75-0.81-0.7-2.07,0.1-2.82
	c0.77-0.71,1.94-0.71,2.7-0.02L405.11,209.62z"/>
<path class="st4" d="M590.22,218.05c-2.09,1.33-4.13,2.34-6.27,3.31c-2.13,0.97-4.31,1.81-6.54,2.51c-4.45,1.41-9.05,2.43-13.74,2.8
	c-4.68,0.4-9.43,0.19-14.06-0.66c-2.31-0.45-4.59-1.05-6.78-1.92c-2.2-0.81-4.28-1.92-6.24-3.18c-0.47-0.3-0.6-0.92-0.3-1.39
	c0.25-0.39,0.71-0.55,1.13-0.42l0.03,0.01c4.3,1.26,8.5,2.39,12.82,2.98c4.3,0.65,8.67,0.68,13.01,0.26
	c4.33-0.45,8.63-1.33,12.81-2.65c2.08-0.67,4.15-1.42,6.17-2.25c2-0.83,4.05-1.8,5.84-2.8l0.09-0.05c0.97-0.53,2.18-0.18,2.72,0.79
	C591.41,216.32,591.1,217.48,590.22,218.05z"/>
<g>
	<path class="st5" d="M526.56,229.59l12.76,1.12c1.01,0.09,1.89-0.66,1.98-1.66l2.55-29.16c0.09-1.01-0.66-1.89-1.66-1.98
		l-12.76-1.12c-1.01-0.09-1.89,0.66-1.98,1.66l-2.55,29.16C524.81,228.61,525.55,229.5,526.56,229.59z"/>
	<path class="st4" d="M543.85,199.88l-2.55,29.16c-0.09,1.01-0.98,1.75-1.98,1.66l-11.35-0.99c1.51-2.54,3.02-4.88,3.4-8.17
		c0.24-2.1-0.57-4.33,0.72-6.17c1.47-2.1,3.82-1.66,3.61-4.94c-0.19-2.96-1.47-3.95,0.5-6.75c1.16-1.65,2.89-2.77,4.1-4.35
		c0.41-0.54,0.7-1.03,0.92-1.5l0.97,0.08C543.19,197.98,543.94,198.87,543.85,199.88z"/>
	
		<rect x="528.79" y="200.79" transform="matrix(-0.9962 -0.0872 0.0872 -0.9962 1047.9153 472.9531)" class="st6" width="10.98" height="25.61"/>
	<path class="st7" d="M538.63,226.84l-8.63-0.76c0.65-1.36,1.17-2.82,1.37-4.54c0.24-2.1-0.57-4.33,0.72-6.17
		c1.47-2.1,3.82-1.66,3.61-4.94c-0.19-2.96-1.47-3.95,0.5-6.75c0.68-0.96,1.55-1.75,2.4-2.55l2.28,0.2L538.63,226.84z"/>
</g>
<path class="st1" d="M588.34,165.26c3.03,0,5.49,4.91,5.49,10.98c0,4.66-1.45,8.63-3.5,10.22c-1.23-1.6-1.83-3.62-2.02-5.65
	c-0.21-2.27,0.24-4.54,0.22-6.8c-0.02-3.14-0.82-5.5-2.28-7.92C586.9,165.56,587.6,165.26,588.34,165.26z"/>
<g>
	<path class="st4" d="M577.19,353.87c-1.04,0-1.92-0.8-1.99-1.86c-2.59-35.95,2.63-51.39,2.85-52.03c0.36-1.04,1.5-1.6,2.55-1.23
		c1.04,0.36,1.59,1.5,1.23,2.54c-0.05,0.16-5.16,15.46-2.64,50.43c0.08,1.1-0.75,2.06-1.85,2.14
		C577.29,353.87,577.24,353.87,577.19,353.87z"/>
</g>
<g>
	<path class="st4" d="M594.79,353.87c-1.04,0-1.92-0.8-1.99-1.86c-2.58-35.78-0.08-51.07,0.02-51.7c0.19-1.09,1.22-1.81,2.3-1.64
		c1.09,0.18,1.82,1.22,1.64,2.3c-0.03,0.15-2.51,15.55,0.02,50.75c0.08,1.1-0.75,2.06-1.85,2.14
		C594.89,353.87,594.84,353.87,594.79,353.87z"/>
</g>
<g>
	<path class="st6" d="M568.22,300.64h38.42c0,0-6.07-103.9-17.99-103.9S568.22,300.64,568.22,300.64z"/>
	<path class="st6" d="M606.64,302.64h-38.42c-0.56,0-1.09-0.23-1.47-0.64c-0.38-0.41-0.57-0.96-0.52-1.52
		c0.02-0.26,2.17-26.33,5.75-52.06c6.58-47.29,12.12-53.67,16.67-53.67c4.57,0,9.97,6.38,15.46,53.72
		c2.98,25.73,4.52,51.8,4.54,52.06c0.03,0.55-0.16,1.09-0.54,1.49C607.72,302.42,607.19,302.64,606.64,302.64z M570.4,298.64h34.11
		c-0.43-6.71-1.91-28.34-4.39-49.73c-5.74-49.59-11.25-50.16-11.48-50.16c-0.23,0-5.79,0.57-12.7,50.21
		C572.97,270.3,570.99,291.88,570.4,298.64z"/>
</g>
<g>
	<path class="st7" d="M584.07,301.08c-0.3-6.15-5.61-9.86-3.51-16c3.72-10.88,10.95-18.16,7.58-30.47
		c-2.07-7.57-6.27-10.27-2.44-17.75c2.74-5.35,6.61-9.55,4.33-15.79c-0.99-2.71-3.07-5.06-4.18-7.73c-1.1-2.64-1.8-4.87-1.23-7.66
		c0.74-3.61,5.17-7.16,3.24-11.06c0.26-0.05,0.52-0.07,0.79-0.07c4.09,0,7.07,5.36,9.96,17.92c2.01,8.7,3.91,20.79,5.67,35.95
		c2.98,25.74,4.52,51.81,4.54,52.07c0.04,0.6-0.18,1.18-0.59,1.62c-0.41,0.44-0.98,0.68-1.58,0.68h-22.59
		C584.08,302.24,584.1,301.67,584.07,301.08z"/>
	<path class="st7" d="M588.09,194.96c0.19-0.02,0.37-0.04,0.56-0.04C588.46,194.92,588.27,194.93,588.09,194.96z"/>
</g>
<path class="st4" d="M584.35,176.24c0.02,1.03,0.1,2.06,0.3,3.07c0.21,1,0.52,1.96,0.9,2.86c0.39,0.89,0.89,1.7,1.44,2.27
	c0.26,0.31,0.55,0.49,0.78,0.63c0.24,0.12,0.41,0.14,0.57,0.15c0.15-0.03,0.32-0.06,0.54-0.19c0.22-0.16,0.48-0.36,0.72-0.67
	c0.49-0.6,0.91-1.42,1.23-2.31c0.65-1.78,0.91-3.81,0.9-5.81c0-2-0.26-4.03-0.9-5.81c-0.32-0.88-0.74-1.71-1.23-2.31
	c-0.24-0.31-0.5-0.51-0.72-0.67c-0.22-0.13-0.39-0.16-0.54-0.19c-0.15,0.01-0.33,0.03-0.57,0.15c-0.23,0.14-0.52,0.33-0.78,0.63
	c-0.55,0.57-1.05,1.39-1.44,2.27c-0.39,0.89-0.69,1.86-0.9,2.86C584.46,174.17,584.37,175.2,584.35,176.24z M581.35,176.24
	c0.03-2.36,0.21-4.74,0.96-7.12c0.38-1.19,0.89-2.38,1.76-3.52c0.43-0.56,0.99-1.11,1.69-1.56c0.72-0.45,1.63-0.75,2.58-0.78
	c0.96,0.02,1.87,0.3,2.61,0.74c0.71,0.44,1.3,0.97,1.76,1.52c0.93,1.11,1.51,2.29,1.97,3.48c0.9,2.38,1.22,4.81,1.26,7.24
	c-0.04,2.42-0.36,4.86-1.26,7.24c-0.45,1.19-1.04,2.37-1.97,3.48c-0.45,0.55-1.05,1.08-1.76,1.52c-0.73,0.44-1.65,0.72-2.61,0.74
	c-0.96-0.03-1.86-0.33-2.58-0.78c-0.69-0.45-1.26-1-1.69-1.56c-0.87-1.13-1.37-2.33-1.76-3.52
	C581.57,180.98,581.38,178.6,581.35,176.24z"/>
<path class="st4" d="M591.85,211.81c1,0.51,1.64,0.97,2.4,1.5c0.69,0.54,1.39,1.08,2.02,1.66c0.62,0.59,1.28,1.16,1.87,1.78
	l1.73,1.89c2.16,2.62,4.13,5.36,5.77,8.28c0.81,1.46,1.67,2.9,2.33,4.43l1.06,2.26l0.53,1.13l0.46,1.16l1.81,4.63l1.49,4.72
	c0.24,0.79,0.5,1.57,0.73,2.36l0.59,2.4l1.18,4.79c0.63,3.22,1.25,6.45,1.75,9.68c0.39,3.25,0.88,6.49,1.18,9.74l0.67,9.77
	c0.04,0.55-0.38,1.03-0.93,1.07c-0.53,0.04-0.99-0.35-1.06-0.86l-0.01-0.05l-1.27-9.61c-0.49-3.19-1.09-6.35-1.63-9.53
	c-0.28-1.58-0.7-3.14-1.04-4.71c-0.37-1.56-0.69-3.14-1.07-4.69l-1.31-4.62l-0.65-2.31c-0.24-0.76-0.52-1.51-0.78-2.26l-1.58-4.51
	l-1.82-4.4l-0.46-1.1l-0.52-1.06l-1.05-2.13c-0.66-1.44-1.49-2.78-2.27-4.14c-1.55-2.74-3.37-5.28-5.33-7.68l-1.54-1.72
	c-0.52-0.57-1.08-1.07-1.62-1.61c-0.55-0.52-1.14-0.98-1.71-1.46l-0.88-0.65l-0.43-0.28l-0.21-0.14l-0.15-0.09l-0.19-0.11
	c-0.95-0.56-1.26-1.78-0.7-2.73C589.77,211.66,590.92,211.34,591.85,211.81z"/>
<g>
	<rect x="220.91" y="260.73" class="st11" width="258.18" height="102.48"/>
	<path class="st13" d="M220.91,270.72c8.93-1.63,17.72-2.82,27.19-2.46c13.47,0.5,26.9,2.24,40.32,3.25
		c22,1.66,43.81,2.71,65.96,0.82c11.36-0.97,87.8-2.48,99.25-2.7c8.47-0.16,16.97,0.18,25.45,0.17v-9.07H220.91V270.72z"/>
	<rect x="477.09" y="260.73" class="st4" width="4" height="102.48"/>
	<rect x="218.91" y="260.73" class="st4" width="4" height="102.48"/>
	<path class="st4" d="M490.41,261.73c-11.7,1.32-23.4,0.93-35.1,1.04l-35.1,0.09L350,263.05l-70.21-0.15l-35.1-0.07
		c-11.7-0.11-23.4,0.31-35.1-1.1c-0.55-0.07-0.95-0.57-0.88-1.12c0.06-0.47,0.43-0.83,0.88-0.88c11.7-1.41,23.4-0.99,35.1-1.1
		l35.1-0.07l70.21-0.15l70.21,0.19l35.1,0.09c11.7,0.11,23.4-0.28,35.1,1.04c0.55,0.06,0.95,0.56,0.89,1.11
		C491.24,261.32,490.87,261.68,490.41,261.73z"/>
</g>
<g>
	<path class="st11" d="M35.14,336.33c246.02,49.35,373.8-11.3,629.72,4.4v40.02H35.14V336.33z"/>
</g>
<path class="st4" d="M664.8,341.65l-19.72-0.67c-3.28-0.15-6.57-0.18-9.86-0.27l-9.86-0.25c-6.57-0.21-13.14-0.24-19.71-0.3
	L595.8,340l-9.86-0.01c-26.28,0.01-52.57,0.54-78.83,1.75c-26.26,1.19-52.5,2.98-78.73,5.02l-78.71,6.3
	c-52.5,4.07-105.29,6.39-158,4.19c-26.35-1.07-52.66-3.24-78.83-6.47l-9.81-1.22c-3.27-0.4-6.53-0.94-9.79-1.4
	c-6.52-0.98-13.05-1.86-19.54-3.05c-6.49-1.17-12.99-2.26-19.44-3.63c-6.45-1.33-12.89-2.76-19.31-4.23
	c-0.5-0.11-0.81-0.61-0.7-1.11c0.11-0.47,0.56-0.78,1.04-0.71l0.02,0c6.51,0.98,13,2.01,19.48,3.12c3.23,0.58,6.49,1.03,9.74,1.51
	l9.74,1.52c6.47,1.11,12.99,1.92,19.49,2.89c3.25,0.45,6.5,0.98,9.76,1.36l9.78,1.19c26.08,3.15,52.28,5.23,78.53,6.23
	c26.25,1.01,52.53,0.93,78.79,0.03c26.26-0.88,52.5-2.6,78.73-4.54c52.45-3.94,104.92-8.82,157.58-11.08
	c52.64-2.37,105.46-2.13,157.99,2.14c0.51,0.04,0.89,0.49,0.85,1C665.72,341.29,665.3,341.67,664.8,341.65L664.8,341.65z"/>
<path class="st4" d="M234.68,262.73c-1.1,0-2-0.9-2-2V112.68c0-1.1,0.9-2,2-2s2,0.9,2,2v148.04
	C236.68,261.83,235.78,262.73,234.68,262.73z"/>
<path class="st4" d="M465.32,262.73c-1.1,0-2-0.9-2-2V112.68c0-1.1,0.9-2,2-2s2,0.9,2,2v148.04
	C467.32,261.83,466.43,262.73,465.32,262.73z"/>
<g>
	<circle class="st16" cx="520.6" cy="170.31" r="8.71"/>
	<path class="st17" d="M513.35,153.28l1.17,4.02c0.16,0.55-0.16,1.12-0.7,1.28c-0.38,0.11-0.77-0.01-1.03-0.28l-2.9-3.02
		c-0.79-0.82-0.76-2.12,0.06-2.91c0.82-0.79,2.12-0.76,2.91,0.06C513.1,152.67,513.26,152.97,513.35,153.28z"/>
	<path class="st17" d="M527.61,152.8l-2.02,3.66c-0.27,0.5-0.9,0.68-1.4,0.41c-0.35-0.19-0.54-0.55-0.53-0.92l0.09-4.18
		c0.02-1.14,0.96-2.04,2.1-2.02s2.04,0.96,2.02,2.1C527.86,152.19,527.76,152.52,527.61,152.8z"/>
	<path class="st17" d="M537.63,163.06l-4.02,1.17c-0.55,0.16-1.12-0.16-1.28-0.7c-0.11-0.38,0.01-0.77,0.28-1.03l3.02-2.9
		c0.82-0.79,2.12-0.76,2.91,0.06c0.79,0.82,0.76,2.12-0.06,2.91C538.23,162.81,537.93,162.97,537.63,163.06z"/>
	<path class="st18" d="M523.74,178.43c-1.66,0.64-3.54,0.79-5.39,0.3c-4.65-1.25-7.41-6.02-6.16-10.67c0.75-2.79,2.78-4.9,5.28-5.86
		c0.25,0.5,0.54,1,0.9,1.49c1.42,1.96,2.93,3.55,2.35,6.22c-0.56,2.56-1.28,2.9,0.24,5.47
		C521.66,176.56,522.78,177.45,523.74,178.43z"/>
</g>
<g>
	<path class="st6" d="M495.97,114.49H197.43c-1.1,0-2-0.9-2-2s0.9-2,2-2h298.55c1.1,0,2,0.9,2,2S497.08,114.49,495.97,114.49z"/>
	<path class="st6" d="M487.72,101H205.68c-1.1,0-2-0.9-2-2s0.9-2,2-2h282.05c1.1,0,2,0.9,2,2S488.83,101,487.72,101z"/>
	<path class="st6" d="M479.47,87.52H213.93c-1.1,0-2-0.9-2-2s0.9-2,2-2h265.55c1.1,0,2,0.9,2,2S480.58,87.52,479.47,87.52z"/>
	<path class="st6" d="M471.22,74.04H222.18c-1.1,0-2-0.9-2-2s0.9-2,2-2h249.05c1.1,0,2,0.9,2,2S472.33,74.04,471.22,74.04z"/>
	<path class="st6" d="M462.97,60.56H230.43c-1.1,0-2-0.9-2-2s0.9-2,2-2h232.55c1.1,0,2,0.9,2,2S464.08,60.56,462.97,60.56z"/>
</g>
<path class="st4" d="M495.97,114.49H197.43c-0.72,0-1.39-0.39-1.74-1.02c-0.35-0.63-0.34-1.4,0.04-2.02l33-53.92
	c0.36-0.59,1.01-0.96,1.71-0.96h232.55c0.7,0,1.34,0.36,1.71,0.96l33,53.92c0.38,0.62,0.39,1.39,0.04,2.02
	C497.37,114.09,496.7,114.49,495.97,114.49z M200.99,110.49h291.41l-30.55-49.92H231.55L200.99,110.49z"/>
<path class="st4" d="M182.11,111.49c6.86-0.99,13.72-1.02,20.57-1.01l20.57-0.04l41.15-0.08l82.3-0.15l82.3,0.16l41.15,0.08
	c13.72,0.11,27.43-0.3,41.15,1.04c0.55,0.05,0.96,0.54,0.9,1.1c-0.05,0.49-0.43,0.86-0.9,0.9c-13.72,1.33-27.43,0.92-41.15,1.04
	L429,114.6l-82.3,0.16l-82.3-0.15l-41.15-0.08l-20.57-0.04c-6.86,0.01-13.72-0.02-20.57-1.01c-0.55-0.08-0.94-0.59-0.86-1.14
	C181.32,111.89,181.68,111.55,182.11,111.49z"/>
<g>
	<polygon class="st6" points="274.75,149.53 298.95,149.53 290.15,180.33 283.55,180.33 	"/>
	<path class="st6" d="M290.15,182.33h-6.6c-0.89,0-1.68-0.59-1.92-1.45l-8.8-30.8c-0.17-0.6-0.05-1.25,0.33-1.75s0.97-0.8,1.6-0.8
		h24.2c0.63,0,1.22,0.29,1.6,0.8s0.5,1.15,0.33,1.75l-8.8,30.8C291.83,181.74,291.04,182.33,290.15,182.33z M285.06,178.33h3.58
		l7.66-26.8h-18.9L285.06,178.33z"/>
</g>
<path class="st7" d="M272.99,148.2c-0.42,0.55-0.55,1.27-0.36,1.93l8.8,30.8c0.27,0.94,1.13,1.6,2.12,1.6h2.28
	c-0.2-1.01-0.39-2.04-0.44-3.15c-0.19-3.98,3.03-7.07,3.23-11.01c0.16-3.22-2.21-5.29-2.51-8.27c-0.27-2.71,2.1-5.24,2.21-7.99
	c0.06-1.4-0.1-3.06-0.42-4.78h-13.16C274.06,147.33,273.41,147.65,272.99,148.2z"/>
<path class="st4" d="M268.03,180.43c7.8-0.68,15.61-0.9,23.41-1.01l11.7-0.14l11.7-0.06l11.7,0.05l11.7,0.14
	c7.8,0.11,15.61,0.33,23.41,1.02c0.55,0.05,0.96,0.54,0.91,1.09c-0.04,0.49-0.44,0.87-0.91,0.91c-7.8,0.68-15.61,0.91-23.41,1.02
	l-11.7,0.14l-11.7,0.05l-11.7-0.06l-11.7-0.14c-7.8-0.11-15.61-0.33-23.41-1.01c-0.55-0.05-0.96-0.53-0.91-1.09
	C267.16,180.85,267.55,180.47,268.03,180.43z"/>
<path class="st15" d="M166.66,270.39c-0.57-4.93-2.92-9.98-1.18-14.86c1.53-4.29,3.27-7.25,2.01-11.75
	c-1.22-4.36-4.68-8.28-6.04-12.6c-1.93-6.17,1.08-9.92,4.49-15.4c4.98-8,1.13-14,0.91-22.24c-0.02-0.79-0.02-1.66,0-2.56
	c-0.88-0.56-1.78-0.84-2.73-0.84c-7.66,0-13.43,18.52-17.65,56.62c-3.06,27.59-4.07,55.53-4.08,55.81
	c-0.01,0.27,0.09,0.53,0.28,0.72c0.19,0.19,0.44,0.3,0.71,0.3h24.37c-0.1-0.89-0.19-1.79-0.26-2.69
	C166.71,290.73,167.83,280.54,166.66,270.39z"/>
</svg>
