<?xml version="1.0" encoding="utf-8"?>
<!-- Generator: Adobe Illustrator 22.1.0, SVG Export Plug-In . SVG Version: 6.00 Build 0)  -->
<svg version="1.1" id="Vectors" xmlns="http://www.w3.org/2000/svg" xmlns:xlink="http://www.w3.org/1999/xlink" x="0px" y="0px"
	 width="700px" height="400px" viewBox="0 0 700 400" style="enable-background:new 0 0 700 400;" xml:space="preserve">
<style type="text/css">
	.st0{fill:#CDDAE8;}
	.st1{opacity:0.2;fill:#278BD6;}
	.st2{fill:#278BD6;}
	.st3{opacity:0.3;fill:#064E72;}
	.st4{fill:#2E3547;}
	.st5{fill:#4E5C75;}
	.st6{fill:#A0C2EC;}
	.st7{opacity:0.3;fill:#278BD6;}
	.st8{opacity:0.1;fill:#278BD6;}
	.st9{fill:#EF4B4B;}
	.st10{opacity:0.2;}
	.st11{fill:#FFFFFF;}
	.st12{opacity:0.1;}
	.st13{opacity:0.35;fill:#278BD6;}
	.st14{opacity:0.35;}
	.st15{opacity:0.3;fill:#2E3547;}
	.st16{fill:#FCD381;}
	.st17{opacity:0.35;fill:#FCD381;}
	.st18{opacity:0.3;fill:#FCD381;}
	.st19{fill:none;}
	.st20{display:none;fill:#EF4B4B;}
	.st21{fill:#F8C069;}
	.st22{fill:#E23537;}
	.st23{fill:#237BC9;}
</style>
<path class="st1" d="M492.52,155.82c-1.16,0-2.24,0.68-3.16,1.83c1.16,2.25,2.53,4.5,3,6.95c0.96,4.97-0.01,9.9-1.17,14.72
	c0.43,0.19,0.87,0.31,1.32,0.31c3.29,0,5.95-5.33,5.95-11.9S495.81,155.82,492.52,155.82z"/>
<path class="st4" d="M492.18,312.45c-0.27,1.97-0.52,4.1-0.68,6.18c-0.21,2.09-0.35,4.19-0.47,6.29c-0.25,4.2-0.4,8.43-0.43,12.65
	c-0.07,4.23,0,8.46,0.11,12.7c0.1,4.24,0.33,8.48,0.51,12.74l0,0.02c0.02,0.55-0.41,1.02-0.96,1.04c-0.51,0.02-0.95-0.34-1.03-0.83
	c-0.36-2.11-0.69-4.23-1-6.36c-0.25-2.13-0.55-4.26-0.75-6.4c-0.23-2.14-0.4-4.28-0.52-6.43c-0.16-2.15-0.23-4.3-0.33-6.45
	c-0.09-4.3-0.08-8.62,0.15-12.93c0.26-4.33,0.62-8.58,1.48-12.98c0.21-1.08,1.27-1.79,2.35-1.57c1.04,0.21,1.73,1.19,1.59,2.23
	L492.18,312.45z"/>
<path class="st4" d="M507.23,312.19c-0.02,2.13,0,4.4,0.09,6.6c0.08,2.22,0.18,4.45,0.36,6.67c0.32,4.44,0.75,8.89,1.42,13.31
	c0.6,4.43,1.39,8.83,2.33,13.2c0.89,4.39,2.06,8.71,3.22,13.06l0.01,0.04c0.14,0.53-0.18,1.08-0.71,1.22
	c-0.5,0.13-1.01-0.13-1.19-0.6c-0.83-2.12-1.68-4.24-2.42-6.4c-0.72-2.17-1.44-4.33-2.05-6.54c-1.3-4.38-2.24-8.86-3.11-13.36
	c-0.81-4.5-1.39-9.05-1.75-13.62c-0.17-2.28-0.28-4.58-0.35-6.87c-0.01-2.31-0.03-4.57,0.15-6.95c0.08-1.1,1.04-1.93,2.14-1.85
	c1.06,0.08,1.86,0.96,1.85,2.01L507.23,312.19z"/>
<path class="st4" d="M497.38,213.15c-0.43,6.33-1.52,12.39-2.96,18.46c-1.45,6.04-3.39,11.97-5.76,17.74
	c-2.44,5.73-5.32,11.3-8.86,16.45c-1.75,2.59-3.72,5.02-5.77,7.37c-2.1,2.31-4.36,4.47-6.76,6.46c-0.43,0.35-1.06,0.29-1.41-0.13
	c-0.33-0.4-0.3-0.98,0.06-1.35l0.02-0.02c4.27-4.25,8-8.99,11.12-14.12c3.13-5.12,5.76-10.54,7.89-16.16
	c2.21-5.59,3.91-11.38,5.32-17.24c0.71-2.93,1.32-5.88,1.83-8.85c0.54-2.95,0.97-5.98,1.28-8.88l0.01-0.08
	c0.12-1.1,1.1-1.89,2.2-1.78C496.67,211.14,497.45,212.08,497.38,213.15z"/>
<path class="st4" d="M488.08,167.72c0.02,1.13,0.11,2.25,0.32,3.34c0.22,1.09,0.55,2.15,0.97,3.12c0.42,0.97,0.96,1.87,1.57,2.51
	c0.29,0.34,0.61,0.56,0.89,0.73c0.28,0.15,0.5,0.17,0.7,0.19c0.2-0.03,0.41-0.07,0.68-0.23c0.26-0.18,0.55-0.41,0.82-0.76
	c0.55-0.67,1.01-1.58,1.36-2.55c0.71-1.96,1-4.17,0.99-6.35c0-2.19-0.28-4.4-0.99-6.35c-0.35-0.97-0.81-1.88-1.36-2.55
	c-0.27-0.35-0.56-0.58-0.82-0.76c-0.26-0.16-0.48-0.2-0.68-0.23c-0.2,0.02-0.42,0.04-0.7,0.19c-0.27,0.17-0.6,0.38-0.89,0.73
	c-0.61,0.64-1.15,1.54-1.57,2.51c-0.42,0.98-0.75,2.03-0.97,3.12C488.19,165.47,488.1,166.59,488.08,167.72z M485.08,167.72
	c0.03-2.55,0.24-5.12,1.05-7.67c0.41-1.27,0.96-2.55,1.89-3.76c0.45-0.6,1.06-1.17,1.79-1.65c0.76-0.47,1.71-0.78,2.71-0.82
	c1,0.02,1.97,0.32,2.74,0.78c0.75,0.47,1.38,1.02,1.86,1.62c0.99,1.18,1.61,2.45,2.1,3.72c0.96,2.55,1.31,5.17,1.35,7.78
	c-0.04,2.61-0.39,5.23-1.35,7.78c-0.49,1.27-1.11,2.54-2.1,3.72c-0.48,0.59-1.11,1.15-1.86,1.62c-0.77,0.46-1.74,0.76-2.74,0.78
	c-1-0.03-1.96-0.35-2.71-0.82c-0.73-0.48-1.34-1.05-1.79-1.65c-0.93-1.21-1.47-2.49-1.89-3.76
	C485.32,172.83,485.11,170.26,485.08,167.72z"/>
<g>
	<path class="st0" d="M513.7,312.07h-30.02c0,0,3.06-112.6,14.06-112.6C508.75,199.47,513.7,312.07,513.7,312.07z"/>
	<path class="st0" d="M513.7,313.07h-30.02c-0.27,0-0.53-0.11-0.72-0.3c-0.19-0.19-0.29-0.45-0.28-0.72
		c0.01-0.28,0.79-28.5,2.91-56.35c4.35-57.22,10.02-57.22,12.15-57.22c2.13,0,7.79,0,13.1,57.21c2.59,27.85,3.84,56.07,3.86,56.35
		c0.01,0.27-0.09,0.54-0.28,0.74C514.24,312.96,513.98,313.07,513.7,313.07z M484.71,311.07h27.94c-0.25-5.36-1.5-30.43-3.8-55.21
		c-4.77-51.39-9.71-55.39-11.11-55.39c-1.4,0-6.25,3.99-10.16,55.37C485.7,280.65,484.88,305.75,484.71,311.07z"/>
</g>
<path class="st1" d="M510.85,255.68c-5.31-57.21-10.97-57.21-13.1-57.21c-0.53,0-1.27,0-2.15,0.86c0.3,0.72,0.55,1.46,0.68,2.26
	c0.55,3.4,0.8,8.3,0.74,11.75c-0.12,6.55-2.24,11.33,0.5,17.7c1.88,4.36,3.55,7.35,2.48,12.26c-0.75,3.44-2.66,6.56-3.33,10.03
	c-0.7,3.58,0.26,5.94,1.11,9.35c0.96,3.88-0.34,7.9-0.65,11.82c-0.65,8.07-0.03,16.19-0.46,24.27c-0.23,4.24-0.72,8.45-1.77,12.57
	c-0.14,0.57-0.32,1.15-0.49,1.73h19.3c0.27,0,0.53-0.11,0.72-0.31c0.19-0.2,0.29-0.46,0.28-0.74
	C514.69,311.75,513.43,283.53,510.85,255.68z"/>
<path class="st1" d="M562.83,265.61c1.14-6.47-0.56-12.18-3.79-12.75c-0.57-0.1-1.14-0.03-1.71,0.18c1.03,2.31,1.82,4.46,1.48,7.26
	c-0.32,2.63-1.99,4.88-2.5,7.51c-0.57,2.92-1.89,4.14-3.42,6.68c-0.08,0.13-0.13,0.25-0.18,0.37c0.61,0.78,1.35,1.29,2.2,1.44
	C558.14,276.86,561.68,272.08,562.83,265.61z"/>
<path class="st4" d="M548.05,324.83c-0.08,0.14-0.28,0.49-0.42,0.77l-0.45,0.92c-0.29,0.64-0.55,1.29-0.79,1.96
	c-0.51,1.33-0.94,2.72-1.31,4.12c-0.74,2.82-1.29,5.72-1.65,8.66c-0.43,2.94-0.61,5.92-0.82,8.91l-0.17,4.51
	c-0.03,1.51-0.03,3.02-0.1,4.54l0,0.04c-0.02,0.55-0.49,0.98-1.05,0.96c-0.48-0.02-0.87-0.38-0.95-0.84
	c-0.25-1.52-0.44-3.05-0.66-4.58l-0.37-4.63c-0.13-3.1-0.15-6.22,0.12-9.34c0.25-3.12,0.69-6.25,1.52-9.33
	c0.41-1.54,0.89-3.07,1.49-4.58c0.31-0.75,0.65-1.49,1.02-2.23c0.19-0.37,0.39-0.74,0.61-1.11c0.24-0.38,0.42-0.69,0.78-1.17
	c0.66-0.88,1.91-1.06,2.79-0.4c0.82,0.61,1.03,1.73,0.53,2.6L548.05,324.83z"/>
<path class="st4" d="M559.64,324.72c0.07,1.47,0.11,3.01,0.22,4.53c0.08,1.52,0.18,3.04,0.3,4.56c0.26,3.04,0.56,6.07,0.96,9.09
	c0.38,3.02,0.93,6.01,1.51,9c0.32,1.48,0.63,2.98,1.06,4.43c0.32,1.5,0.85,2.91,1.24,4.4l0.02,0.06c0.14,0.53-0.17,1.08-0.71,1.23
	c-0.46,0.12-0.93-0.1-1.14-0.5c-1.48-2.8-2.68-5.76-3.65-8.78c-0.95-3.02-1.72-6.1-2.29-9.2c-0.56-3.11-1-6.23-1.25-9.38
	c-0.25-3.15-0.4-6.27-0.27-9.49c0.04-1.1,0.98-1.96,2.08-1.92c1.04,0.04,1.87,0.88,1.92,1.9L559.64,324.72z"/>
<path class="st4" d="M545.3,300.17c-0.48,0.02-0.73,0.01-1.06-0.02c-0.32-0.02-0.61-0.08-0.91-0.14c-0.59-0.12-1.18-0.28-1.72-0.53
	c-1.12-0.43-2.11-1.1-3-1.85c-1.75-1.56-2.9-3.55-3.6-5.55l-0.29-0.75l-0.2-0.76l-0.4-1.51c-0.14-1.02-0.33-2.03-0.4-3.04
	c-0.04-1.01-0.14-2.01-0.1-3.01c0.05-1,0.09-1.99,0.15-2.97c0.04-0.55,0.52-0.97,1.07-0.93c0.48,0.03,0.86,0.41,0.92,0.87l0.01,0.06
	l0.36,2.8c0.14,0.93,0.35,1.83,0.5,2.73c0.19,0.9,0.49,1.76,0.72,2.63l0.47,1.24l0.23,0.62l0.3,0.57c0.74,1.56,1.77,2.87,2.95,3.83
	c0.61,0.44,1.22,0.89,1.91,1.15c0.33,0.16,0.68,0.25,1.02,0.36c0.17,0.04,0.35,0.1,0.51,0.12l0.24,0.04
	c0.06,0.01,0.18,0.02,0.14,0.03c1.1-0.05,2.04,0.81,2.09,1.91C547.26,299.19,546.41,300.12,545.3,300.17z"/>
<path class="st4" d="M552.59,263.8c-0.18,1.11-0.28,2.23-0.27,3.35c0.03,1.11,0.17,2.21,0.41,3.25c0.25,1.03,0.63,2.01,1.11,2.75
	c0.23,0.39,0.51,0.66,0.75,0.87c0.25,0.19,0.46,0.26,0.66,0.31c0.2,0,0.42,0,0.71-0.11c0.29-0.13,0.62-0.31,0.94-0.61
	c0.65-0.56,1.27-1.38,1.78-2.27c1.04-1.8,1.7-3.93,2.08-6.09c0.38-2.15,0.49-4.38,0.13-6.43c-0.17-1.02-0.47-1.99-0.9-2.75
	c-0.2-0.39-0.45-0.67-0.67-0.89c-0.23-0.2-0.43-0.28-0.62-0.34c-0.2-0.02-0.42-0.03-0.72,0.06c-0.3,0.12-0.65,0.27-1,0.56
	c-0.71,0.53-1.4,1.32-1.98,2.2c-0.58,0.89-1.09,1.87-1.5,2.91C553.09,261.61,552.8,262.7,552.59,263.8z M549.63,263.28
	c0.47-2.5,1.12-5,2.37-7.37c0.63-1.18,1.39-2.35,2.51-3.37c0.55-0.51,1.24-0.97,2.05-1.32c0.83-0.33,1.82-0.47,2.81-0.33
	c0.98,0.19,1.88,0.65,2.56,1.24c0.66,0.59,1.18,1.25,1.55,1.91c0.77,1.34,1.16,2.69,1.42,4.03c0.5,2.68,0.39,5.32-0.02,7.9
	c-0.49,2.56-1.29,5.08-2.68,7.43c-0.7,1.17-1.54,2.31-2.72,3.3c-0.57,0.5-1.29,0.94-2.11,1.27c-0.84,0.32-1.84,0.44-2.83,0.29
	c-0.98-0.21-1.87-0.68-2.53-1.28c-0.64-0.6-1.13-1.27-1.48-1.94c-0.7-1.35-1.02-2.71-1.21-4.03
	C548.98,268.36,549.22,265.8,549.63,263.28z"/>
<g>
	<path class="st6" d="M555.69,284.77c8.92,2.04,9.06,31.92,8.97,39.06c-0.01,0.82-0.72,1.46-1.55,1.38l-22.29-2.11
		c-0.82-0.08-1.4-0.82-1.26-1.63C540.81,314.17,546.73,282.72,555.69,284.77z"/>
	<path class="st6" d="M563.25,327.21c-0.11,0-0.21,0-0.32-0.01l-22.29-2.11c-0.95-0.09-1.82-0.57-2.39-1.32
		c-0.57-0.75-0.81-1.71-0.65-2.64c1.63-9.55,6.24-32.3,13.76-37.32c1.52-1.01,3.17-1.35,4.79-0.99c9.6,2.19,10.71,26.65,10.52,41.03
		c-0.01,0.95-0.42,1.85-1.13,2.49C564.91,326.9,564.09,327.21,563.25,327.21z M541.64,321.17l21.03,1.99
		c0.2-20.44-2.83-35.39-7.42-36.43c0,0,0,0,0,0c-0.34-0.08-0.88-0.12-1.67,0.41C548.56,290.48,544.05,307.41,541.64,321.17z"/>
</g>
<path class="st4" d="M504.65,213.62c1.14,1.14,2.04,2.22,2.99,3.37c0.91,1.15,1.82,2.3,2.66,3.48c1.71,2.37,3.26,4.82,4.77,7.3
	c2.97,4.98,5.52,10.18,7.85,15.46l1.66,4c0.54,1.34,1.02,2.69,1.53,4.04c1.05,2.68,1.92,5.43,2.8,8.16c0.88,2.74,1.6,5.52,2.39,8.28
	c0.68,2.79,1.33,5.58,1.96,8.38c0.12,0.54-0.22,1.07-0.76,1.19c-0.51,0.11-1.01-0.18-1.17-0.66l-0.01-0.03l-2.62-8.1
	c-0.96-2.67-1.82-5.37-2.85-8c-1.05-2.63-1.98-5.3-3.12-7.88c-0.55-1.3-1.07-2.61-1.65-3.9l-1.77-3.84
	c-2.39-5.1-4.99-10.09-7.89-14.89c-1.45-2.39-2.94-4.77-4.57-7.03c-0.78-1.16-1.62-2.27-2.45-3.37c-0.84-1.07-1.74-2.2-2.58-3.12
	l-0.06-0.06c-0.74-0.82-0.69-2.08,0.13-2.82C502.69,212.83,503.9,212.87,504.65,213.62z"/>
<path class="st7" d="M556.14,282.82c-0.64-0.15-1.29-0.18-1.93-0.1c1.39,1.83-0.63,4.45-0.55,6.44c0.06,1.52,0.69,2.11,1.15,3.46
	c2.14,6.2-3.59,8.58-2.9,14.21c0.24,1.97,1.67,3.2,1.64,5.25c-0.05,2.88-2.04,5.19-3.07,7.78c-0.82,2.06-0.93,4.06-1,6.06
	l13.44,1.27c0.11,0.01,0.21,0.01,0.32,0.01c0.84,0,1.66-0.31,2.29-0.87c0.7-0.63,1.11-1.54,1.13-2.49
	C566.85,309.47,565.74,285.01,556.14,282.82z"/>
<path class="st11" d="M111.24,365.19c121.87-26.83,316.69,22.94,507.05-15.47v30.68l-507.05-4V365.19z"/>
<path class="st4" d="M111.04,364.28l7.79-1.74l3.9-0.85l3.93-0.7l7.86-1.38l7.91-1.06c5.27-0.78,10.57-1.2,15.86-1.77
	c2.65-0.28,5.3-0.38,7.96-0.58c2.65-0.17,5.31-0.37,7.96-0.51c21.24-1.13,42.5-0.97,63.72-0.45c42.44,1.12,84.76,3.86,127.09,5.58
	c42.32,1.75,84.68,2.85,126.97,1.23c21.14-0.82,42.25-2.27,63.27-4.56l7.88-0.86c2.63-0.29,5.24-0.68,7.86-1.01l7.86-1.03
	c1.31-0.17,2.62-0.32,3.93-0.52l3.92-0.6l7.85-1.15c2.62-0.37,5.25-0.67,7.85-1.12c5.22-0.87,10.45-1.65,15.7-2.37l0.03,0
	c0.51-0.07,0.97,0.28,1.04,0.79c0.07,0.48-0.25,0.92-0.7,1.03c-5.17,1.23-10.35,2.4-15.55,3.48c-5.2,1.1-10.44,1.95-15.68,2.87
	c-5.23,0.94-10.51,1.57-15.77,2.31c-2.63,0.34-5.26,0.75-7.9,1.05l-7.92,0.89c-21.11,2.37-42.31,3.91-63.53,4.8
	c-21.22,0.9-42.46,1.08-63.68,0.88c-21.22-0.22-42.44-0.84-63.63-1.78c-42.38-1.81-84.69-4.63-127.01-5.82
	c-21.16-0.58-42.32-0.67-63.43,0.12c-10.55,0.53-21.1,1.11-31.59,2.21l-7.87,0.84l-7.84,1.07l-3.93,0.53l-3.9,0.68l-7.81,1.33
	l-0.04,0.01c-0.5,0.09-0.98-0.25-1.07-0.76C110.24,364.85,110.56,364.39,111.04,364.28z"/>
<path class="st1" d="M417.92,174.44c0-6.57-2.66-11.9-5.95-11.9c-0.69,0-1.35,0.25-1.97,0.68c0.15,0.02,0.3,0.05,0.46,0.05
	c-0.25,0-0.44,0.03-0.62,0.07c-0.26,0.2-0.52,0.43-0.76,0.7c-0.47,1.94,3.93,6.88,4.08,7.16c1.61,2.93-0.49,6.51-1.27,9.47
	c-0.37,1.4-0.22,4.5-0.73,5.54c0.26,0.07,0.53,0.12,0.8,0.12C415.26,186.33,417.92,181.01,417.92,174.44z"/>
<path class="st1" d="M203.68,155.49c-0.73-0.64-1.53-1-2.38-1c-3.29,0-5.95,5.33-5.95,11.9c0,6.57,2.66,11.9,5.95,11.9
	c0.29,0,0.57-0.05,0.85-0.13c-0.05-0.46-0.11-0.92-0.21-1.36c-1-4.36-1.04-8.27-1.08-12.79c-0.03-3.69,0.63-5.1,2.53-8.04
	C203.48,155.8,203.58,155.65,203.68,155.49z"/>
<path class="st4" d="M197.34,301.95c0.16,2.55,0.06,4.88-0.06,7.3c-0.06,1.2-0.18,2.39-0.3,3.58c-0.11,1.19-0.27,2.37-0.42,3.56
	c-0.62,4.74-1.64,9.4-2.76,14.02c-0.61,2.3-1.25,4.59-1.99,6.85c-0.7,2.27-1.47,4.51-2.3,6.74c-0.8,2.23-1.77,4.4-2.65,6.59
	c-0.97,2.16-1.98,4.3-3.01,6.43c-0.24,0.5-0.84,0.7-1.34,0.46c-0.46-0.22-0.67-0.75-0.51-1.22l0.01-0.03
	c1.49-4.44,3.03-8.83,4.32-13.3c1.37-4.44,2.49-8.95,3.54-13.46c1.03-4.52,1.81-9.08,2.45-13.64c0.31-2.28,0.57-4.58,0.73-6.86
	c0.2-2.26,0.3-4.62,0.3-6.77l0-0.1c0-1.1,0.89-2,1.99-2C196.4,300.08,197.27,300.91,197.34,301.95z"/>
<path class="st4" d="M217.2,301.4c0.84,2.22,1.46,4.39,2.1,6.6c0.59,2.21,1.12,4.43,1.6,6.66c0.96,4.46,1.62,8.99,2.1,13.52
	c0.43,4.54,0.68,9.1,0.58,13.67c-0.02,4.56-0.47,9.11-1.11,13.61c-0.08,0.55-0.59,0.93-1.13,0.85c-0.5-0.07-0.85-0.49-0.86-0.98
	l0-0.06c-0.03-2.24,0.13-4.46,0.04-6.69l-0.05-3.34c-0.03-1.11-0.11-2.22-0.17-3.33c-0.1-2.22-0.31-4.43-0.47-6.64
	c-0.26-2.21-0.46-4.42-0.81-6.61c-0.55-4.4-1.37-8.77-2.3-13.1c-0.46-2.17-0.97-4.32-1.52-6.47c-0.53-2.13-1.15-4.3-1.77-6.34
	l-0.02-0.06c-0.32-1.06,0.27-2.17,1.33-2.5C215.75,299.88,216.83,300.42,217.2,301.4z"/>
<path class="st4" d="M406.33,315.42c-0.55,4.04-1.04,8.19-1.45,12.31c-0.38,4.13-0.76,8.26-0.95,12.4
	c-0.25,4.14-0.38,8.28-0.38,12.43l-0.02,3.11l0.07,3.11c-0.02,2.08,0.17,4.14,0.21,6.23l0,0.05c0.01,0.55-0.43,1.01-0.99,1.02
	c-0.49,0.01-0.91-0.34-1-0.81c-0.79-4.16-1.35-8.37-1.64-12.59c-0.26-4.22-0.4-8.46-0.3-12.69c0.12-4.23,0.29-8.46,0.73-12.66
	c0.41-4.22,0.95-8.38,1.77-12.6c0.21-1.08,1.26-1.79,2.35-1.58c1.04,0.2,1.74,1.19,1.6,2.23L406.33,315.42z"/>
<path class="st4" d="M429.45,315.25c-0.08,1.98-0.12,4.1-0.09,6.16c0.01,2.08,0.04,4.16,0.15,6.24c0.18,4.16,0.44,8.33,0.93,12.48
	c0.43,4.15,1,8.3,1.72,12.43c0.67,4.14,1.56,8.23,2.43,12.36l0.01,0.03c0.11,0.54-0.23,1.07-0.77,1.18c-0.5,0.1-0.99-0.18-1.15-0.65
	c-0.69-2.01-1.39-4.03-2.01-6.08c-0.58-2.05-1.19-4.1-1.68-6.18c-1.07-4.14-1.8-8.36-2.48-12.59c-0.61-4.24-1.03-8.51-1.24-12.79
	c-0.1-2.14-0.13-4.29-0.13-6.44c0.06-2.17,0.1-4.28,0.35-6.51c0.12-1.1,1.11-1.89,2.2-1.77c1.05,0.11,1.82,1.02,1.78,2.06
	L429.45,315.25z"/>
<path class="st4" d="M363.04,239.86c1.62,0.77,3.49,1.39,5.31,1.84c1.85,0.4,3.71,0.76,5.59,0.85c3.76,0.23,7.52-0.11,11.15-1.03
	c1.78-0.61,3.59-1.06,5.29-1.87l1.29-0.55c0.43-0.18,0.87-0.36,1.27-0.6l2.47-1.37c0.85-0.41,1.62-0.96,2.41-1.49l2.36-1.58
	l4.5-3.52l0.14-0.11c0.87-0.68,2.12-0.53,2.8,0.34c0.66,0.84,0.53,2.05-0.26,2.74c-1.54,1.33-3.08,2.68-4.68,3.94l-2.55,1.72
	c-0.85,0.57-1.69,1.17-2.62,1.63l-2.75,1.42c-0.45,0.25-0.93,0.44-1.42,0.63l-1.45,0.57c-1.89,0.85-3.94,1.28-5.94,1.82
	c-4.08,0.79-8.28,1.01-12.36,0.39c-4.1-0.6-8.02-1.84-11.61-4.09c-0.47-0.29-0.61-0.91-0.32-1.37c0.27-0.43,0.82-0.59,1.27-0.37
	L363.04,239.86z"/>
<path class="st4" d="M407.52,174.44c0.02,1.13,0.11,2.25,0.32,3.34c0.22,1.09,0.55,2.15,0.97,3.12c0.42,0.97,0.96,1.87,1.57,2.51
	c0.29,0.34,0.61,0.56,0.89,0.73c0.28,0.15,0.5,0.17,0.7,0.19c0.2-0.03,0.41-0.07,0.68-0.23c0.26-0.18,0.55-0.41,0.82-0.76
	c0.55-0.67,1.01-1.58,1.36-2.55c0.71-1.96,1-4.17,0.99-6.35c0-2.19-0.28-4.4-0.99-6.35c-0.35-0.97-0.81-1.88-1.36-2.55
	c-0.27-0.35-0.56-0.58-0.82-0.76c-0.26-0.16-0.48-0.2-0.68-0.23c-0.2,0.02-0.42,0.04-0.7,0.19c-0.27,0.17-0.6,0.38-0.89,0.73
	c-0.61,0.64-1.15,1.54-1.57,2.51c-0.42,0.98-0.75,2.03-0.97,3.12C407.64,172.19,407.54,173.31,407.52,174.44z M404.52,174.44
	c0.03-2.55,0.24-5.12,1.05-7.67c0.41-1.27,0.96-2.55,1.89-3.76c0.45-0.6,1.06-1.17,1.79-1.65c0.76-0.47,1.71-0.78,2.71-0.82
	c1,0.02,1.97,0.32,2.74,0.78c0.75,0.47,1.38,1.02,1.86,1.62c0.99,1.18,1.61,2.45,2.1,3.72c0.96,2.55,1.31,5.17,1.35,7.78
	c-0.04,2.61-0.39,5.23-1.35,7.78c-0.49,1.27-1.11,2.54-2.1,3.72c-0.48,0.59-1.11,1.15-1.86,1.62c-0.77,0.46-1.74,0.76-2.74,0.78
	c-1-0.03-1.96-0.35-2.71-0.82c-0.73-0.48-1.34-1.05-1.79-1.65c-0.93-1.21-1.47-2.49-1.89-3.76
	C404.76,179.55,404.56,176.98,404.52,174.44z"/>
<path class="st4" d="M208.74,166.39c-0.03,2.55-0.24,5.12-1.05,7.67c-0.41,1.27-0.96,2.55-1.89,3.76c-0.45,0.6-1.06,1.17-1.79,1.65
	c-0.76,0.47-1.71,0.78-2.71,0.82c-1-0.02-1.97-0.32-2.74-0.78c-0.75-0.47-1.38-1.02-1.86-1.62c-0.99-1.18-1.61-2.45-2.1-3.72
	c-0.96-2.55-1.31-5.17-1.35-7.78c0.04-2.61,0.39-5.23,1.35-7.78c0.49-1.27,1.11-2.54,2.1-3.72c0.48-0.59,1.11-1.15,1.86-1.62
	c0.77-0.46,1.74-0.76,2.74-0.78c1,0.03,1.96,0.35,2.71,0.82c0.73,0.48,1.34,1.05,1.79,1.65c0.93,1.21,1.47,2.49,1.89,3.76
	C208.5,161.28,208.71,163.85,208.74,166.39z M205.74,166.39c-0.02-1.13-0.11-2.25-0.32-3.34c-0.22-1.09-0.55-2.15-0.97-3.12
	c-0.42-0.97-0.96-1.87-1.57-2.51c-0.29-0.34-0.61-0.56-0.89-0.73c-0.28-0.15-0.5-0.17-0.7-0.19c-0.2,0.03-0.41,0.07-0.68,0.23
	c-0.26,0.18-0.55,0.41-0.82,0.76c-0.55,0.67-1.01,1.58-1.36,2.55c-0.71,1.96-1,4.17-0.99,6.35c0,2.19,0.28,4.4,0.99,6.35
	c0.35,0.97,0.81,1.88,1.36,2.55c0.27,0.35,0.56,0.58,0.82,0.76c0.26,0.16,0.48,0.2,0.68,0.23c0.2-0.02,0.42-0.04,0.7-0.19
	c0.27-0.17,0.6-0.38,0.89-0.73c0.61-0.64,1.15-1.54,1.57-2.51c0.42-0.98,0.75-2.03,0.97-3.12
	C205.63,168.64,205.73,167.52,205.74,166.39z"/>
<g>
	<circle class="st16" cx="335.95" cy="191.05" r="9.91"/>
	<path class="st17" d="M351.95,177.49l-3.98,2.56c-0.48,0.31-1.11,0.17-1.41-0.31c-0.22-0.35-0.21-0.78,0-1.11l2.56-3.98
		c0.61-0.95,1.88-1.22,2.83-0.61c0.95,0.61,1.22,1.88,0.61,2.83C352.4,177.13,352.18,177.34,351.95,177.49z"/>
	<path class="st17" d="M337.67,169.74l-1,4.62c-0.12,0.55-0.66,0.9-1.22,0.78c-0.4-0.09-0.7-0.4-0.78-0.78l-1-4.62
		c-0.24-1.1,0.46-2.19,1.57-2.43c1.1-0.24,2.19,0.46,2.43,1.57C337.74,169.17,337.73,169.47,337.67,169.74z"/>
	<path class="st17" d="M322.39,175.05l2.56,3.98c0.31,0.47,0.17,1.11-0.31,1.41c-0.35,0.22-0.78,0.21-1.11,0l-3.98-2.56
		c-0.95-0.61-1.22-1.88-0.61-2.83c0.61-0.95,1.88-1.22,2.83-0.61C322.02,174.6,322.23,174.81,322.39,175.05z"/>
	<path class="st18" d="M330.11,199.05c1.64,1.2,3.65,1.91,5.84,1.91c5.48,0,9.91-4.44,9.91-9.91c0-3.29-1.61-6.2-4.08-8
		c-0.42,0.47-0.89,0.94-1.43,1.37c-2.14,1.74-4.27,3.04-4.41,6.14c-0.14,2.98,0.56,3.57-1.87,5.94
		C332.94,197.61,331.44,198.26,330.11,199.05z"/>
</g>
<path class="st4" d="M291.87,250.78h-57.01c-1.1,0-2-0.9-2-2v-64.44c0-1.1,0.9-2,2-2h57.01c1.1,0,2,0.9,2,2v64.44
	C293.87,249.89,292.98,250.78,291.87,250.78z M236.87,246.78h53.01v-60.44h-53.01V246.78z"/>
<g>
	<rect x="259.65" y="204.17" class="st2" width="7.44" height="24.79"/>
	<path class="st2" d="M267.09,230.96h-7.44c-1.1,0-2-0.9-2-2v-24.79c0-1.1,0.9-2,2-2h7.44c1.1,0,2,0.9,2,2v24.79
		C269.09,230.06,268.19,230.96,267.09,230.96z M261.65,226.96h3.44v-20.79h-3.44V226.96z"/>
</g>
<g>
	
		<rect x="259.65" y="204.17" transform="matrix(-1.836970e-16 1 -1 -1.836970e-16 479.9324 -46.8077)" class="st2" width="7.44" height="24.79"/>
	<path class="st2" d="M275.76,222.28h-24.79c-1.1,0-2-0.9-2-2v-7.44c0-1.1,0.9-2,2-2h24.79c1.1,0,2,0.9,2,2v7.44
		C277.76,221.38,276.87,222.28,275.76,222.28z M252.98,218.28h20.79v-3.44h-20.79V218.28z"/>
</g>
<g>
	<path class="st2" d="M438.96,315.07h-41.64c0,0,6.58-112.6,19.5-112.6C429.75,202.47,438.96,315.07,438.96,315.07z"/>
	<path class="st2" d="M438.96,317.07h-41.64c-0.55,0-1.08-0.23-1.46-0.63c-0.38-0.4-0.57-0.94-0.54-1.49
		c0.02-0.28,1.69-28.53,4.91-56.42c5.93-51.17,11.71-58.07,16.58-58.07c4.85,0,10.78,6.89,17.9,58.03
		c3.88,27.88,6.21,56.13,6.23,56.41c0.05,0.56-0.14,1.11-0.52,1.52C440.05,316.84,439.52,317.07,438.96,317.07z M399.45,313.07
		h37.33c-0.62-7.12-2.78-30.71-6.03-54.04c-7.38-53.03-13.28-54.56-13.93-54.56c-0.26,0-6.37,0.62-12.61,54.52
		C401.51,282.36,399.9,306,399.45,313.07z"/>
</g>
<g>
	<path class="st5" d="M224.57,302.07h-41.64c0,0,6.58-112.6,19.5-112.6S224.57,302.07,224.57,302.07z"/>
	<path class="st5" d="M224.57,304.07h-41.64c-0.55,0-1.08-0.23-1.46-0.63c-0.38-0.4-0.57-0.94-0.54-1.49
		c0.02-0.28,1.69-28.53,4.91-56.42c5.93-51.17,11.71-58.07,16.58-58.07c4.85,0,10.78,6.89,17.9,58.03
		c3.88,27.88,6.21,56.13,6.23,56.41c0.05,0.56-0.14,1.11-0.52,1.52C225.66,303.84,225.13,304.07,224.57,304.07z M185.06,300.07
		h37.33c-0.62-7.12-2.78-30.71-6.03-54.04c-7.38-53.03-13.28-54.56-13.93-54.56c-0.26,0-6.37,0.62-12.61,54.52
		C187.11,269.36,185.51,293,185.06,300.07z"/>
</g>
<g>
	<path class="st5" d="M370.48,266.08l-17.28,1.51c-1.36,0.12-2.57-0.89-2.69-2.25l-3.46-39.51c-0.12-1.36,0.89-2.57,2.25-2.69
		l17.28-1.51c1.36-0.12,2.57,0.89,2.69,2.25l3.46,39.51C372.85,264.76,371.85,265.96,370.48,266.08z"/>
	<path class="st4" d="M347.06,225.83l3.46,39.51c0.12,1.36,1.32,2.37,2.69,2.25l15.38-1.35c-2.05-3.44-4.09-6.61-4.61-11.07
		c-0.33-2.84,0.77-5.86-0.98-8.36c-1.98-2.84-5.17-2.24-4.88-6.7c0.26-4.01,1.99-5.35-0.67-9.15c-1.57-2.24-3.91-3.76-5.56-5.9
		c-0.56-0.73-0.95-1.39-1.25-2.03l-1.31,0.12C347.95,223.27,346.94,224.47,347.06,225.83z"/>
	
		<rect x="352.58" y="227.07" transform="matrix(0.9962 -0.0872 0.0872 0.9962 -19.9328 32.3076)" class="st6" width="14.87" height="34.7"/>
	<path class="st7" d="M354.12,262.35l11.7-1.02c-0.89-1.85-1.58-3.82-1.85-6.16c-0.33-2.84,0.77-5.86-0.98-8.36
		c-1.98-2.84-5.17-2.24-4.88-6.7c0.26-4,1.99-5.35-0.67-9.15c-0.92-1.31-2.1-2.37-3.25-3.45l-3.09,0.27L354.12,262.35z"/>
</g>
<path class="st4" d="M428.63,225.04c0.59,0.58,0.97,1.04,1.41,1.56c0.4,0.52,0.8,1.03,1.18,1.56l1.09,1.59l1.01,1.62
	c1.28,2.19,2.44,4.44,3.47,6.73c2.05,4.59,3.67,9.33,4.97,14.13c1.32,4.8,2.31,9.66,3.13,14.54c0.34,2.45,0.69,4.9,1,7.35
	c0.22,2.46,0.46,4.92,0.64,7.37c0.04,0.55-0.37,1.03-0.92,1.07c-0.51,0.04-0.96-0.31-1.06-0.8l-0.01-0.03
	c-0.47-2.4-0.88-4.8-1.33-7.2l-1.48-7.15c-0.61-2.35-1.1-4.73-1.73-7.07c-0.65-2.33-1.25-4.68-2.03-6.97
	c-0.7-2.31-1.5-4.58-2.31-6.85l-1.33-3.34c-0.44-1.12-0.97-2.18-1.43-3.29c-0.98-2.18-2.06-4.3-3.24-6.34l-0.9-1.52l-0.95-1.47
	c-0.32-0.48-0.67-0.94-1-1.4c-0.33-0.43-0.72-0.93-0.99-1.22l-0.1-0.11c-0.74-0.82-0.68-2.08,0.14-2.82
	C426.68,224.27,427.88,224.31,428.63,225.04z"/>
<path class="st15" d="M209.76,302.8c-0.2-2.52-1.03-4.96-1.3-7.47c-0.42-3.89,1.05-6.71,2.45-10.19c1.49-3.7,2.72-7.76,0.93-11.58
	c-0.78-1.66-1.98-2.78-3.24-4.06c-2.99-3.04-2.83-5.22-1.85-9.45c1.23-5.3,3.2-10.54,1.59-16.03c-0.88-3-4.01-5.99-4.02-9.14
	c0-2.28,1.5-4.71,1.93-6.97c0.36-1.87,0.6-3.96-0.06-5.8c-0.7-1.98-2.56-2.53-3.51-4.08c-0.14-0.22-0.25-0.38-0.35-0.48
	c0.13-0.14,0.28-0.4,0.45-0.88c0.53-1.46,1.35-2.77,2.03-4.16c1.11-2.28,2.63-4.95,2.35-7.6c-0.24-2.33-1.66-3.49-3.04-5.07
	c-0.2-0.23-1.79-0.83-1.92-1.12c-0.66-1.44,0.23-2.63,0.8-3.94c0.94-2.17,1.96-4.22,2.27-6.32c-0.99-0.73-1.94-0.98-2.85-0.98
	c-4.88,0-10.66,6.9-16.58,58.07c-3.23,27.88-4.9,56.13-4.91,56.42c-0.03,0.55,0.16,1.09,0.54,1.49c0.38,0.4,0.9,0.63,1.46,0.63
	h26.88C209.81,303.65,209.8,303.22,209.76,302.8z"/>
<path class="st3" d="M434.72,258.5c-7.12-51.13-13.04-58.03-17.9-58.03c-1.27,0-2.61,0.47-3.99,2.07c-0.64,1.28-1.04,2.25-0.83,3.75
	c0.21,1.54,1.13,2.41,1.88,3.69c2.43,4.17,1.26,6.5,0.43,10.93c-1.06,5.71,1.57,9.77,2.33,15.33c0.87,6.37,0.27,13.36,0.37,19.8
	c0.09,5.51,1.14,8.72,3.31,13.57c2.65,5.9-0.63,11.75-2.7,17.37c-1.52,4.12-3.3,9.15-2.33,13.62c0.33,1.49,1.01,2.5,1.75,3.78
	c2.08,3.61,0.59,5.29-0.94,9c-0.45,1.1-0.82,2.36-1.08,3.68h23.92c0.56,0,1.09-0.23,1.47-0.64c0.38-0.41,0.57-0.96,0.52-1.52
	C440.93,314.63,438.6,286.38,434.72,258.5z"/>
<path class="st4" d="M201.8,215.41c1.39,1.76,3.06,3.6,4.77,5.24c1.72,1.67,3.53,3.24,5.44,4.68c3.82,2.85,7.96,5.31,12.42,6.92
	c2.23,0.79,4.51,1.47,6.84,1.91c2.34,0.41,4.71,0.62,7.09,0.64c2.38-0.02,4.79-0.15,7.16-0.6c1.2-0.15,2.37-0.45,3.56-0.7
	c1.18-0.27,2.34-0.65,3.52-0.96l0.05-0.01c0.54-0.14,1.08,0.18,1.22,0.72c0.12,0.48-0.12,0.97-0.56,1.16
	c-4.63,2.08-9.68,3.39-14.85,3.74c-2.59,0.16-5.19,0.01-7.78-0.3c-2.58-0.37-5.13-0.94-7.6-1.78c-4.93-1.69-9.55-4.19-13.67-7.31
	c-2.06-1.56-4.01-3.25-5.84-5.08c-0.9-0.92-1.79-1.86-2.63-2.84c-0.86-0.99-1.64-1.96-2.44-3.12c-0.63-0.91-0.4-2.15,0.51-2.78
	c0.87-0.6,2.05-0.42,2.7,0.4L201.8,215.41z"/>
<path class="st4" d="M565.16,299.78c0.72,1.5,1.55,3.12,2.37,4.65c0.83,1.54,1.71,3.06,2.67,4.51c0.97,1.44,2.02,2.81,3.17,4.09
	c1.18,1.23,2.47,2.34,3.92,3.28l0.05,0.03c0.47,0.3,0.6,0.92,0.3,1.39c-0.25,0.39-0.72,0.54-1.14,0.42
	c-1.91-0.58-3.67-1.58-5.24-2.77c-1.58-1.2-2.94-2.62-4.18-4.11c-1.24-1.49-2.31-3.11-3.27-4.77c-0.95-1.69-1.75-3.37-2.4-5.29
	c-0.35-1.05,0.21-2.18,1.26-2.53c0.97-0.33,2.02,0.13,2.44,1.03L565.16,299.78z"/>
</svg>
