<?xml version="1.0" encoding="utf-8"?>
<!-- Generator: Adobe Illustrator 22.1.0, SVG Export Plug-In . SVG Version: 6.00 Build 0)  -->
<svg version="1.1" id="Vectors" xmlns="http://www.w3.org/2000/svg" xmlns:xlink="http://www.w3.org/1999/xlink" x="0px" y="0px"
	 width="1000px" height="500px" viewBox="0 0 1000 500" style="enable-background:new 0 0 1000 500;" xml:space="preserve">
<style type="text/css">
	.st0{fill:#CDDAE8;}
	.st1{opacity:0.2;fill:#278BD6;}
	.st2{fill:#278BD6;}
	.st3{opacity:0.3;fill:#064E72;}
	.st4{fill:#2E3547;}
	.st5{fill:#4E5C75;}
	.st6{fill:#A0C2EC;}
	.st7{opacity:0.3;fill:#278BD6;}
	.st8{opacity:0.1;fill:#278BD6;}
	.st9{fill:#EF4B4B;}
	.st10{opacity:0.2;}
	.st11{fill:#FFFFFF;}
	.st12{opacity:0.1;}
	.st13{opacity:0.35;fill:#278BD6;}
	.st14{opacity:0.35;}
	.st15{opacity:0.3;fill:#2E3547;}
	.st16{fill:#FCD381;}
	.st17{opacity:0.35;fill:#FCD381;}
	.st18{opacity:0.3;fill:#FCD381;}
	.st19{fill:none;}
	.st20{display:none;fill:#EF4B4B;}
	.st21{fill:#F8C069;}
	.st22{fill:#E23537;}
	.st23{fill:#237BC9;}
</style>
<path class="st4" d="M561.79,297.86c0.11,2.29,0.42,4.82,0.86,7.22c0.24,1.21,0.48,2.42,0.75,3.62c0.32,1.19,0.59,2.4,0.95,3.57
	c0.38,1.17,0.72,2.36,1.14,3.52c0.45,1.15,0.87,2.31,1.3,3.46l1.52,3.37c0.49,1.14,1.15,2.18,1.71,3.28l0.89,1.62l1.01,1.55
	c0.7,1.02,1.28,2.11,2.04,3.09l2.24,2.95l0.56,0.74l0.62,0.69l1.24,1.38l1.23,1.4l0.62,0.7l0.68,0.64l2.71,2.57
	c0.88,0.9,1.88,1.64,2.85,2.43c0.97,0.79,1.95,1.58,2.91,2.39l0.07,0.06c0.42,0.36,0.47,0.99,0.12,1.41
	c-0.32,0.38-0.87,0.46-1.28,0.21c-1.1-0.67-2.2-1.37-3.29-2.07c-1.08-0.72-2.24-1.35-3.21-2.21l-3.05-2.46l-0.76-0.62l-0.71-0.68
	l-1.4-1.37c-3.79-3.62-6.97-7.88-9.62-12.41c-0.63-1.15-1.35-2.26-1.9-3.46l-1.69-3.56c-0.48-1.22-0.98-2.44-1.44-3.67
	c-0.44-1.24-0.8-2.5-1.21-3.76c-0.38-1.26-0.66-2.54-1-3.82c-0.28-1.29-0.55-2.57-0.75-3.87c-0.19-1.31-0.38-2.61-0.49-3.93
	c-0.14-1.33-0.19-2.61-0.18-4.05c0.01-1.1,0.91-1.99,2.01-1.99c1.06,0.01,1.93,0.84,1.98,1.89L561.79,297.86z"/>
<path class="st4" d="M446.79,303.52c0.72,0.74,1.56,1.58,2.41,2.33c0.84,0.78,1.75,1.5,2.62,2.26c1.8,1.45,3.67,2.82,5.6,4.1
	c3.85,2.58,7.95,4.81,12.25,6.59c4.3,1.76,8.76,3.23,13.36,4.12c2.28,0.57,4.62,0.77,6.94,1.12c1.16,0.21,2.34,0.2,3.52,0.29
	l3.53,0.23l0.08,0.01c0.55,0.04,0.97,0.51,0.93,1.06c-0.03,0.52-0.46,0.92-0.97,0.93l-3.64,0.08c-1.21,0-2.43,0.1-3.65-0.02
	c-2.43-0.16-4.87-0.26-7.28-0.69c-4.86-0.6-9.6-1.96-14.21-3.62c-4.63-1.64-9.02-3.94-13.17-6.59c-2.08-1.32-4.04-2.82-5.97-4.37
	c-0.94-0.81-1.88-1.61-2.77-2.48c-0.92-0.86-1.75-1.73-2.64-2.76c-0.72-0.84-0.62-2.1,0.22-2.82c0.8-0.69,2-0.63,2.73,0.12
	L446.79,303.52z"/>
<path class="st1" d="M553.34,270.52c0.65,0.42,1.33,0.66,2.05,0.66c3.65,0,6.6-5.91,6.6-13.2c0-7.29-2.95-13.2-6.6-13.2
	c-0.22,0-0.45,0.02-0.66,0.07c0.99,1.88,0.88,5.25,1.22,6.87c0.65,3.14,0.93,5.68,0.13,8.82
	C555.21,263.86,554.29,267.2,553.34,270.52z"/>
<path class="st1" d="M444.5,240.64c-0.42-0.17-0.86-0.26-1.31-0.26c-3.65,0-6.6,5.91-6.6,13.2c0,7.29,2.95,13.2,6.6,13.2
	c0.17,0,0.33-0.03,0.49-0.05c-1.01-3.81-1.39-7.77-1.89-12.01c-0.39-3.32-1.48-6.92-0.08-10.12
	C442.34,243.17,443.43,241.91,444.5,240.64z"/>
<path class="st4" d="M434.91,399.71c0.24,2.81,0.2,5.41,0.12,8.09c-0.1,2.66-0.31,5.3-0.55,7.94c-0.55,5.27-1.39,10.48-2.4,15.65
	l-0.82,3.87l-0.91,3.84c-0.58,2.57-1.29,5.1-1.99,7.64c-0.71,2.53-1.51,5.04-2.27,7.55c-0.84,2.49-1.69,4.97-2.57,7.44
	c-0.19,0.52-0.76,0.79-1.28,0.61c-0.49-0.17-0.76-0.69-0.64-1.18l0.01-0.02l1.89-7.58c0.57-2.54,1.22-5.05,1.76-7.6
	c1.08-5.08,2.16-10.15,2.96-15.27c0.84-5.11,1.56-10.23,2.03-15.36c0.24-2.56,0.46-5.13,0.56-7.69c0.15-2.54,0.19-5.17,0.12-7.58
	l0-0.1c-0.03-1.1,0.83-2.03,1.94-2.06C433.92,397.85,434.82,398.66,434.91,399.71z"/>
<path class="st4" d="M456.46,399.3c0.46,1.47,0.75,2.79,1.06,4.19c0.28,1.38,0.57,2.76,0.78,4.14c0.46,2.77,0.79,5.54,1.08,8.32
	c0.49,5.56,0.74,11.12,0.69,16.68l-0.05,4.17l-0.15,4.16c-0.06,2.77-0.32,5.54-0.5,8.3c-0.22,2.76-0.51,5.52-0.79,8.27l-1.1,8.23
	c-0.07,0.55-0.58,0.93-1.12,0.86c-0.52-0.07-0.89-0.53-0.87-1.04l0-0.03l0.47-8.23c0.08-2.74,0.25-5.48,0.31-8.22
	c0.08-5.48,0.2-10.95-0.02-16.41c-0.22-5.46-0.46-10.91-1.07-16.31c-0.29-2.7-0.6-5.4-1.03-8.07c-0.4-2.65-0.9-5.39-1.51-7.84
	l-0.02-0.08c-0.27-1.07,0.39-2.16,1.46-2.42C455.1,397.7,456.15,398.3,456.46,399.3z"/>
<path class="st4" d="M546.76,403.75c-0.5,2.08-0.96,4.38-1.32,6.61c-0.4,2.24-0.72,4.51-1.01,6.78c-0.6,4.54-0.99,9.12-1.28,13.7
	c-0.31,4.59-0.41,9.19-0.47,13.81c-0.06,2.31,0.03,4.61,0.02,6.93l0.14,6.94l0,0.02c0.01,0.55-0.43,1.01-0.98,1.02
	c-0.51,0.01-0.95-0.37-1.01-0.87c-0.3-2.31-0.58-4.64-0.83-6.96c-0.18-2.33-0.41-4.66-0.53-7c-0.14-2.34-0.25-4.68-0.26-7.02
	c-0.06-2.34-0.03-4.69,0-7.03c0.13-4.69,0.44-9.38,0.98-14.06c0.61-4.7,1.32-9.29,2.71-14c0.31-1.06,1.42-1.66,2.48-1.35
	c1.02,0.3,1.62,1.35,1.38,2.38L546.76,403.75z"/>
<path class="st4" d="M565.09,403.32c-0.09,4.74,0.2,9.72,0.76,14.56c0.5,4.88,1.35,9.72,2.43,14.51l0.4,1.8l0.47,1.78
	c0.33,1.18,0.61,2.38,0.97,3.56c0.76,2.33,1.42,4.71,2.31,7.01c1.61,4.66,3.71,9.12,5.87,13.58l0.02,0.04
	c0.24,0.5,0.03,1.09-0.46,1.34c-0.47,0.23-1.03,0.05-1.29-0.38c-2.61-4.31-5.07-8.75-7-13.44c-1.06-2.31-1.89-4.7-2.76-7.08
	c-0.42-1.2-0.77-2.41-1.15-3.62l-0.57-1.82l-0.49-1.84c-1.38-4.89-2.29-9.9-2.93-14.93c-0.59-5.07-0.91-10.09-0.56-15.32
	c0.07-1.1,1.02-1.94,2.13-1.86c1.07,0.07,1.88,0.97,1.87,2.03L565.09,403.32z"/>
<path class="st4" d="M563.99,257.98c0,2.86-0.35,5.74-1.37,8.56c-0.53,1.4-1.22,2.78-2.29,4.07c-0.52,0.64-1.2,1.24-2.01,1.74
	c-0.83,0.49-1.86,0.81-2.93,0.83c-1.07-0.04-2.08-0.38-2.89-0.89c-0.78-0.51-1.44-1.12-1.94-1.77c-1.02-1.3-1.63-2.7-2.09-4.09
	c-0.9-2.8-1.19-5.63-1.18-8.45c0.03-2.81,0.38-5.63,1.33-8.39c0.48-1.37,1.12-2.74,2.12-4c0.49-0.63,1.13-1.22,1.88-1.72
	c0.78-0.49,1.75-0.8,2.77-0.84c1.02,0.01,2.01,0.31,2.81,0.77c0.78,0.48,1.45,1.06,1.97,1.68c1.06,1.25,1.76,2.61,2.3,3.99
	C563.53,252.25,563.93,255.12,563.99,257.98z M559.99,257.98c0.02-2.46-0.28-4.95-1.08-7.18c-0.38-1.11-0.9-2.16-1.54-2.97
	c-0.31-0.42-0.67-0.72-1.01-0.96c-0.34-0.22-0.66-0.3-0.98-0.34c-0.32,0.01-0.65,0.07-1.02,0.27c-0.36,0.22-0.75,0.51-1.09,0.92
	c-0.7,0.79-1.28,1.84-1.72,2.96c-0.44,1.12-0.77,2.32-0.98,3.55c-0.19,1.23-0.28,2.49-0.29,3.75c0.04,1.26,0.15,2.51,0.37,3.73
	c0.24,1.22,0.6,2.4,1.06,3.51c0.46,1.1,1.06,2.11,1.75,2.86c0.33,0.4,0.7,0.66,1.03,0.87c0.34,0.18,0.63,0.22,0.9,0.23
	c0.27-0.04,0.54-0.1,0.86-0.29c0.31-0.22,0.66-0.49,0.96-0.89c0.63-0.77,1.15-1.8,1.55-2.89
	C559.6,262.91,559.96,260.44,559.99,257.98z"/>
<path class="st4" d="M438.59,253.58c0.03,2.46,0.39,4.94,1.23,7.13c0.39,1.09,0.92,2.12,1.55,2.89c0.31,0.4,0.65,0.68,0.96,0.89
	c0.32,0.19,0.6,0.25,0.86,0.29c0.27-0.01,0.56-0.05,0.9-0.23c0.33-0.2,0.7-0.47,1.03-0.87c0.69-0.75,1.29-1.77,1.75-2.86
	c0.46-1.1,0.82-2.29,1.06-3.51c0.21-1.23,0.33-2.48,0.37-3.73c-0.01-1.26-0.1-2.51-0.29-3.75c-0.21-1.23-0.54-2.43-0.98-3.55
	c-0.44-1.12-1.02-2.17-1.72-2.96c-0.34-0.41-0.73-0.7-1.09-0.92c-0.37-0.2-0.7-0.26-1.02-0.27c-0.32,0.04-0.63,0.13-0.98,0.34
	c-0.34,0.24-0.69,0.54-1.01,0.96c-0.64,0.81-1.16,1.86-1.54,2.97C438.87,248.63,438.57,251.12,438.59,253.58z M434.59,253.58
	c0.06-2.86,0.46-5.73,1.52-8.5c0.54-1.38,1.24-2.74,2.3-3.99c0.52-0.63,1.19-1.2,1.97-1.68c0.8-0.47,1.79-0.76,2.81-0.77
	c1.02,0.04,1.99,0.36,2.77,0.84c0.76,0.5,1.4,1.08,1.88,1.72c1,1.26,1.64,2.63,2.12,4c0.95,2.75,1.3,5.58,1.33,8.39
	c0.02,2.81-0.28,5.65-1.18,8.45c-0.47,1.39-1.08,2.79-2.09,4.09c-0.5,0.65-1.15,1.26-1.94,1.77c-0.81,0.51-1.82,0.84-2.89,0.89
	c-1.07-0.02-2.1-0.34-2.93-0.83c-0.8-0.5-1.49-1.1-2.01-1.74c-1.07-1.28-1.76-2.67-2.29-4.07
	C434.94,259.32,434.59,256.44,434.59,253.58z"/>
<path class="st4" d="M563.99,257.98c0,2.86-0.35,5.74-1.37,8.56c-0.53,1.4-1.22,2.78-2.29,4.07c-0.52,0.64-1.2,1.24-2.01,1.74
	c-0.83,0.49-1.86,0.81-2.93,0.83c-1.07-0.04-2.08-0.38-2.89-0.89c-0.78-0.51-1.44-1.12-1.94-1.77c-1.02-1.3-1.63-2.7-2.09-4.09
	c-0.9-2.8-1.19-5.63-1.18-8.45c0.03-2.81,0.38-5.63,1.33-8.39c0.48-1.37,1.12-2.74,2.12-4c0.49-0.63,1.13-1.22,1.88-1.72
	c0.78-0.49,1.75-0.8,2.77-0.84c1.02,0.01,2.01,0.31,2.81,0.77c0.78,0.48,1.45,1.06,1.97,1.68c1.06,1.25,1.76,2.61,2.3,3.99
	C563.53,252.25,563.93,255.12,563.99,257.98z M559.99,257.98c0.02-2.46-0.28-4.95-1.08-7.18c-0.38-1.11-0.9-2.16-1.54-2.97
	c-0.31-0.42-0.67-0.72-1.01-0.96c-0.34-0.22-0.66-0.3-0.98-0.34c-0.32,0.01-0.65,0.07-1.02,0.27c-0.36,0.22-0.75,0.51-1.09,0.92
	c-0.7,0.79-1.28,1.84-1.72,2.96c-0.44,1.12-0.77,2.32-0.98,3.55c-0.19,1.23-0.28,2.49-0.29,3.75c0.04,1.26,0.15,2.51,0.37,3.73
	c0.24,1.22,0.6,2.4,1.06,3.51c0.46,1.1,1.06,2.11,1.75,2.86c0.33,0.4,0.7,0.66,1.03,0.87c0.34,0.18,0.63,0.22,0.9,0.23
	c0.27-0.04,0.54-0.1,0.86-0.29c0.31-0.22,0.66-0.49,0.96-0.89c0.63-0.77,1.15-1.8,1.55-2.89
	C559.6,262.91,559.96,260.44,559.99,257.98z"/>
<path class="st4" d="M438.59,253.58c0.03,2.46,0.39,4.94,1.23,7.13c0.39,1.09,0.92,2.12,1.55,2.89c0.31,0.4,0.65,0.68,0.96,0.89
	c0.32,0.19,0.6,0.25,0.86,0.29c0.27-0.01,0.56-0.05,0.9-0.23c0.33-0.2,0.7-0.47,1.03-0.87c0.69-0.75,1.29-1.77,1.75-2.86
	c0.46-1.1,0.82-2.29,1.06-3.51c0.21-1.23,0.33-2.48,0.37-3.73c-0.01-1.26-0.1-2.51-0.29-3.75c-0.21-1.23-0.54-2.43-0.98-3.55
	c-0.44-1.12-1.02-2.17-1.72-2.96c-0.34-0.41-0.73-0.7-1.09-0.92c-0.37-0.2-0.7-0.26-1.02-0.27c-0.32,0.04-0.63,0.13-0.98,0.34
	c-0.34,0.24-0.69,0.54-1.01,0.96c-0.64,0.81-1.16,1.86-1.54,2.97C438.87,248.63,438.57,251.12,438.59,253.58z M434.59,253.58
	c0.06-2.86,0.46-5.73,1.52-8.5c0.54-1.38,1.24-2.74,2.3-3.99c0.52-0.63,1.19-1.2,1.97-1.68c0.8-0.47,1.79-0.76,2.81-0.77
	c1.02,0.04,1.99,0.36,2.77,0.84c0.76,0.5,1.4,1.08,1.88,1.72c1,1.26,1.64,2.63,2.12,4c0.95,2.75,1.3,5.58,1.33,8.39
	c0.02,2.81-0.28,5.65-1.18,8.45c-0.47,1.39-1.08,2.79-2.09,4.09c-0.5,0.65-1.15,1.26-1.94,1.77c-0.81,0.51-1.82,0.84-2.89,0.89
	c-1.07-0.02-2.1-0.34-2.93-0.83c-0.8-0.5-1.49-1.1-2.01-1.74c-1.07-1.28-1.76-2.67-2.29-4.07
	C434.94,259.32,434.59,256.44,434.59,253.58z"/>
<g>
	<path class="st9" d="M500.77,212.88c0,0-3.85-10.45-9.35-19.25s3.3-12.1,8.8-3.3c5.5-6.6,13.2-7.7,8.8,3.3
		C504.62,204.63,500.77,212.88,500.77,212.88z"/>
	<path class="st9" d="M500.77,214.88c-0.03,0-0.06,0-0.08,0c-0.81-0.03-1.51-0.55-1.79-1.31c-0.04-0.1-3.85-10.37-9.17-18.88
		c-1.39-2.22-2.08-4.3-2.04-6.17c0.03-1.97,0.91-3.63,2.4-4.56c1.67-1.04,3.89-1.07,6.09-0.08c1.53,0.69,2.97,1.82,4.24,3.33
		c3.09-2.94,7.02-4.92,9.81-3.25c1.78,1.06,3.33,3.73,0.66,10.42c-4.37,10.93-8.26,19.27-8.29,19.35
		C502.25,214.43,501.54,214.88,500.77,214.88z M493.02,187.15c-0.36,0-0.63,0.08-0.82,0.19c-0.33,0.21-0.51,0.63-0.52,1.24
		c-0.02,1.06,0.49,2.47,1.44,3.98c3.37,5.39,6.1,11.3,7.76,15.22c1.54-3.46,3.83-8.77,6.28-14.9c1.52-3.81,1.17-5.32,1-5.51
		c-0.46-0.24-3.32,0.54-6.4,4.23c-0.41,0.49-1.04,0.75-1.67,0.72c-0.64-0.04-1.22-0.39-1.56-0.94c-1.16-1.85-2.58-3.23-4-3.87
		C493.93,187.25,493.42,187.15,493.02,187.15z"/>
</g>
<g>
	<path class="st6" d="M463.51,399.88h-36.48c0,0,5.76-124.15,17.08-124.15S463.51,399.88,463.51,399.88z"/>
	<path class="st6" d="M463.51,401.88h-36.48c-0.55,0-1.07-0.22-1.45-0.62c-0.38-0.4-0.58-0.93-0.55-1.47
		c0.01-0.31,1.48-31.44,4.3-62.16c5.17-56.15,10.16-63.89,14.78-63.89c4.61,0,9.72,7.74,15.93,63.85
		c3.4,30.73,5.44,61.85,5.46,62.16c0.04,0.55-0.16,1.09-0.54,1.5C464.59,401.65,464.06,401.88,463.51,401.88z M429.13,397.88h32.24
		c-0.51-7.36-2.33-32.64-5.1-58.04c-5.95-54.64-10.92-61.26-12.15-62.05c-1.21,0.81-6.05,7.52-10.97,62.1
		C430.85,365.3,429.5,390.58,429.13,397.88z"/>
</g>
<g>
	<path class="st2" d="M574.61,403.18h-36.48c0,0,5.76-124.15,17.08-124.15C566.54,279.03,574.61,403.18,574.61,403.18z"/>
	<path class="st2" d="M574.61,405.18h-36.48c-0.55,0-1.07-0.22-1.45-0.62c-0.38-0.4-0.58-0.93-0.55-1.47
		c0.01-0.31,1.48-31.44,4.3-62.16c5.17-56.15,10.16-63.89,14.78-63.89c4.61,0,9.72,7.74,15.93,63.85
		c3.4,30.73,5.44,61.85,5.46,62.16c0.04,0.55-0.16,1.09-0.54,1.5C575.69,404.95,575.16,405.18,574.61,405.18z M540.23,401.18h32.24
		c-0.51-7.36-2.33-32.64-5.1-58.04c-5.95-54.64-10.92-61.26-12.15-62.05c-1.21,0.81-6.05,7.52-10.97,62.1
		C541.95,368.6,540.6,393.88,540.23,401.18z"/>
</g>
<path class="st3" d="M553.99,405.38h20.62c0.61,0,1.19-0.25,1.6-0.7c0.42-0.44,0.63-1.04,0.59-1.65
	c-0.02-0.31-2.06-31.44-5.46-62.17c-2-18.08-4.07-32.51-6.17-42.87c-3.54-17.56-6.55-21.16-9.96-21.16c-0.6,0-1.16,0.13-1.69,0.39
	c0.46,1.25,1.6,2.56,2.28,4.64c1.85,5.65-1.73,11.51-1.76,17.18c-0.01,2.29,0.49,4.34,1.65,6.33c1.2,2.07,3.01,3.36,3.05,5.96
	c0.1,5.98-5.38,10.13-3.18,16.49c0.99,2.87,3.16,4.96,3.66,8.08c0.48,2.96-0.29,5.81-1.16,8.61c-1.51,4.91-3.82,10.13-2.18,15.33
	c0.84,2.68,2.64,4.36,2.66,7.38c0.02,3.02-1.17,5.95-1.97,8.82c-0.74,2.65-1.36,5.16-0.9,7.91c0.63,3.76,2.03,6.56,1.4,10.57
	C556.6,397.48,555.04,401.41,553.99,405.38z"/>
<path class="st7" d="M445.61,401.87c0.3-3.92-0.88-7.6-0.1-11.54c0.75-3.8,2.64-7.27,3.55-11.03c2.05-8.45-3.78-15.27-2.35-23.59
	c1.01-5.89,4.71-14.59-0.17-19.83c-1.53-1.65-5-1.8-5.85-3.77c-1.09-2.53,1.67-7.97,2.56-10.2c2.44-6.08,5.29-12.12,6.32-18.66
	c0.5-3.19,0.55-6.59-0.69-9.63c-1.22-2.98-4.98-5.13-5.79-8.02c-0.99-3.53,1.4-6.67,2.86-10c0.63,0.33,1.36,0.38,2.06,0.25
	c-1.28-1.76-2.56-2.32-3.91-2.32c-4.75,0-7.28,8.48-9.61,21.2c-1.9,10.36-3.7,24.79-5.37,42.87c-2.83,30.73-4.29,61.86-4.3,62.17
	c-0.03,0.6,0.19,1.19,0.61,1.62c0.41,0.44,0.99,0.68,1.59,0.68h18.55C445.59,402.01,445.6,401.94,445.61,401.87z"/>
<path class="st4" d="M558.16,299.12c-0.37,0.74-0.7,1.32-1.08,1.94c-0.37,0.61-0.76,1.2-1.16,1.77c-0.39,0.59-0.8,1.16-1.24,1.7
	c-0.43,0.55-0.84,1.12-1.3,1.65c-0.94,1.03-1.83,2.12-2.84,3.07l-1.49,1.47c-0.5,0.48-1.05,0.92-1.57,1.38
	c-4.23,3.63-9.01,6.55-14.03,8.88l-3.86,1.5c-1.27,0.54-2.61,0.9-3.93,1.28c-1.33,0.36-2.63,0.81-3.98,1.09l-4.05,0.76
	c-0.68,0.11-1.34,0.27-2.02,0.35l-2.04,0.2l-4.08,0.38c-1.36,0.1-2.73,0.03-4.08,0.05l-4.07-0.03c-0.55,0-0.99-0.45-0.99-1
	c0-0.51,0.39-0.93,0.89-0.99l0.1-0.01c2.65-0.28,5.29-0.41,7.91-0.74l3.9-0.63l1.95-0.31c0.65-0.11,1.28-0.31,1.91-0.46l3.81-0.94
	c1.27-0.31,2.49-0.8,3.73-1.19c1.24-0.41,2.48-0.8,3.66-1.36l3.57-1.56c4.66-2.28,9.02-5.12,12.92-8.49
	c0.48-0.42,0.99-0.82,1.46-1.27l1.38-1.35c0.95-0.87,1.76-1.87,2.63-2.82c0.43-0.47,0.81-0.99,1.23-1.48c0.42-0.49,0.8-1,1.17-1.52
	c0.38-0.51,0.75-1.03,1.08-1.56c0.35-0.51,0.7-1.08,0.95-1.53l0.07-0.13c0.55-0.96,1.77-1.29,2.73-0.74
	C558.3,297.01,558.63,298.18,558.16,299.12z"/>
<path class="st8" d="M247.33,119.91c-0.05-2.41-0.59-4.83-1.58-7c-0.49-1.08-1.1-2.1-1.83-2.96c-0.71-0.87-1.57-1.56-2.42-1.93
	c-0.86-0.38-1.67-0.36-2.48-0.06c-0.81,0.33-1.61,1.01-2.31,1.87c-1.41,1.73-2.42,4.03-3.25,6.36l0,0l-0.01,0.03
	c-0.4,1.03-1.56,1.54-2.59,1.14c-0.78-0.31-1.27-1.06-1.27-1.85c-0.03-4.07-0.51-8.16-1.92-11.79c-0.7-1.8-1.66-3.47-2.89-4.73
	c-0.29-0.33-0.64-0.57-0.96-0.85c-0.35-0.21-0.67-0.48-1.04-0.61c-0.7-0.35-1.44-0.52-2.17-0.48c-0.73,0.03-1.47,0.2-2.18,0.6
	c-0.37,0.14-0.69,0.45-1.05,0.66c-0.32,0.3-0.67,0.55-0.97,0.89c-1.24,1.3-2.24,2.97-3.03,4.76c-0.8,1.79-1.38,3.73-1.83,5.7
	c-0.48,1.97-0.74,4.01-0.98,6.05l0,0.03c-0.13,1.1-1.12,1.88-2.22,1.75c-1.02-0.12-1.76-0.98-1.77-1.98
	c-0.02-7.77-0.38-15.55-1.6-23.14c-0.62-3.78-1.46-7.53-2.77-11c-0.66-1.72-1.46-3.37-2.46-4.7c-0.49-0.66-1.05-1.23-1.6-1.59
	c-0.56-0.36-1.05-0.51-1.54-0.48c-0.98,0.04-2.28,1.04-3.3,2.4c-1.04,1.35-1.89,3-2.63,4.69c-1.48,3.41-2.49,7.12-3.3,10.87
	c-1.59,7.52-2.33,15.27-2.67,23.02l0,0.01l0,0.04c-0.06,1.1-1.01,1.94-2.11,1.88c-1.06-0.06-1.88-0.95-1.88-2
	c0.01-3.9-0.49-7.9-2.24-11.06c-0.87-1.55-2.05-2.9-3.51-3.56c-1.44-0.73-3.11-0.79-4.72-0.3c-1.61,0.52-3.1,1.59-4.33,2.94
	c-1.23,1.36-2.21,3.01-2.93,4.78c-0.72,1.77-1.19,3.67-1.48,5.61c-0.29,1.94-0.32,3.92-0.27,5.91l0,0.06
	c0.02,0.83-0.64,1.51-1.46,1.53c-0.82,0.02-1.5-0.62-1.53-1.43c-0.1-2.15-0.11-4.32,0.17-6.48c0.28-2.16,0.77-4.32,1.56-6.4
	c0.8-2.07,1.9-4.08,3.42-5.82c1.51-1.73,3.44-3.23,5.76-4.03c1.17-0.37,2.42-0.6,3.69-0.55c1.26,0.08,2.54,0.32,3.68,0.89
	c2.34,1.04,4.04,2.97,5.22,4.97c2.34,4.1,2.89,8.62,2.99,12.93l-4-0.08l0-0.01c0.35-7.92,1.09-15.85,2.75-23.69
	c0.85-3.92,1.9-7.82,3.54-11.62c0.83-1.89,1.78-3.77,3.13-5.54c0.68-0.88,1.46-1.74,2.45-2.48c0.99-0.73,2.27-1.36,3.74-1.48
	c1.48-0.11,2.94,0.41,4.01,1.13c1.09,0.72,1.9,1.61,2.58,2.51c1.35,1.82,2.25,3.75,3,5.68c1.47,3.88,2.34,7.83,2.99,11.79
	c1.27,7.92,1.63,15.86,1.65,23.78l-3.99-0.2c0.26-2.18,0.54-4.37,1.06-6.54c0.49-2.17,1.13-4.33,2.07-6.43
	c0.93-2.09,2.11-4.14,3.82-5.93c0.41-0.46,0.92-0.85,1.39-1.26c0.54-0.35,1.03-0.77,1.65-1.04c1.15-0.64,2.53-1.01,3.92-1.06
	c0.7-0.05,1.39,0.07,2.08,0.18c0.66,0.19,1.33,0.37,1.92,0.68c0.63,0.27,1.15,0.65,1.7,1.01c0.49,0.41,1.01,0.8,1.43,1.26
	c1.74,1.8,2.91,3.92,3.75,6.07c1.68,4.33,2.17,8.84,2.2,13.26l-3.88-0.68l0,0c0.51-1.28,1.04-2.56,1.72-3.81
	c0.65-1.25,1.44-2.48,2.44-3.62c0.99-1.13,2.24-2.21,3.9-2.83c1.64-0.62,3.67-0.5,5.17,0.26c1.54,0.73,2.7,1.82,3.62,3
	c0.92,1.18,1.62,2.46,2.18,3.78c1.1,2.64,1.63,5.46,1.6,8.3c-0.01,0.83-0.69,1.49-1.51,1.49c-0.81-0.01-1.47-0.66-1.49-1.47
	L247.33,119.91z"/>
<path class="st8" d="M816.43,131.99c-0.13-6.91,0.18-13.87,1.36-20.78c0.62-3.45,1.45-6.89,2.75-10.25
	c0.66-1.68,1.41-3.34,2.45-4.93c1.04-1.57,2.3-3.15,4.28-4.25c0.99-0.53,2.21-0.87,3.45-0.81c1.24,0.06,2.41,0.5,3.34,1.1
	c1.86,1.23,3.04,2.86,3.99,4.48c1.87,3.28,2.87,6.74,3.66,10.19c1.51,6.92,1.93,13.9,1.97,20.84c0.01,1.11-0.88,2.01-1.99,2.01
	s-2.01-0.88-2.01-1.99v-0.03c0.03-4.5,0.51-9.1,2.25-13.52c0.88-2.19,2.1-4.36,3.97-6.17c0.97-0.87,2.06-1.7,3.42-2.17
	c1.33-0.49,2.84-0.66,4.29-0.39c1.43,0.29,2.71,0.94,3.79,1.74c0.49,0.43,1.04,0.84,1.45,1.33l0.65,0.71l0.56,0.75
	c1.45,2.03,2.37,4.24,3.05,6.46c0.68,2.22,1.11,4.48,1.36,6.73c0.29,2.25,0.35,4.5,0.39,6.74h-4.07c0.03-1.64,0.08-3.29,0.3-4.95
	c0.2-1.66,0.52-3.32,1.08-4.98c0.56-1.65,1.31-3.31,2.56-4.81c0.65-0.73,1.4-1.45,2.38-1.96c0.95-0.51,2.11-0.86,3.28-0.8
	c1.16,0.04,2.26,0.4,3.18,0.92c0.89,0.55,1.69,1.19,2.3,1.92c1.27,1.44,2.1,3.06,2.7,4.7c1.19,3.28,1.55,6.65,1.57,9.95l-4.01-0.05
	c0.11-2.8,0.63-5.72,2.24-8.34c0.81-1.29,1.89-2.5,3.33-3.38c1.42-0.86,3.31-1.33,5.09-0.9c1.8,0.36,3.23,1.51,4.2,2.74
	c0.99,1.25,1.6,2.62,2.04,3.98c0.44,1.36,0.69,2.74,0.81,4.1c0.15,1.36,0.15,2.71,0.1,4.05c-0.03,0.83-0.72,1.48-1.55,1.45
	c-0.78-0.03-1.4-0.64-1.45-1.41l0-0.04c-0.14-2.44-0.47-4.88-1.26-7c-0.39-1.06-0.91-2.03-1.56-2.76c-0.65-0.73-1.39-1.22-2.13-1.35
	c-0.73-0.17-1.52,0.03-2.27,0.49c-0.75,0.48-1.43,1.22-1.96,2.11c-1.08,1.79-1.56,4.07-1.63,6.37c-0.04,1.11-0.96,1.98-2.07,1.94
	c-1.08-0.03-1.93-0.92-1.94-1.99c-0.02-2.96-0.37-5.92-1.34-8.55c-0.48-1.3-1.13-2.52-1.95-3.43c-0.39-0.48-0.85-0.81-1.29-1.09
	c-0.45-0.25-0.88-0.37-1.29-0.39c-0.8-0.03-1.68,0.43-2.45,1.35c-0.76,0.91-1.36,2.15-1.8,3.46c-0.45,1.32-0.73,2.75-0.9,4.21
	c-0.2,1.45-0.24,2.95-0.26,4.44c-0.02,1.12-0.95,2.02-2.07,2c-1.1-0.02-1.98-0.91-2-2c-0.04-2.1-0.1-4.2-0.37-6.25
	c-0.23-2.06-0.63-4.09-1.22-6.01c-0.59-1.92-1.38-3.76-2.47-5.26l-0.41-0.56l-0.45-0.49c-0.28-0.36-0.63-0.58-0.94-0.87
	c-0.67-0.47-1.37-0.82-2.07-0.97c-1.39-0.24-2.87,0.29-4.15,1.51c-1.26,1.21-2.27,2.88-3,4.7c-1.47,3.67-1.97,7.86-2.01,12.01l-4,0
	c0-6.74-0.4-13.51-1.78-20c-0.72-3.21-1.66-6.41-3.19-9.1c-0.75-1.33-1.7-2.52-2.71-3.18c-1.03-0.64-1.9-0.69-2.95-0.16
	c-1.05,0.55-2.06,1.68-2.89,2.95c-0.85,1.27-1.54,2.73-2.15,4.23c-1.2,3.02-2.04,6.25-2.66,9.53c-1.27,6.57-1.76,13.35-1.92,20.12
	l0,0.01c-0.02,0.83-0.71,1.48-1.54,1.46C817.09,133.44,816.44,132.79,816.43,131.99z"/>
<g>
	<path class="st11" d="M96.3,452.15c303.13,28.61,613.34-19.99,807.4,0v34.31H96.3V452.15z"/>
</g>
<path class="st4" d="M903.61,453.08c-67.06-5.47-134.44-4.31-201.69-2.3c-67.27,2.19-134.52,5.78-201.83,8.48
	c-33.65,1.39-67.32,2.48-100.99,3.22c-33.68,0.73-67.37,1.13-101.06,0.9c-33.69-0.22-67.38-1-101.05-2.52
	c-33.66-1.52-67.32-3.68-100.77-7.78c-0.51-0.06-0.87-0.52-0.81-1.03c0.06-0.49,0.5-0.84,0.98-0.81
	c33.6,2.15,67.15,4.41,100.77,5.85c33.61,1.44,67.26,2.15,100.9,2.29c67.3,0.3,134.59-1.81,201.86-4.44
	c67.27-2.62,134.53-6.12,201.87-8.23c33.67-1.02,67.37-1.74,101.07-1.33c4.21,0.04,8.43,0.15,12.64,0.23
	c4.21,0.1,8.43,0.13,12.64,0.29l12.63,0.5c2.11,0.09,4.21,0.15,6.32,0.26l6.31,0.36l12.62,0.72l12.61,1.01l6.3,0.51l6.29,0.65
	l12.57,1.34c0.51,0.05,0.88,0.51,0.82,1.02c-0.05,0.5-0.5,0.87-1,0.82L903.61,453.08z"/>
<g>
	<path class="st4" d="M670.58,298.13c0.28,0.9,0.71,2,1.14,2.98c0.45,1.01,0.95,2,1.49,2.96c1.06,1.94,2.31,3.78,3.71,5.5
		c2.78,3.44,6.17,6.39,10.01,8.62c1.92,1.12,3.93,2.11,6.03,2.9c2.11,0.77,4.27,1.43,6.49,1.9c4.43,0.98,9.03,1.37,13.66,1.38
		c0.55,0,1,0.45,1,1c0,0.51-0.39,0.94-0.89,0.99c-4.73,0.54-9.57,0.52-14.36-0.21c-4.8-0.68-9.52-2.22-13.88-4.52
		c-4.33-2.35-8.24-5.56-11.38-9.39c-1.56-1.92-2.94-3.98-4.12-6.16c-0.58-1.09-1.1-2.22-1.58-3.37c-0.48-1.17-0.88-2.27-1.22-3.64
		c-0.27-1.07,0.39-2.15,1.46-2.42c1.03-0.26,2.07,0.34,2.39,1.34L670.58,298.13z"/>
	<path class="st4" d="M235.05,319.77c-0.04-0.14,0.01-0.03,0.03,0.01c0.01,0.04,0.07,0.12,0.12,0.18c0.09,0.13,0.19,0.28,0.33,0.43
		c0.22,0.3,0.54,0.6,0.83,0.9c0.63,0.59,1.33,1.15,2.09,1.67c0.71,0.56,1.58,1,2.35,1.51c0.84,0.45,1.68,0.9,2.54,1.33
		c3.46,1.69,7.18,3.02,10.93,4.21c3.76,1.2,7.6,2.24,11.48,3.17c3.87,0.98,7.79,1.77,11.7,2.7l0.02,0.01
		c0.54,0.13,0.87,0.67,0.74,1.21c-0.12,0.49-0.57,0.81-1.06,0.77c-2.02-0.17-4.03-0.4-6.05-0.6c-2.02-0.21-4.01-0.58-6.02-0.86
		c-4.01-0.64-7.99-1.53-11.96-2.55c-3.93-1.17-7.88-2.37-11.66-4.21c-0.94-0.48-1.87-0.98-2.8-1.48l-1.37-0.85
		c-0.46-0.27-0.91-0.57-1.34-0.91c-0.88-0.64-1.73-1.36-2.54-2.18c-0.4-0.43-0.8-0.84-1.16-1.36c-0.19-0.23-0.36-0.51-0.53-0.81
		c-0.09-0.15-0.17-0.28-0.25-0.47c-0.08-0.19-0.15-0.3-0.28-0.68c-0.31-1.06,0.3-2.17,1.36-2.48
		C233.62,318.1,234.73,318.71,235.05,319.77z"/>
	<path class="st1" d="M757.95,241.48c-0.46,0-0.91,0.09-1.34,0.27c1.5,3.16,2.53,6.03,2.37,9.96c-0.1,2.43-0.45,4.82-0.81,7.21
		c-0.39,2.58-0.82,5.15-1.27,7.72c-0.06,0.32-0.13,0.65-0.2,0.98c0.4,0.15,0.82,0.24,1.24,0.24c2.66,0,4.94-3.15,5.99-7.68
		c0.06-0.37,0.12-0.74,0.18-1.11c0.14-0.92,0.26-1.84,0.38-2.76c0.03-0.54,0.06-1.09,0.06-1.66
		C764.55,247.39,761.59,241.48,757.95,241.48z"/>
	<path class="st1" d="M666.65,282.18c0.68,0,1.34-0.21,1.96-0.59c-0.41-0.97-0.75-1.95-0.94-2.97c-0.5-2.68,0.18-5.47-0.08-8.2
		c-0.51-5.37-1.65-9.6-0.26-14.57c-0.22-0.05-0.45-0.07-0.68-0.07c-2.5,0-4.68,2.79-5.8,6.89c0.15,2.61,0.6,5.26,0.88,8.28
		c0.22,2.3-0.12,4.58,0.01,6.85C662.95,280.48,664.7,282.18,666.65,282.18z"/>
	<path class="st1" d="M827.03,340.51c0.09-1.96-0.04-3.91,0.1-5.86c-0.55-5.65-2.9-10.02-5.81-10.61c0.92,1.16,1.44,2.53,1.08,4.34
		c-0.53,2.68-1.29,4.83-1.32,7.62c-0.03,3.81-0.33,6.39-1.63,9.92c-0.57,1.55-0.79,2.63-0.75,3.86c0.62,0.38,1.27,0.59,1.95,0.59
		C823.72,350.38,826.29,346.19,827.03,340.51z"/>
	<path class="st1" d="M335.55,237.08c-0.65,0-1.27,0.19-1.86,0.54c5.55,2.98,3.59,9.91,3.18,15.7c-0.27,3.8-0.59,6.28-2.2,9.73
		c-0.04,0.09-0.08,0.18-0.13,0.27c0.33,0.1,0.66,0.17,1,0.17c3.65,0,6.6-5.91,6.6-13.2C342.15,242.99,339.19,237.08,335.55,237.08z"
		/>
	<path class="st1" d="M171.88,265.11c0.81-5.43-1.47-10.51,0.69-15.3c-0.64-0.41-1.31-0.63-2.02-0.63c-2.97,0-5.48,3.92-6.31,9.31
		c0.06,1.38,0.1,2.82,0.01,4.37c-0.03,0.61-0.11,1.22-0.2,1.81c0.54,6.2,3.24,10.91,6.49,10.91c0.61,0,1.2-0.18,1.76-0.49
		C171.41,271.94,171.3,268.95,171.88,265.11z"/>
	<path class="st1" d="M232.15,252.48c-3.03,0-5.58,4.1-6.36,9.68c0,0.03,0,0.06-0.01,0.09c0,0.03-0.01,0.06-0.02,0.09
		c-0.14,1.07-0.22,2.19-0.22,3.34c0,6.48,2.34,11.86,5.42,12.98c-0.03-0.85-0.03-1.62-0.07-2.09c-0.24-3.02-0.43-6.18-0.18-9.21
		c0.2-2.42,1.53-4.8,1.29-7.22c-0.09-0.87-0.97-1.98-0.99-2.72c-0.08-2.15,1.46-3.33,3.06-4.37
		C233.46,252.68,232.81,252.48,232.15,252.48z"/>
	<path class="st4" d="M164.13,303c-1.36,1.95-2.74,4.22-3.95,6.45c-1.24,2.24-2.4,4.55-3.5,6.88c-2.15,4.69-4.11,9.49-5.8,14.39
		c-1.64,4.92-3.21,9.88-4.46,14.93c-0.72,2.51-1.24,5.06-1.88,7.59c-0.58,2.55-1.08,5.11-1.68,7.67l-0.01,0.04
		c-0.13,0.54-0.66,0.87-1.2,0.75c-0.49-0.12-0.82-0.58-0.77-1.07c0.25-2.63,0.52-5.27,0.86-7.9c0.44-2.61,0.78-5.25,1.32-7.85
		c0.55-2.6,1.08-5.2,1.78-7.77c0.34-1.29,0.62-2.59,1.01-3.86l1.17-3.82c1.66-5.06,3.48-10.09,5.78-14.92
		c1.15-2.42,2.33-4.82,3.69-7.15c1.37-2.34,2.73-4.58,4.51-6.85c0.68-0.87,1.94-1.02,2.81-0.34c0.84,0.66,1.01,1.85,0.41,2.71
		L164.13,303z"/>
	<path class="st4" d="M234.97,308.42c-1.94,4.67-4.18,9.07-6.67,13.39c-2.47,4.32-5.2,8.5-8.23,12.48
		c-3.01,3.98-6.29,7.81-10.05,11.18c-3.73,3.37-7.97,6.3-12.66,8.21c-0.51,0.21-1.1-0.04-1.31-0.55c-0.19-0.46-0.01-0.97,0.4-1.23
		l0.02-0.01c4.06-2.54,7.69-5.65,11.03-9.07c3.32-3.43,6.4-7.12,9.23-11.02c1.42-1.95,2.76-3.95,4.05-5.99
		c1.3-2.03,2.58-4.08,3.79-6.17c2.4-4.18,4.71-8.49,6.74-12.79l0.03-0.05c0.47-1,1.66-1.43,2.66-0.96
		C234.94,306.3,235.37,307.44,234.97,308.42z"/>
	<path class="st4" d="M179.23,297.01c1.39,4.61,2.92,9.27,4.51,13.86c1.63,4.59,3.3,9.15,5.16,13.63c1.88,4.47,3.92,8.86,6.19,13.11
		c1.16,2.11,2.34,4.2,3.68,6.17c1.33,1.98,2.76,3.89,4.41,5.58l0.01,0.01c0.39,0.4,0.38,1.03-0.02,1.42
		c-0.36,0.35-0.92,0.38-1.31,0.08c-4.1-3.12-7.13-7.27-9.85-11.46c-2.67-4.25-4.9-8.72-6.91-13.27c-2.01-4.55-3.85-9.16-5.44-13.85
		c-1.63-4.69-3.08-9.39-4.3-14.25c-0.27-1.07,0.38-2.16,1.45-2.43c1.04-0.26,2.09,0.34,2.4,1.36L179.23,297.01z"/>
	<path class="st4" d="M767.37,299.85c0.11,2.29,0.42,4.82,0.86,7.22c0.24,1.21,0.48,2.42,0.75,3.62c0.32,1.19,0.59,2.4,0.95,3.57
		c0.38,1.17,0.72,2.36,1.14,3.52c0.45,1.15,0.87,2.31,1.3,3.46l1.52,3.37c0.49,1.14,1.15,2.18,1.71,3.28l0.89,1.62l1.01,1.55
		c0.7,1.02,1.28,2.11,2.04,3.09l2.24,2.95l0.56,0.74l0.62,0.69l1.24,1.38l1.23,1.4l0.62,0.7l0.68,0.64l2.71,2.57
		c0.88,0.9,1.88,1.64,2.85,2.43c0.97,0.79,1.95,1.58,2.91,2.39l0.07,0.06c0.42,0.36,0.47,0.99,0.12,1.41
		c-0.32,0.38-0.87,0.46-1.28,0.21c-1.1-0.67-2.2-1.37-3.29-2.07c-1.08-0.72-2.24-1.35-3.21-2.21l-3.05-2.46l-0.76-0.62l-0.71-0.68
		l-1.4-1.37c-3.79-3.62-6.97-7.88-9.62-12.41c-0.63-1.15-1.36-2.26-1.9-3.46l-1.69-3.56c-0.48-1.22-0.98-2.44-1.44-3.67
		c-0.44-1.24-0.8-2.5-1.21-3.76c-0.38-1.26-0.66-2.54-1-3.82c-0.28-1.29-0.55-2.57-0.75-3.87c-0.19-1.31-0.38-2.61-0.49-3.93
		c-0.14-1.33-0.19-2.61-0.18-4.05c0.01-1.1,0.91-1.99,2.01-1.99c1.06,0.01,1.93,0.84,1.98,1.89L767.37,299.85z"/>
	<path class="st4" d="M813.74,374.6c-0.77-0.11-1.34-0.24-1.97-0.42c-0.62-0.16-1.22-0.37-1.81-0.59c-1.17-0.47-2.32-0.99-3.4-1.64
		c-2.17-1.28-4.14-2.89-5.76-4.79c-1.61-1.9-3.06-3.95-4-6.23c-0.27-0.55-0.52-1.11-0.7-1.69c-0.2-0.57-0.4-1.15-0.58-1.73
		c-0.34-1.16-0.56-2.35-0.8-3.52c-0.11-0.54,0.23-1.07,0.77-1.18c0.47-0.1,0.93,0.15,1.12,0.57l0.05,0.12
		c0.45,1.04,0.8,2.1,1.28,3.1c0.54,0.97,0.92,2.01,1.56,2.91c0.29,0.46,0.57,0.93,0.87,1.38c0.34,0.43,0.67,0.86,0.99,1.29
		c0.3,0.45,0.68,0.83,1.04,1.23c0.37,0.39,0.7,0.81,1.11,1.15c1.53,1.49,3.3,2.7,5.13,3.74c0.92,0.51,1.87,0.98,2.85,1.37
		c0.49,0.17,0.98,0.39,1.47,0.54c0.47,0.17,1.03,0.31,1.4,0.42l0.23,0.07c1.06,0.31,1.66,1.42,1.35,2.48
		C815.65,374.15,814.7,374.74,813.74,374.6z"/>
	<path class="st4" d="M163.58,403.9c0.26,1.26,0.39,2.34,0.53,3.51c0.13,1.15,0.24,2.29,0.32,3.43c0.15,2.29,0.22,4.56,0.25,6.84
		c0.03,4.55-0.18,9.09-0.52,13.61c-0.37,4.52-0.88,9.01-1.52,13.49l-1.08,6.69c-0.44,2.22-0.85,4.43-1.31,6.64
		c-0.11,0.54-0.65,0.89-1.19,0.77c-0.5-0.11-0.83-0.56-0.79-1.06l0-0.02c0.17-2.24,0.41-4.47,0.61-6.7l0.56-6.69
		c0.3-4.46,0.67-8.91,0.78-13.36c0.19-4.45,0.29-8.9,0.21-13.33c-0.03-2.21-0.09-4.43-0.22-6.62c-0.09-2.18-0.29-4.45-0.55-6.46
		l-0.01-0.1c-0.14-1.09,0.63-2.1,1.73-2.24C162.41,402.18,163.37,402.89,163.58,403.9z"/>
	<path class="st4" d="M183.28,403.71c0.74,2.32,1.29,4.58,1.85,6.88c0.52,2.3,1.01,4.6,1.44,6.92c0.83,4.63,1.54,9.28,2.02,13.96
		c0.44,4.68,0.86,9.36,0.96,14.06c0.09,2.35,0.09,4.69,0.09,7.04c-0.02,2.35-0.12,4.69-0.22,7.03c-0.02,0.55-0.49,0.98-1.04,0.96
		c-0.51-0.02-0.92-0.43-0.96-0.93l0-0.03c-0.31-4.64-0.58-9.26-1.06-13.87c-0.45-4.61-0.98-9.2-1.66-13.77
		c-0.65-4.57-1.43-9.13-2.31-13.65c-0.42-2.27-0.89-4.52-1.39-6.77c-0.48-2.24-1.02-4.51-1.56-6.67l-0.01-0.05
		c-0.27-1.07,0.38-2.16,1.45-2.43C181.92,402.11,182.96,402.71,183.28,403.71z"/>
	<path class="st4" d="M226.43,399.59c0.82,5.03,1.31,10.03,1.72,15.07c0.19,2.52,0.31,5.04,0.43,7.56l0.14,3.79l0.03,3.79
		c0.02,1.26-0.02,2.53-0.04,3.79c-0.02,1.26-0.03,2.53-0.1,3.79l-0.18,3.79l-0.33,3.79c-0.51,5.05-1.27,10.09-2.68,15
		c-0.15,0.53-0.71,0.84-1.24,0.69c-0.5-0.14-0.8-0.64-0.71-1.14l0-0.02c0.88-4.86,1.28-9.79,1.48-14.74
		c0.17-4.95,0.12-9.92-0.08-14.88c-0.2-4.96-0.52-9.93-0.96-14.88c-0.19-2.48-0.41-4.96-0.67-7.43c-0.23-2.47-0.5-4.96-0.78-7.4
		l0-0.03c-0.12-1.1,0.67-2.09,1.76-2.21C225.29,397.8,226.26,398.55,226.43,399.59z"/>
	<path class="st4" d="M245.41,399.44c1.24,5.1,2.17,10.2,3.02,15.34c0.77,5.14,1.49,10.3,1.97,15.48c0.46,5.18,0.83,10.38,0.92,15.6
		c0.08,5.21-0.07,10.44-0.58,15.63c-0.05,0.55-0.54,0.95-1.09,0.9c-0.52-0.05-0.9-0.49-0.9-1v-0.02c0.02-5.13-0.18-10.25-0.55-15.37
		c-0.45-5.11-0.93-10.22-1.63-15.31c-0.72-5.08-1.43-10.17-2.33-15.23c-0.83-5.06-1.77-10.14-2.74-15.14l-0.01-0.03
		c-0.21-1.08,0.5-2.13,1.58-2.34C244.14,397.74,245.16,398.41,245.41,399.44z"/>
	<path class="st4" d="M326.82,393.28c-0.02,0.94-0.08,1.56-0.12,2.3l-0.13,2.12c-0.09,1.41-0.14,2.82-0.2,4.23
		c-0.12,2.82-0.2,5.64-0.21,8.47c-0.03,5.65,0.03,11.31,0.37,16.97c0.27,5.66,0.7,11.31,1.3,16.95c0.54,5.65,1.34,11.28,2.09,16.92
		l0,0.02c0.07,0.55-0.31,1.05-0.86,1.12c-0.51,0.07-0.99-0.27-1.11-0.77c-0.65-2.79-1.29-5.59-1.86-8.4
		c-0.52-2.82-1.08-5.64-1.5-8.48c-0.95-5.67-1.53-11.39-2.05-17.12c-0.44-5.74-0.67-11.49-0.65-17.25c0.02-2.88,0.1-5.76,0.24-8.64
		c0.09-1.44,0.18-2.88,0.3-4.32l0.19-2.15l0.19-1.97l0.02-0.24c0.11-1.1,1.08-1.9,2.18-1.79
		C326.06,391.35,326.84,392.24,326.82,393.28z"/>
	<path class="st4" d="M350.32,393.06c0.84,5.84,1.92,11.77,3.18,17.6c1.23,5.85,2.74,11.64,4.41,17.37
		c1.74,5.71,3.79,11.32,6.12,16.81c2.46,5.42,5.24,10.7,8.61,15.62l0.02,0.02c0.31,0.46,0.2,1.08-0.26,1.39
		c-0.44,0.3-1.03,0.2-1.35-0.21c-3.8-4.82-7.03-10.06-9.8-15.52c-2.7-5.49-4.96-11.19-6.95-16.96c-1.95-5.79-3.54-11.68-4.91-17.62
		c-1.31-5.97-2.41-11.93-3.05-18.07c-0.11-1.1,0.68-2.08,1.78-2.2c1.07-0.11,2.03,0.65,2.19,1.7L350.32,393.06z"/>
	<path class="st4" d="M678.47,401.53c1.19,3.99,1.93,7.91,2.59,11.91c0.6,3.99,1.08,8,1.36,12.01c0.12,2.01,0.25,4.02,0.3,6.03
		l0.09,3.02l-0.01,3.02c0.01,2.01-0.08,4.02-0.15,6.03c-0.1,2.01-0.26,4.01-0.42,6.01c-0.05,0.55-0.53,0.96-1.08,0.92
		c-0.51-0.04-0.9-0.46-0.92-0.96l0-0.02c-0.17-3.97-0.3-7.93-0.6-11.87c-0.27-3.95-0.62-7.88-1.09-11.8c-0.47-3.92-1-7.82-1.67-11.7
		c-0.3-1.94-0.66-3.88-1.04-5.8c-0.36-1.91-0.78-3.87-1.2-5.7l-0.02-0.07c-0.25-1.08,0.42-2.15,1.5-2.4
		C677.14,399.91,678.17,400.53,678.47,401.53z"/>
	<path class="st4" d="M659.53,401.15c0.56,1.06,1,2.01,1.41,3.02c0.43,1,0.78,2.02,1.15,3.03c0.66,2.05,1.22,4.13,1.67,6.23
		c0.88,4.21,1.28,8.51,1.19,12.81c-0.14,4.28-0.6,8.58-1.73,12.7c-0.47,2.09-1.21,4.09-1.92,6.09c-0.33,1.01-0.82,1.96-1.26,2.93
		c-0.44,0.96-0.9,1.92-1.35,2.87c-0.24,0.5-0.84,0.71-1.33,0.47c-0.46-0.22-0.67-0.75-0.51-1.22l0.02-0.07
		c1.31-3.88,2.57-7.75,3.2-11.75c0.15-1,0.4-1.98,0.47-2.99l0.32-3c0.12-1,0.09-2.01,0.14-3.01l0.05-1.5c0-0.5-0.03-1-0.05-1.51
		c-0.06-1-0.02-2.01-0.12-3.01l-0.27-3l-0.44-2.97c-0.16-0.99-0.4-1.96-0.57-2.95c-0.41-1.96-0.93-3.9-1.53-5.8
		c-0.58-1.89-1.31-3.83-2.06-5.51l-0.05-0.12c-0.45-1.01,0.01-2.19,1.01-2.64C657.92,399.83,659.05,400.23,659.53,401.15z"/>
	<path class="st4" d="M820.35,410.45c-0.37,1.34-0.74,2.89-1.02,4.37c-0.28,1.5-0.57,3.01-0.76,4.53c-0.39,3.04-0.68,6.1-0.72,9.18
		c-0.05,3.07,0.01,6.16,0.32,9.24c0.21,3.09,0.76,6.14,1.26,9.24l0.01,0.05c0.09,0.55-0.28,1.06-0.83,1.15
		c-0.48,0.08-0.93-0.2-1.1-0.64c-0.28-0.75-0.55-1.52-0.81-2.28c-0.26-0.77-0.55-1.53-0.74-2.31c-0.41-1.57-0.84-3.14-1.12-4.74
		c-0.65-3.19-0.95-6.44-1.04-9.7c-0.1-3.26,0.08-6.53,0.53-9.77c0.22-1.62,0.5-3.23,0.85-4.83c0.4-1.61,0.78-3.15,1.4-4.82
		c0.39-1.03,1.54-1.56,2.57-1.17c0.97,0.37,1.49,1.41,1.23,2.39L820.35,410.45z"/>
	<path class="st4" d="M831.94,408.57c0.08,1.19,0.15,2.46,0.26,3.69c0.09,1.24,0.19,2.48,0.33,3.72c0.27,2.47,0.58,4.93,1.03,7.35
		c0.43,2.43,0.99,4.82,1.77,7.1l0.28,0.87c0.11,0.28,0.23,0.55,0.35,0.82c0.25,0.53,0.43,1.14,0.75,1.62
		c0.29,0.51,0.54,1.06,0.85,1.56c0.35,0.46,0.69,0.94,1.02,1.44l0.1,0.15c0.31,0.45,0.19,1.07-0.26,1.38
		c-0.38,0.26-0.88,0.22-1.21-0.07c-0.52-0.45-1.03-0.92-1.54-1.4c-0.48-0.5-0.88-1.05-1.32-1.59c-0.45-0.54-0.73-1.14-1.11-1.72
		c-0.17-0.29-0.36-0.58-0.52-0.88l-0.45-0.9c-0.64-1.2-1.07-2.46-1.55-3.71c-0.39-1.27-0.81-2.53-1.1-3.82
		c-0.63-2.56-1.09-5.15-1.35-7.76c-0.27-2.61-0.43-5.18-0.34-7.86c0.04-1.1,0.97-1.97,2.07-1.93c1.03,0.04,1.86,0.85,1.93,1.86
		L831.94,408.57z"/>
	<path class="st4" d="M750.98,400.28c-0.28,1.84-0.54,3.81-0.74,5.73c-0.21,1.94-0.41,3.88-0.54,5.83
		c-0.26,3.9-0.53,7.81-0.54,11.72c-0.06,3.92-0.05,7.84,0.14,11.76c0.11,3.93,0.44,7.85,0.7,11.79l0,0.03
		c0.04,0.55-0.38,1.03-0.93,1.07c-0.5,0.03-0.94-0.31-1.04-0.79c-0.43-1.95-0.85-3.92-1.19-5.89c-0.3-1.98-0.64-3.96-0.86-5.95
		c-0.49-3.98-0.73-8-0.85-12.01c-0.07-4.02-0.01-8.04,0.3-12.06c0.31-4.03,0.75-7.98,1.63-12.05c0.23-1.08,1.3-1.76,2.38-1.53
		c1.04,0.22,1.71,1.21,1.55,2.25L750.98,400.28z"/>
	<path class="st4" d="M767.35,399.55l1.24,5.93c0.41,1.99,0.83,3.97,1.28,5.95c0.86,3.97,1.74,7.93,2.7,11.88
		c0.9,3.96,1.91,7.9,2.92,11.84c0.99,3.95,2.1,7.86,3.14,11.8l0,0.01c0.14,0.53-0.18,1.08-0.71,1.22c-0.49,0.13-0.99-0.13-1.18-0.58
		c-1.58-3.79-3.04-7.64-4.35-11.53c-1.35-3.88-2.51-7.82-3.66-11.77c-1.1-3.96-2.12-7.94-3.03-11.95c-0.44-2.01-0.86-4.02-1.27-6.03
		c-0.36-2.03-0.75-4.04-1.04-6.11c-0.15-1.09,0.61-2.1,1.71-2.26c1.05-0.14,2.01,0.55,2.23,1.56L767.35,399.55z"/>
	<path class="st4" d="M766.55,254.68c0,2.86-0.35,5.74-1.37,8.56c-0.53,1.4-1.22,2.78-2.29,4.07c-0.52,0.64-1.2,1.24-2.01,1.74
		c-0.83,0.49-1.86,0.81-2.93,0.83c-1.07-0.04-2.08-0.38-2.89-0.89c-0.78-0.51-1.44-1.12-1.94-1.77c-1.02-1.3-1.63-2.7-2.09-4.09
		c-0.9-2.8-1.19-5.63-1.18-8.45c0.03-2.81,0.38-5.63,1.33-8.39c0.48-1.37,1.12-2.74,2.12-4c0.49-0.63,1.13-1.22,1.88-1.72
		c0.78-0.49,1.75-0.8,2.77-0.84c1.02,0.01,2.01,0.31,2.81,0.77c0.78,0.48,1.45,1.06,1.97,1.68c1.06,1.25,1.76,2.61,2.3,3.99
		C766.09,248.95,766.49,251.82,766.55,254.68z M762.55,254.68c0.02-2.46-0.28-4.95-1.08-7.18c-0.38-1.11-0.9-2.16-1.54-2.97
		c-0.31-0.42-0.67-0.72-1.01-0.96c-0.34-0.22-0.66-0.3-0.98-0.34c-0.32,0.01-0.65,0.07-1.02,0.27c-0.36,0.22-0.75,0.51-1.09,0.92
		c-0.7,0.79-1.28,1.84-1.72,2.96c-0.44,1.12-0.77,2.32-0.98,3.55c-0.19,1.23-0.28,2.49-0.29,3.75c0.04,1.26,0.15,2.51,0.37,3.73
		c0.24,1.22,0.6,2.4,1.06,3.51c0.46,1.1,1.06,2.11,1.75,2.86c0.33,0.4,0.7,0.66,1.03,0.87c0.34,0.18,0.63,0.22,0.9,0.23
		c0.27-0.04,0.54-0.1,0.86-0.29c0.31-0.22,0.66-0.49,0.96-0.89c0.63-0.77,1.15-1.8,1.55-2.89
		C762.16,259.61,762.51,257.14,762.55,254.68z"/>
	<path class="st4" d="M829.25,337.18c0,2.86-0.35,5.74-1.37,8.56c-0.53,1.4-1.22,2.78-2.29,4.07c-0.52,0.64-1.2,1.24-2.01,1.74
		c-0.83,0.49-1.86,0.81-2.93,0.83c-1.07-0.04-2.08-0.38-2.89-0.89c-0.78-0.51-1.44-1.12-1.94-1.77c-1.02-1.3-1.63-2.7-2.09-4.09
		c-0.9-2.8-1.19-5.63-1.18-8.45c0.03-2.81,0.38-5.63,1.33-8.39c0.48-1.37,1.12-2.74,2.12-4c0.49-0.63,1.13-1.22,1.88-1.72
		c0.78-0.49,1.75-0.8,2.77-0.84c1.02,0.01,2.01,0.31,2.81,0.77c0.78,0.48,1.45,1.06,1.97,1.68c1.06,1.25,1.76,2.61,2.3,3.99
		C828.79,331.45,829.19,334.32,829.25,337.18z M825.25,337.18c0.02-2.46-0.28-4.95-1.08-7.18c-0.38-1.11-0.9-2.16-1.54-2.97
		c-0.31-0.42-0.67-0.72-1.01-0.96c-0.34-0.22-0.66-0.3-0.98-0.34c-0.32,0.01-0.65,0.07-1.02,0.27c-0.36,0.22-0.75,0.51-1.09,0.92
		c-0.7,0.79-1.28,1.84-1.72,2.96c-0.44,1.12-0.77,2.32-0.98,3.55c-0.19,1.23-0.28,2.49-0.29,3.75c0.04,1.26,0.15,2.51,0.37,3.73
		c0.24,1.22,0.6,2.4,1.06,3.51c0.46,1.1,1.06,2.11,1.75,2.86c0.33,0.4,0.7,0.66,1.03,0.87c0.34,0.18,0.63,0.22,0.9,0.23
		c0.27-0.04,0.54-0.1,0.86-0.29c0.31-0.22,0.66-0.49,0.96-0.89c0.63-0.77,1.15-1.8,1.55-2.89
		C824.86,342.11,825.21,339.64,825.25,337.18z"/>
	<path class="st4" d="M344.15,250.28c0,2.86-0.35,5.74-1.37,8.56c-0.53,1.4-1.22,2.78-2.29,4.07c-0.52,0.64-1.2,1.24-2.01,1.74
		c-0.83,0.49-1.86,0.81-2.93,0.83c-1.07-0.04-2.08-0.38-2.89-0.89c-0.78-0.51-1.44-1.12-1.94-1.77c-1.02-1.3-1.63-2.7-2.09-4.09
		c-0.9-2.8-1.19-5.63-1.18-8.45c0.03-2.81,0.38-5.63,1.33-8.39c0.48-1.37,1.12-2.74,2.12-4c0.49-0.63,1.13-1.22,1.88-1.72
		c0.78-0.49,1.75-0.8,2.77-0.84c1.02,0.01,2.01,0.31,2.81,0.77c0.78,0.48,1.45,1.06,1.97,1.68c1.06,1.25,1.76,2.61,2.3,3.99
		C343.69,244.55,344.09,247.42,344.15,250.28z M340.15,250.28c0.02-2.46-0.28-4.95-1.08-7.18c-0.38-1.11-0.9-2.16-1.54-2.97
		c-0.31-0.42-0.67-0.72-1.01-0.96c-0.34-0.22-0.66-0.3-0.98-0.34c-0.32,0.01-0.65,0.07-1.02,0.27c-0.36,0.22-0.75,0.51-1.09,0.92
		c-0.7,0.79-1.28,1.84-1.72,2.96c-0.44,1.12-0.77,2.32-0.98,3.55c-0.19,1.23-0.28,2.49-0.29,3.75c0.04,1.26,0.15,2.51,0.37,3.73
		c0.24,1.22,0.6,2.4,1.06,3.51c0.46,1.1,1.06,2.11,1.75,2.86c0.33,0.4,0.7,0.66,1.03,0.87c0.34,0.18,0.63,0.22,0.9,0.23
		c0.27-0.04,0.54-0.1,0.86-0.29c0.31-0.22,0.66-0.49,0.96-0.89c0.63-0.77,1.15-1.8,1.55-2.89
		C339.76,255.21,340.11,252.74,340.15,250.28z"/>
	<path class="st4" d="M662.05,268.98c0.03,2.46,0.39,4.94,1.23,7.13c0.39,1.09,0.92,2.12,1.55,2.89c0.31,0.4,0.65,0.68,0.96,0.89
		c0.32,0.19,0.6,0.25,0.86,0.29c0.27-0.01,0.56-0.05,0.9-0.23c0.33-0.2,0.7-0.47,1.03-0.87c0.69-0.75,1.29-1.77,1.75-2.86
		c0.46-1.1,0.82-2.29,1.06-3.51c0.21-1.23,0.33-2.48,0.37-3.73c-0.01-1.26-0.1-2.51-0.29-3.75c-0.21-1.23-0.54-2.43-0.98-3.55
		c-0.44-1.12-1.02-2.17-1.72-2.96c-0.34-0.41-0.73-0.7-1.09-0.92c-0.37-0.2-0.7-0.26-1.02-0.27c-0.32,0.04-0.63,0.13-0.98,0.34
		c-0.34,0.24-0.69,0.54-1.01,0.96c-0.64,0.81-1.16,1.86-1.54,2.97C662.33,264.03,662.03,266.52,662.05,268.98z M658.05,268.98
		c0.06-2.86,0.46-5.73,1.52-8.5c0.54-1.38,1.24-2.74,2.3-3.99c0.52-0.63,1.19-1.2,1.97-1.68c0.8-0.47,1.79-0.76,2.81-0.77
		c1.02,0.04,1.99,0.36,2.77,0.84c0.76,0.5,1.4,1.08,1.88,1.72c1,1.26,1.64,2.63,2.12,4c0.95,2.75,1.3,5.58,1.33,8.39
		c0.02,2.81-0.28,5.65-1.18,8.45c-0.47,1.39-1.08,2.79-2.09,4.09c-0.5,0.65-1.15,1.26-1.94,1.77c-0.81,0.51-1.82,0.84-2.89,0.89
		c-1.07-0.02-2.1-0.34-2.93-0.83c-0.8-0.5-1.49-1.1-2.01-1.74c-1.07-1.28-1.76-2.67-2.29-4.07
		C658.4,274.72,658.05,271.84,658.05,268.98z"/>
	<path class="st4" d="M165.95,262.38c0.04,2.46,0.39,4.94,1.23,7.13c0.39,1.09,0.92,2.12,1.55,2.89c0.31,0.4,0.65,0.68,0.96,0.89
		c0.32,0.19,0.6,0.25,0.86,0.29c0.27-0.01,0.56-0.05,0.9-0.23c0.33-0.2,0.7-0.47,1.03-0.87c0.69-0.75,1.29-1.77,1.75-2.86
		c0.46-1.1,0.82-2.29,1.06-3.51c0.21-1.23,0.33-2.48,0.37-3.73c-0.01-1.26-0.1-2.51-0.29-3.75c-0.21-1.23-0.54-2.43-0.98-3.55
		c-0.44-1.12-1.02-2.17-1.72-2.96c-0.34-0.41-0.73-0.7-1.09-0.92c-0.37-0.2-0.7-0.26-1.02-0.27c-0.32,0.04-0.63,0.13-0.98,0.34
		c-0.34,0.24-0.69,0.54-1.01,0.96c-0.64,0.81-1.16,1.86-1.54,2.97C166.23,257.43,165.93,259.92,165.95,262.38z M161.95,262.38
		c0.06-2.86,0.46-5.73,1.52-8.5c0.54-1.38,1.24-2.74,2.3-3.99c0.52-0.63,1.19-1.2,1.97-1.68c0.8-0.47,1.79-0.76,2.81-0.77
		c1.02,0.04,1.99,0.36,2.77,0.84c0.76,0.5,1.4,1.08,1.88,1.72c1,1.26,1.64,2.63,2.12,4c0.95,2.75,1.3,5.58,1.33,8.39
		c0.02,2.81-0.28,5.65-1.18,8.45c-0.47,1.39-1.08,2.79-2.09,4.09c-0.5,0.65-1.15,1.26-1.94,1.77c-0.81,0.51-1.82,0.84-2.89,0.89
		c-1.07-0.02-2.1-0.34-2.93-0.83c-0.8-0.5-1.49-1.1-2.01-1.74c-1.07-1.28-1.76-2.67-2.29-4.07
		C162.3,268.12,161.95,265.24,161.95,262.38z"/>
	<path class="st4" d="M227.55,265.68c0.03,2.46,0.39,4.94,1.23,7.13c0.39,1.09,0.92,2.12,1.55,2.89c0.31,0.4,0.65,0.68,0.96,0.89
		c0.32,0.19,0.6,0.25,0.86,0.29c0.27-0.01,0.56-0.05,0.9-0.23c0.33-0.2,0.7-0.47,1.03-0.87c0.69-0.75,1.29-1.77,1.75-2.86
		c0.46-1.1,0.82-2.29,1.06-3.51c0.21-1.23,0.33-2.48,0.37-3.73c-0.01-1.26-0.1-2.51-0.29-3.75c-0.21-1.23-0.54-2.43-0.98-3.55
		c-0.44-1.12-1.02-2.17-1.72-2.96c-0.34-0.41-0.73-0.7-1.09-0.92c-0.37-0.2-0.7-0.26-1.02-0.27c-0.32,0.04-0.63,0.13-0.98,0.34
		c-0.34,0.24-0.69,0.54-1.01,0.96c-0.64,0.81-1.16,1.86-1.54,2.97C227.83,260.73,227.53,263.22,227.55,265.68z M223.55,265.68
		c0.06-2.86,0.46-5.73,1.52-8.5c0.54-1.38,1.24-2.74,2.3-3.99c0.52-0.63,1.19-1.2,1.97-1.68c0.8-0.47,1.79-0.76,2.81-0.77
		c1.02,0.04,1.99,0.36,2.77,0.84c0.76,0.5,1.4,1.08,1.88,1.72c1,1.26,1.64,2.63,2.12,4c0.95,2.75,1.3,5.58,1.33,8.39
		c0.02,2.81-0.28,5.65-1.18,8.45c-0.47,1.39-1.08,2.79-2.09,4.09c-0.5,0.65-1.15,1.26-1.94,1.77c-0.81,0.51-1.82,0.84-2.89,0.89
		c-1.07-0.02-2.1-0.34-2.93-0.83c-0.8-0.5-1.49-1.1-2.01-1.74c-1.07-1.28-1.76-2.67-2.29-4.07
		C223.9,271.42,223.55,268.54,223.55,265.68z"/>
	<g>
		<path class="st9" d="M712.74,235.19c0,0-2.92-10.75-7.64-19.99c-4.71-9.25,4.34-11.77,9.05-2.52c6.05-6.1,13.82-6.52,8.48,4.05
			C717.29,227.31,712.74,235.19,712.74,235.19z"/>
		<path class="st9" d="M712.74,237.19c-0.09,0-0.17-0.01-0.26-0.02c-0.8-0.1-1.46-0.68-1.67-1.46c-0.03-0.11-2.93-10.66-7.49-19.61
			c-2.99-5.86-1.17-9.41,1.29-10.66c1.75-0.89,3.96-0.73,6.07,0.45c1.46,0.82,2.8,2.07,3.94,3.68c3.33-2.66,7.42-4.28,10.05-2.38
			c1.68,1.21,3,4-0.25,10.44c-5.31,10.5-9.9,18.48-9.95,18.56C714.11,236.82,713.45,237.19,712.74,237.19z M707.06,208.88
			c-0.27,0-0.48,0.05-0.64,0.13c-0.86,0.44-0.99,2.44,0.46,5.28c2.88,5.66,5.09,11.79,6.41,15.83c1.83-3.31,4.58-8.4,7.56-14.29
			c1.85-3.66,1.63-5.19,1.47-5.4c-0.45-0.29-3.36,0.25-6.75,3.66c-0.45,0.46-1.09,0.67-1.73,0.57c-0.63-0.1-1.18-0.5-1.47-1.07
			c-0.99-1.95-2.29-3.44-3.64-4.2C708.07,209.02,707.5,208.88,707.06,208.88z"/>
	</g>
	<g>
		<path class="st9" d="M279.55,232.86c0,0-4.75-10.07-10.99-18.36c-6.25-8.29,2.23-12.34,8.48-4.05c4.9-7.05,12.48-8.82,9.05,2.52
			C282.67,224.3,279.55,232.86,279.55,232.86z"/>
		<path class="st9" d="M279.55,234.86c-0.77,0-1.48-0.45-1.81-1.15c-0.05-0.1-4.74-9.99-10.78-18.01
			c-3.96-5.25-2.79-9.06-0.58-10.72c2.44-1.84,6.73-1.48,10.58,2.33c2.82-3.2,6.56-5.51,9.48-4.09c1.86,0.9,3.65,3.42,1.56,10.33
			c-3.4,11.27-6.55,19.92-6.58,20c-0.28,0.76-0.98,1.28-1.79,1.31C279.61,234.86,279.58,234.86,279.55,234.86z M269.8,207.91
			c-0.44,0-0.79,0.1-1.01,0.26c-0.77,0.58-0.55,2.57,1.37,5.12c3.82,5.07,7.06,10.73,9.06,14.48c1.23-3.58,3.05-9.07,4.96-15.39
			c1.19-3.93,0.71-5.4,0.51-5.58c-0.49-0.21-3.26,0.82-6.01,4.78c-0.37,0.53-0.96,0.85-1.6,0.86c-0.65,0-1.25-0.28-1.63-0.8
			C273.31,208.81,271.12,207.91,269.8,207.91z"/>
	</g>
	<g>
		<path class="st2" d="M356.11,393.28h-36.96c0,0,5.84-120.85,17.31-120.85C347.93,272.43,356.11,393.28,356.11,393.28z"/>
		<path class="st2" d="M356.11,395.28h-36.96c-0.55,0-1.07-0.22-1.45-0.62c-0.38-0.4-0.58-0.93-0.55-1.48
			c0.01-0.3,1.5-30.6,4.36-60.52c5.24-54.69,10.28-62.23,14.95-62.23c4.65,0,9.82,7.54,16.11,62.2c3.44,29.91,5.51,60.21,5.53,60.52
			c0.04,0.55-0.16,1.1-0.53,1.5C357.19,395.05,356.66,395.28,356.11,395.28z M321.25,391.28h32.71c-0.52-7.25-2.38-31.87-5.18-56.58
			c-6.1-53.73-11.15-59.61-12.32-60.23c-1.16,0.65-6.08,6.61-11.13,60.29C323,359.48,321.63,384.08,321.25,391.28z"/>
	</g>
	<g>
		<path class="st0" d="M249.75,399.88H216.5c0,0,5.25-113.15,15.57-113.15S249.75,399.88,249.75,399.88z"/>
		<path class="st0" d="M249.75,400.88H216.5c-0.27,0-0.53-0.11-0.72-0.31c-0.19-0.2-0.29-0.46-0.28-0.74
			c0.01-0.28,1.34-28.63,3.92-56.62c4.69-50.95,9.22-57.48,12.65-57.48c3.42,0,8.07,6.53,13.7,57.46
			c3.09,27.99,4.95,56.34,4.97,56.62c0.02,0.28-0.08,0.55-0.27,0.75C250.29,400.76,250.03,400.88,249.75,400.88z M217.55,398.88
			h31.13c-0.37-5.42-2.14-30.59-4.89-55.47c-1.81-16.39-3.69-29.45-5.58-38.8c-3.24-16.06-5.68-16.88-6.13-16.88
			C227.49,287.73,220.83,329.28,217.55,398.88z"/>
	</g>
	<g>
		<path class="st2" d="M691.95,402.08H647.7c0,0,6.99-112.05,20.72-112.05S691.95,402.08,691.95,402.08z"/>
		<path class="st2" d="M691.95,404.08H647.7c-0.55,0-1.08-0.23-1.46-0.63c-0.38-0.4-0.57-0.94-0.54-1.49
			c0.02-0.28,1.79-28.39,5.22-56.14c2.02-16.34,4.22-29.38,6.52-38.75c3.24-13.16,6.62-19.03,10.97-19.03
			c4.32,0,7.84,5.85,11.4,18.98c2.54,9.37,5.06,22.41,7.49,38.75c4.13,27.75,6.6,55.86,6.63,56.14c0.05,0.56-0.14,1.11-0.52,1.53
			C693.04,403.84,692.51,404.08,691.95,404.08z M649.84,400.08h39.92c-0.66-7.11-2.96-30.56-6.4-53.74
			c-7.85-52.78-14.23-54.3-14.93-54.3c-0.7,0-7,1.52-13.53,54.27C652.03,369.54,650.32,393.03,649.84,400.08z"/>
	</g>
	<g>
		<path class="st5" d="M776.06,399.88h-36.48c0,0,5.76-124.15,17.08-124.15C767.99,275.73,776.06,399.88,776.06,399.88z"/>
		<path class="st5" d="M776.06,401.88h-36.48c-0.55,0-1.07-0.22-1.45-0.62c-0.38-0.4-0.58-0.93-0.55-1.47
			c0.01-0.31,1.48-31.44,4.3-62.16c5.17-56.15,10.16-63.89,14.78-63.89c4.61,0,9.72,7.74,15.93,63.85
			c3.4,30.73,5.44,61.85,5.46,62.16c0.04,0.55-0.16,1.09-0.54,1.5C777.15,401.65,776.62,401.88,776.06,401.88z M741.69,397.88h32.24
			c-0.51-7.36-2.33-32.64-5.1-58.04c-5.95-54.64-10.92-61.26-12.15-62.05c-1.21,0.81-6.05,7.52-10.97,62.1
			C743.41,365.3,742.06,390.58,741.69,397.88z"/>
	</g>
	<path class="st4" d="M766.55,254.68c0,2.86-0.35,5.74-1.37,8.56c-0.53,1.4-1.22,2.78-2.29,4.07c-0.52,0.64-1.2,1.24-2.01,1.74
		c-0.83,0.49-1.86,0.81-2.93,0.83c-1.07-0.04-2.08-0.38-2.89-0.89c-0.78-0.51-1.44-1.12-1.94-1.77c-1.02-1.3-1.63-2.7-2.09-4.09
		c-0.9-2.8-1.19-5.63-1.18-8.45c0.03-2.81,0.38-5.63,1.33-8.39c0.48-1.37,1.12-2.74,2.12-4c0.49-0.63,1.13-1.22,1.88-1.72
		c0.78-0.49,1.75-0.8,2.77-0.84c1.02,0.01,2.01,0.31,2.81,0.77c0.78,0.48,1.45,1.06,1.97,1.68c1.06,1.25,1.76,2.61,2.3,3.99
		C766.09,248.95,766.49,251.82,766.55,254.68z M762.55,254.68c0.02-2.46-0.28-4.95-1.08-7.18c-0.38-1.11-0.9-2.16-1.54-2.97
		c-0.31-0.42-0.67-0.72-1.01-0.96c-0.34-0.22-0.66-0.3-0.98-0.34c-0.32,0.01-0.65,0.07-1.02,0.27c-0.36,0.22-0.75,0.51-1.09,0.92
		c-0.7,0.79-1.28,1.84-1.72,2.96c-0.44,1.12-0.77,2.32-0.98,3.55c-0.19,1.23-0.28,2.49-0.29,3.75c0.04,1.26,0.15,2.51,0.37,3.73
		c0.24,1.22,0.6,2.4,1.06,3.51c0.46,1.1,1.06,2.11,1.75,2.86c0.33,0.4,0.7,0.66,1.03,0.87c0.34,0.18,0.63,0.22,0.9,0.23
		c0.27-0.04,0.54-0.1,0.86-0.29c0.31-0.22,0.66-0.49,0.96-0.89c0.63-0.77,1.15-1.8,1.55-2.89
		C762.16,259.61,762.51,257.14,762.55,254.68z"/>
	<path class="st4" d="M829.25,337.18c0,2.86-0.35,5.74-1.37,8.56c-0.53,1.4-1.22,2.78-2.29,4.07c-0.52,0.64-1.2,1.24-2.01,1.74
		c-0.83,0.49-1.86,0.81-2.93,0.83c-1.07-0.04-2.08-0.38-2.89-0.89c-0.78-0.51-1.44-1.12-1.94-1.77c-1.02-1.3-1.63-2.7-2.09-4.09
		c-0.9-2.8-1.19-5.63-1.18-8.45c0.03-2.81,0.38-5.63,1.33-8.39c0.48-1.37,1.12-2.74,2.12-4c0.49-0.63,1.13-1.22,1.88-1.72
		c0.78-0.49,1.75-0.8,2.77-0.84c1.02,0.01,2.01,0.31,2.81,0.77c0.78,0.48,1.45,1.06,1.97,1.68c1.06,1.25,1.76,2.61,2.3,3.99
		C828.79,331.45,829.19,334.32,829.25,337.18z M825.25,337.18c0.02-2.46-0.28-4.95-1.08-7.18c-0.38-1.11-0.9-2.16-1.54-2.97
		c-0.31-0.42-0.67-0.72-1.01-0.96c-0.34-0.22-0.66-0.3-0.98-0.34c-0.32,0.01-0.65,0.07-1.02,0.27c-0.36,0.22-0.75,0.51-1.09,0.92
		c-0.7,0.79-1.28,1.84-1.72,2.96c-0.44,1.12-0.77,2.32-0.98,3.55c-0.19,1.23-0.28,2.49-0.29,3.75c0.04,1.26,0.15,2.51,0.37,3.73
		c0.24,1.22,0.6,2.4,1.06,3.51c0.46,1.1,1.06,2.11,1.75,2.86c0.33,0.4,0.7,0.66,1.03,0.87c0.34,0.18,0.63,0.22,0.9,0.23
		c0.27-0.04,0.54-0.1,0.86-0.29c0.31-0.22,0.66-0.49,0.96-0.89c0.63-0.77,1.15-1.8,1.55-2.89
		C824.86,342.11,825.21,339.64,825.25,337.18z"/>
	<path class="st4" d="M344.15,250.28c0,2.86-0.35,5.74-1.37,8.56c-0.53,1.4-1.22,2.78-2.29,4.07c-0.52,0.64-1.2,1.24-2.01,1.74
		c-0.83,0.49-1.86,0.81-2.93,0.83c-1.07-0.04-2.08-0.38-2.89-0.89c-0.78-0.51-1.44-1.12-1.94-1.77c-1.02-1.3-1.63-2.7-2.09-4.09
		c-0.9-2.8-1.19-5.63-1.18-8.45c0.03-2.81,0.38-5.63,1.33-8.39c0.48-1.37,1.12-2.74,2.12-4c0.49-0.63,1.13-1.22,1.88-1.72
		c0.78-0.49,1.75-0.8,2.77-0.84c1.02,0.01,2.01,0.31,2.81,0.77c0.78,0.48,1.45,1.06,1.97,1.68c1.06,1.25,1.76,2.61,2.3,3.99
		C343.69,244.55,344.09,247.42,344.15,250.28z M340.15,250.28c0.02-2.46-0.28-4.95-1.08-7.18c-0.38-1.11-0.9-2.16-1.54-2.97
		c-0.31-0.42-0.67-0.72-1.01-0.96c-0.34-0.22-0.66-0.3-0.98-0.34c-0.32,0.01-0.65,0.07-1.02,0.27c-0.36,0.22-0.75,0.51-1.09,0.92
		c-0.7,0.79-1.28,1.84-1.72,2.96c-0.44,1.12-0.77,2.32-0.98,3.55c-0.19,1.23-0.28,2.49-0.29,3.75c0.04,1.26,0.15,2.51,0.37,3.73
		c0.24,1.22,0.6,2.4,1.06,3.51c0.46,1.1,1.06,2.11,1.75,2.86c0.33,0.4,0.7,0.66,1.03,0.87c0.34,0.18,0.63,0.22,0.9,0.23
		c0.27-0.04,0.54-0.1,0.86-0.29c0.31-0.22,0.66-0.49,0.96-0.89c0.63-0.77,1.15-1.8,1.55-2.89
		C339.76,255.21,340.11,252.74,340.15,250.28z"/>
	<path class="st4" d="M662.05,268.98c0.03,2.46,0.39,4.94,1.23,7.13c0.39,1.09,0.92,2.12,1.55,2.89c0.31,0.4,0.65,0.68,0.96,0.89
		c0.32,0.19,0.6,0.25,0.86,0.29c0.27-0.01,0.56-0.05,0.9-0.23c0.33-0.2,0.7-0.47,1.03-0.87c0.69-0.75,1.29-1.77,1.75-2.86
		c0.46-1.1,0.82-2.29,1.06-3.51c0.21-1.23,0.33-2.48,0.37-3.73c-0.01-1.26-0.1-2.51-0.29-3.75c-0.21-1.23-0.54-2.43-0.98-3.55
		c-0.44-1.12-1.02-2.17-1.72-2.96c-0.34-0.41-0.73-0.7-1.09-0.92c-0.37-0.2-0.7-0.26-1.02-0.27c-0.32,0.04-0.63,0.13-0.98,0.34
		c-0.34,0.24-0.69,0.54-1.01,0.96c-0.64,0.81-1.16,1.86-1.54,2.97C662.33,264.03,662.03,266.52,662.05,268.98z M658.05,268.98
		c0.06-2.86,0.46-5.73,1.52-8.5c0.54-1.38,1.24-2.74,2.3-3.99c0.52-0.63,1.19-1.2,1.97-1.68c0.8-0.47,1.79-0.76,2.81-0.77
		c1.02,0.04,1.99,0.36,2.77,0.84c0.76,0.5,1.4,1.08,1.88,1.72c1,1.26,1.64,2.63,2.12,4c0.95,2.75,1.3,5.58,1.33,8.39
		c0.02,2.81-0.28,5.65-1.18,8.45c-0.47,1.39-1.08,2.79-2.09,4.09c-0.5,0.65-1.15,1.26-1.94,1.77c-0.81,0.51-1.82,0.84-2.89,0.89
		c-1.07-0.02-2.1-0.34-2.93-0.83c-0.8-0.5-1.49-1.1-2.01-1.74c-1.07-1.28-1.76-2.67-2.29-4.07
		C658.4,274.72,658.05,271.84,658.05,268.98z"/>
	<path class="st4" d="M165.95,262.38c0.04,2.46,0.39,4.94,1.23,7.13c0.39,1.09,0.92,2.12,1.55,2.89c0.31,0.4,0.65,0.68,0.96,0.89
		c0.32,0.19,0.6,0.25,0.86,0.29c0.27-0.01,0.56-0.05,0.9-0.23c0.33-0.2,0.7-0.47,1.03-0.87c0.69-0.75,1.29-1.77,1.75-2.86
		c0.46-1.1,0.82-2.29,1.06-3.51c0.21-1.23,0.33-2.48,0.37-3.73c-0.01-1.26-0.1-2.51-0.29-3.75c-0.21-1.23-0.54-2.43-0.98-3.55
		c-0.44-1.12-1.02-2.17-1.72-2.96c-0.34-0.41-0.73-0.7-1.09-0.92c-0.37-0.2-0.7-0.26-1.02-0.27c-0.32,0.04-0.63,0.13-0.98,0.34
		c-0.34,0.24-0.69,0.54-1.01,0.96c-0.64,0.81-1.16,1.86-1.54,2.97C166.23,257.43,165.93,259.92,165.95,262.38z M161.95,262.38
		c0.06-2.86,0.46-5.73,1.52-8.5c0.54-1.38,1.24-2.74,2.3-3.99c0.52-0.63,1.19-1.2,1.97-1.68c0.8-0.47,1.79-0.76,2.81-0.77
		c1.02,0.04,1.99,0.36,2.77,0.84c0.76,0.5,1.4,1.08,1.88,1.72c1,1.26,1.64,2.63,2.12,4c0.95,2.75,1.3,5.58,1.33,8.39
		c0.02,2.81-0.28,5.65-1.18,8.45c-0.47,1.39-1.08,2.79-2.09,4.09c-0.5,0.65-1.15,1.26-1.94,1.77c-0.81,0.51-1.82,0.84-2.89,0.89
		c-1.07-0.02-2.1-0.34-2.93-0.83c-0.8-0.5-1.49-1.1-2.01-1.74c-1.07-1.28-1.76-2.67-2.29-4.07
		C162.3,268.12,161.95,265.24,161.95,262.38z"/>
	<path class="st4" d="M227.55,265.68c0.03,2.46,0.39,4.94,1.23,7.13c0.39,1.09,0.92,2.12,1.55,2.89c0.31,0.4,0.65,0.68,0.96,0.89
		c0.32,0.19,0.6,0.25,0.86,0.29c0.27-0.01,0.56-0.05,0.9-0.23c0.33-0.2,0.7-0.47,1.03-0.87c0.69-0.75,1.29-1.77,1.75-2.86
		c0.46-1.1,0.82-2.29,1.06-3.51c0.21-1.23,0.33-2.48,0.37-3.73c-0.01-1.26-0.1-2.51-0.29-3.75c-0.21-1.23-0.54-2.43-0.98-3.55
		c-0.44-1.12-1.02-2.17-1.72-2.96c-0.34-0.41-0.73-0.7-1.09-0.92c-0.37-0.2-0.7-0.26-1.02-0.27c-0.32,0.04-0.63,0.13-0.98,0.34
		c-0.34,0.24-0.69,0.54-1.01,0.96c-0.64,0.81-1.16,1.86-1.54,2.97C227.83,260.73,227.53,263.22,227.55,265.68z M223.55,265.68
		c0.06-2.86,0.46-5.73,1.52-8.5c0.54-1.38,1.24-2.74,2.3-3.99c0.52-0.63,1.19-1.2,1.97-1.68c0.8-0.47,1.79-0.76,2.81-0.77
		c1.02,0.04,1.99,0.36,2.77,0.84c0.76,0.5,1.4,1.08,1.88,1.72c1,1.26,1.64,2.63,2.12,4c0.95,2.75,1.3,5.58,1.33,8.39
		c0.02,2.81-0.28,5.65-1.18,8.45c-0.47,1.39-1.08,2.79-2.09,4.09c-0.5,0.65-1.15,1.26-1.94,1.77c-0.81,0.51-1.82,0.84-2.89,0.89
		c-1.07-0.02-2.1-0.34-2.93-0.83c-0.8-0.5-1.49-1.1-2.01-1.74c-1.07-1.28-1.76-2.67-2.29-4.07
		C223.9,271.42,223.55,268.54,223.55,265.68z"/>
	<g>
		<path class="st5" d="M191.2,404.28h-39.36c0,0,6.22-119.75,18.43-119.75C182.5,284.53,191.2,404.28,191.2,404.28z"/>
		<path class="st5" d="M191.2,406.28h-39.36c-0.55,0-1.07-0.23-1.45-0.62c-0.38-0.4-0.58-0.93-0.55-1.48
			c0.02-0.3,1.59-30.33,4.64-59.97c1.8-17.45,3.75-31.36,5.79-41.36c2.92-14.24,5.91-20.31,9.99-20.31c2.87,0,6.34,2.41,10.37,20.27
			c2.26,10,4.5,23.91,6.65,41.36c3.67,29.64,5.87,59.67,5.89,59.97c0.04,0.55-0.15,1.1-0.53,1.51
			C192.29,406.05,191.76,406.28,191.2,406.28z M153.96,402.28h35.08c-0.56-7.29-2.57-32.01-5.59-56.68
			c-6.89-56.17-12.57-58.94-13.19-59.07c-0.58,0.14-6.19,3.03-11.9,59.13C155.86,370.34,154.37,395.05,153.96,402.28z"/>
	</g>
	<g>
		<path class="st6" d="M821.99,356.59c10.68,0.95,15.78,51.65,15.78,51.65l-26.19,1.08C811.58,409.33,811.32,355.64,821.99,356.59z"
			/>
		<path class="st6" d="M811.58,411.33c-0.51,0-1.01-0.2-1.38-0.55c-0.39-0.38-0.62-0.89-0.62-1.44c-0.02-4.63,0.02-45.49,8.41-53.21
			c1.56-1.43,3.12-1.62,4.18-1.53l0,0c3.5,0.31,8.73,3.53,13.67,27.78c2.6,12.75,3.9,25.54,3.92,25.67
			c0.05,0.55-0.12,1.09-0.48,1.51s-0.88,0.67-1.43,0.69l-26.19,1.08C811.64,411.32,811.61,411.33,811.58,411.33z M821.71,358.58
			c-0.24,0-0.56,0.08-1.01,0.5c-5.13,4.72-7.05,31.18-7.12,48.17l21.98-0.91c-2.51-22.99-8.34-47.27-13.75-47.75
			C821.79,358.58,821.75,358.58,821.71,358.58z"/>
	</g>
	<path class="st4" d="M759.59,298.68c-0.58,1.09-1.14,2.01-1.78,2.94c-0.61,0.94-1.28,1.82-1.94,2.72c-1.38,1.74-2.83,3.41-4.38,5
		c-3.09,3.17-6.56,5.97-10.28,8.36c-3.75,2.34-7.69,4.4-11.86,5.8c-2.05,0.8-4.2,1.3-6.31,1.86c-1.05,0.3-2.15,0.42-3.22,0.61
		c-1.08,0.18-2.16,0.34-3.23,0.5c-0.55,0.08-1.05-0.3-1.13-0.85c-0.07-0.5,0.24-0.97,0.72-1.1l0.07-0.02
		c4.07-1.14,8.11-2.28,11.89-4.05c3.84-1.61,7.45-3.71,10.84-6.08c3.44-2.3,6.56-5.06,9.45-8.01c1.45-1.47,2.81-3.03,4.1-4.63
		c1.28-1.58,2.52-3.32,3.53-4.93l0.07-0.11c0.58-0.94,1.82-1.22,2.75-0.64C759.78,296.6,760.08,297.76,759.59,298.68z"/>
	<path class="st15" d="M777.67,401.38c0.42-0.44,0.63-1.04,0.59-1.65c-0.02-0.31-2.06-31.44-5.46-62.17
		c-2-18.08-4.07-32.51-6.17-42.87c-3.54-17.56-6.55-21.16-9.96-21.16c-0.58,0-1.13,0.13-1.65,0.38c2.01,2.83-1.01,6.46-0.94,10.17
		c0.1,4.93,4,7.5,5.65,11.75c1.89,4.89-3.22,8-3.77,12.57c-0.18,1.47,0.13,2.66,1.22,3.76c2,2.01,3.86,1.84,3.57,5.6
		c-0.36,4.58-2.92,8.78-3.76,13.27c-1.08,5.75-0.93,11.93,1.07,17.43c2.17,5.97,1.47,8.78-0.42,14.76
		c-0.54,1.72-1.19,3.54-0.76,5.37c0.67,2.84,3.35,4.57,4.07,7.47c1.5,6.11-2.41,11.88-2.5,17.9c-0.04,2.64,0.84,5.44,1.97,8.11
		h15.65C776.67,402.08,777.25,401.83,777.67,401.38z"/>
	<path class="st3" d="M673.57,404.28c0.2-2.09,0.25-4.16-0.04-6.17c-0.54-3.72-2.09-6.27-1.08-10.16c0.86-3.28,2.47-6.31,3.08-9.67
		c1.08-6.02-1.62-8.52-4.05-13.41c-2.92-5.88,2.12-14.65,1.96-21.07c-0.09-3.56-1.14-7.04-0.67-10.62c0.47-3.58,2-6.96,2.56-10.53
		c0.88-5.51-0.07-10.35-3.97-14.39c-2.46-2.55-4.46-3.68-2.58-7.42c1.17-2.34,3.02-4.22,3.92-6.72c0.39-1.08,0.66-2.19,0.72-3.31
		c-1.57-2.02-3.21-2.99-5-2.99c-5.21,0-11.38,6.89-17.69,57.95c-3.43,27.76-5.21,55.88-5.22,56.16c-0.04,0.61,0.18,1.2,0.59,1.64
		c0.42,0.44,1,0.69,1.6,0.69H673.57z"/>
	<path class="st7" d="M822.19,354.4c-0.91-0.08-2.19,0.05-3.52,0.95c0.07,0.04,0.14,0.09,0.22,0.12c-0.71,4.43,2.35,8.15,4.42,12.27
		c1.13,2.25,1.7,3.97,1.11,6.52c-0.35,1.53-0.98,2.04-0.85,3.67c0.28,3.36,2.32,3.11,4.26,4.79c1.3,1.12,0.84,2.2,0.19,4.17
		c-0.67,2.02-1.77,3.88-2.42,5.92c-0.94,2.98-0.96,5.14,0.74,7.7c1.45,2.19,2.87,2.21,2.74,5.4c-0.07,1.66-0.45,3.24-0.45,4.89
		l9.22-0.38c0.6-0.02,1.17-0.3,1.57-0.76s0.59-1.06,0.53-1.66c-0.01-0.13-1.32-12.93-3.92-25.69
		C831.07,357.96,825.76,354.72,822.19,354.4z"/>
	<path class="st15" d="M171.62,398.85c-0.87-7.94,4.08-14.56,4.22-22.31c0.04-2.24-0.43-4.06-1.63-5.96
		c-0.69-1.1-1.85-2.08-2.3-3.32c-0.74-2.07,0.19-5.22,0.77-7.17c1.96-6.65,5.47-13.84,3.1-20.91c-1-2.98-4.26-4.35-5.17-7.11
		c-1.11-3.34,2.87-8.75,4.1-11.62c2.1-4.9,2.26-8.56-0.82-12.84c-5.18-7.2,3.1-12.83,0.9-20.15c-0.58-1.92-1.52-2.59-3.22-3.43
		c-0.65-0.32-1.82-0.08-2.23-0.88c-0.09-0.18-0.08-0.44,0-0.72c-4.73,1.01-9.8,10.77-15.05,61.75c-3.05,29.65-4.63,59.69-4.64,59.99
		c-0.03,0.6,0.19,1.19,0.6,1.63c0.41,0.44,0.99,0.69,1.6,0.69h20.95C172.35,403.97,171.9,401.44,171.62,398.85z"/>
	<path class="st1" d="M237.35,383.42c0.04-2.96,0.33-5.93,0.5-8.88c0.18-2.97,0.43-6,0.3-8.98c-0.16-3.71-1.47-7.32-1.51-11.02
		c-0.05-5.05,3.08-8.81,1.11-13.89c-0.8-2.07-2.15-3.74-2.64-5.95c-0.94-4.21-0.1-9.67,0.3-13.9c0.57-5.87,2.08-12.06,0.04-17.78
		c-1.71-4.8-3.51-7.68-2.52-12.89c0.24-1.27,0.56-2.73,0.63-4.16c-0.59-0.34-1.09-0.34-1.49-0.34c-2.23,0-7.45,0-12.75,57.57
		c-2.58,27.99-3.91,56.34-3.92,56.62c-0.01,0.3,0.1,0.59,0.3,0.81c0.21,0.22,0.5,0.34,0.8,0.34h19.62c1.04-2.98,2.15-5.95,2.05-9.16
		C238.09,388.97,237.31,386.31,237.35,383.42z"/>
	<path class="st3" d="M356.11,395.48c0.61,0,1.19-0.25,1.61-0.7c0.42-0.44,0.63-1.04,0.59-1.65c-0.02-0.3-2.09-30.61-5.53-60.53
		c-2.03-17.61-4.13-31.65-6.25-41.74c-3.81-18.13-7.09-20.63-10.06-20.63c-1.34,0-2.54,0.65-3.64,2.02c0.38,1,0.88,2.02,1.4,3.11
		c2.73,5.68-1.68,11.59-0.28,17.65c0.47,2.04,1.47,3.44,2.65,5.09c2.09,2.92,2.81,4.72,2.57,8.41c-0.38,5.84-0.76,12.14-1.49,17.92
		c-0.82,6.43-2.87,12.82-2.71,19.36c0.15,6.25,3.87,11.54,3.4,17.85c-0.19,2.52-0.78,4.99-0.58,7.54c0.19,2.47,1.23,4.67,1.62,7.09
		c0.95,5.89,0.61,13.1-0.37,19.2H356.11z"/>
	<path class="st4" d="M339.5,296.71c-0.58,1.58-1.19,2.98-1.88,4.41c-0.68,1.42-1.41,2.81-2.17,4.18c-1.54,2.73-3.27,5.36-5.13,7.89
		c-1.86,2.53-3.91,4.93-6.12,7.18c-2.2,2.25-4.55,4.37-7.07,6.27c-5.02,3.84-10.7,6.81-16.7,8.75c-6.01,1.91-12.33,2.69-18.54,2.47
		c-0.55-0.02-0.98-0.48-0.96-1.04c0.02-0.51,0.42-0.92,0.91-0.96l0.03,0c3-0.27,5.99-0.54,8.9-1.2c2.93-0.55,5.78-1.42,8.55-2.46
		c2.78-1.02,5.44-2.32,8.02-3.76c2.57-1.46,4.97-3.19,7.3-4.99c4.66-3.65,8.66-8.07,12.23-12.81c1.78-2.38,3.39-4.88,4.89-7.44
		c1.5-2.54,2.88-5.27,3.98-7.87l0.04-0.08c0.43-1.02,1.6-1.49,2.62-1.06C339.39,294.6,339.86,295.72,339.5,296.71z"/>
	<path class="st4" d="M830.8,371.46c0.53,1.06,1.17,2.31,1.89,3.41c0.7,1.13,1.47,2.22,2.26,3.29c1.62,2.11,3.45,4.04,5.48,5.71
		c1,0.87,2.11,1.57,3.2,2.32c0.56,0.34,1.15,0.63,1.73,0.96c0.29,0.16,0.57,0.33,0.87,0.47l0.91,0.38c2.4,1.17,5.03,1.74,7.72,2.33
		l0.1,0.02c0.54,0.12,0.88,0.65,0.76,1.19c-0.1,0.46-0.51,0.78-0.96,0.79c-2.92,0.06-5.96-0.12-8.82-1.11l-1.08-0.33
		c-0.36-0.13-0.69-0.29-1.04-0.43c-0.69-0.3-1.4-0.59-2.07-0.93l-1.97-1.13c-0.67-0.36-1.24-0.86-1.86-1.29
		c-2.43-1.8-4.58-3.94-6.4-6.33c-0.9-1.2-1.74-2.44-2.48-3.74c-0.37-0.65-0.72-1.31-1.05-1.99c-0.34-0.69-0.62-1.34-0.92-2.14
		c-0.38-1.03,0.14-2.18,1.18-2.57c0.96-0.36,2.03,0.08,2.48,0.97L830.8,371.46z"/>
</g>
<path class="st4" d="M442.53,297.54c-2.17,2.04-4.33,4.45-6.3,6.86c-2.01,2.42-3.85,4.97-5.59,7.59
	c-3.52,5.23-6.42,10.85-8.77,16.69c-2.34,5.86-3.94,11.99-4.93,18.24c-0.9,6.26-1.16,12.63-0.71,18.99l0,0.01
	c0.04,0.55-0.38,1.03-0.93,1.07c-0.53,0.04-0.99-0.35-1.06-0.87c-0.86-6.46-1.02-13.05-0.34-19.59c0.69-6.53,2.21-12.99,4.44-19.19
	c2.22-6.21,5.21-12.13,8.79-17.67c1.8-2.76,3.76-5.42,5.87-7.96c1.04-1.28,2.16-2.5,3.3-3.71c1.16-1.21,2.29-2.35,3.64-3.5
	c0.84-0.72,2.1-0.62,2.82,0.22c0.7,0.81,0.63,2.03-0.14,2.75L442.53,297.54z"/>
<path class="st4" d="M664.7,312.53c-0.45,0.46-0.98,1.02-1.45,1.56c-0.49,0.54-0.98,1.1-1.44,1.68c-0.96,1.12-1.82,2.34-2.74,3.51
	c-1.73,2.42-3.37,4.91-4.84,7.5c-1.52,2.57-2.84,5.25-4.08,7.96l-1.74,4.13l-1.49,4.23c-0.54,1.4-0.85,2.87-1.27,4.31
	c-0.39,1.45-0.83,2.88-1.07,4.36l-0.87,4.42c-0.25,1.48-0.38,2.98-0.58,4.47c-0.48,2.98-0.42,6-0.61,9.01l-0.06,1.13l0.03,1.13
	l0.07,2.27l0.15,4.54l0,0.08c0.02,0.55-0.41,1.01-0.97,1.03c-0.53,0.02-0.97-0.38-1.03-0.9l-0.45-4.62l-0.23-2.31l-0.11-1.16
	l-0.02-1.16c-0.02-3.1-0.18-6.22,0.15-9.32c0.13-1.55,0.19-3.11,0.37-4.66l0.72-4.62c0.2-1.55,0.6-3.06,0.96-4.58
	c0.38-1.51,0.65-3.06,1.17-4.54l1.4-4.48l1.72-4.37c1.25-2.87,2.59-5.71,4.14-8.44c1.52-2.75,3.28-5.35,5.11-7.91
	c0.97-1.25,1.92-2.5,2.97-3.68c0.51-0.6,1.04-1.19,1.59-1.77c0.55-0.59,1.09-1.13,1.74-1.73c0.81-0.75,2.07-0.71,2.82,0.09
	c0.73,0.78,0.71,2-0.03,2.76L664.7,312.53z"/>
<path class="st8" d="M546.21,97.96c-0.08,0.94-0.38,1.78-0.74,2.56c-0.37,0.79-0.84,1.51-1.37,2.18c-0.53,0.67-1.13,1.29-1.79,1.85
	c-0.68,0.54-1.39,1.05-2.26,1.39c-0.57,0.23-1.21-0.05-1.44-0.62c-0.1-0.24-0.1-0.5-0.03-0.73l0.01-0.02
	c0.26-0.87,0.64-1.6,1.03-2.31c0.4-0.7,0.85-1.37,1.32-2.01c0.48-0.64,0.99-1.25,1.57-1.81c0.58-0.57,1.21-1.11,2.01-1.56l0.02-0.01
	c0.54-0.3,1.23-0.11,1.53,0.43C546.19,97.52,546.23,97.75,546.21,97.96z"/>
<path class="st8" d="M496.84,13.37c4.51-1.09,9.21-0.82,13.77-0.05c1.14,0.21,2.25,0.54,3.38,0.8c1.12,0.3,2.27,0.5,3.34,0.94
	c2.18,0.79,4.4,1.49,6.46,2.57c4.27,1.85,8.11,4.53,11.77,7.37l2.58,2.34l1.29,1.17l1.18,1.28l2.35,2.58
	c0.73,0.9,1.41,1.85,2.11,2.77c5.54,7.47,9.02,16.41,10.18,25.6c0.56,4.59,0.68,9.25,0.11,13.84c-0.54,4.58-1.77,9.14-4.1,13.12
	c-0.27,0.46-0.86,0.61-1.32,0.34c-0.36-0.21-0.53-0.62-0.46-1l0-0.01c0.79-4.38,1.63-8.58,2.07-12.88
	c0.45-4.29,0.25-8.63-0.36-12.87l-0.52-3.18c-0.24-1.05-0.55-2.08-0.81-3.11c-0.46-2.1-1.32-4.08-2.04-6.09l-0.28-0.75l-0.35-0.72
	l-0.71-1.44c-0.49-0.95-0.89-1.95-1.46-2.86c-1.15-1.8-2.15-3.71-3.53-5.37c-0.65-0.85-1.26-1.73-1.93-2.56l-2.16-2.38l-1.08-1.19
	l-1.19-1.08l-2.37-2.17l-2.57-1.94l-1.28-0.97c-0.43-0.32-0.91-0.57-1.36-0.86l-2.73-1.69c-0.92-0.55-1.91-0.97-2.86-1.46
	c-1.89-1.03-3.93-1.7-5.94-2.47c-0.99-0.43-2.05-0.62-3.08-0.92c-1.04-0.26-2.07-0.59-3.12-0.8c-4.24-0.76-8.47-1.31-12.89-2.01
	l-0.02,0c-0.53-0.08-0.89-0.58-0.81-1.11C496.17,13.77,496.47,13.46,496.84,13.37z"/>
<path class="st8" d="M447.28,85.81c-1.91-3.36-2.95-7.13-3.43-10.94c-0.24-1.91-0.38-3.83-0.42-5.76c-0.01-1.92,0.09-3.85,0.17-5.78
	c0.63-7.69,2.93-15.24,6.58-22.05c3.78-6.74,8.92-12.72,15.04-17.42c3.14-2.24,6.37-4.38,9.89-5.95c3.43-1.73,7.2-2.84,11.07-3
	c0.56-0.02,1.04,0.41,1.06,0.98c0.02,0.39-0.19,0.75-0.51,0.93l-0.06,0.03c-3.27,1.86-6.6,3.03-9.78,4.7
	c-3.24,1.53-6.18,3.58-9.04,5.7c-5.54,4.49-10.27,9.97-13.7,16.21c-3.41,6.24-5.53,13.17-6.31,20.25c-0.11,1.78-0.23,3.56-0.27,5.35
	c0,1.79,0.1,3.57,0.28,5.35c0.17,1.78,0.41,3.55,0.64,5.34c0.24,1.79,0.51,3.57,0.71,5.43l0,0.02c0.06,0.56-0.35,1.06-0.91,1.12
	C447.86,86.36,447.47,86.15,447.28,85.81z"/>
<path class="st8" d="M534.08,111.49c-5.74,5.54-13.11,9.47-20.94,11.46c-7.83,2.04-16.11,2.32-24.09,0.82
	c-3.99-0.74-7.89-1.95-11.62-3.54c-3.72-1.63-7.25-3.66-10.52-6.05c-0.8-0.62-1.64-1.18-2.41-1.85l-2.3-1.97l-2.17-2.11
	c-0.73-0.7-1.38-1.48-2.05-2.23c-2.62-3.06-4.85-6.49-6.27-10.26c-0.2-0.52,0.07-1.11,0.59-1.3c0.41-0.15,0.86-0.02,1.13,0.29
	l0.01,0.02c2.5,2.97,4.88,5.87,7.47,8.6c0.67,0.66,1.27,1.38,1.97,2.01l2.06,1.92l2.18,1.78c0.72,0.6,1.51,1.1,2.26,1.66
	c3.08,2.13,6.35,3.96,9.78,5.45c3.45,1.44,7.05,2.49,10.71,3.24c7.33,1.41,14.99,1.33,22.29-0.4c7.32-1.71,14.21-4.92,20.66-9.08
	l0.01,0c0.47-0.3,1.09-0.17,1.39,0.3C534.49,110.63,534.42,111.16,534.08,111.49z"/>
<path class="st1" d="M499.64,108.7c-22.22,0-40.29-18.08-40.29-40.29s18.08-40.29,40.29-40.29s40.29,18.08,40.29,40.29
	S521.85,108.7,499.64,108.7z M499.64,32.12c-20.01,0-36.29,16.28-36.29,36.29s16.28,36.29,36.29,36.29s36.29-16.28,36.29-36.29
	S519.65,32.12,499.64,32.12z"/>
</svg>
