<?xml version="1.0" encoding="utf-8"?>
<!-- Generator: Adobe Illustrator 22.1.0, SVG Export Plug-In . SVG Version: 6.00 Build 0)  -->
<svg version="1.1" id="Vectors" xmlns="http://www.w3.org/2000/svg" xmlns:xlink="http://www.w3.org/1999/xlink" x="0px" y="0px"
	 width="700px" height="400px" viewBox="0 0 700 400" style="enable-background:new 0 0 700 400;" xml:space="preserve">
<style type="text/css">
	.st0{fill:#CDDAE8;}
	.st1{opacity:0.2;fill:#278BD6;}
	.st2{fill:#278BD6;}
	.st3{opacity:0.3;fill:#064E72;}
	.st4{fill:#2E3547;}
	.st5{fill:#4E5C75;}
	.st6{fill:#A0C2EC;}
	.st7{opacity:0.3;fill:#278BD6;}
	.st8{opacity:0.1;fill:#278BD6;}
	.st9{fill:#EF4B4B;}
	.st10{opacity:0.2;}
	.st11{fill:#FFFFFF;}
	.st12{opacity:0.1;}
	.st13{opacity:0.35;fill:#278BD6;}
	.st14{opacity:0.35;}
	.st15{opacity:0.3;fill:#2E3547;}
	.st16{fill:#FCD381;}
	.st17{opacity:0.35;fill:#FCD381;}
	.st18{opacity:0.3;fill:#FCD381;}
	.st19{fill:none;}
	.st20{display:none;fill:#EF4B4B;}
	.st21{fill:#F8C069;}
	.st22{fill:#E23537;}
	.st23{fill:#237BC9;}
</style>
<g>
	<path class="st1" d="M161.13,211.55c0.02-0.11,0.03-0.25,0.04-0.38c-0.46-0.32-0.96-0.51-1.48-0.51c-2.49,0-4.5,4.03-4.5,9
		s2.01,9,4.5,9c0.48,0,0.93-0.15,1.37-0.42c-0.18-1.31-0.52-2.66-1.07-4.08c-1.19-3.07-1.59-3.29-1.05-6.55
		C159.29,215.45,160.7,213.66,161.13,211.55z"/>
	<g>
		<g>
			<path class="st0" d="M340.81,112.91H215.93c-1.1,0-2-0.9-2-2s0.9-2,2-2h123.02l1.36-17.9c0.08-1.1,1.05-1.93,2.15-1.84
				c1.1,0.08,1.93,1.04,1.84,2.15l-1.5,19.75C342.72,112.1,341.86,112.91,340.81,112.91z"/>
			<path class="st0" d="M264.19,105.03l1.14-14.17c0.09-1.1,1.06-1.93,2.16-1.84c1.1,0.09,1.93,1.06,1.84,2.16
				c-0.01,0.09-0.02,0.19-0.04,0.28l-3.12,13.87c-0.12,0.54-0.66,0.88-1.2,0.76C264.48,105.97,264.15,105.52,264.19,105.03z"/>
			<path class="st0" d="M288.89,65.56l0.69-14.14c0.05-1.11,0.99-1.96,2.1-1.91s1.96,0.99,1.91,2.1c0,0.09-0.02,0.19-0.03,0.28
				l-2.67,13.9c-0.1,0.54-0.63,0.9-1.17,0.8C289.21,66.5,288.87,66.05,288.89,65.56z"/>
			<path class="st0" d="M360.25,65.66l-0.82-14.03c-0.06-1.11,0.78-2.05,1.88-2.12c1.11-0.06,2.05,0.78,2.12,1.88
				c0.01,0.09,0,0.2,0,0.29l-1.18,14.01c-0.05,0.55-0.53,0.96-1.08,0.91C360.66,66.56,360.28,66.15,360.25,65.66z"/>
			<path class="st0" d="M296.18,132.66h-86.25c-1.1,0-2-0.9-2-2s0.9-2,2-2h84.53l2.74-18.05c0.17-1.09,1.19-1.84,2.28-1.68
				c1.09,0.17,1.84,1.19,1.68,2.28l-3,19.75C298.01,131.94,297.17,132.66,296.18,132.66z"/>
			<path class="st0" d="M274.71,130.35l3.16-13.91c0.12-0.54,0.66-0.88,1.2-0.76c0.49,0.11,0.82,0.57,0.78,1.06l-1.19,14.22
				c-0.09,1.1-1.06,1.92-2.16,1.83c-1.1-0.09-1.92-1.06-1.83-2.16C274.67,130.54,274.69,130.44,274.71,130.35z"/>
			<path class="st0" d="M229.02,130.23l3.06-9.4c0.17-0.53,0.74-0.82,1.27-0.64c0.46,0.15,0.74,0.6,0.69,1.07l-1.11,9.83
				c-0.12,1.1-1.12,1.9-2.22,1.77c-1.1-0.12-1.9-1.12-1.77-2.22C228.95,130.5,228.98,130.36,229.02,130.23z"/>
			<path class="st0" d="M316.84,90.43l1.89-8.55c0.12-0.54,0.66-0.89,1.2-0.77c0.47,0.1,0.78,0.51,0.79,0.97l0.1,8.76
				c0.01,1.11-0.88,2.02-1.99,2.04c-1.11,0.01-2.02-0.88-2.04-1.99C316.79,90.74,316.81,90.58,316.84,90.43z"/>
			<path class="st0" d="M248.56,152.41h-44.62c-1.1,0-2-0.9-2-2s0.9-2,2-2h43.03l4.15-18.19c0.25-1.08,1.32-1.75,2.39-1.51
				c1.08,0.25,1.75,1.32,1.51,2.39l-4.5,19.75C250.3,151.76,249.49,152.41,248.56,152.41z"/>
			<path class="st0" d="M421.06,73.41H227.93c-1.1,0-2-0.9-2-2s0.9-2,2-2H418.9l-1.34-17.6c-0.08-1.1,0.74-2.06,1.84-2.15
				c1.09-0.08,2.06,0.74,2.15,1.84l1.5,19.75c0.04,0.56-0.15,1.1-0.53,1.51C422.15,73.18,421.62,73.41,421.06,73.41z"/>
			<path class="st0" d="M382.43,93.16h-160.5c-1.1,0-2-0.9-2-2s0.9-2,2-2h158.5V71.41c0-1.1,0.9-2,2-2s2,0.9,2,2v19.75
				C384.43,92.26,383.54,93.16,382.43,93.16z"/>
		</g>
	</g>
	<g>
		<path class="st11" d="M151.23,323.16c0,0,4.04,11.37-2.65,48.07"/>
		<path class="st4" d="M148.58,373.22c-0.12,0-0.24-0.01-0.36-0.03c-1.09-0.2-1.81-1.24-1.61-2.33c6.52-35.76,2.78-46.93,2.74-47.04
			c-0.37-1.04,0.17-2.18,1.21-2.55c1.04-0.37,2.18,0.17,2.55,1.21c0.17,0.48,4.14,12.29-2.57,49.09
			C150.37,372.55,149.53,373.22,148.58,373.22z"/>
	</g>
	<g>
		<path class="st11" d="M169.46,322.52c0,0,9.35,8.54,2.28,47.32"/>
		<path class="st4" d="M171.75,371.84c-0.12,0-0.24-0.01-0.36-0.03c-1.09-0.2-1.81-1.24-1.61-2.33c6.67-36.62-1.61-45.43-1.7-45.51
			c-0.77-0.77-0.8-2.03-0.04-2.81s1.97-0.84,2.78-0.11c1.04,0.95,9.96,10.41,2.9,49.15C173.54,371.16,172.7,371.84,171.75,371.84z"
			/>
	</g>
	<path class="st4" d="M159.69,256.8c-0.77,0-1.51-0.45-1.84-1.21c-0.44-1.01,0.03-2.19,1.04-2.63l0,0
		c0.19-0.08,19.1-8.62,21.44-32.72c0.11-1.1,1.08-1.92,2.18-1.8c1.1,0.11,1.9,1.08,1.8,2.18c-2.58,26.52-22.97,35.63-23.83,36
		C160.22,256.74,159.95,256.8,159.69,256.8z"/>
	<g>
		<polyline class="st11" points="211.45,300.14 181.3,189.85 174.63,191.68 218.93,354.78 		"/>
		<path class="st4" d="M210.48,300.41c-1.59-4.51-3.08-9.04-4.47-13.6c-1.41-4.55-2.74-9.13-4.04-13.71l-7.69-27.53
			c-2.59-9.17-5.04-18.38-7.56-27.57c-1.26-4.59-2.49-9.2-3.71-13.8l-3.64-13.82l2.46,1.4l-6.68,1.83l1.4-2.45l44.31,163.09
			c0.29,1.07-0.34,2.16-1.41,2.45c-1.07,0.29-2.16-0.34-2.45-1.41L172.7,192.21c-0.29-1.07,0.34-2.16,1.4-2.45l6.68-1.83
			c1.06-0.29,2.15,0.33,2.45,1.38l0.01,0.02l3.89,13.75c1.29,4.59,2.58,9.17,3.83,13.77c2.5,9.19,5.08,18.37,7.51,27.58l7.38,27.61
			c1.21,4.61,2.39,9.22,3.5,13.86c1.12,4.63,2.14,9.29,3.07,13.98c0.11,0.54-0.25,1.07-0.79,1.18
			C211.13,301.15,210.65,300.87,210.48,300.41z"/>
	</g>
	<g>
		<path class="st5" d="M175.43,323.16h-31.5c0,0,4.98-85.18,14.75-85.18C168.46,237.98,175.43,323.16,175.43,323.16z"/>
		<path class="st5" d="M175.43,325.16h-31.5c-0.55,0-1.08-0.23-1.46-0.63c-0.38-0.4-0.57-0.94-0.54-1.49
			c0.01-0.21,1.28-21.6,3.72-42.71c4.52-38.99,8.93-44.36,13.03-44.36c4.08,0,8.6,5.37,14.02,44.32c2.94,21.11,4.7,42.49,4.72,42.7
			c0.05,0.56-0.14,1.11-0.52,1.52C176.53,324.92,175.99,325.16,175.43,325.16z M146.06,321.16h27.19
			c-0.51-5.8-2.05-22.39-4.34-39.06c-5.18-37.83-9.47-41.7-10.23-42.09c-0.75,0.41-4.93,4.37-9.21,42.14
			C147.59,298.82,146.44,315.41,146.06,321.16z"/>
	</g>
	<path class="st4" d="M165.68,219.66c-0.03,1.96-0.16,3.94-0.77,5.95c-0.31,1-0.73,2.01-1.47,3c-0.36,0.48-0.85,0.96-1.46,1.36
		c-0.63,0.39-1.44,0.67-2.3,0.69c-0.86-0.01-1.68-0.27-2.32-0.65c-0.63-0.39-1.14-0.85-1.53-1.33c-0.8-0.96-1.29-1.96-1.68-2.96
		c-0.76-2.01-1.03-4.04-1.06-6.06c0.03-2.02,0.31-4.06,1.06-6.06c0.39-1,0.88-2,1.68-2.96c0.39-0.48,0.91-0.94,1.53-1.33
		c0.65-0.38,1.47-0.64,2.32-0.65c0.86,0.03,1.67,0.3,2.3,0.69c0.61,0.4,1.1,0.88,1.46,1.36c0.74,0.98,1.16,2,1.47,3
		C165.53,215.71,165.66,217.7,165.68,219.66z M162.68,219.66c-0.02-0.83-0.09-1.66-0.25-2.47c-0.18-0.8-0.44-1.57-0.75-2.28
		c-0.32-0.7-0.73-1.33-1.15-1.75c-0.2-0.23-0.41-0.35-0.56-0.44c-0.15-0.07-0.23-0.06-0.28-0.07c-0.05,0.03-0.12,0.03-0.26,0.11
		c-0.14,0.1-0.32,0.24-0.49,0.47c-0.36,0.44-0.69,1.09-0.94,1.78c-0.51,1.41-0.71,3.03-0.71,4.63c-0.01,1.6,0.2,3.23,0.71,4.63
		c0.25,0.7,0.58,1.34,0.94,1.78c0.18,0.24,0.36,0.37,0.49,0.47c0.14,0.08,0.21,0.08,0.26,0.11c0.05-0.01,0.13,0.01,0.28-0.07
		c0.15-0.09,0.36-0.21,0.56-0.44c0.42-0.42,0.83-1.05,1.15-1.75c0.32-0.7,0.58-1.48,0.75-2.28
		C162.6,221.32,162.67,220.49,162.68,219.66z"/>
	<path class="st4" d="M161.26,256.76c0.41,0.44,1.01,1.02,1.55,1.51c0.57,0.5,1.16,0.98,1.78,1.42c1.22,0.92,2.53,1.7,3.89,2.36
		c2.73,1.31,5.69,2.11,8.73,2.25c3.04,0.16,6.14-0.3,9.16-1.21c1.52-0.43,3-1.03,4.47-1.67c0.74-0.33,1.46-0.68,2.2-1.02
		c0.71-0.39,1.43-0.77,2.16-1.14l0.05-0.03c0.49-0.25,1.1-0.06,1.35,0.44c0.22,0.44,0.09,0.96-0.28,1.25
		c-0.67,0.52-1.35,1.03-2.05,1.53c-0.72,0.47-1.42,0.95-2.15,1.41c-1.49,0.85-3.02,1.67-4.64,2.32c-1.6,0.71-3.31,1.17-5.04,1.58
		c-1.74,0.36-3.53,0.54-5.33,0.55c-3.6-0.01-7.24-0.84-10.48-2.42c-1.62-0.79-3.17-1.73-4.6-2.82c-0.71-0.55-1.39-1.15-2.04-1.77
		c-0.67-0.64-1.24-1.24-1.89-2.08c-0.67-0.87-0.51-2.13,0.36-2.8c0.83-0.64,1.99-0.53,2.69,0.22L161.26,256.76z"/>
	<rect x="218.93" y="170.16" class="st11" width="327" height="210"/>
	<g class="st12">
		<path class="st2" d="M502.06,149.09c1.87,9.54,2.24,19.19,2.96,28.81l2.01,28.87l4,57.74l3.83,57.75l3.63,57.77
			c0.07,1.1-0.77,2.05-1.87,2.12c-1.1,0.07-2.04-0.76-2.12-1.86l-4.08-57.73l-3.88-57.75l-3.72-57.76l-1.85-28.88
			c-0.57-9.63-1.48-19.24-0.9-28.94c0.03-0.56,0.51-0.98,1.07-0.95C501.6,148.31,501.97,148.65,502.06,149.09z"/>
		<path class="st2" d="M460.06,149.09c1.87,9.54,2.24,19.19,2.96,28.81l2.01,28.87l4,57.74l3.83,57.75l3.63,57.77
			c0.07,1.1-0.77,2.05-1.87,2.12c-1.1,0.07-2.04-0.76-2.12-1.86l-4.08-57.73l-3.88-57.75l-3.72-57.76l-1.85-28.88
			c-0.57-9.63-1.48-19.24-0.9-28.94c0.03-0.56,0.51-0.98,1.07-0.95C459.6,148.31,459.97,148.65,460.06,149.09z"/>
		<path class="st2" d="M503.06,181.16h-42c-1.1,0-2-0.9-2-2s0.9-2,2-2h42c1.1,0,2,0.9,2,2S504.17,181.16,503.06,181.16z"/>
		<path class="st2" d="M505.26,214.16h-42c-1.1,0-2-0.9-2-2s0.9-2,2-2h42c1.1,0,2,0.9,2,2S506.37,214.16,505.26,214.16z"/>
		<path class="st2" d="M507.47,247.16h-42c-1.1,0-2-0.9-2-2s0.9-2,2-2h42c1.1,0,2,0.9,2,2S508.57,247.16,507.47,247.16z"/>
		<path class="st2" d="M509.67,280.16h-42c-1.1,0-2-0.9-2-2s0.9-2,2-2h42c1.1,0,2,0.9,2,2S510.77,280.16,509.67,280.16z"/>
		<path class="st2" d="M511.87,313.16h-42c-1.1,0-2-0.9-2-2s0.9-2,2-2h42c1.1,0,2,0.9,2,2S512.98,313.16,511.87,313.16z"/>
		<path class="st2" d="M514.08,346.16h-42c-1.1,0-2-0.9-2-2s0.9-2,2-2h42c1.1,0,2,0.9,2,2S515.18,346.16,514.08,346.16z"/>
	</g>
	<path class="st13" d="M218.93,180.32c5.2-0.53,10.38-1.29,15.62-1.46c8.47-0.29,16.95-0.36,25.43-0.42
		c17.82-0.13,35.63,0.14,53.43,0.75c17.33,0.6,34.64,1.72,51.96,2.35c16.31,0.59,32.61-0.26,48.9-0.96
		c16.69-0.72,33.5-1.3,50.21-1.2c16.98,0.11,33.94,2.63,50.88,3.67c10.15,0.62,20.37,1.73,30.57,1.62v-14.51h-327V180.32z"/>
	<path class="st4" d="M545.93,382.16h-327c-1.1,0-2-0.9-2-2v-210c0-1.1,0.9-2,2-2h327c1.1,0,2,0.9,2,2v210
		C547.93,381.26,547.04,382.16,545.93,382.16z M220.93,378.16h323v-206h-323V378.16z"/>
	<path class="st4" d="M434.9,364.1c-0.06,0-0.13,0-0.19-0.01c-1.1-0.1-1.91-1.08-1.8-2.18c2.89-30.63-1.69-39.86-1.74-39.95
		c-0.51-0.97-0.14-2.18,0.82-2.7c0.97-0.52,2.16-0.17,2.69,0.79c0.22,0.39,5.25,9.97,2.21,42.24
		C436.79,363.32,435.92,364.1,434.9,364.1z"/>
	<path class="st4" d="M420.69,362.6c-0.1,0-0.2-0.01-0.3-0.02c-1.09-0.17-1.84-1.19-1.68-2.28c4.32-28.4,0.18-38.39,0.14-38.49
		c-0.44-1.01,0.03-2.19,1.04-2.63c1.01-0.44,2.19,0.03,2.63,1.04c0.19,0.44,4.63,11.15,0.14,40.68
		C422.51,361.89,421.66,362.6,420.69,362.6z"/>
	<g class="st14">
		<path class="st2" d="M283.43,197.16v183h96v-183H283.43z M370.43,380H294V206.16h76.43V380z"/>
		<path class="st2" d="M379.44,381.16h-96c-0.55,0-1-0.45-1-1v-183c0-0.55,0.45-1,1-1h96c0.55,0,1,0.45,1,1v183
			C380.44,380.71,379.99,381.16,379.44,381.16z M371.44,379.16h7v-181h-94v181H293v-173c0-0.55,0.45-1,1-1h76.44c0.55,0,1,0.45,1,1
			V379.16z M295,379h74.44V207.16H295V379z"/>
	</g>
	<path class="st4" d="M370.43,382.29h-78c-1.18,0-2.13-0.96-2.13-2.13v-174c0-1.18,0.96-2.13,2.13-2.13h78
		c1.18,0,2.13,0.96,2.13,2.13v174C372.57,381.34,371.61,382.29,370.43,382.29z M294.57,378.02h73.73V208.29h-73.73V378.02z"/>
	<path class="st4" d="M565.02,170.74L529.45,53.66H235.42l-35.57,117.08l-3.83-1.16l36-118.5c0.26-0.84,1.03-1.42,1.91-1.42h297
		c0.88,0,1.66,0.58,1.91,1.42l36,118.5L565.02,170.74z"/>
	<path class="st4" d="M189.3,169.16c8.05-1.27,16.09-1,24.14-1.05l24.14-0.04l48.28-0.07l96.57-0.15l96.57,0.16l48.28,0.08
		l24.14,0.04l12.07,0.02c4.02-0.02,8.05,0.05,12.07,1c0.55,0.13,0.89,0.68,0.76,1.24c-0.09,0.39-0.4,0.68-0.76,0.76
		c-4.02,0.95-8.05,1.03-12.07,1l-12.07,0.02l-24.14,0.04L479,172.31l-96.57,0.16l-96.57-0.15l-48.28-0.07l-24.14-0.04
		c-8.05-0.05-16.09,0.22-24.14-1.05c-0.55-0.09-0.93-0.61-0.84-1.16C188.53,169.56,188.88,169.22,189.3,169.16z"/>
	<g>
		<path class="st4" d="M503.43,149.16c1.23,9.62,0.96,19.25,1.03,28.88l0.08,28.88l0.14,57.75l-0.02,57.75l-0.23,57.75
			c0,1.1-0.9,2-2.01,1.99c-1.1,0-1.99-0.9-1.99-1.99l-0.23-57.75l-0.02-57.75l0.14-57.75l0.08-28.88c0.07-9.62-0.2-19.25,1.03-28.88
			c0.07-0.55,0.58-0.94,1.13-0.87C503.03,148.34,503.38,148.71,503.43,149.16z"/>
		<path class="st4" d="M461.43,149.16c1.23,9.62,0.96,19.25,1.03,28.88l0.08,28.88l0.14,57.75l-0.02,57.75l-0.23,57.75
			c0,1.1-0.9,2-2.01,1.99c-1.1,0-1.99-0.9-1.99-1.99l-0.23-57.75l-0.02-57.75l0.14-57.75l0.08-28.88c0.07-9.62-0.2-19.25,1.03-28.88
			c0.07-0.55,0.58-0.94,1.13-0.87C461.03,148.34,461.38,148.71,461.43,149.16z"/>
		<path class="st4" d="M502.43,181.16h-42c-1.1,0-2-0.9-2-2s0.9-2,2-2h42c1.1,0,2,0.9,2,2S503.54,181.16,502.43,181.16z"/>
		<path class="st4" d="M502.43,214.16h-42c-1.1,0-2-0.9-2-2s0.9-2,2-2h42c1.1,0,2,0.9,2,2S503.54,214.16,502.43,214.16z"/>
		<path class="st4" d="M502.43,247.16h-42c-1.1,0-2-0.9-2-2s0.9-2,2-2h42c1.1,0,2,0.9,2,2S503.54,247.16,502.43,247.16z"/>
		<path class="st4" d="M502.43,280.16h-42c-1.1,0-2-0.9-2-2s0.9-2,2-2h42c1.1,0,2,0.9,2,2S503.54,280.16,502.43,280.16z"/>
		<path class="st4" d="M502.43,313.16h-42c-1.1,0-2-0.9-2-2s0.9-2,2-2h42c1.1,0,2,0.9,2,2S503.54,313.16,502.43,313.16z"/>
		<path class="st4" d="M502.43,346.16h-42c-1.1,0-2-0.9-2-2s0.9-2,2-2h42c1.1,0,2,0.9,2,2S503.54,346.16,502.43,346.16z"/>
	</g>
	<g>
		<path class="st2" d="M440.92,322.23l-31.49,0.93c0,0,2.46-85.29,12.24-85.58C431.44,237.29,440.92,322.23,440.92,322.23z"/>
		<path class="st2" d="M409.43,325.16c-0.53,0-1.04-0.21-1.41-0.58c-0.39-0.39-0.6-0.92-0.59-1.47c0.01-0.21,0.64-21.62,2.46-42.8
			c3.36-39.1,7.62-44.6,11.72-44.73c4.09-0.1,8.75,5.11,15.32,43.88c3.56,21.01,5.95,42.33,5.98,42.55
			c0.06,0.56-0.11,1.11-0.48,1.53c-0.37,0.42-0.89,0.67-1.45,0.69l-31.49,0.93C409.47,325.16,409.45,325.16,409.43,325.16z
			 M421.74,239.6c-0.73,0.43-4.8,4.51-7.97,42.4c-1.4,16.73-2.06,33.34-2.26,39.09l27.18-0.8c-0.68-5.78-2.71-22.32-5.48-38.92
			C426.9,243.71,422.5,239.97,421.74,239.6z"/>
	</g>
	<path class="st3" d="M432.29,320.9c-1.93-5.37-6.76-8.91-8.72-14.23c-1.39-3.76-1.79-8.81-0.65-12.69
		c0.72-2.48,2.67-4.62,3.25-7.12c1.14-4.98-2.4-8.57-4.11-13.09c-1.52-4.04-2.67-8.41-1.87-12.76c0.54-2.98,2.47-5.13,3.11-7.96
		c0.37-1.65,0.19-2.89-0.04-4.55c-1.69-2.56-1.83-5.43-0.44-8.58c0.53-0.88,1.12-1.72,1.74-2.53c-0.99-0.99-1.92-1.31-2.8-1.31
		c-0.04,0-0.07,0-0.11,0c-3.68,0.11-7.89,5.45-11.23,44.27c-1.82,21.16-2.45,42.55-2.46,42.77c-0.01,0.41,0.15,0.81,0.44,1.1
		c0.28,0.28,0.66,0.44,1.06,0.44c0.01,0,0.03,0,0.04,0l23.65-0.7C432.92,322.91,432.64,321.88,432.29,320.9z"/>
	<path class="st1" d="M417.33,213.41c-2.43,0.5-3.59,4.86-2.58,9.73c0.9,4.34,3.21,7.61,5.43,7.92c0.59-2.36,0.65-4.43-0.04-6.88
		c-1.06-3.78-0.78-6.2,0.64-9.06C419.7,213.84,418.48,213.17,417.33,213.41z"/>
	<path class="st4" d="M425.03,221.01c0.37,1.93,0.64,3.89,0.45,5.98c-0.1,1.04-0.3,2.12-0.83,3.23c-0.26,0.55-0.64,1.12-1.16,1.63
		c-0.54,0.51-1.28,0.94-2.11,1.15c-0.84,0.16-1.7,0.08-2.41-0.17c-0.69-0.25-1.29-0.6-1.77-0.99c-0.98-0.78-1.66-1.66-2.24-2.56
		c-1.15-1.81-1.83-3.74-2.27-5.72c-0.38-1.99-0.52-4.03-0.19-6.15c0.17-1.06,0.45-2.14,1.04-3.24c0.28-0.55,0.7-1.1,1.23-1.61
		c0.55-0.51,1.31-0.93,2.14-1.11c0.84-0.15,1.69-0.04,2.39,0.21c0.68,0.27,1.26,0.64,1.71,1.04c0.92,0.81,1.54,1.72,2.04,2.64
		C424.07,217.18,424.6,219.09,425.03,221.01z M422.09,221.61c-0.18-0.81-0.42-1.61-0.75-2.37c-0.33-0.75-0.74-1.45-1.2-2.08
		c-0.45-0.62-0.98-1.16-1.48-1.48c-0.24-0.18-0.47-0.26-0.64-0.31c-0.16-0.04-0.24-0.01-0.29-0.01c-0.05,0.04-0.11,0.05-0.23,0.16
		c-0.11,0.13-0.26,0.3-0.39,0.56c-0.26,0.51-0.46,1.21-0.56,1.94c-0.21,1.48-0.09,3.11,0.25,4.68c0.32,1.57,0.85,3.12,1.63,4.39
		c0.38,0.63,0.84,1.2,1.28,1.56c0.22,0.2,0.43,0.29,0.58,0.36c0.15,0.05,0.22,0.04,0.28,0.05c0.05-0.02,0.13-0.02,0.27-0.12
		c0.13-0.12,0.31-0.28,0.46-0.54c0.33-0.5,0.6-1.2,0.77-1.95c0.17-0.75,0.27-1.56,0.28-2.38
		C422.34,223.26,422.24,222.43,422.09,221.61z"/>
	<path class="st4" d="M303.68,284.66c-3.32,0-5.92-3.51-5.92-8s2.6-8,5.92-8s5.92,3.51,5.92,8S307.01,284.66,303.68,284.66z
		 M303.68,272.66c-0.77,0-1.92,1.6-1.92,4s1.16,4,1.92,4s1.92-1.6,1.92-4S304.45,272.66,303.68,272.66z"/>
	<path class="st4" d="M425.67,251.06c0.24,0.09,0.49,0.19,0.73,0.32c0.12,0.06,0.24,0.13,0.35,0.2l0.16,0.11l0.59,0.41l1.05,0.76
		c0.69,0.48,1.37,0.97,2.07,1.4c1.37,0.93,2.81,1.73,4.27,2.45c2.92,1.47,6.04,2.48,9.25,2.96c0.8,0.13,1.6,0.28,2.42,0.28
		c0.81,0.02,1.63,0.11,2.44,0.09l2.45-0.17l0.61-0.04l0.61-0.11l1.22-0.21c1.65-0.19,3.22-0.77,4.84-1.21
		c0.83-0.18,1.57-0.59,2.37-0.88c0.78-0.32,1.57-0.63,2.37-0.94l0.1-0.04c0.51-0.2,1.09,0.06,1.29,0.57
		c0.18,0.46-0.01,0.98-0.43,1.22c-0.77,0.45-1.54,0.9-2.33,1.33c-0.79,0.41-1.54,0.94-2.39,1.25c-1.67,0.67-3.33,1.43-5.12,1.83
		c-3.5,1.05-7.27,1.28-10.95,0.93c-3.69-0.37-7.3-1.44-10.62-3.04c-1.65-0.82-3.25-1.73-4.75-2.76c-0.76-0.5-1.47-1.06-2.19-1.6
		l-1.03-0.81l-0.46-0.37l-0.11-0.09c0.02,0.02,0.04,0.03,0.06,0.04c0.05,0.02,0.11,0.02,0.16,0c-1.07-0.27-1.72-1.35-1.46-2.42
		C423.51,251.45,424.6,250.8,425.67,251.06z"/>
	<path class="st4" d="M474,181.16c-1.04,0-1.92-0.81-1.99-1.86c-1.66-23.64-0.01-43.12,0-43.31c0.1-1.1,1.06-1.92,2.17-1.82
		c1.1,0.1,1.92,1.06,1.82,2.17c-0.02,0.19-1.64,19.37,0,42.68c0.08,1.1-0.75,2.06-1.85,2.14C474.09,181.16,474.04,181.16,474,181.16
		z"/>
	<path class="st4" d="M491.35,181.16c-1.04,0-1.91-0.8-1.99-1.85c-1.96-26.19-6.88-42.4-6.93-42.56c-0.33-1.06,0.27-2.17,1.32-2.5
		c1.05-0.33,2.17,0.27,2.5,1.32c0.21,0.67,5.1,16.75,7.09,43.44c0.08,1.1-0.74,2.06-1.85,2.14
		C491.46,181.16,491.4,181.16,491.35,181.16z"/>
	<g>
		<path class="st6" d="M493.56,138.49l-25.34,2.82c0,0-4.28-75.04,3.58-75.91S493.56,138.49,493.56,138.49z"/>
		<path class="st6" d="M468.22,143.3c-0.47,0-0.93-0.17-1.29-0.47c-0.42-0.35-0.67-0.87-0.71-1.41c-0.01-0.19-1.08-19.03-1.16-37.73
			c-0.17-36.48,3.28-39.92,6.52-40.28c3.22-0.36,7.39,2.23,16,37.74c4.42,18.22,7.92,36.79,7.95,36.98c0.1,0.55-0.03,1.11-0.36,1.56
			s-0.83,0.74-1.39,0.8l-25.34,2.82C468.36,143.3,468.29,143.3,468.22,143.3z M472.05,67.55c-3.41,4.35-3.68,39.61-1.95,71.54
			l21.1-2.34C485.17,105.22,476.41,70.95,472.05,67.55z"/>
	</g>
	<path class="st7" d="M494.77,139.38c0.25-0.34,0.35-0.76,0.27-1.17c-0.04-0.19-3.53-18.74-7.95-36.95
		c-6.55-27.03-11.07-37.87-15.45-37.36c-0.46,0.05-0.9,0.23-1.3,0.53c0.04,1.89,1.06,3.24,2.11,5.19c2.99,5.54,0.5,10.26,2,15.91
		c1.35,5.04,4.06,8.41,4.08,13.94c0.02,5.84-1.04,11.67-2.4,17.32c-1.83,7.61-5.2,17.52-2.31,25.41l19.91-2.21
		C494.14,139.93,494.52,139.72,494.77,139.38z"/>
	<ellipse transform="matrix(0.9946 -0.1037 0.1037 0.9946 -2.7714 48.8245)" class="st11" cx="468.14" cy="51.06" rx="4.5" ry="9"/>
	<path class="st1" d="M472.61,50.6c-0.52-4.94-2.94-8.74-5.41-8.48c-0.07,0.01-0.14,0.03-0.21,0.04c0.08,0.44,0.13,0.91,0.17,1.46
		c0.24,3.44,1.76,6.56,1.77,9.94c0,2.24-0.57,4.38-0.84,6.35c0.32,0.1,0.65,0.14,0.97,0.11C471.54,59.76,473.13,55.54,472.61,50.6z"
		/>
	<path class="st4" d="M474.6,50.39c0.18,2.01,0.12,4.05-0.45,6.1c-0.29,1.02-0.7,2.05-1.4,3.05c-0.34,0.5-0.8,0.98-1.37,1.41
		c-0.58,0.42-1.34,0.73-2.14,0.81c-0.8,0.05-1.59-0.13-2.22-0.44c-0.62-0.32-1.13-0.72-1.54-1.14c-0.83-0.85-1.36-1.79-1.8-2.72
		c-0.87-1.87-1.31-3.81-1.52-5.77c-0.2-1.95-0.17-3.94,0.3-5.96c0.24-1,0.57-2.03,1.2-3.03c0.3-0.5,0.73-1,1.27-1.44
		c0.55-0.44,1.29-0.77,2.08-0.89c0.8-0.08,1.6,0.06,2.26,0.36c0.64,0.3,1.19,0.68,1.63,1.09c0.89,0.83,1.5,1.75,2,2.69
		C473.89,46.4,474.37,48.39,474.6,50.39z M470.62,50.8c-0.17-1.6-0.55-3.2-1.18-4.58c-0.31-0.68-0.69-1.32-1.1-1.76
		c-0.2-0.23-0.41-0.37-0.58-0.48c-0.17-0.09-0.28-0.11-0.39-0.13c-0.1,0.02-0.23,0.03-0.41,0.14c-0.17,0.13-0.38,0.3-0.56,0.56
		c-0.38,0.51-0.7,1.21-0.91,1.96c-0.44,1.51-0.51,3.21-0.36,4.86c0.19,1.65,0.61,3.3,1.35,4.69c0.36,0.69,0.82,1.31,1.29,1.73
		c0.23,0.22,0.47,0.35,0.67,0.44c0.19,0.07,0.32,0.05,0.43,0.05c0.1-0.05,0.2-0.09,0.35-0.21c0.14-0.14,0.31-0.32,0.46-0.59
		c0.31-0.52,0.55-1.21,0.71-1.94C470.75,54.05,470.79,52.41,470.62,50.8z"/>
	<path class="st4" d="M475.11,80.28c-0.83,2.11-1.82,3.94-2.92,5.8c-1.09,1.85-2.36,3.6-3.74,5.27c-2.75,3.34-6.21,6.3-10.37,8.12
		c-2.08,0.89-4.31,1.53-6.6,1.65c-2.28,0.14-4.55-0.14-6.71-0.72c-4.27-1.29-8-3.62-11.11-6.46c-0.41-0.37-0.44-1.01-0.07-1.42
		c0.33-0.36,0.87-0.42,1.28-0.17c3.42,2.13,7.03,3.85,10.73,4.61c1.85,0.33,3.71,0.44,5.53,0.25c1.82-0.2,3.59-0.72,5.26-1.5
		c3.35-1.56,6.24-4.17,8.75-7.12c1.25-1.48,2.37-3.1,3.43-4.74c1.05-1.63,2.04-3.42,2.83-5.09l0.04-0.08c0.48-1,1.67-1.42,2.67-0.94
		C475.06,78.19,475.49,79.31,475.11,80.28z"/>
	<g>
		<path class="st4" d="M444.19,81.82c-0.88,3.57-2.01,7.06-3.22,10.53c-0.61,1.73-1.24,3.46-1.94,5.16
			c-0.71,1.7-1.46,3.39-2.37,5.03c-0.27,0.49-0.89,0.67-1.39,0.4c-0.37-0.2-0.56-0.6-0.52-1c0.19-1.86,0.54-3.68,0.92-5.48
			c0.39-1.8,0.86-3.58,1.34-5.35c0.98-3.54,2.05-7.05,3.36-10.48c0.39-1.03,1.55-1.55,2.59-1.16
			C443.91,79.83,444.43,80.85,444.19,81.82z"/>
		<path class="st4" d="M438.39,77.91c1.06,0.19,2.08,0.51,3.1,0.84c0.5,0.18,1.01,0.35,1.51,0.55l0.77,0.3
			c0.35,0.14,0.68,0.3,0.99,0.48c1.24,0.73,2.16,1.76,2.8,2.9c0.63,1.14,0.99,2.46,0.89,3.77c-0.04,0.56-0.53,0.97-1.09,0.93
			c-0.4-0.03-0.72-0.29-0.86-0.64l-0.04-0.1c-0.32-0.82-0.85-1.54-1.45-2.13c-0.61-0.59-1.32-1.04-1.99-1.29
			c-0.17-0.05-0.33-0.1-0.49-0.13l-0.76-0.18c-0.52-0.12-1.04-0.27-1.55-0.41c-1.02-0.31-2.04-0.63-3.03-1.08
			c-1.01-0.46-1.46-1.65-1-2.67C436.58,78.2,437.5,77.74,438.39,77.91z"/>
		<path class="st4" d="M439.77,76.83c0.24,0.68,0.27,1.29,0.24,1.88c-0.03,0.59-0.14,1.16-0.32,1.7c-0.18,0.55-0.42,1.07-0.73,1.58
			c-0.33,0.5-0.69,0.99-1.25,1.41c-0.54,0.41-1.31,0.3-1.72-0.24c-0.08-0.11-0.15-0.24-0.19-0.36c-0.22-0.67-0.24-1.28-0.23-1.88
			c0.03-0.59,0.14-1.16,0.3-1.71c0.16-0.55,0.39-1.08,0.71-1.58c0.32-0.5,0.69-0.99,1.27-1.41c0.56-0.4,1.34-0.28,1.74,0.28
			C439.68,76.61,439.73,76.72,439.77,76.83z"/>
	</g>
	<path class="st15" d="M160.9,323.28c-0.44-3.83-0.53-7.19,0.42-10.96c0.43-1.71,1.83-4.1,1.78-5.97c-0.02-0.89-0.45-1.55-0.64-2.39
		c-0.27-1.23-1.16-1.28-1.46-2.2c-0.5-1.54,0.15-4.98,0.68-6.39c1.11-2.97,2.8-4.55,2.1-8c-0.41-2.03-1.59-3.7-2.69-5.42
		c-2.35-3.67-2.16-5.24-0.95-9.42c1.06-3.66,1.55-5.7,0.12-9.45c-1.16-3.04-2.63-5.22-1.93-8.69c0.37-1.84,1.46-3.46,1.54-5.38
		c0.23-5.4-3.77-8.24,0.24-12.22c-0.49-0.22-0.97-0.31-1.43-0.31c-3.68,0-8.05,5.22-12.53,43.92c-2.44,21.09-3.71,42.46-3.72,42.68
		c-0.02,0.41,0.12,0.82,0.41,1.12s0.68,0.47,1.09,0.47h17.13C161.01,324.2,160.95,323.74,160.9,323.28z"/>
</g>
<path class="st11" d="M40.72,368.75c145.16-11.12,372.62-14.35,618.57,0v20.52H40.72V368.75z"/>
<path class="st4" d="M40.64,367.75c51.38-4.96,102.98-7.19,154.56-8.77c51.58-1.53,103.19-2.14,154.79-2.02
	c51.6,0.19,103.2,1.21,154.77,2.85l19.34,0.61l19.34,0.76c12.89,0.51,25.78,0.98,38.67,1.63l19.33,0.98
	c6.44,0.34,12.88,0.64,19.32,1.09l19.3,1.34c6.43,0.5,12.86,0.96,19.29,1.53c0.55,0.05,0.96,0.53,0.91,1.08
	c-0.05,0.53-0.49,0.92-1.01,0.91l-0.01,0c-6.45-0.13-12.89-0.36-19.34-0.56l-19.32-0.75l-38.64-1.61
	c-12.88-0.62-25.76-1.06-38.64-1.54l-19.32-0.72l-19.33-0.57c-51.54-1.55-103.1-2.38-154.66-2.56
	c-51.56-0.24-103.12,0.26-154.66,1.68c-51.54,1.4-103.03,3.92-154.52,6.63c-0.55,0.03-1.02-0.39-1.06-0.94
	C39.71,368.27,40.11,367.81,40.64,367.75z"/>
</svg>
