<svg id="Vectors" xmlns="http://www.w3.org/2000/svg" width="700" height="400" viewBox="0 0 700 400">
  <title>Artboard 1</title>
  <g>
    <path d="M353.94,218.26a10.79,10.79,0,0,1-1.67-1.7,5.1,5.1,0,0,1-1.06-2.68,5.28,5.28,0,0,1,.7-2.94,11,11,0,0,1,1.52-2,14.14,14.14,0,0,0,2.37-3,6.76,6.76,0,0,0,.62-3.24,16.25,16.25,0,0,0-.56-3.8c-.28-1.3-.77-2.65-1.13-4.12a21.16,21.16,0,0,1-.75-4.59,10,10,0,0,1,.92-4.78,1,1,0,0,1,1.89.61v0c-.42,2.54.39,5,1.35,7.66.5,1.3,1,2.66,1.48,4.16a19,19,0,0,1,.79,4.75,10.21,10.21,0,0,1-1.2,5.14,14.43,14.43,0,0,1-3.27,3.6,10.55,10.55,0,0,0-1.25,1.29,2.38,2.38,0,0,0-.53,1.16c-.18.77.45,1.92,1.26,3.1a1,1,0,0,1-.27,1.4,1,1,0,0,1-1.2-.07Z" style="fill: #278bd6;opacity: 0.10000000149011612;isolation: isolate"/>
    <path d="M367.19,219.25a7.85,7.85,0,0,1-2.25-4,11.4,11.4,0,0,1-.1-4.54,15.54,15.54,0,0,1,1.39-4.16,24.79,24.79,0,0,0,1.41-3.34,5.59,5.59,0,0,0,.14-3,29,29,0,0,1-.59-4.12,20.24,20.24,0,0,1,1.82-8.18,1,1,0,0,1,1.32-.55,1,1,0,0,1,.63,1,37.14,37.14,0,0,0-.2,7.45c.15,1.1.51,2.19.86,3.65a10.55,10.55,0,0,1,.24,2.4,8.79,8.79,0,0,1-.41,2.45,23,23,0,0,1-1.77,3.9,16.38,16.38,0,0,0-1.41,3.21,8.48,8.48,0,0,0,.43,6.49l0,0a1,1,0,0,1-.39,1.37A.91.91,0,0,1,367.19,219.25Z" style="fill: #278bd6;opacity: 0.10000000149011612;isolation: isolate"/>
    <g>
      <path d="M360,240.94c9.75,0,17.66-6.54,17.66-14.61H342.38C342.38,234.4,350.28,240.94,360,240.94Z" style="fill: #a0c2ec"/>
      <path d="M360,242.94c-10.84,0-19.66-7.45-19.66-16.61a2,2,0,0,1,2-2h35.31a2,2,0,0,1,2,2C379.69,235.49,370.87,242.94,360,242.94Zm-15.46-14.61c1.19,6,7.67,10.61,15.46,10.61s14.27-4.6,15.46-10.61Z" style="fill: #a0c2ec"/>
    </g>
    <path d="M379.89,226.33a2.21,2.21,0,0,0-2.2-2.2h-8.37c-.87,2.19-3.9,4.82-4.5,5.46a8.25,8.25,0,0,0-2.52,5.6c0,1.87.42,4.11-.79,5.82a11,11,0,0,1-2.44,2.1c.32,0,.63,0,1,0C371,243.14,379.89,235.6,379.89,226.33Z" style="fill: #278bd6;opacity: 0.30000001192092896;isolation: isolate"/>
    <g>
      <g>
        <path d="M238,222.82a61.89,61.89,0,0,0,5.9,2.83q3.07,1.26,6.24,2.27a65.39,65.39,0,0,0,12.94,2.67,53.49,53.49,0,0,0,13.14-.27,87.25,87.25,0,0,0,12.95-3h0a1,1,0,0,1,.83,1.81,32.53,32.53,0,0,1-6.31,3.2,37.6,37.6,0,0,1-6.84,1.94,53.24,53.24,0,0,1-14.2.66,62.44,62.44,0,0,1-13.88-2.83,58,58,0,0,1-6.6-2.54,50.13,50.13,0,0,1-6.34-3.34,2,2,0,0,1,2-3.44Z" style="fill: #2e3547"/>
        <g>
          <path d="M300.17,237.88,287.28,239a1.84,1.84,0,0,1-2-1.68l-2.58-29.46a1.84,1.84,0,0,1,1.68-2l12.89-1.13a1.84,1.84,0,0,1,2,1.68l2.58,29.46A1.86,1.86,0,0,1,300.17,237.88Z" style="fill: #4e5c75"/>
          <path d="M282.7,207.87l2.58,29.46a1.85,1.85,0,0,0,2,1.68l11.47-1c-1.53-2.57-3.05-4.93-3.44-8.25-.25-2.12.57-4.37-.73-6.24-1.48-2.12-3.85-1.67-3.64-5,.19-3,1.49-4-.5-6.82-1.17-1.67-2.92-2.8-4.15-4.4a7.59,7.59,0,0,1-.93-1.52l-1,.09A1.83,1.83,0,0,0,282.7,207.87Z" style="fill: #2e3547"/>
          <rect x="286.83" y="208.78" width="11.09" height="25.87" transform="translate(-18.22 26.34) rotate(-5)" style="fill: #a0c2ec"/>
          <path d="M288,235.1l8.72-.76a14.16,14.16,0,0,1-1.38-4.59c-.25-2.12.57-4.37-.73-6.24-1.48-2.12-3.85-1.67-3.64-5,.19-3,1.49-4-.5-6.82a16.82,16.82,0,0,0-2.42-2.57l-2.3.2Z" style="fill: #278bd6;opacity: 0.30000001192092896;isolation: isolate"/>
        </g>
        <path d="M237.76,172.9c-3.06,0-5.54,5-5.54,11.09,0,4.7,1.47,8.71,3.53,10.33a11,11,0,0,0,2-5.71c.21-2.29-.24-4.58-.23-6.87a14.79,14.79,0,0,1,2.3-8A3.28,3.28,0,0,0,237.76,172.9Z" style="fill: #278bd6;opacity: 0.20000000298023224;isolation: isolate"/>
        <path d="M409.67,206.16c3-.06,5.49-5,5.49-11.08S412.68,184,409.62,184a4.1,4.1,0,0,0-3.22,2.08h0c3.63,2,5.21,4.19,3.75,9.6-.63,2.35.25,5.58-.17,8.08C409.86,204.46,409.75,205.29,409.67,206.16Z" style="fill: #278bd6;opacity: 0.20000000298023224;isolation: isolate"/>
        <g>
          <path d="M491.42,261.49l3.21-12.83H476.15l3.21,12.83c-3,3.95-5.05,10.8-5.05,18.59,0,12.25,5,22.18,11.09,22.18s11.09-9.93,11.09-22.18C496.48,272.29,494.46,265.45,491.42,261.49Z" style="fill: #a0c2ec"/>
          <path d="M485.39,304.26c-7.34,0-13.09-10.62-13.09-24.18,0-7.49,1.81-14.5,4.89-19l-3-11.92a2,2,0,0,1,.36-1.72,2,2,0,0,1,1.58-.77h18.48a2,2,0,0,1,1.94,2.49l-3,11.92c3.07,4.51,4.89,11.52,4.89,19C498.48,293.64,492.73,304.26,485.39,304.26Zm-6.68-53.59L481.29,261a2,2,0,0,1-.35,1.7c-2.91,3.78-4.64,10.27-4.64,17.37,0,11.89,4.79,20.18,9.09,20.18s9.09-8.29,9.09-20.18c0-7.1-1.73-13.59-4.64-17.37a2,2,0,0,1-.35-1.7l2.58-10.34Z" style="fill: #a0c2ec"/>
        </g>
        <path d="M493.42,261.11l3-12a1.85,1.85,0,0,0-1.8-2.3h-14a19.25,19.25,0,0,0-1.35,2.52c-2.54,5.76,2.95,9.46,1.76,15-1.39,6.45-4,11.73-3.12,18.57.6,4.67,2.9,8,7.46,9.51a23.16,23.16,0,0,0,11,.6,40.81,40.81,0,0,0,2-12.91C498.32,272.59,496.5,265.59,493.42,261.11Z" style="fill: #278bd6;opacity: 0.30000001192092896;isolation: isolate"/>
        <path d="M249,363.4h-.15a2,2,0,0,1-1.85-2.14c2.55-35.33-2.61-50.79-2.67-50.95a2,2,0,0,1,3.77-1.31c.23.65,5.5,16.24,2.88,52.55A2,2,0,0,1,249,363.4Z" style="fill: #2e3547"/>
        <path d="M231.25,363.4h-.15a2,2,0,0,1-1.85-2.14c2.56-35.56.05-51.12,0-51.27a2,2,0,0,1,3.94-.66c.11.64,2.63,16.08,0,52.22A2,2,0,0,1,231.25,363.4Z" style="fill: #2e3547"/>
        <g>
          <path d="M426.25,281.93H393s6.69-56.53,16.63-62.64C417.68,214.33,426.25,281.93,426.25,281.93Z" style="fill: #278bd6"/>
          <path d="M426.25,283.93H393a2,2,0,0,1-2-2.23c.7-5.88,7.11-57.67,17.57-64.11a3.54,3.54,0,0,1,3.49-.19c1.69.81,5.65,2.7,11.47,34.16,2.8,15.11,4.69,30,4.71,30.12a2,2,0,0,1-2,2.25Zm-31-4H424c-4.45-34.11-10.35-56.73-13.48-58.83C404.15,225.53,397.94,258.49,395.25,279.93Z" style="fill: #278bd6"/>
        </g>
        <path d="M428.09,281.7c-1.73-13.65-7.82-57.44-15.34-63.66a8.89,8.89,0,0,1-.4,8.21c-.76,1.49-2.68,2.61-3.37,4.25-2.18,5.17,3.21,8.18.64,12.18-.48.74-2.64,5.49-3.38,6.87-2.88,5.41-2.28,10.3-.93,15.94,1.19,5,2,8.08-.55,13-1,1.84-2.42,3.51-3.59,5.29h25.09a1.85,1.85,0,0,0,1.39-.63A1.92,1.92,0,0,0,428.09,281.7Z" style="fill: #064e72;opacity: 0.30000001192092896;isolation: isolate"/>
        <g>
          <path d="M258.08,309.65H219.27s6.13-104.94,18.18-104.94S258.08,309.65,258.08,309.65Z" style="fill: #a0c2ec"/>
          <path d="M258.08,311.65H219.27a2,2,0,0,1-1.46-.63,2,2,0,0,1-.54-1.49c0-.26,1.57-26.59,4.58-52.59,5.54-47.8,11-54.24,15.59-54.24s10.17,6.44,16.81,54.2c3.62,26,5.79,52.32,5.81,52.58a2,2,0,0,1-.52,1.52A1.92,1.92,0,0,1,258.08,311.65Zm-36.68-4h34.5c-.6-6.81-2.6-28.63-5.6-50.21-7-50.16-12.61-50.73-12.85-50.73,0,0-2.64.4-6,14.84a347,347,0,0,0-5.65,35.85C223.33,279,221.84,300.89,221.4,307.65Z" style="fill: #a0c2ec"/>
        </g>
        <g>
          <path d="M242.07,310.1c.3-6.21,5.66-10,3.55-16.16-3.76-11-11.06-18.34-7.66-30.77,2.09-7.65,6.33-10.38,2.47-17.93-2.76-5.4-6.67-9.65-4.38-16,1-2.74,3.1-5.11,4.23-7.8s1.82-4.92,1.24-7.74c-.75-3.64-5.22-7.23-3.27-11.17a4.22,4.22,0,0,0-.79-.07c-4.13,0-7.14,5.41-10.06,18.1-2,8.78-4,21-5.73,36.32-3,26-4.57,52.33-4.58,52.6a2.18,2.18,0,0,0,.6,1.64,2.2,2.2,0,0,0,1.6.69h22.82A12.93,12.93,0,0,1,242.07,310.1Z" style="fill: #278bd6;opacity: 0.30000001192092896;isolation: isolate"/>
          <path d="M238,202.9a5.46,5.46,0,0,0-.56,0A5.09,5.09,0,0,1,238,202.9Z" style="fill: #278bd6;opacity: 0.30000001192092896;isolation: isolate"/>
        </g>
        <path d="M486.39,149.23q.39,8.29.58,16.59c.16,5.53.26,11.06.33,16.59.15,11.06.13,22.12.21,33.18s.07,22.12.06,33.18-.07,22.12-.17,33.18a2,2,0,0,1-4,0q-.16-16.59-.17-33.18c0-11.06,0-22.12.06-33.18s.06-22.12.21-33.18q.11-8.29.33-16.59t.58-16.59a1,1,0,0,1,2,0Z" style="fill: #2e3547"/>
        <path d="M353.33,115.61q.39,10.4.58,20.79c.17,6.93.24,13.86.31,20.79l.11,10.39,0,10.4.08,20.79c.08,13.86.07,27.72.06,41.58s-.11,27.72-.17,41.58a2,2,0,0,1-4,0c-.06-13.86-.2-27.72-.17-41.58s0-27.72.06-41.58l.08-20.79,0-10.4.11-10.39c.07-6.93.14-13.86.31-20.79s.32-13.86.58-20.79a1,1,0,0,1,2,0Z" style="fill: #2e3547"/>
        <path d="M453.2,121.61c-6.23-1.5-12.58-2.07-18.84-3.44a2.55,2.55,0,0,0-1.81-1.21c-6-1.3-11.46-3.61-17.21-5.51-4.38-1.1-5.86-1.87-6,1.32-.68,13,5.08,20.79,15.86,23.32.17,1.38,4.44,1.55,6.08,1.49a48.33,48.33,0,0,0,10.86-1.45c.89,0,1.77-.11,2.64-.2a2.81,2.81,0,0,0,2.41-1.73,16.11,16.11,0,0,0,7.92-8.67A3,3,0,0,0,453.2,121.61Z" style="fill: #a0c2ec"/>
        <path d="M453.2,121.61c-6.23-1.5-12.58-2.07-18.84-3.44a2.55,2.55,0,0,0-1.81-1.21c-6-1.3-11.46-3.61-17.21-5.51-4.38-1.1-5.86-1.87-6,1.32a33.24,33.24,0,0,0,.34,7,10.59,10.59,0,0,0,5,4.79c4.41,2.07,8.82,1.33,13.47,1.54,3.86.18,5.35,2.79,8,5.22a13.66,13.66,0,0,0,7.49,3.58c1,.15,1.88.23,2.73.33a2.8,2.8,0,0,0,.79-1.08,16.11,16.11,0,0,0,7.92-8.67A3,3,0,0,0,453.2,121.61Z" style="fill: #278bd6;opacity: 0.30000001192092896;isolation: isolate"/>
        <path d="M360.8,96.4c-4.79-2.6-11.09-3.26-16.31-4.3-3.7-.74-7.4-1.45-11.1-2.16-2-.39-6.82-.32-8.5-1.93,0-.16-6-3.52-5.8-.32.61,10.42,4.36,18,14.26,22.58,6.93,3.18,16.84,3.87,23.46-.33C361.21,107.16,367.33,100,360.8,96.4Z" style="fill: #a0c2ec"/>
        <path d="M516,140c-6.24-2-12.78-3.4-19.1-5.18-1.26-1.45-5.17-.53-5.11,1.89.28,12,16.47,17.8,25.34,10.91C520.76,144.86,520.41,141.44,516,140Z" style="fill: #a0c2ec"/>
        <g>
          <path d="M460,252.25l3.21-12.83H444.74L448,252.25c-3,3.95-5.05,10.8-5.05,18.59,0,12.25,5,22.18,11.09,22.18s11.09-9.93,11.09-22.18C465.06,263.05,463.05,256.21,460,252.25Z" style="fill: #cddae8"/>
          <path d="M454,295c-7.34,0-13.09-10.62-13.09-24.18,0-7.49,1.81-14.5,4.89-19l-3-11.92a2,2,0,0,1,.36-1.72,2,2,0,0,1,1.58-.77h18.48a2,2,0,0,1,1.94,2.49l-3,11.92c3.07,4.51,4.89,11.52,4.89,19C467.06,284.4,461.31,295,454,295Zm-6.68-53.59,2.58,10.34a2,2,0,0,1-.35,1.7c-2.91,3.78-4.64,10.27-4.64,17.37,0,11.89,4.79,20.18,9.09,20.18s9.09-8.29,9.09-20.18c0-7.1-1.73-13.59-4.64-17.37a2,2,0,0,1-.35-1.7l2.58-10.34Z" style="fill: #cddae8"/>
        </g>
        <path d="M466.91,270.84c0-7.49-1.82-14.49-4.9-19l3-12a1.85,1.85,0,0,0-1.8-2.3h-11.4a8.6,8.6,0,0,0,1.5,3.3c1.07,1.56,3,3.22,3.37,5.15.59,2.81-2.07,5.91-3.23,8.29a17.61,17.61,0,0,0-2,9.55c.4,3.54,2.78,6.61,1.11,10.16-2,4.19-6.91,7.75-5.55,13,1.45,5.56,7.34,6.62,12.69,5.42C464,288.56,466.91,280.44,466.91,270.84Z" style="fill: #278bd6;opacity: 0.20000000298023224;isolation: isolate"/>
        <path d="M244.8,184a24.81,24.81,0,0,1-1,7.19,11.68,11.68,0,0,1-1.77,3.55,6.62,6.62,0,0,1-1.7,1.57,5.3,5.3,0,0,1-2.6.78,5.38,5.38,0,0,1-2.62-.74,7.43,7.43,0,0,1-1.77-1.53,11.91,11.91,0,0,1-2-3.51,21.62,21.62,0,0,1,0-14.6,12.14,12.14,0,0,1,2-3.51,6.86,6.86,0,0,1,1.77-1.53,5.41,5.41,0,0,1,2.62-.74,5.3,5.3,0,0,1,2.6.78,6.8,6.8,0,0,1,1.7,1.57,11.14,11.14,0,0,1,1.77,3.55A24.59,24.59,0,0,1,244.8,184Zm-3,0a18.82,18.82,0,0,0-.3-3.1,15,15,0,0,0-.91-2.89,8.09,8.09,0,0,0-1.45-2.3,3.36,3.36,0,0,0-.8-.65,1.41,1.41,0,0,0-.58-.16,1.46,1.46,0,0,0-.56.2,3.2,3.2,0,0,0-.73.68,8.21,8.21,0,0,0-1.24,2.34,17.27,17.27,0,0,0-.91,5.87,17.52,17.52,0,0,0,.91,5.87,8.34,8.34,0,0,0,1.24,2.34,3,3,0,0,0,.73.68,1.46,1.46,0,0,0,.56.2,1.27,1.27,0,0,0,.58-.16,3.13,3.13,0,0,0,.8-.65,8.09,8.09,0,0,0,1.45-2.3,15,15,0,0,0,.91-2.89A17.47,17.47,0,0,0,241.8,184Z" style="fill: #2e3547"/>
        <rect x="330.16" y="281.93" width="177.41" height="83.16" style="fill: #fff"/>
        <path d="M330.16,291a114.68,114.68,0,0,1,25-2.24c12.39.46,24.74,2,37.08,3,20.23,1.51,40.29,2.46,60.66.74,10.45-.88,20.74-2.25,31.27-2.46,7.79-.15,15.61.16,23.4.15v-8.24H330.16Z" style="fill: #278bd6;opacity: 0.3499999940395355;isolation: isolate"/>
        <path d="M507.57,367.09H330.16a2,2,0,0,1-2-2V281.93a2,2,0,0,1,2-2H507.57a2,2,0,0,1,2,2v83.16A2,2,0,0,1,507.57,367.09Zm-175.41-4H505.57V283.93H332.16Z" style="fill: #2e3547"/>
        <path d="M417.16,195.08a20.59,20.59,0,0,1-1.28,7.26,12,12,0,0,1-2,3.44,6.87,6.87,0,0,1-1.74,1.47,5.25,5.25,0,0,1-2.51.68,5.09,5.09,0,0,1-2.46-.76,6.66,6.66,0,0,1-1.64-1.51,11.53,11.53,0,0,1-1.81-3.44,23.26,23.26,0,0,1,0-14.26,11.88,11.88,0,0,1,1.81-3.44,6.84,6.84,0,0,1,1.64-1.51,4.65,4.65,0,0,1,5-.08,6.84,6.84,0,0,1,1.74,1.47,11.55,11.55,0,0,1,2,3.44A19.93,19.93,0,0,1,417.16,195.08Zm-4,0a18.43,18.43,0,0,0-.9-5.92,8.38,8.38,0,0,0-1.22-2.41,3.15,3.15,0,0,0-.76-.75,1.77,1.77,0,0,0-.67-.26,1.69,1.69,0,0,0-.72.18,3.14,3.14,0,0,0-.85.71,8.13,8.13,0,0,0-1.41,2.4,17.74,17.74,0,0,0,0,12.08,8,8,0,0,0,1.41,2.4,3.3,3.3,0,0,0,.85.71,1.69,1.69,0,0,0,.72.18,1.77,1.77,0,0,0,.67-.26,3.34,3.34,0,0,0,.76-.75,8.64,8.64,0,0,0,1.22-2.41A18,18,0,0,0,413.16,195.08Z" style="fill: #2e3547"/>
        <path d="M317.61,85.64a9.13,9.13,0,0,0-.29,1.23,1.22,1.22,0,0,0,.19.87c0,.38.26.78.91,1.17C332,97,351,99.67,366.13,103.61c20.09,5.24,40.07,10.08,59.93,16.32s39.48,12.42,59.44,17.93c8.94,2.47,17.9,5.48,27,7.41,3.71.79,7.89,1.19,11-1.41a10.72,10.72,0,0,0,.85-.79Z" style="fill: #278bd6"/>
        <path d="M411.1,237.35a12.72,12.72,0,0,1-1.2,1.16c-.39.36-.79.67-1.2,1s-.83.6-1.25.89a14.57,14.57,0,0,1-1.28.82l-1.31.76-1.36.67a21.3,21.3,0,0,1-2.79,1.16A40,40,0,0,1,389,246l-3,0c-1,0-2-.15-2.95-.22l-1.47-.12c-.49,0-1-.16-1.45-.24l-2.89-.52c-1-.15-1.89-.47-2.84-.69s-1.88-.49-2.81-.77a23.27,23.27,0,0,1-5.18-2.71,1,1,0,0,1-.23-1.45,1,1,0,0,1,.84-.43h.09a23.24,23.24,0,0,1,5.56.83c1.8.33,3.56.84,5.35,1.13s3.59.59,5.39.63c.9.05,1.8.13,2.69.15l2.68-.07a36.64,36.64,0,0,0,10.42-1.93c.82-.31,1.66-.59,2.45-1l1.2-.54,1.15-.62c.39-.2.76-.43,1.12-.66s.74-.45,1.08-.71.71-.49,1-.75.68-.56.89-.74l.15-.14a2,2,0,0,1,2.81,2.85Z" style="fill: #2e3547"/>
        <path d="M304.75,81.16c9.8,1.67,19.31,4.38,28.85,7l28.6,7.88,57.21,15.76,57.13,16,28.56,8c9.51,2.71,19.1,5.14,28.34,8.82a.88.88,0,0,1-.47,1.68c-9.82-1.61-19.28-4.48-28.83-7.07l-28.61-7.86-57.22-15.72-57.14-16-28.57-8c-9.52-2.66-19.07-5.25-28.33-8.87a.88.88,0,0,1-.5-1.14A.9.9,0,0,1,304.75,81.16Z" style="fill: #2e3547"/>
        <path d="M507.22,152.19a17.25,17.25,0,0,1-15.36-9.61c-15,7.92-27.76,5.17-39.95-8.58a27.64,27.64,0,0,1-26,4.49c-8.35-2.66-14.79-8.6-17.44-15.9-8.74,6.54-19.21,8.15-29.15,4.37-8.91-3.39-16.12-10.72-18.8-18.73-7.5,8.12-19,8.38-27.86,4.63-9.78-4.13-18.85-14.44-15.68-27.33l3.88,1c-1.89,7.69,1.5,17.69,13.35,22.69,8.46,3.57,19.66,2.92,25.6-6.61a2,2,0,0,1,3.68.83c1,8.18,8.06,16.34,17.24,19.83,5.54,2.11,16.49,4.18,27.49-5.59a2,2,0,0,1,3.29,1.09c1.5,7.26,7.48,13.37,15.6,16a23.61,23.61,0,0,0,23.58-5,2,2,0,0,1,2.9.18c11.79,14.12,23.55,16.64,38.12,8.16a2,2,0,0,1,2.87,1c2.76,6.92,8.46,9.25,12.89,9.15a10.6,10.6,0,0,0,10.12-7.1l3.79,1.29a14.68,14.68,0,0,1-13.8,9.81Z" style="fill: #2e3547"/>
        <path d="M522.35,282.93c-8.62,1.32-17.25.93-25.87,1l-25.87.09-51.75.19-51.74-.1L341.25,284c-8.62-.12-17.25.29-25.87-1.11a1,1,0,0,1,0-2c8.62-1.41,17.25-1,25.87-1.11l25.87-.11,51.74-.1,51.74.19,25.87.09c8.62.11,17.25-.28,25.87,1a1,1,0,0,1,.85,1.15A1,1,0,0,1,522.35,282.93Z" style="fill: #2e3547"/>
      </g>
      <path d="M236,223.54l-.15.09-.22.14-.44.28-.89.66c-.58.48-1.17.95-1.73,1.48s-1.12,1.06-1.64,1.63l-1.56,1.74a55.57,55.57,0,0,0-5.39,7.76c-.79,1.38-1.63,2.73-2.29,4.19l-1.06,2.15-.53,1.08-.46,1.11-1.84,4.45-1.6,4.56c-.26.76-.54,1.52-.79,2.29l-.66,2.33-1.32,4.67c-.39,1.57-.7,3.16-1.08,4.74s-.77,3.16-1.05,4.76c-.54,3.2-1.15,6.4-1.64,9.62l-1.28,9.7v0a1,1,0,0,1-1.12.86,1,1,0,0,1-.87-1.06L207,283c.3-3.29.8-6.55,1.19-9.84s1.13-6.52,1.77-9.77l1.2-4.84.6-2.42c.23-.8.49-1.59.73-2.39l1.5-4.77,1.82-4.68.46-1.17.54-1.14,1.07-2.28c.67-1.54,1.54-3,2.36-4.47a56.69,56.69,0,0,1,5.83-8.36l1.74-1.91c.6-.62,1.26-1.2,1.88-1.8s1.35-1.13,2-1.67a18.14,18.14,0,0,1,2.42-1.51,2,2,0,0,1,1.92,3.49Z" style="fill: #2e3547"/>
      <path d="M136.51,357.54v37.54H558.08V357.54C451.25,344.26,136.51,357.54,136.51,357.54Z" style="fill: #fff"/>
      <path d="M136.45,356.54c35.07-2.89,70.22-4,105.37-4.94s70.31-1.28,105.47-1.25c17.58-.07,35.16.18,52.74.29,17.58.36,35.16.38,52.74.89,8.79.21,17.58.43,26.36.74l26.35,1.15c4.39.21,8.78.36,13.17.62l13.16.8c8.78.51,17.55,1.13,26.32,1.7a1,1,0,0,1-.09,2h0c-8.78-.25-17.57-.45-26.34-.76l-13.17-.43L505.35,357l-26.34-.7-26.34-.62-13.17-.35-13.17-.25L400,354.67c-17.56-.08-35.13-.28-52.69-.18s-35.13.21-52.69.36l-26.34.41-26.34.51c-35.12.74-70.23,2-105.35,2.76h0a1,1,0,0,1-1-1A1,1,0,0,1,136.45,356.54Z" style="fill: #2e3547"/>
    </g>
    <g>
      <circle cx="306.1" cy="178" r="8.8" style="fill: #fcd381"/>
      <path d="M316.9,162.81,314,165.86a1,1,0,0,1-1.74-1l1.19-4.05a2.06,2.06,0,1,1,3.95,1.15A2,2,0,0,1,316.9,162.81Z" style="fill: #fcd381;opacity: 0.3499999940395355;isolation: isolate"/>
      <path d="M302.9,159.28l.1,4.22a1,1,0,0,1-1,1.05,1,1,0,0,1-.93-.53l-2-3.7a2.06,2.06,0,1,1,3.61-2A1.92,1.92,0,0,1,302.9,159.28Z" style="fill: #fcd381;opacity: 0.3499999940395355;isolation: isolate"/>
      <path d="M290.91,167.2l3,2.92a1,1,0,0,1-1,1.74l-4-1.19a2.06,2.06,0,0,1,1.15-3.95A2,2,0,0,1,290.91,167.2Z" style="fill: #fcd381;opacity: 0.3499999940395355;isolation: isolate"/>
      <path d="M302.93,186.2a8.79,8.79,0,1,0,6.34-16.4,11,11,0,0,1-.91,1.51c-1.43,2-3,3.59-2.37,6.28s1.3,2.93-.24,5.53A18.69,18.69,0,0,1,302.93,186.2Z" style="fill: #fcd381;opacity: 0.30000001192092896;isolation: isolate"/>
    </g>
  </g>
</svg>
