<svg id="GiveCrypto-logo" xmlns="http://www.w3.org/2000/svg" width="113" height="21" viewBox="0 0 113 21">
  <title>GiveCrypto</title>
  <g id="GiveCrypto">
    <g style="isolation: isolate">
      <g style="isolation: isolate">
        <path d="M8.09,8.19h5.17V16H11.61l-.2-2.11a4.84,4.84,0,0,1-4.33,2.29c-3.5,0-6.87-2.53-6.87-7.88S3.58.38,7.16.38a5.86,5.86,0,0,1,6.05,4.67l-1.87.55c-.7-2.16-2.13-3.37-4.18-3.37-2.84,0-4.95,2.05-4.95,6s2.11,6,5,6c2.67,0,4.07-1.78,4.25-4.25H8.09Z" style="fill: #323232"/>
      </g>
      <g style="isolation: isolate">
        <path d="M17.52.38a1.38,1.38,0,0,1,1.39,1.41,1.39,1.39,0,0,1-2.78,0A1.38,1.38,0,0,1,17.52.38Zm.92,4.49V16H16.6V4.87Z" style="fill: #323232"/>
      </g>
      <g style="isolation: isolate">
        <path d="M30.33,4.87,26.67,16H24.78L21.13,4.87H23l2.71,8.74,2.7-8.74Z" style="fill: #323232"/>
      </g>
      <g style="isolation: isolate">
        <path d="M41.81,10.81H33.67c.11,2,1.12,3.65,3.12,3.65a3.06,3.06,0,0,0,3.09-2.11l1.62.71a4.71,4.71,0,0,1-4.71,3.08c-3.36,0-5-2.75-5-5.72s1.65-5.73,5-5.73,5,2.51,5,5.26Zm-8-1.67h6.1a3.07,3.07,0,0,0-3.09-2.77A3,3,0,0,0,33.78,9.14Z" style="fill: #323232"/>
      </g>
    </g>
    <g style="isolation: isolate">
      <g style="isolation: isolate">
        <path d="M55.12,5.71A3.75,3.75,0,0,0,51.31,3c-2.38,0-4.38,1.67-4.38,5.24s2,5.24,4.38,5.24a3.76,3.76,0,0,0,3.81-2.69l2.57.66c-.73,2.95-3,4.67-6.38,4.67-3.85,0-7.28-2.73-7.28-7.88S47.46.38,51.31.38C54.65.38,57,2.1,57.69,5.05Z" style="fill: #323232"/>
      </g>
      <g style="isolation: isolate">
        <path d="M60.13,16V4.87h2.73v1.8a3.88,3.88,0,0,1,3.28-2,4.59,4.59,0,0,1,1.34.22L67,7.44a2.17,2.17,0,0,0-1.14-.3c-1.58,0-3,1.29-3,4.88V16Z" style="fill: #323232"/>
      </g>
      <g style="isolation: isolate">
        <path d="M71.4,4.87l2.57,7,2.42-6.95h2.73L73.4,20.45H70.76l1.91-5.19-4-10.39Z" style="fill: #323232"/>
      </g>
      <g style="isolation: isolate">
        <path d="M86.15,16.14A3.64,3.64,0,0,1,83.47,15v5.5H80.74V4.87h2.73V6a3.15,3.15,0,0,1,2.68-1.32c3.35,0,5.06,2.31,5.06,5.73S89.5,16.14,86.15,16.14ZM85.78,7c-1.43,0-2.55,1.18-2.55,3.39s1.12,3.38,2.55,3.38,2.57-1.18,2.57-3.38S87.21,7,85.78,7Z" style="fill: #323232"/>
      </g>
      <g style="isolation: isolate">
        <path d="M100.2,15.74a4.16,4.16,0,0,1-1.81.4c-2.51,0-4.07-1.35-4.07-4.1V7.2H92.61V4.87h1.71V2.1L97.05.38V4.87H100V7.2H97.05V12c0,1.36.53,1.8,1.45,1.8a2.05,2.05,0,0,0,1.06-.26Z" style="fill: #323232"/>
      </g>
      <g style="isolation: isolate">
        <path d="M107.3,4.69a5.38,5.38,0,0,1,5.63,5.73,5.63,5.63,0,1,1-11.26,0A5.38,5.38,0,0,1,107.3,4.69Zm0,9.11c1.76,0,2.77-1.56,2.77-3.38S109.06,7,107.3,7s-2.77,1.56-2.77,3.39S105.54,13.8,107.3,13.8Z" style="fill: #323232"/>
      </g>
    </g>
  </g>
</svg>
