<svg id="instagram-icon" xmlns="http://www.w3.org/2000/svg" width="18.15" height="18.15" viewBox="0 0 18.15 18.15">
  <title>instagram</title>
  <path d="M18.07,2.7V15.45a2.62,2.62,0,0,1-2.62,2.62H2.7A2.62,2.62,0,0,1,.07,15.45V2.7A2.63,2.63,0,0,1,2.7.07H15.45A2.62,2.62,0,0,1,18.07,2.7ZM16.2,8h-2a5.19,5.19,0,0,1,.11,1.12,5.25,5.25,0,1,1-10.49,0A5.19,5.19,0,0,1,3.94,8H2v7.87a.37.37,0,0,0,.37.38h13.5a.37.37,0,0,0,.38-.38ZM5.7,9.07A3.38,3.38,0,1,0,9.07,5.7,3.37,3.37,0,0,0,5.7,9.07ZM16.2,2.32A.37.37,0,0,0,15.82,2H13.57a.36.36,0,0,0-.37.37V4.57a.37.37,0,0,0,.37.38h2.25a.37.37,0,0,0,.38-.38Z"/>
</svg>
