<svg id="reddit-icon" xmlns="http://www.w3.org/2000/svg" width="18.15" height="18.15" viewBox="0 0 18.15 18.15">
  <title>reddit</title>
  <g id="Reddit">
    <path id="Head" d="M18.15,8.91A2.05,2.05,0,0,0,14.7,7.4,10.24,10.24,0,0,0,9.52,5.86l1.11-3.38,2.91.68a1.71,1.71,0,1,0,.14-.66l-3.2-.75h0l-.29-.07L8.8,5.86A10.35,10.35,0,0,0,3.42,7.37a2.08,2.08,0,0,0-1.37-.52A2.06,2.06,0,0,0,1,10.66a3.08,3.08,0,0,0,0,.61c0,3,3.63,5.41,8.11,5.41H9c4.47,0,8.11-2.43,8.11-5.41a3.56,3.56,0,0,0,0-.57A2.06,2.06,0,0,0,18.15,8.91ZM1.6,11.27a3.39,3.39,0,0,1,.07-.64h0a.68.68,0,0,0,0-.14A4.42,4.42,0,0,1,3.49,8.12.3.3,0,0,0,3.62,8,9.82,9.82,0,0,1,9,6.53a9.8,9.8,0,0,1,5.45,1.52.33.33,0,0,0,.15.11,4.35,4.35,0,0,1,1.74,2.35.32.32,0,0,0,0,.14,3.26,3.26,0,0,1,.06.62C16.47,13.88,13.14,16,9,16S1.6,13.88,1.6,11.27ZM2.84,7.78A5,5,0,0,0,1.17,10,1.37,1.37,0,0,1,2.84,7.78ZM16.93,10A5.14,5.14,0,0,0,15.27,7.8h0a1.44,1.44,0,0,1,.82-.27A1.38,1.38,0,0,1,16.93,10ZM14.22,3.16a1,1,0,1,1,1,1A1,1,0,0,1,14.22,3.16Z"/>
    <path id="Mouth" d="M11.52,13.36a3.37,3.37,0,0,1-2.45.71,3.34,3.34,0,0,1-2.44-.71.34.34,0,0,0-.48.48,4,4,0,0,0,2.92.91h0A4,4,0,0,0,12,13.84a.34.34,0,0,0-.48-.48Z"/>
    <path id="Eyes" d="M11.82,9a1.28,1.28,0,0,0-1.27,1.27,1.27,1.27,0,0,0,1.27,1.25,1.24,1.24,0,0,0,1.25-1.25A1.27,1.27,0,0,0,11.82,9ZM6.34,9a1.28,1.28,0,0,0-1.27,1.27,1.27,1.27,0,0,0,1.27,1.25A1.25,1.25,0,0,0,7.6,10.28,1.27,1.27,0,0,0,6.34,9Z"/>
  </g>
</svg>
