<svg id="twitter-icon" xmlns="http://www.w3.org/2000/svg" width="18.15" height="18.15" viewBox="0 0 18.15 18.15">
  <title>twitter</title>
  <path d="M16.24,5.4v.48A10.43,10.43,0,0,1,5.74,16.39,10.36,10.36,0,0,1,.07,14.88,5.3,5.3,0,0,0,1,15,7.45,7.45,0,0,0,5.53,13.2,3.67,3.67,0,0,1,2.1,10.63a3.82,3.82,0,0,0,.68.07,3.64,3.64,0,0,0,1-.13A3.7,3.7,0,0,1,.8,7v0a3.69,3.69,0,0,0,1.67.46A3.68,3.68,0,0,1,.82,4.3a3.58,3.58,0,0,1,.5-1.79A10.53,10.53,0,0,0,8.93,6.3a3.49,3.49,0,0,1-.08-.86,3.68,3.68,0,0,1,3.68-3.68,3.82,3.82,0,0,1,2.71,1.16A7.46,7.46,0,0,0,17.57,2a3.62,3.62,0,0,1-1.62,2,6.88,6.88,0,0,0,2.12-.59A7.44,7.44,0,0,1,16.24,5.4Z"/>
</svg>
