<svg id="vimeo-icon" xmlns="http://www.w3.org/2000/svg" width="18.15" height="18.15" viewBox="0 0 18.15 18.15">
  <title>vimeo</title>
  <g id="Page-1">
    <g id="Homepage">
      <g id="Footer">
        <g id="Contact">
          <g id="Instagram-Facebook-t" style="isolation: isolate">
            <g style="isolation: isolate">
              <path d="M10.58,5.32A5.3,5.3,0,0,1,15.45,1.2c1.5,0,2.62,1.2,2.62,3C18.07,9.07,11,17,8.53,17c-2.08,0-2.85-2.25-3.21-3.38L3.07,6.45c-.29-.9-.74-1.13-2.25,0L.08,5.53S3.45,1.2,5.7,1.2,8,4.57,8.33,6.45,9.2,11.32,10,11.32,12.83,8,12.83,6.45C12.83,5.32,12.07,4.57,10.58,5.32Z"/>
            </g>
          </g>
        </g>
      </g>
    </g>
  </g>
</svg>
